%TF.GenerationSoftware,KiCad,Pcbnew,8.0.7*%
%TF.CreationDate,2024-12-23T22:44:12-05:00*%
%TF.ProjectId,OverSoon,4f766572-536f-46f6-9e2e-6b696361645f,rev?*%
%TF.SameCoordinates,Original*%
%TF.FileFunction,Drillmap*%
%TF.FilePolarity,Positive*%
%FSLAX45Y45*%
G04 Gerber Fmt 4.5, Leading zero omitted, Abs format (unit mm)*
G04 Created by KiCad (PCBNEW 8.0.7) date 2024-12-23 22:44:12*
%MOMM*%
%LPD*%
G01*
G04 APERTURE LIST*
%ADD10C,0.100000*%
%ADD11C,0.200000*%
G04 APERTURE END LIST*
D10*
X17005310Y-9770620D02*
X17005310Y-15120620D01*
X24076650Y-15123820D02*
X24076650Y-9773820D01*
X17105310Y-15220620D02*
G75*
G02*
X17005310Y-15120620I0J100000D01*
G01*
X23976650Y-9673820D02*
G75*
G02*
X24076650Y-9773820I0J-100000D01*
G01*
X17105310Y-15220620D02*
X23976650Y-15223820D01*
X17005310Y-9770620D02*
G75*
G02*
X17105310Y-9670620I100000J0D01*
G01*
X24076650Y-15123820D02*
G75*
G02*
X23976650Y-15223820I-100000J0D01*
G01*
X23976650Y-9673820D02*
X17105310Y-9670620D01*
D11*
D10*
X21773600Y-14538660D02*
X21838600Y-14603660D01*
X21838600Y-14538660D02*
X21773600Y-14603660D01*
X22355260Y-14538660D02*
X22420260Y-14603660D01*
X22420260Y-14538660D02*
X22355260Y-14603660D01*
X21495580Y-10314940D02*
G75*
G02*
X21395580Y-10314940I-50000J0D01*
G01*
X21395580Y-10314940D02*
G75*
G02*
X21495580Y-10314940I50000J0D01*
G01*
X22175580Y-10314940D02*
G75*
G02*
X22075580Y-10314940I-50000J0D01*
G01*
X22075580Y-10314940D02*
G75*
G02*
X22175580Y-10314940I50000J0D01*
G01*
X22963340Y-14008100D02*
G75*
G02*
X22863340Y-14008100I-50000J0D01*
G01*
X22863340Y-14008100D02*
G75*
G02*
X22963340Y-14008100I50000J0D01*
G01*
X23643340Y-14008100D02*
G75*
G02*
X23543340Y-14008100I-50000J0D01*
G01*
X23543340Y-14008100D02*
G75*
G02*
X23643340Y-14008100I50000J0D01*
G01*
D11*
X17261087Y-15540304D02*
X17261087Y-15340304D01*
X17261087Y-15340304D02*
X17308706Y-15340304D01*
X17308706Y-15340304D02*
X17337277Y-15349828D01*
X17337277Y-15349828D02*
X17356325Y-15368875D01*
X17356325Y-15368875D02*
X17365849Y-15387923D01*
X17365849Y-15387923D02*
X17375373Y-15426018D01*
X17375373Y-15426018D02*
X17375373Y-15454589D01*
X17375373Y-15454589D02*
X17365849Y-15492685D01*
X17365849Y-15492685D02*
X17356325Y-15511732D01*
X17356325Y-15511732D02*
X17337277Y-15530780D01*
X17337277Y-15530780D02*
X17308706Y-15540304D01*
X17308706Y-15540304D02*
X17261087Y-15540304D01*
X17461087Y-15540304D02*
X17461087Y-15406970D01*
X17461087Y-15445066D02*
X17470611Y-15426018D01*
X17470611Y-15426018D02*
X17480134Y-15416494D01*
X17480134Y-15416494D02*
X17499182Y-15406970D01*
X17499182Y-15406970D02*
X17518230Y-15406970D01*
X17584896Y-15540304D02*
X17584896Y-15406970D01*
X17584896Y-15340304D02*
X17575373Y-15349828D01*
X17575373Y-15349828D02*
X17584896Y-15359351D01*
X17584896Y-15359351D02*
X17594420Y-15349828D01*
X17594420Y-15349828D02*
X17584896Y-15340304D01*
X17584896Y-15340304D02*
X17584896Y-15359351D01*
X17708706Y-15540304D02*
X17689658Y-15530780D01*
X17689658Y-15530780D02*
X17680134Y-15511732D01*
X17680134Y-15511732D02*
X17680134Y-15340304D01*
X17813468Y-15540304D02*
X17794420Y-15530780D01*
X17794420Y-15530780D02*
X17784896Y-15511732D01*
X17784896Y-15511732D02*
X17784896Y-15340304D01*
X18042039Y-15540304D02*
X18042039Y-15340304D01*
X18042039Y-15340304D02*
X18108706Y-15483161D01*
X18108706Y-15483161D02*
X18175373Y-15340304D01*
X18175373Y-15340304D02*
X18175373Y-15540304D01*
X18356325Y-15540304D02*
X18356325Y-15435542D01*
X18356325Y-15435542D02*
X18346801Y-15416494D01*
X18346801Y-15416494D02*
X18327754Y-15406970D01*
X18327754Y-15406970D02*
X18289658Y-15406970D01*
X18289658Y-15406970D02*
X18270611Y-15416494D01*
X18356325Y-15530780D02*
X18337277Y-15540304D01*
X18337277Y-15540304D02*
X18289658Y-15540304D01*
X18289658Y-15540304D02*
X18270611Y-15530780D01*
X18270611Y-15530780D02*
X18261087Y-15511732D01*
X18261087Y-15511732D02*
X18261087Y-15492685D01*
X18261087Y-15492685D02*
X18270611Y-15473637D01*
X18270611Y-15473637D02*
X18289658Y-15464113D01*
X18289658Y-15464113D02*
X18337277Y-15464113D01*
X18337277Y-15464113D02*
X18356325Y-15454589D01*
X18451563Y-15406970D02*
X18451563Y-15606970D01*
X18451563Y-15416494D02*
X18470611Y-15406970D01*
X18470611Y-15406970D02*
X18508706Y-15406970D01*
X18508706Y-15406970D02*
X18527754Y-15416494D01*
X18527754Y-15416494D02*
X18537277Y-15426018D01*
X18537277Y-15426018D02*
X18546801Y-15445066D01*
X18546801Y-15445066D02*
X18546801Y-15502208D01*
X18546801Y-15502208D02*
X18537277Y-15521256D01*
X18537277Y-15521256D02*
X18527754Y-15530780D01*
X18527754Y-15530780D02*
X18508706Y-15540304D01*
X18508706Y-15540304D02*
X18470611Y-15540304D01*
X18470611Y-15540304D02*
X18451563Y-15530780D01*
X18632515Y-15521256D02*
X18642039Y-15530780D01*
X18642039Y-15530780D02*
X18632515Y-15540304D01*
X18632515Y-15540304D02*
X18622992Y-15530780D01*
X18622992Y-15530780D02*
X18632515Y-15521256D01*
X18632515Y-15521256D02*
X18632515Y-15540304D01*
X18632515Y-15416494D02*
X18642039Y-15426018D01*
X18642039Y-15426018D02*
X18632515Y-15435542D01*
X18632515Y-15435542D02*
X18622992Y-15426018D01*
X18622992Y-15426018D02*
X18632515Y-15416494D01*
X18632515Y-15416494D02*
X18632515Y-15435542D01*
D10*
X16935310Y-15836320D02*
X17000310Y-15901320D01*
X17000310Y-15836320D02*
X16935310Y-15901320D01*
D11*
X17299182Y-15760304D02*
X17318230Y-15760304D01*
X17318230Y-15760304D02*
X17337277Y-15769828D01*
X17337277Y-15769828D02*
X17346801Y-15779351D01*
X17346801Y-15779351D02*
X17356325Y-15798399D01*
X17356325Y-15798399D02*
X17365849Y-15836494D01*
X17365849Y-15836494D02*
X17365849Y-15884113D01*
X17365849Y-15884113D02*
X17356325Y-15922208D01*
X17356325Y-15922208D02*
X17346801Y-15941256D01*
X17346801Y-15941256D02*
X17337277Y-15950780D01*
X17337277Y-15950780D02*
X17318230Y-15960304D01*
X17318230Y-15960304D02*
X17299182Y-15960304D01*
X17299182Y-15960304D02*
X17280134Y-15950780D01*
X17280134Y-15950780D02*
X17270611Y-15941256D01*
X17270611Y-15941256D02*
X17261087Y-15922208D01*
X17261087Y-15922208D02*
X17251563Y-15884113D01*
X17251563Y-15884113D02*
X17251563Y-15836494D01*
X17251563Y-15836494D02*
X17261087Y-15798399D01*
X17261087Y-15798399D02*
X17270611Y-15779351D01*
X17270611Y-15779351D02*
X17280134Y-15769828D01*
X17280134Y-15769828D02*
X17299182Y-15760304D01*
X17451563Y-15941256D02*
X17461087Y-15950780D01*
X17461087Y-15950780D02*
X17451563Y-15960304D01*
X17451563Y-15960304D02*
X17442039Y-15950780D01*
X17442039Y-15950780D02*
X17451563Y-15941256D01*
X17451563Y-15941256D02*
X17451563Y-15960304D01*
X17632515Y-15760304D02*
X17594420Y-15760304D01*
X17594420Y-15760304D02*
X17575373Y-15769828D01*
X17575373Y-15769828D02*
X17565849Y-15779351D01*
X17565849Y-15779351D02*
X17546801Y-15807923D01*
X17546801Y-15807923D02*
X17537277Y-15846018D01*
X17537277Y-15846018D02*
X17537277Y-15922208D01*
X17537277Y-15922208D02*
X17546801Y-15941256D01*
X17546801Y-15941256D02*
X17556325Y-15950780D01*
X17556325Y-15950780D02*
X17575373Y-15960304D01*
X17575373Y-15960304D02*
X17613468Y-15960304D01*
X17613468Y-15960304D02*
X17632515Y-15950780D01*
X17632515Y-15950780D02*
X17642039Y-15941256D01*
X17642039Y-15941256D02*
X17651563Y-15922208D01*
X17651563Y-15922208D02*
X17651563Y-15874589D01*
X17651563Y-15874589D02*
X17642039Y-15855542D01*
X17642039Y-15855542D02*
X17632515Y-15846018D01*
X17632515Y-15846018D02*
X17613468Y-15836494D01*
X17613468Y-15836494D02*
X17575373Y-15836494D01*
X17575373Y-15836494D02*
X17556325Y-15846018D01*
X17556325Y-15846018D02*
X17546801Y-15855542D01*
X17546801Y-15855542D02*
X17537277Y-15874589D01*
X17832515Y-15760304D02*
X17737277Y-15760304D01*
X17737277Y-15760304D02*
X17727754Y-15855542D01*
X17727754Y-15855542D02*
X17737277Y-15846018D01*
X17737277Y-15846018D02*
X17756325Y-15836494D01*
X17756325Y-15836494D02*
X17803944Y-15836494D01*
X17803944Y-15836494D02*
X17822992Y-15846018D01*
X17822992Y-15846018D02*
X17832515Y-15855542D01*
X17832515Y-15855542D02*
X17842039Y-15874589D01*
X17842039Y-15874589D02*
X17842039Y-15922208D01*
X17842039Y-15922208D02*
X17832515Y-15941256D01*
X17832515Y-15941256D02*
X17822992Y-15950780D01*
X17822992Y-15950780D02*
X17803944Y-15960304D01*
X17803944Y-15960304D02*
X17756325Y-15960304D01*
X17756325Y-15960304D02*
X17737277Y-15950780D01*
X17737277Y-15950780D02*
X17727754Y-15941256D01*
X17965849Y-15760304D02*
X17984896Y-15760304D01*
X17984896Y-15760304D02*
X18003944Y-15769828D01*
X18003944Y-15769828D02*
X18013468Y-15779351D01*
X18013468Y-15779351D02*
X18022992Y-15798399D01*
X18022992Y-15798399D02*
X18032515Y-15836494D01*
X18032515Y-15836494D02*
X18032515Y-15884113D01*
X18032515Y-15884113D02*
X18022992Y-15922208D01*
X18022992Y-15922208D02*
X18013468Y-15941256D01*
X18013468Y-15941256D02*
X18003944Y-15950780D01*
X18003944Y-15950780D02*
X17984896Y-15960304D01*
X17984896Y-15960304D02*
X17965849Y-15960304D01*
X17965849Y-15960304D02*
X17946801Y-15950780D01*
X17946801Y-15950780D02*
X17937277Y-15941256D01*
X17937277Y-15941256D02*
X17927754Y-15922208D01*
X17927754Y-15922208D02*
X17918230Y-15884113D01*
X17918230Y-15884113D02*
X17918230Y-15836494D01*
X17918230Y-15836494D02*
X17927754Y-15798399D01*
X17927754Y-15798399D02*
X17937277Y-15779351D01*
X17937277Y-15779351D02*
X17946801Y-15769828D01*
X17946801Y-15769828D02*
X17965849Y-15760304D01*
X18118230Y-15960304D02*
X18118230Y-15826970D01*
X18118230Y-15846018D02*
X18127754Y-15836494D01*
X18127754Y-15836494D02*
X18146801Y-15826970D01*
X18146801Y-15826970D02*
X18175373Y-15826970D01*
X18175373Y-15826970D02*
X18194420Y-15836494D01*
X18194420Y-15836494D02*
X18203944Y-15855542D01*
X18203944Y-15855542D02*
X18203944Y-15960304D01*
X18203944Y-15855542D02*
X18213468Y-15836494D01*
X18213468Y-15836494D02*
X18232515Y-15826970D01*
X18232515Y-15826970D02*
X18261087Y-15826970D01*
X18261087Y-15826970D02*
X18280135Y-15836494D01*
X18280135Y-15836494D02*
X18289658Y-15855542D01*
X18289658Y-15855542D02*
X18289658Y-15960304D01*
X18384896Y-15960304D02*
X18384896Y-15826970D01*
X18384896Y-15846018D02*
X18394420Y-15836494D01*
X18394420Y-15836494D02*
X18413468Y-15826970D01*
X18413468Y-15826970D02*
X18442039Y-15826970D01*
X18442039Y-15826970D02*
X18461087Y-15836494D01*
X18461087Y-15836494D02*
X18470611Y-15855542D01*
X18470611Y-15855542D02*
X18470611Y-15960304D01*
X18470611Y-15855542D02*
X18480135Y-15836494D01*
X18480135Y-15836494D02*
X18499182Y-15826970D01*
X18499182Y-15826970D02*
X18527754Y-15826970D01*
X18527754Y-15826970D02*
X18546801Y-15836494D01*
X18546801Y-15836494D02*
X18556325Y-15855542D01*
X18556325Y-15855542D02*
X18556325Y-15960304D01*
X18946801Y-15750780D02*
X18775373Y-16007923D01*
X19203944Y-15760304D02*
X19222992Y-15760304D01*
X19222992Y-15760304D02*
X19242039Y-15769828D01*
X19242039Y-15769828D02*
X19251563Y-15779351D01*
X19251563Y-15779351D02*
X19261087Y-15798399D01*
X19261087Y-15798399D02*
X19270611Y-15836494D01*
X19270611Y-15836494D02*
X19270611Y-15884113D01*
X19270611Y-15884113D02*
X19261087Y-15922208D01*
X19261087Y-15922208D02*
X19251563Y-15941256D01*
X19251563Y-15941256D02*
X19242039Y-15950780D01*
X19242039Y-15950780D02*
X19222992Y-15960304D01*
X19222992Y-15960304D02*
X19203944Y-15960304D01*
X19203944Y-15960304D02*
X19184897Y-15950780D01*
X19184897Y-15950780D02*
X19175373Y-15941256D01*
X19175373Y-15941256D02*
X19165849Y-15922208D01*
X19165849Y-15922208D02*
X19156325Y-15884113D01*
X19156325Y-15884113D02*
X19156325Y-15836494D01*
X19156325Y-15836494D02*
X19165849Y-15798399D01*
X19165849Y-15798399D02*
X19175373Y-15779351D01*
X19175373Y-15779351D02*
X19184897Y-15769828D01*
X19184897Y-15769828D02*
X19203944Y-15760304D01*
X19356325Y-15941256D02*
X19365849Y-15950780D01*
X19365849Y-15950780D02*
X19356325Y-15960304D01*
X19356325Y-15960304D02*
X19346801Y-15950780D01*
X19346801Y-15950780D02*
X19356325Y-15941256D01*
X19356325Y-15941256D02*
X19356325Y-15960304D01*
X19489658Y-15760304D02*
X19508706Y-15760304D01*
X19508706Y-15760304D02*
X19527754Y-15769828D01*
X19527754Y-15769828D02*
X19537278Y-15779351D01*
X19537278Y-15779351D02*
X19546801Y-15798399D01*
X19546801Y-15798399D02*
X19556325Y-15836494D01*
X19556325Y-15836494D02*
X19556325Y-15884113D01*
X19556325Y-15884113D02*
X19546801Y-15922208D01*
X19546801Y-15922208D02*
X19537278Y-15941256D01*
X19537278Y-15941256D02*
X19527754Y-15950780D01*
X19527754Y-15950780D02*
X19508706Y-15960304D01*
X19508706Y-15960304D02*
X19489658Y-15960304D01*
X19489658Y-15960304D02*
X19470611Y-15950780D01*
X19470611Y-15950780D02*
X19461087Y-15941256D01*
X19461087Y-15941256D02*
X19451563Y-15922208D01*
X19451563Y-15922208D02*
X19442039Y-15884113D01*
X19442039Y-15884113D02*
X19442039Y-15836494D01*
X19442039Y-15836494D02*
X19451563Y-15798399D01*
X19451563Y-15798399D02*
X19461087Y-15779351D01*
X19461087Y-15779351D02*
X19470611Y-15769828D01*
X19470611Y-15769828D02*
X19489658Y-15760304D01*
X19632516Y-15779351D02*
X19642039Y-15769828D01*
X19642039Y-15769828D02*
X19661087Y-15760304D01*
X19661087Y-15760304D02*
X19708706Y-15760304D01*
X19708706Y-15760304D02*
X19727754Y-15769828D01*
X19727754Y-15769828D02*
X19737278Y-15779351D01*
X19737278Y-15779351D02*
X19746801Y-15798399D01*
X19746801Y-15798399D02*
X19746801Y-15817447D01*
X19746801Y-15817447D02*
X19737278Y-15846018D01*
X19737278Y-15846018D02*
X19622992Y-15960304D01*
X19622992Y-15960304D02*
X19746801Y-15960304D01*
X19927754Y-15760304D02*
X19832516Y-15760304D01*
X19832516Y-15760304D02*
X19822992Y-15855542D01*
X19822992Y-15855542D02*
X19832516Y-15846018D01*
X19832516Y-15846018D02*
X19851563Y-15836494D01*
X19851563Y-15836494D02*
X19899182Y-15836494D01*
X19899182Y-15836494D02*
X19918230Y-15846018D01*
X19918230Y-15846018D02*
X19927754Y-15855542D01*
X19927754Y-15855542D02*
X19937278Y-15874589D01*
X19937278Y-15874589D02*
X19937278Y-15922208D01*
X19937278Y-15922208D02*
X19927754Y-15941256D01*
X19927754Y-15941256D02*
X19918230Y-15950780D01*
X19918230Y-15950780D02*
X19899182Y-15960304D01*
X19899182Y-15960304D02*
X19851563Y-15960304D01*
X19851563Y-15960304D02*
X19832516Y-15950780D01*
X19832516Y-15950780D02*
X19822992Y-15941256D01*
X20108706Y-15760304D02*
X20070611Y-15760304D01*
X20070611Y-15760304D02*
X20051563Y-15769828D01*
X20051563Y-15769828D02*
X20042039Y-15779351D01*
X20042039Y-15779351D02*
X20022992Y-15807923D01*
X20022992Y-15807923D02*
X20013468Y-15846018D01*
X20013468Y-15846018D02*
X20013468Y-15922208D01*
X20013468Y-15922208D02*
X20022992Y-15941256D01*
X20022992Y-15941256D02*
X20032516Y-15950780D01*
X20032516Y-15950780D02*
X20051563Y-15960304D01*
X20051563Y-15960304D02*
X20089659Y-15960304D01*
X20089659Y-15960304D02*
X20108706Y-15950780D01*
X20108706Y-15950780D02*
X20118230Y-15941256D01*
X20118230Y-15941256D02*
X20127754Y-15922208D01*
X20127754Y-15922208D02*
X20127754Y-15874589D01*
X20127754Y-15874589D02*
X20118230Y-15855542D01*
X20118230Y-15855542D02*
X20108706Y-15846018D01*
X20108706Y-15846018D02*
X20089659Y-15836494D01*
X20089659Y-15836494D02*
X20051563Y-15836494D01*
X20051563Y-15836494D02*
X20032516Y-15846018D01*
X20032516Y-15846018D02*
X20022992Y-15855542D01*
X20022992Y-15855542D02*
X20013468Y-15874589D01*
X20203944Y-15760304D02*
X20203944Y-15798399D01*
X20280135Y-15760304D02*
X20280135Y-15798399D01*
X20575373Y-16036494D02*
X20565849Y-16026970D01*
X20565849Y-16026970D02*
X20546801Y-15998399D01*
X20546801Y-15998399D02*
X20537278Y-15979351D01*
X20537278Y-15979351D02*
X20527754Y-15950780D01*
X20527754Y-15950780D02*
X20518230Y-15903161D01*
X20518230Y-15903161D02*
X20518230Y-15865066D01*
X20518230Y-15865066D02*
X20527754Y-15817447D01*
X20527754Y-15817447D02*
X20537278Y-15788875D01*
X20537278Y-15788875D02*
X20546801Y-15769828D01*
X20546801Y-15769828D02*
X20565849Y-15741256D01*
X20565849Y-15741256D02*
X20575373Y-15731732D01*
X20642040Y-15779351D02*
X20651563Y-15769828D01*
X20651563Y-15769828D02*
X20670611Y-15760304D01*
X20670611Y-15760304D02*
X20718230Y-15760304D01*
X20718230Y-15760304D02*
X20737278Y-15769828D01*
X20737278Y-15769828D02*
X20746801Y-15779351D01*
X20746801Y-15779351D02*
X20756325Y-15798399D01*
X20756325Y-15798399D02*
X20756325Y-15817447D01*
X20756325Y-15817447D02*
X20746801Y-15846018D01*
X20746801Y-15846018D02*
X20632516Y-15960304D01*
X20632516Y-15960304D02*
X20756325Y-15960304D01*
X20994421Y-15960304D02*
X20994421Y-15760304D01*
X21080135Y-15960304D02*
X21080135Y-15855542D01*
X21080135Y-15855542D02*
X21070611Y-15836494D01*
X21070611Y-15836494D02*
X21051563Y-15826970D01*
X21051563Y-15826970D02*
X21022992Y-15826970D01*
X21022992Y-15826970D02*
X21003944Y-15836494D01*
X21003944Y-15836494D02*
X20994421Y-15846018D01*
X21203944Y-15960304D02*
X21184897Y-15950780D01*
X21184897Y-15950780D02*
X21175373Y-15941256D01*
X21175373Y-15941256D02*
X21165849Y-15922208D01*
X21165849Y-15922208D02*
X21165849Y-15865066D01*
X21165849Y-15865066D02*
X21175373Y-15846018D01*
X21175373Y-15846018D02*
X21184897Y-15836494D01*
X21184897Y-15836494D02*
X21203944Y-15826970D01*
X21203944Y-15826970D02*
X21232516Y-15826970D01*
X21232516Y-15826970D02*
X21251563Y-15836494D01*
X21251563Y-15836494D02*
X21261087Y-15846018D01*
X21261087Y-15846018D02*
X21270611Y-15865066D01*
X21270611Y-15865066D02*
X21270611Y-15922208D01*
X21270611Y-15922208D02*
X21261087Y-15941256D01*
X21261087Y-15941256D02*
X21251563Y-15950780D01*
X21251563Y-15950780D02*
X21232516Y-15960304D01*
X21232516Y-15960304D02*
X21203944Y-15960304D01*
X21384897Y-15960304D02*
X21365849Y-15950780D01*
X21365849Y-15950780D02*
X21356325Y-15931732D01*
X21356325Y-15931732D02*
X21356325Y-15760304D01*
X21537278Y-15950780D02*
X21518230Y-15960304D01*
X21518230Y-15960304D02*
X21480135Y-15960304D01*
X21480135Y-15960304D02*
X21461087Y-15950780D01*
X21461087Y-15950780D02*
X21451563Y-15931732D01*
X21451563Y-15931732D02*
X21451563Y-15855542D01*
X21451563Y-15855542D02*
X21461087Y-15836494D01*
X21461087Y-15836494D02*
X21480135Y-15826970D01*
X21480135Y-15826970D02*
X21518230Y-15826970D01*
X21518230Y-15826970D02*
X21537278Y-15836494D01*
X21537278Y-15836494D02*
X21546802Y-15855542D01*
X21546802Y-15855542D02*
X21546802Y-15874589D01*
X21546802Y-15874589D02*
X21451563Y-15893637D01*
X21622992Y-15950780D02*
X21642040Y-15960304D01*
X21642040Y-15960304D02*
X21680135Y-15960304D01*
X21680135Y-15960304D02*
X21699183Y-15950780D01*
X21699183Y-15950780D02*
X21708706Y-15931732D01*
X21708706Y-15931732D02*
X21708706Y-15922208D01*
X21708706Y-15922208D02*
X21699183Y-15903161D01*
X21699183Y-15903161D02*
X21680135Y-15893637D01*
X21680135Y-15893637D02*
X21651563Y-15893637D01*
X21651563Y-15893637D02*
X21632516Y-15884113D01*
X21632516Y-15884113D02*
X21622992Y-15865066D01*
X21622992Y-15865066D02*
X21622992Y-15855542D01*
X21622992Y-15855542D02*
X21632516Y-15836494D01*
X21632516Y-15836494D02*
X21651563Y-15826970D01*
X21651563Y-15826970D02*
X21680135Y-15826970D01*
X21680135Y-15826970D02*
X21699183Y-15836494D01*
X21775373Y-16036494D02*
X21784897Y-16026970D01*
X21784897Y-16026970D02*
X21803944Y-15998399D01*
X21803944Y-15998399D02*
X21813468Y-15979351D01*
X21813468Y-15979351D02*
X21822992Y-15950780D01*
X21822992Y-15950780D02*
X21832516Y-15903161D01*
X21832516Y-15903161D02*
X21832516Y-15865066D01*
X21832516Y-15865066D02*
X21822992Y-15817447D01*
X21822992Y-15817447D02*
X21813468Y-15788875D01*
X21813468Y-15788875D02*
X21803944Y-15769828D01*
X21803944Y-15769828D02*
X21784897Y-15741256D01*
X21784897Y-15741256D02*
X21775373Y-15731732D01*
X22137278Y-16036494D02*
X22127754Y-16026970D01*
X22127754Y-16026970D02*
X22108706Y-15998399D01*
X22108706Y-15998399D02*
X22099183Y-15979351D01*
X22099183Y-15979351D02*
X22089659Y-15950780D01*
X22089659Y-15950780D02*
X22080135Y-15903161D01*
X22080135Y-15903161D02*
X22080135Y-15865066D01*
X22080135Y-15865066D02*
X22089659Y-15817447D01*
X22089659Y-15817447D02*
X22099183Y-15788875D01*
X22099183Y-15788875D02*
X22108706Y-15769828D01*
X22108706Y-15769828D02*
X22127754Y-15741256D01*
X22127754Y-15741256D02*
X22137278Y-15731732D01*
X22213468Y-15826970D02*
X22213468Y-15960304D01*
X22213468Y-15846018D02*
X22222992Y-15836494D01*
X22222992Y-15836494D02*
X22242040Y-15826970D01*
X22242040Y-15826970D02*
X22270611Y-15826970D01*
X22270611Y-15826970D02*
X22289659Y-15836494D01*
X22289659Y-15836494D02*
X22299183Y-15855542D01*
X22299183Y-15855542D02*
X22299183Y-15960304D01*
X22422992Y-15960304D02*
X22403944Y-15950780D01*
X22403944Y-15950780D02*
X22394421Y-15941256D01*
X22394421Y-15941256D02*
X22384897Y-15922208D01*
X22384897Y-15922208D02*
X22384897Y-15865066D01*
X22384897Y-15865066D02*
X22394421Y-15846018D01*
X22394421Y-15846018D02*
X22403944Y-15836494D01*
X22403944Y-15836494D02*
X22422992Y-15826970D01*
X22422992Y-15826970D02*
X22451563Y-15826970D01*
X22451563Y-15826970D02*
X22470611Y-15836494D01*
X22470611Y-15836494D02*
X22480135Y-15846018D01*
X22480135Y-15846018D02*
X22489659Y-15865066D01*
X22489659Y-15865066D02*
X22489659Y-15922208D01*
X22489659Y-15922208D02*
X22480135Y-15941256D01*
X22480135Y-15941256D02*
X22470611Y-15950780D01*
X22470611Y-15950780D02*
X22451563Y-15960304D01*
X22451563Y-15960304D02*
X22422992Y-15960304D01*
X22546802Y-15826970D02*
X22622992Y-15826970D01*
X22575373Y-15760304D02*
X22575373Y-15931732D01*
X22575373Y-15931732D02*
X22584897Y-15950780D01*
X22584897Y-15950780D02*
X22603944Y-15960304D01*
X22603944Y-15960304D02*
X22622992Y-15960304D01*
X22842040Y-15826970D02*
X22842040Y-16026970D01*
X22842040Y-15836494D02*
X22861087Y-15826970D01*
X22861087Y-15826970D02*
X22899183Y-15826970D01*
X22899183Y-15826970D02*
X22918230Y-15836494D01*
X22918230Y-15836494D02*
X22927754Y-15846018D01*
X22927754Y-15846018D02*
X22937278Y-15865066D01*
X22937278Y-15865066D02*
X22937278Y-15922208D01*
X22937278Y-15922208D02*
X22927754Y-15941256D01*
X22927754Y-15941256D02*
X22918230Y-15950780D01*
X22918230Y-15950780D02*
X22899183Y-15960304D01*
X22899183Y-15960304D02*
X22861087Y-15960304D01*
X22861087Y-15960304D02*
X22842040Y-15950780D01*
X23051563Y-15960304D02*
X23032516Y-15950780D01*
X23032516Y-15950780D02*
X23022992Y-15931732D01*
X23022992Y-15931732D02*
X23022992Y-15760304D01*
X23213468Y-15960304D02*
X23213468Y-15855542D01*
X23213468Y-15855542D02*
X23203944Y-15836494D01*
X23203944Y-15836494D02*
X23184897Y-15826970D01*
X23184897Y-15826970D02*
X23146802Y-15826970D01*
X23146802Y-15826970D02*
X23127754Y-15836494D01*
X23213468Y-15950780D02*
X23194421Y-15960304D01*
X23194421Y-15960304D02*
X23146802Y-15960304D01*
X23146802Y-15960304D02*
X23127754Y-15950780D01*
X23127754Y-15950780D02*
X23118230Y-15931732D01*
X23118230Y-15931732D02*
X23118230Y-15912685D01*
X23118230Y-15912685D02*
X23127754Y-15893637D01*
X23127754Y-15893637D02*
X23146802Y-15884113D01*
X23146802Y-15884113D02*
X23194421Y-15884113D01*
X23194421Y-15884113D02*
X23213468Y-15874589D01*
X23280135Y-15826970D02*
X23356325Y-15826970D01*
X23308706Y-15760304D02*
X23308706Y-15931732D01*
X23308706Y-15931732D02*
X23318230Y-15950780D01*
X23318230Y-15950780D02*
X23337278Y-15960304D01*
X23337278Y-15960304D02*
X23356325Y-15960304D01*
X23499183Y-15950780D02*
X23480135Y-15960304D01*
X23480135Y-15960304D02*
X23442040Y-15960304D01*
X23442040Y-15960304D02*
X23422992Y-15950780D01*
X23422992Y-15950780D02*
X23413468Y-15931732D01*
X23413468Y-15931732D02*
X23413468Y-15855542D01*
X23413468Y-15855542D02*
X23422992Y-15836494D01*
X23422992Y-15836494D02*
X23442040Y-15826970D01*
X23442040Y-15826970D02*
X23480135Y-15826970D01*
X23480135Y-15826970D02*
X23499183Y-15836494D01*
X23499183Y-15836494D02*
X23508706Y-15855542D01*
X23508706Y-15855542D02*
X23508706Y-15874589D01*
X23508706Y-15874589D02*
X23413468Y-15893637D01*
X23680135Y-15960304D02*
X23680135Y-15760304D01*
X23680135Y-15950780D02*
X23661087Y-15960304D01*
X23661087Y-15960304D02*
X23622992Y-15960304D01*
X23622992Y-15960304D02*
X23603944Y-15950780D01*
X23603944Y-15950780D02*
X23594421Y-15941256D01*
X23594421Y-15941256D02*
X23584897Y-15922208D01*
X23584897Y-15922208D02*
X23584897Y-15865066D01*
X23584897Y-15865066D02*
X23594421Y-15846018D01*
X23594421Y-15846018D02*
X23603944Y-15836494D01*
X23603944Y-15836494D02*
X23622992Y-15826970D01*
X23622992Y-15826970D02*
X23661087Y-15826970D01*
X23661087Y-15826970D02*
X23680135Y-15836494D01*
X23756325Y-16036494D02*
X23765849Y-16026970D01*
X23765849Y-16026970D02*
X23784897Y-15998399D01*
X23784897Y-15998399D02*
X23794421Y-15979351D01*
X23794421Y-15979351D02*
X23803944Y-15950780D01*
X23803944Y-15950780D02*
X23813468Y-15903161D01*
X23813468Y-15903161D02*
X23813468Y-15865066D01*
X23813468Y-15865066D02*
X23803944Y-15817447D01*
X23803944Y-15817447D02*
X23794421Y-15788875D01*
X23794421Y-15788875D02*
X23784897Y-15769828D01*
X23784897Y-15769828D02*
X23765849Y-15741256D01*
X23765849Y-15741256D02*
X23756325Y-15731732D01*
D10*
X17000310Y-16132820D02*
G75*
G02*
X16900310Y-16132820I-50000J0D01*
G01*
X16900310Y-16132820D02*
G75*
G02*
X17000310Y-16132820I50000J0D01*
G01*
D11*
X17365849Y-16224304D02*
X17251563Y-16224304D01*
X17308706Y-16224304D02*
X17308706Y-16024304D01*
X17308706Y-16024304D02*
X17289658Y-16052875D01*
X17289658Y-16052875D02*
X17270611Y-16071923D01*
X17270611Y-16071923D02*
X17251563Y-16081447D01*
X17451563Y-16205256D02*
X17461087Y-16214780D01*
X17461087Y-16214780D02*
X17451563Y-16224304D01*
X17451563Y-16224304D02*
X17442039Y-16214780D01*
X17442039Y-16214780D02*
X17451563Y-16205256D01*
X17451563Y-16205256D02*
X17451563Y-16224304D01*
X17584896Y-16024304D02*
X17603944Y-16024304D01*
X17603944Y-16024304D02*
X17622992Y-16033828D01*
X17622992Y-16033828D02*
X17632515Y-16043351D01*
X17632515Y-16043351D02*
X17642039Y-16062399D01*
X17642039Y-16062399D02*
X17651563Y-16100494D01*
X17651563Y-16100494D02*
X17651563Y-16148113D01*
X17651563Y-16148113D02*
X17642039Y-16186208D01*
X17642039Y-16186208D02*
X17632515Y-16205256D01*
X17632515Y-16205256D02*
X17622992Y-16214780D01*
X17622992Y-16214780D02*
X17603944Y-16224304D01*
X17603944Y-16224304D02*
X17584896Y-16224304D01*
X17584896Y-16224304D02*
X17565849Y-16214780D01*
X17565849Y-16214780D02*
X17556325Y-16205256D01*
X17556325Y-16205256D02*
X17546801Y-16186208D01*
X17546801Y-16186208D02*
X17537277Y-16148113D01*
X17537277Y-16148113D02*
X17537277Y-16100494D01*
X17537277Y-16100494D02*
X17546801Y-16062399D01*
X17546801Y-16062399D02*
X17556325Y-16043351D01*
X17556325Y-16043351D02*
X17565849Y-16033828D01*
X17565849Y-16033828D02*
X17584896Y-16024304D01*
X17775373Y-16024304D02*
X17794420Y-16024304D01*
X17794420Y-16024304D02*
X17813468Y-16033828D01*
X17813468Y-16033828D02*
X17822992Y-16043351D01*
X17822992Y-16043351D02*
X17832515Y-16062399D01*
X17832515Y-16062399D02*
X17842039Y-16100494D01*
X17842039Y-16100494D02*
X17842039Y-16148113D01*
X17842039Y-16148113D02*
X17832515Y-16186208D01*
X17832515Y-16186208D02*
X17822992Y-16205256D01*
X17822992Y-16205256D02*
X17813468Y-16214780D01*
X17813468Y-16214780D02*
X17794420Y-16224304D01*
X17794420Y-16224304D02*
X17775373Y-16224304D01*
X17775373Y-16224304D02*
X17756325Y-16214780D01*
X17756325Y-16214780D02*
X17746801Y-16205256D01*
X17746801Y-16205256D02*
X17737277Y-16186208D01*
X17737277Y-16186208D02*
X17727754Y-16148113D01*
X17727754Y-16148113D02*
X17727754Y-16100494D01*
X17727754Y-16100494D02*
X17737277Y-16062399D01*
X17737277Y-16062399D02*
X17746801Y-16043351D01*
X17746801Y-16043351D02*
X17756325Y-16033828D01*
X17756325Y-16033828D02*
X17775373Y-16024304D01*
X17965849Y-16024304D02*
X17984896Y-16024304D01*
X17984896Y-16024304D02*
X18003944Y-16033828D01*
X18003944Y-16033828D02*
X18013468Y-16043351D01*
X18013468Y-16043351D02*
X18022992Y-16062399D01*
X18022992Y-16062399D02*
X18032515Y-16100494D01*
X18032515Y-16100494D02*
X18032515Y-16148113D01*
X18032515Y-16148113D02*
X18022992Y-16186208D01*
X18022992Y-16186208D02*
X18013468Y-16205256D01*
X18013468Y-16205256D02*
X18003944Y-16214780D01*
X18003944Y-16214780D02*
X17984896Y-16224304D01*
X17984896Y-16224304D02*
X17965849Y-16224304D01*
X17965849Y-16224304D02*
X17946801Y-16214780D01*
X17946801Y-16214780D02*
X17937277Y-16205256D01*
X17937277Y-16205256D02*
X17927754Y-16186208D01*
X17927754Y-16186208D02*
X17918230Y-16148113D01*
X17918230Y-16148113D02*
X17918230Y-16100494D01*
X17918230Y-16100494D02*
X17927754Y-16062399D01*
X17927754Y-16062399D02*
X17937277Y-16043351D01*
X17937277Y-16043351D02*
X17946801Y-16033828D01*
X17946801Y-16033828D02*
X17965849Y-16024304D01*
X18118230Y-16224304D02*
X18118230Y-16090970D01*
X18118230Y-16110018D02*
X18127754Y-16100494D01*
X18127754Y-16100494D02*
X18146801Y-16090970D01*
X18146801Y-16090970D02*
X18175373Y-16090970D01*
X18175373Y-16090970D02*
X18194420Y-16100494D01*
X18194420Y-16100494D02*
X18203944Y-16119542D01*
X18203944Y-16119542D02*
X18203944Y-16224304D01*
X18203944Y-16119542D02*
X18213468Y-16100494D01*
X18213468Y-16100494D02*
X18232515Y-16090970D01*
X18232515Y-16090970D02*
X18261087Y-16090970D01*
X18261087Y-16090970D02*
X18280135Y-16100494D01*
X18280135Y-16100494D02*
X18289658Y-16119542D01*
X18289658Y-16119542D02*
X18289658Y-16224304D01*
X18384896Y-16224304D02*
X18384896Y-16090970D01*
X18384896Y-16110018D02*
X18394420Y-16100494D01*
X18394420Y-16100494D02*
X18413468Y-16090970D01*
X18413468Y-16090970D02*
X18442039Y-16090970D01*
X18442039Y-16090970D02*
X18461087Y-16100494D01*
X18461087Y-16100494D02*
X18470611Y-16119542D01*
X18470611Y-16119542D02*
X18470611Y-16224304D01*
X18470611Y-16119542D02*
X18480135Y-16100494D01*
X18480135Y-16100494D02*
X18499182Y-16090970D01*
X18499182Y-16090970D02*
X18527754Y-16090970D01*
X18527754Y-16090970D02*
X18546801Y-16100494D01*
X18546801Y-16100494D02*
X18556325Y-16119542D01*
X18556325Y-16119542D02*
X18556325Y-16224304D01*
X18946801Y-16014780D02*
X18775373Y-16271923D01*
X19203944Y-16024304D02*
X19222992Y-16024304D01*
X19222992Y-16024304D02*
X19242039Y-16033828D01*
X19242039Y-16033828D02*
X19251563Y-16043351D01*
X19251563Y-16043351D02*
X19261087Y-16062399D01*
X19261087Y-16062399D02*
X19270611Y-16100494D01*
X19270611Y-16100494D02*
X19270611Y-16148113D01*
X19270611Y-16148113D02*
X19261087Y-16186208D01*
X19261087Y-16186208D02*
X19251563Y-16205256D01*
X19251563Y-16205256D02*
X19242039Y-16214780D01*
X19242039Y-16214780D02*
X19222992Y-16224304D01*
X19222992Y-16224304D02*
X19203944Y-16224304D01*
X19203944Y-16224304D02*
X19184897Y-16214780D01*
X19184897Y-16214780D02*
X19175373Y-16205256D01*
X19175373Y-16205256D02*
X19165849Y-16186208D01*
X19165849Y-16186208D02*
X19156325Y-16148113D01*
X19156325Y-16148113D02*
X19156325Y-16100494D01*
X19156325Y-16100494D02*
X19165849Y-16062399D01*
X19165849Y-16062399D02*
X19175373Y-16043351D01*
X19175373Y-16043351D02*
X19184897Y-16033828D01*
X19184897Y-16033828D02*
X19203944Y-16024304D01*
X19356325Y-16205256D02*
X19365849Y-16214780D01*
X19365849Y-16214780D02*
X19356325Y-16224304D01*
X19356325Y-16224304D02*
X19346801Y-16214780D01*
X19346801Y-16214780D02*
X19356325Y-16205256D01*
X19356325Y-16205256D02*
X19356325Y-16224304D01*
X19489658Y-16024304D02*
X19508706Y-16024304D01*
X19508706Y-16024304D02*
X19527754Y-16033828D01*
X19527754Y-16033828D02*
X19537278Y-16043351D01*
X19537278Y-16043351D02*
X19546801Y-16062399D01*
X19546801Y-16062399D02*
X19556325Y-16100494D01*
X19556325Y-16100494D02*
X19556325Y-16148113D01*
X19556325Y-16148113D02*
X19546801Y-16186208D01*
X19546801Y-16186208D02*
X19537278Y-16205256D01*
X19537278Y-16205256D02*
X19527754Y-16214780D01*
X19527754Y-16214780D02*
X19508706Y-16224304D01*
X19508706Y-16224304D02*
X19489658Y-16224304D01*
X19489658Y-16224304D02*
X19470611Y-16214780D01*
X19470611Y-16214780D02*
X19461087Y-16205256D01*
X19461087Y-16205256D02*
X19451563Y-16186208D01*
X19451563Y-16186208D02*
X19442039Y-16148113D01*
X19442039Y-16148113D02*
X19442039Y-16100494D01*
X19442039Y-16100494D02*
X19451563Y-16062399D01*
X19451563Y-16062399D02*
X19461087Y-16043351D01*
X19461087Y-16043351D02*
X19470611Y-16033828D01*
X19470611Y-16033828D02*
X19489658Y-16024304D01*
X19622992Y-16024304D02*
X19746801Y-16024304D01*
X19746801Y-16024304D02*
X19680135Y-16100494D01*
X19680135Y-16100494D02*
X19708706Y-16100494D01*
X19708706Y-16100494D02*
X19727754Y-16110018D01*
X19727754Y-16110018D02*
X19737278Y-16119542D01*
X19737278Y-16119542D02*
X19746801Y-16138589D01*
X19746801Y-16138589D02*
X19746801Y-16186208D01*
X19746801Y-16186208D02*
X19737278Y-16205256D01*
X19737278Y-16205256D02*
X19727754Y-16214780D01*
X19727754Y-16214780D02*
X19708706Y-16224304D01*
X19708706Y-16224304D02*
X19651563Y-16224304D01*
X19651563Y-16224304D02*
X19632516Y-16214780D01*
X19632516Y-16214780D02*
X19622992Y-16205256D01*
X19842039Y-16224304D02*
X19880135Y-16224304D01*
X19880135Y-16224304D02*
X19899182Y-16214780D01*
X19899182Y-16214780D02*
X19908706Y-16205256D01*
X19908706Y-16205256D02*
X19927754Y-16176685D01*
X19927754Y-16176685D02*
X19937278Y-16138589D01*
X19937278Y-16138589D02*
X19937278Y-16062399D01*
X19937278Y-16062399D02*
X19927754Y-16043351D01*
X19927754Y-16043351D02*
X19918230Y-16033828D01*
X19918230Y-16033828D02*
X19899182Y-16024304D01*
X19899182Y-16024304D02*
X19861087Y-16024304D01*
X19861087Y-16024304D02*
X19842039Y-16033828D01*
X19842039Y-16033828D02*
X19832516Y-16043351D01*
X19832516Y-16043351D02*
X19822992Y-16062399D01*
X19822992Y-16062399D02*
X19822992Y-16110018D01*
X19822992Y-16110018D02*
X19832516Y-16129066D01*
X19832516Y-16129066D02*
X19842039Y-16138589D01*
X19842039Y-16138589D02*
X19861087Y-16148113D01*
X19861087Y-16148113D02*
X19899182Y-16148113D01*
X19899182Y-16148113D02*
X19918230Y-16138589D01*
X19918230Y-16138589D02*
X19927754Y-16129066D01*
X19927754Y-16129066D02*
X19937278Y-16110018D01*
X20108706Y-16090970D02*
X20108706Y-16224304D01*
X20061087Y-16014780D02*
X20013468Y-16157637D01*
X20013468Y-16157637D02*
X20137278Y-16157637D01*
X20203944Y-16024304D02*
X20203944Y-16062399D01*
X20280135Y-16024304D02*
X20280135Y-16062399D01*
X20575373Y-16300494D02*
X20565849Y-16290970D01*
X20565849Y-16290970D02*
X20546801Y-16262399D01*
X20546801Y-16262399D02*
X20537278Y-16243351D01*
X20537278Y-16243351D02*
X20527754Y-16214780D01*
X20527754Y-16214780D02*
X20518230Y-16167161D01*
X20518230Y-16167161D02*
X20518230Y-16129066D01*
X20518230Y-16129066D02*
X20527754Y-16081447D01*
X20527754Y-16081447D02*
X20537278Y-16052875D01*
X20537278Y-16052875D02*
X20546801Y-16033828D01*
X20546801Y-16033828D02*
X20565849Y-16005256D01*
X20565849Y-16005256D02*
X20575373Y-15995732D01*
X20737278Y-16090970D02*
X20737278Y-16224304D01*
X20689659Y-16014780D02*
X20642040Y-16157637D01*
X20642040Y-16157637D02*
X20765849Y-16157637D01*
X20994421Y-16224304D02*
X20994421Y-16024304D01*
X21080135Y-16224304D02*
X21080135Y-16119542D01*
X21080135Y-16119542D02*
X21070611Y-16100494D01*
X21070611Y-16100494D02*
X21051563Y-16090970D01*
X21051563Y-16090970D02*
X21022992Y-16090970D01*
X21022992Y-16090970D02*
X21003944Y-16100494D01*
X21003944Y-16100494D02*
X20994421Y-16110018D01*
X21203944Y-16224304D02*
X21184897Y-16214780D01*
X21184897Y-16214780D02*
X21175373Y-16205256D01*
X21175373Y-16205256D02*
X21165849Y-16186208D01*
X21165849Y-16186208D02*
X21165849Y-16129066D01*
X21165849Y-16129066D02*
X21175373Y-16110018D01*
X21175373Y-16110018D02*
X21184897Y-16100494D01*
X21184897Y-16100494D02*
X21203944Y-16090970D01*
X21203944Y-16090970D02*
X21232516Y-16090970D01*
X21232516Y-16090970D02*
X21251563Y-16100494D01*
X21251563Y-16100494D02*
X21261087Y-16110018D01*
X21261087Y-16110018D02*
X21270611Y-16129066D01*
X21270611Y-16129066D02*
X21270611Y-16186208D01*
X21270611Y-16186208D02*
X21261087Y-16205256D01*
X21261087Y-16205256D02*
X21251563Y-16214780D01*
X21251563Y-16214780D02*
X21232516Y-16224304D01*
X21232516Y-16224304D02*
X21203944Y-16224304D01*
X21384897Y-16224304D02*
X21365849Y-16214780D01*
X21365849Y-16214780D02*
X21356325Y-16195732D01*
X21356325Y-16195732D02*
X21356325Y-16024304D01*
X21537278Y-16214780D02*
X21518230Y-16224304D01*
X21518230Y-16224304D02*
X21480135Y-16224304D01*
X21480135Y-16224304D02*
X21461087Y-16214780D01*
X21461087Y-16214780D02*
X21451563Y-16195732D01*
X21451563Y-16195732D02*
X21451563Y-16119542D01*
X21451563Y-16119542D02*
X21461087Y-16100494D01*
X21461087Y-16100494D02*
X21480135Y-16090970D01*
X21480135Y-16090970D02*
X21518230Y-16090970D01*
X21518230Y-16090970D02*
X21537278Y-16100494D01*
X21537278Y-16100494D02*
X21546802Y-16119542D01*
X21546802Y-16119542D02*
X21546802Y-16138589D01*
X21546802Y-16138589D02*
X21451563Y-16157637D01*
X21622992Y-16214780D02*
X21642040Y-16224304D01*
X21642040Y-16224304D02*
X21680135Y-16224304D01*
X21680135Y-16224304D02*
X21699183Y-16214780D01*
X21699183Y-16214780D02*
X21708706Y-16195732D01*
X21708706Y-16195732D02*
X21708706Y-16186208D01*
X21708706Y-16186208D02*
X21699183Y-16167161D01*
X21699183Y-16167161D02*
X21680135Y-16157637D01*
X21680135Y-16157637D02*
X21651563Y-16157637D01*
X21651563Y-16157637D02*
X21632516Y-16148113D01*
X21632516Y-16148113D02*
X21622992Y-16129066D01*
X21622992Y-16129066D02*
X21622992Y-16119542D01*
X21622992Y-16119542D02*
X21632516Y-16100494D01*
X21632516Y-16100494D02*
X21651563Y-16090970D01*
X21651563Y-16090970D02*
X21680135Y-16090970D01*
X21680135Y-16090970D02*
X21699183Y-16100494D01*
X21775373Y-16300494D02*
X21784897Y-16290970D01*
X21784897Y-16290970D02*
X21803944Y-16262399D01*
X21803944Y-16262399D02*
X21813468Y-16243351D01*
X21813468Y-16243351D02*
X21822992Y-16214780D01*
X21822992Y-16214780D02*
X21832516Y-16167161D01*
X21832516Y-16167161D02*
X21832516Y-16129066D01*
X21832516Y-16129066D02*
X21822992Y-16081447D01*
X21822992Y-16081447D02*
X21813468Y-16052875D01*
X21813468Y-16052875D02*
X21803944Y-16033828D01*
X21803944Y-16033828D02*
X21784897Y-16005256D01*
X21784897Y-16005256D02*
X21775373Y-15995732D01*
X22137278Y-16300494D02*
X22127754Y-16290970D01*
X22127754Y-16290970D02*
X22108706Y-16262399D01*
X22108706Y-16262399D02*
X22099183Y-16243351D01*
X22099183Y-16243351D02*
X22089659Y-16214780D01*
X22089659Y-16214780D02*
X22080135Y-16167161D01*
X22080135Y-16167161D02*
X22080135Y-16129066D01*
X22080135Y-16129066D02*
X22089659Y-16081447D01*
X22089659Y-16081447D02*
X22099183Y-16052875D01*
X22099183Y-16052875D02*
X22108706Y-16033828D01*
X22108706Y-16033828D02*
X22127754Y-16005256D01*
X22127754Y-16005256D02*
X22137278Y-15995732D01*
X22213468Y-16090970D02*
X22213468Y-16224304D01*
X22213468Y-16110018D02*
X22222992Y-16100494D01*
X22222992Y-16100494D02*
X22242040Y-16090970D01*
X22242040Y-16090970D02*
X22270611Y-16090970D01*
X22270611Y-16090970D02*
X22289659Y-16100494D01*
X22289659Y-16100494D02*
X22299183Y-16119542D01*
X22299183Y-16119542D02*
X22299183Y-16224304D01*
X22422992Y-16224304D02*
X22403944Y-16214780D01*
X22403944Y-16214780D02*
X22394421Y-16205256D01*
X22394421Y-16205256D02*
X22384897Y-16186208D01*
X22384897Y-16186208D02*
X22384897Y-16129066D01*
X22384897Y-16129066D02*
X22394421Y-16110018D01*
X22394421Y-16110018D02*
X22403944Y-16100494D01*
X22403944Y-16100494D02*
X22422992Y-16090970D01*
X22422992Y-16090970D02*
X22451563Y-16090970D01*
X22451563Y-16090970D02*
X22470611Y-16100494D01*
X22470611Y-16100494D02*
X22480135Y-16110018D01*
X22480135Y-16110018D02*
X22489659Y-16129066D01*
X22489659Y-16129066D02*
X22489659Y-16186208D01*
X22489659Y-16186208D02*
X22480135Y-16205256D01*
X22480135Y-16205256D02*
X22470611Y-16214780D01*
X22470611Y-16214780D02*
X22451563Y-16224304D01*
X22451563Y-16224304D02*
X22422992Y-16224304D01*
X22546802Y-16090970D02*
X22622992Y-16090970D01*
X22575373Y-16024304D02*
X22575373Y-16195732D01*
X22575373Y-16195732D02*
X22584897Y-16214780D01*
X22584897Y-16214780D02*
X22603944Y-16224304D01*
X22603944Y-16224304D02*
X22622992Y-16224304D01*
X22842040Y-16090970D02*
X22842040Y-16290970D01*
X22842040Y-16100494D02*
X22861087Y-16090970D01*
X22861087Y-16090970D02*
X22899183Y-16090970D01*
X22899183Y-16090970D02*
X22918230Y-16100494D01*
X22918230Y-16100494D02*
X22927754Y-16110018D01*
X22927754Y-16110018D02*
X22937278Y-16129066D01*
X22937278Y-16129066D02*
X22937278Y-16186208D01*
X22937278Y-16186208D02*
X22927754Y-16205256D01*
X22927754Y-16205256D02*
X22918230Y-16214780D01*
X22918230Y-16214780D02*
X22899183Y-16224304D01*
X22899183Y-16224304D02*
X22861087Y-16224304D01*
X22861087Y-16224304D02*
X22842040Y-16214780D01*
X23051563Y-16224304D02*
X23032516Y-16214780D01*
X23032516Y-16214780D02*
X23022992Y-16195732D01*
X23022992Y-16195732D02*
X23022992Y-16024304D01*
X23213468Y-16224304D02*
X23213468Y-16119542D01*
X23213468Y-16119542D02*
X23203944Y-16100494D01*
X23203944Y-16100494D02*
X23184897Y-16090970D01*
X23184897Y-16090970D02*
X23146802Y-16090970D01*
X23146802Y-16090970D02*
X23127754Y-16100494D01*
X23213468Y-16214780D02*
X23194421Y-16224304D01*
X23194421Y-16224304D02*
X23146802Y-16224304D01*
X23146802Y-16224304D02*
X23127754Y-16214780D01*
X23127754Y-16214780D02*
X23118230Y-16195732D01*
X23118230Y-16195732D02*
X23118230Y-16176685D01*
X23118230Y-16176685D02*
X23127754Y-16157637D01*
X23127754Y-16157637D02*
X23146802Y-16148113D01*
X23146802Y-16148113D02*
X23194421Y-16148113D01*
X23194421Y-16148113D02*
X23213468Y-16138589D01*
X23280135Y-16090970D02*
X23356325Y-16090970D01*
X23308706Y-16024304D02*
X23308706Y-16195732D01*
X23308706Y-16195732D02*
X23318230Y-16214780D01*
X23318230Y-16214780D02*
X23337278Y-16224304D01*
X23337278Y-16224304D02*
X23356325Y-16224304D01*
X23499183Y-16214780D02*
X23480135Y-16224304D01*
X23480135Y-16224304D02*
X23442040Y-16224304D01*
X23442040Y-16224304D02*
X23422992Y-16214780D01*
X23422992Y-16214780D02*
X23413468Y-16195732D01*
X23413468Y-16195732D02*
X23413468Y-16119542D01*
X23413468Y-16119542D02*
X23422992Y-16100494D01*
X23422992Y-16100494D02*
X23442040Y-16090970D01*
X23442040Y-16090970D02*
X23480135Y-16090970D01*
X23480135Y-16090970D02*
X23499183Y-16100494D01*
X23499183Y-16100494D02*
X23508706Y-16119542D01*
X23508706Y-16119542D02*
X23508706Y-16138589D01*
X23508706Y-16138589D02*
X23413468Y-16157637D01*
X23680135Y-16224304D02*
X23680135Y-16024304D01*
X23680135Y-16214780D02*
X23661087Y-16224304D01*
X23661087Y-16224304D02*
X23622992Y-16224304D01*
X23622992Y-16224304D02*
X23603944Y-16214780D01*
X23603944Y-16214780D02*
X23594421Y-16205256D01*
X23594421Y-16205256D02*
X23584897Y-16186208D01*
X23584897Y-16186208D02*
X23584897Y-16129066D01*
X23584897Y-16129066D02*
X23594421Y-16110018D01*
X23594421Y-16110018D02*
X23603944Y-16100494D01*
X23603944Y-16100494D02*
X23622992Y-16090970D01*
X23622992Y-16090970D02*
X23661087Y-16090970D01*
X23661087Y-16090970D02*
X23680135Y-16100494D01*
X23756325Y-16300494D02*
X23765849Y-16290970D01*
X23765849Y-16290970D02*
X23784897Y-16262399D01*
X23784897Y-16262399D02*
X23794421Y-16243351D01*
X23794421Y-16243351D02*
X23803944Y-16214780D01*
X23803944Y-16214780D02*
X23813468Y-16167161D01*
X23813468Y-16167161D02*
X23813468Y-16129066D01*
X23813468Y-16129066D02*
X23803944Y-16081447D01*
X23803944Y-16081447D02*
X23794421Y-16052875D01*
X23794421Y-16052875D02*
X23784897Y-16033828D01*
X23784897Y-16033828D02*
X23765849Y-16005256D01*
X23765849Y-16005256D02*
X23756325Y-15995732D01*
M02*
