M48
; DRILL file {KiCad 8.0.7} date 2024-12-23T22:44:13-0500
; FORMAT={-:-/ absolute / inch / decimal}
; #@! TF.CreationDate,2024-12-23T22:44:13-05:00
; #@! TF.GenerationSoftware,Kicad,Pcbnew,8.0.7
; #@! TF.FileFunction,Plated,1,4,PTH
FMAT,2
INCH
; #@! TA.AperFunction,Plated,PTH,ViaDrill
T1C0.0157
; #@! TA.AperFunction,Plated,PTH,ComponentDrill
T2C0.0197
; #@! TA.AperFunction,Plated,PTH,ComponentDrill
T3C0.0236
; #@! TA.AperFunction,Plated,PTH,ComponentDrill
T4C0.0394
; #@! TA.AperFunction,Plated,PTH,ComponentDrill
T5C0.0413
%
G90
G05
T1
X6.868Y-5.903
X6.895Y-5.245
X6.923Y-5.697
X6.944Y-5.904
X6.97Y-4.842
X6.97Y-4.948
X6.971Y-4.552
X6.974Y-5.361
X7.015Y-4.692
X7.079Y-5.242
X7.098Y-5.354
X7.16Y-4.759
X7.178Y-4.425
X7.185Y-5.851
X7.197Y-3.989
X7.2Y-4.341
X7.218Y-4.726
X7.23Y-4.931
X7.264Y-5.748
X7.2805Y-5.0705
X7.317Y-4.667
X7.317Y-4.92
X7.351Y-4.326
X7.36Y-4.099
X7.372Y-4.363
X7.402Y-3.873
X7.404Y-4.4275
X7.405Y-5.3
X7.409Y-5.775
X7.4335Y-4.334
X7.441Y-4.099
X7.457Y-4.5
X7.461Y-5.678
X7.522Y-4.205
X7.544Y-5.255
X7.555Y-5.458
X7.578Y-4.955
X7.621Y-3.885
X7.651Y-4.358
X7.653Y-5.131
X7.6815Y-4.798
X7.684Y-4.928
X7.701Y-5.496
X7.702Y-5.207
X7.703Y-4.743
X7.737Y-5.953
X7.82Y-5.867
X7.873Y-5.084
X7.883Y-5.501
X7.888Y-5.206
X7.894Y-5.89
X7.9445Y-5.085
X7.9556Y-4.4908
X7.9815Y-4.209
X8.002Y-4.475
X8.01Y-4.176
X8.032Y-4.501
X8.092Y-5.095
X8.102Y-5.421
X8.131Y-5.089
X8.147Y-5.278
X8.165Y-4.886
X8.201Y-5.254
X8.238Y-4.988
X8.239Y-4.597
X8.248Y-5.359
X8.263Y-5.223
X8.291Y-4.619
X8.291Y-4.943
X8.299Y-5.782
X8.3005Y-5.0085
X8.316Y-4.739
X8.32Y-5.869
X8.33Y-5.413
X8.332Y-4.6579
X8.34Y-4.4284
X8.352Y-4.2254
X8.368Y-4.713
X8.369Y-3.949
X8.376Y-4.175
X8.383Y-4.544
X8.403Y-4.686
X8.431Y-4.302
X8.452Y-4.805
X8.453Y-4.892
X8.46Y-5.351
X8.462Y-5.165
X8.464Y-5.643
X8.48Y-5.537
X8.607Y-5.58
X8.663Y-5.608
X8.709Y-5.586
X8.745Y-4.186
X8.769Y-5.406
X8.82Y-5.605
X8.874Y-5.612
X8.935Y-5.904
X9.102Y-4.258
X9.172Y-5.012
X9.178Y-4.934
X9.305Y-5.79
X9.318Y-4.272
X9.391Y-4.589
X9.397Y-4.644
X9.398Y-5.77
T2
X8.9059Y-4.7067
X8.9059Y-4.7618
X8.9335Y-4.6792
X8.9335Y-4.7343
X8.9335Y-4.7894
X8.9611Y-4.7067
X8.9611Y-4.7618
X8.9886Y-4.6792
X8.9886Y-4.7343
X8.9886Y-4.7894
X9.0162Y-4.7067
X9.0162Y-4.7618
T4
X6.799Y-3.945
X6.799Y-4.045
X6.799Y-4.145
X6.799Y-4.245
X6.799Y-4.345
X6.799Y-4.445
X6.799Y-4.545
X6.799Y-4.645
X6.799Y-4.745
X6.799Y-4.845
X6.799Y-4.945
X6.799Y-5.045
X6.799Y-5.145
X6.799Y-5.245
X6.801Y-5.442
X6.801Y-5.542
X6.801Y-5.642
T5
X9.068Y-5.867
X9.1664Y-5.867
T3
G00X8.529Y-5.6828
M15
G01X8.529Y-5.7261
M16
G05
G00X8.529Y-5.8572
M15
G01X8.529Y-5.8808
M16
G05
G00X8.8692Y-5.6828
M15
G01X8.8692Y-5.7261
M16
G05
G00X8.8692Y-5.8572
M15
G01X8.8692Y-5.8808
M16
G05
M30
