%TF.GenerationSoftware,KiCad,Pcbnew,8.0.7*%
%TF.CreationDate,2024-12-23T22:44:15-05:00*%
%TF.ProjectId,OverSoon,4f766572-536f-46f6-9e2e-6b696361645f,rev?*%
%TF.SameCoordinates,Original*%
%TF.FileFunction,Copper,L3,Inr*%
%TF.FilePolarity,Positive*%
%FSLAX46Y46*%
G04 Gerber Fmt 4.6, Leading zero omitted, Abs format (unit mm)*
G04 Created by KiCad (PCBNEW 8.0.7) date 2024-12-23 22:44:15*
%MOMM*%
%LPD*%
G01*
G04 APERTURE LIST*
%TA.AperFunction,ComponentPad*%
%ADD10R,1.700000X1.700000*%
%TD*%
%TA.AperFunction,ComponentPad*%
%ADD11O,1.700000X1.700000*%
%TD*%
%TA.AperFunction,ComponentPad*%
%ADD12C,1.000000*%
%TD*%
%TA.AperFunction,ComponentPad*%
%ADD13O,1.100000X2.200000*%
%TD*%
%TA.AperFunction,ComponentPad*%
%ADD14O,1.100000X1.700000*%
%TD*%
%TA.AperFunction,ComponentPad*%
%ADD15R,1.575000X1.575000*%
%TD*%
%TA.AperFunction,ComponentPad*%
%ADD16C,1.575000*%
%TD*%
%TA.AperFunction,ViaPad*%
%ADD17C,0.800000*%
%TD*%
G04 APERTURE END LIST*
D10*
%TO.N,unconnected-(U8-T_IRQ-Pad1)*%
%TO.C,U8*%
X172694600Y-100203000D03*
D11*
%TO.N,unconnected-(U8-T_D0-Pad2)*%
X172694600Y-102743000D03*
%TO.N,unconnected-(U8-T_DIN-Pad3)*%
X172694600Y-105283000D03*
%TO.N,unconnected-(U8-T_CS-Pad4)*%
X172694600Y-107823000D03*
%TO.N,unconnected-(U8-T_CLK-Pad5)*%
X172694600Y-110363000D03*
%TO.N,to_MISO*%
X172694600Y-112903000D03*
%TO.N,SCREEN_LED*%
X172694600Y-115443000D03*
%TO.N,SCLK*%
X172694600Y-117983000D03*
%TO.N,to_MOSI*%
X172694600Y-120523000D03*
%TO.N,SCREEN_D{slash}C*%
X172694600Y-123063000D03*
%TO.N,Net-(U8-RESET)*%
X172694600Y-125603000D03*
%TO.N,SCREEN_CS*%
X172694600Y-128143000D03*
%TO.N,GND*%
X172694600Y-130683000D03*
%TO.N,+3V3*%
X172694600Y-133223000D03*
%TD*%
D12*
%TO.N,N/C*%
%TO.C,U7*%
X227610800Y-120950600D03*
X229010800Y-120950600D03*
X226210800Y-120950600D03*
X229010800Y-119550600D03*
X227610800Y-119550600D03*
X226210800Y-119550600D03*
X228310800Y-121650600D03*
X226910800Y-121650600D03*
X228310800Y-120250600D03*
X226910800Y-120250600D03*
X228310800Y-118850600D03*
X226910800Y-118850600D03*
%TD*%
D13*
%TO.N,GND*%
%TO.C,J2*%
X216636600Y-144892600D03*
D14*
X216636600Y-149072600D03*
D13*
X225276600Y-144892600D03*
D14*
X225276600Y-149072600D03*
%TD*%
D15*
%TO.N,GND*%
%TO.C,J1*%
X232827200Y-149021800D03*
D16*
%TO.N,Net-(SW1-B)*%
X230327200Y-149021800D03*
%TD*%
D10*
%TO.N,EX1*%
%TO.C,J4*%
X172745400Y-138226800D03*
D11*
%TO.N,EX2*%
X172745400Y-140766800D03*
%TO.N,EX3*%
X172745400Y-143306800D03*
%TD*%
D17*
%TO.N,VBUS*%
X214884000Y-135915400D03*
X215392000Y-140639800D03*
%TO.N,GND*%
X201789700Y-129159000D03*
X212140602Y-107325596D03*
X186944000Y-104114600D03*
X232968800Y-127304800D03*
X231190800Y-108153200D03*
X222732600Y-137312400D03*
X222123000Y-106324400D03*
X175844200Y-144703800D03*
X198628000Y-149021800D03*
X182499000Y-148615400D03*
X225399600Y-142544800D03*
X180289200Y-135991600D03*
X189407800Y-114300000D03*
X193573400Y-98679000D03*
X238709200Y-146558000D03*
X200355200Y-132232400D03*
X200228200Y-139725400D03*
X191058800Y-106807000D03*
X236347000Y-147066000D03*
X195605400Y-139598400D03*
X214934800Y-131191000D03*
X174447200Y-149936200D03*
X195630800Y-132257800D03*
X211835802Y-112481796D03*
X188010800Y-98374200D03*
X187248800Y-110820200D03*
X191897000Y-138633200D03*
X200507600Y-149606000D03*
X226949000Y-149961600D03*
X179806600Y-133146800D03*
X214985600Y-143332200D03*
X218617800Y-141732000D03*
X212928200Y-115417600D03*
X211328000Y-149072600D03*
X195656200Y-120472200D03*
X209245200Y-126695200D03*
X211632800Y-118310700D03*
%TO.N,+BATT*%
X209880200Y-132664200D03*
X224028000Y-142367000D03*
X210794600Y-146862800D03*
%TO.N,Net-(U2-D)*%
X196519800Y-151206200D03*
X184505600Y-145999200D03*
%TO.N,+3V3*%
X204012800Y-114325400D03*
X182803800Y-101320600D03*
X233121200Y-125323600D03*
X236677200Y-108508800D03*
X176377600Y-149961600D03*
X191617600Y-133477000D03*
X212572600Y-100304600D03*
X210591400Y-125552200D03*
X192481200Y-125857000D03*
X209499200Y-136118600D03*
X188087000Y-134620000D03*
X189001400Y-104114600D03*
X175133000Y-133223000D03*
X195110700Y-121869200D03*
X214147400Y-109270800D03*
X189509400Y-144221200D03*
X212750400Y-106045000D03*
X210591400Y-117322600D03*
X208305400Y-133451600D03*
X199974200Y-129133600D03*
%TO.N,+1V8*%
X184925054Y-128790347D03*
X182880000Y-110261400D03*
X188188600Y-146685000D03*
%TO.N,Net-(U11-~{RESET})*%
X210832700Y-127215900D03*
X209270600Y-116763800D03*
%TO.N,D+*%
X238683800Y-117957600D03*
X213436200Y-119024400D03*
X221208600Y-141884400D03*
%TO.N,D-*%
X212547200Y-119710200D03*
X238531400Y-116560600D03*
X220040200Y-142443200D03*
%TO.N,TMS*%
X202729500Y-106908600D03*
X202072033Y-114067143D03*
%TO.N,TCK*%
X203250800Y-113665000D03*
X203454000Y-106070400D03*
%TO.N,EX1*%
X178181000Y-119176800D03*
%TO.N,EX2*%
X183337200Y-120040400D03*
%TO.N,EX3*%
X183642000Y-125247400D03*
%TO.N,SDA*%
X205790800Y-137693400D03*
X205536800Y-129413000D03*
%TO.N,SCL*%
X206933800Y-134061200D03*
X206527400Y-129260600D03*
%TO.N,ACCEL_CS*%
X194335400Y-110693200D03*
X194386200Y-130327400D03*
%TO.N,GPS_WAKEUP*%
X211226400Y-120370600D03*
X211582000Y-137490200D03*
%TO.N,SCLK*%
X195173600Y-125171200D03*
X185851800Y-124968000D03*
X185851800Y-118541800D03*
X186715400Y-109880400D03*
X207391000Y-124104400D03*
%TO.N,to_MOSI*%
X188061600Y-112457400D03*
X182321200Y-112395000D03*
X181864000Y-120878600D03*
X188810300Y-110083600D03*
%TO.N,MCU_RX*%
X214706200Y-124256800D03*
X214680800Y-122047000D03*
%TO.N,SCREEN_LED*%
X177038000Y-122986800D03*
X177063400Y-115620800D03*
%TO.N,Net-(U8-RESET)*%
X177139600Y-136169400D03*
X177038000Y-125679200D03*
%TD*%
%TA.AperFunction,Conductor*%
%TO.N,+3V3*%
G36*
X238601687Y-98343474D02*
G01*
X238647804Y-98395962D01*
X238659362Y-98447285D01*
X238792067Y-115533121D01*
X238772904Y-115600311D01*
X238720457Y-115646475D01*
X238651378Y-115656955D01*
X238642290Y-115655374D01*
X238626887Y-115652100D01*
X238435913Y-115652100D01*
X238249114Y-115691805D01*
X238074646Y-115769483D01*
X237920145Y-115881735D01*
X237792359Y-116023657D01*
X237696873Y-116189043D01*
X237696870Y-116189050D01*
X237660929Y-116299666D01*
X237637858Y-116370672D01*
X237617896Y-116560600D01*
X237637858Y-116750528D01*
X237637859Y-116750531D01*
X237696870Y-116932149D01*
X237696873Y-116932156D01*
X237792360Y-117097544D01*
X237920147Y-117239466D01*
X237922237Y-117240985D01*
X237923154Y-117242174D01*
X237924976Y-117243814D01*
X237924676Y-117244147D01*
X237964903Y-117296315D01*
X237970881Y-117365928D01*
X237946682Y-117414023D01*
X237948578Y-117415401D01*
X237944759Y-117420656D01*
X237849273Y-117586043D01*
X237849270Y-117586050D01*
X237790259Y-117767668D01*
X237790258Y-117767672D01*
X237770296Y-117957600D01*
X237790258Y-118147528D01*
X237790259Y-118147531D01*
X237849270Y-118329149D01*
X237849273Y-118329156D01*
X237944760Y-118494544D01*
X238016391Y-118574098D01*
X238068338Y-118631792D01*
X238072547Y-118636466D01*
X238227048Y-118748718D01*
X238401512Y-118826394D01*
X238588313Y-118866100D01*
X238694914Y-118866100D01*
X238761953Y-118885785D01*
X238807708Y-118938589D01*
X238818910Y-118989137D01*
X239025148Y-145542271D01*
X239005985Y-145609461D01*
X238953538Y-145655625D01*
X238884459Y-145666105D01*
X238875371Y-145664524D01*
X238804687Y-145649500D01*
X238613713Y-145649500D01*
X238426914Y-145689205D01*
X238252446Y-145766883D01*
X238097945Y-145879135D01*
X237970159Y-146021057D01*
X237874673Y-146186443D01*
X237874670Y-146186450D01*
X237815659Y-146368068D01*
X237815658Y-146368072D01*
X237795696Y-146558000D01*
X237815658Y-146747928D01*
X237815659Y-146747931D01*
X237874670Y-146929549D01*
X237874673Y-146929556D01*
X237970160Y-147094944D01*
X238097947Y-147236866D01*
X238252448Y-147349118D01*
X238426912Y-147426794D01*
X238613713Y-147466500D01*
X238804686Y-147466500D01*
X238804687Y-147466500D01*
X238891109Y-147448130D01*
X238960774Y-147453446D01*
X239016508Y-147495582D01*
X239040614Y-147561162D01*
X239040885Y-147568457D01*
X239063829Y-150522484D01*
X239044666Y-150589674D01*
X238992219Y-150635838D01*
X238939880Y-150647447D01*
X227814448Y-150651680D01*
X227747401Y-150632021D01*
X227701626Y-150579234D01*
X227691656Y-150510080D01*
X227707014Y-150465680D01*
X227730524Y-150424959D01*
X227783527Y-150333156D01*
X227842542Y-150151528D01*
X227862504Y-149961600D01*
X227842542Y-149771672D01*
X227783527Y-149590044D01*
X227688040Y-149424656D01*
X227560253Y-149282734D01*
X227405752Y-149170482D01*
X227231288Y-149092806D01*
X227231286Y-149092805D01*
X227044487Y-149053100D01*
X226853513Y-149053100D01*
X226666714Y-149092805D01*
X226666712Y-149092806D01*
X226509532Y-149162786D01*
X226440285Y-149172070D01*
X226377009Y-149142442D01*
X226339796Y-149083307D01*
X226335100Y-149049506D01*
X226335100Y-149021797D01*
X229026249Y-149021797D01*
X229026249Y-149021802D01*
X229046012Y-149247702D01*
X229046013Y-149247709D01*
X229104704Y-149466746D01*
X229104708Y-149466757D01*
X229169638Y-149606000D01*
X229200543Y-149672276D01*
X229330614Y-149858035D01*
X229490965Y-150018386D01*
X229676724Y-150148457D01*
X229787371Y-150200052D01*
X229882242Y-150244291D01*
X229882244Y-150244291D01*
X229882249Y-150244294D01*
X230101292Y-150302987D01*
X230262654Y-150317104D01*
X230327198Y-150322751D01*
X230327200Y-150322751D01*
X230327202Y-150322751D01*
X230383803Y-150317799D01*
X230553108Y-150302987D01*
X230772151Y-150244294D01*
X230977676Y-150148457D01*
X231163435Y-150018386D01*
X231323786Y-149858035D01*
X231323786Y-149858034D01*
X231327614Y-149854207D01*
X231329373Y-149855966D01*
X231378747Y-149823033D01*
X231448606Y-149821841D01*
X231508020Y-149858607D01*
X231536383Y-149912882D01*
X231537711Y-149918504D01*
X231585773Y-150047358D01*
X231588811Y-150055504D01*
X231676439Y-150172561D01*
X231793496Y-150260189D01*
X231894066Y-150297700D01*
X231928737Y-150310632D01*
X231930499Y-150311289D01*
X231957750Y-150314218D01*
X231991045Y-150317799D01*
X231991062Y-150317800D01*
X233663338Y-150317800D01*
X233663354Y-150317799D01*
X233690392Y-150314891D01*
X233723901Y-150311289D01*
X233725663Y-150310632D01*
X233760334Y-150297700D01*
X233860904Y-150260189D01*
X233977961Y-150172561D01*
X234065589Y-150055504D01*
X234116689Y-149918501D01*
X234121474Y-149873994D01*
X234123199Y-149857954D01*
X234123200Y-149857937D01*
X234123200Y-148185662D01*
X234123199Y-148185645D01*
X234117293Y-148130719D01*
X234116689Y-148125099D01*
X234112288Y-148113300D01*
X234079433Y-148025214D01*
X234065589Y-147988096D01*
X233977961Y-147871039D01*
X233860904Y-147783411D01*
X233723903Y-147732311D01*
X233663354Y-147725800D01*
X233663338Y-147725800D01*
X231991062Y-147725800D01*
X231991045Y-147725800D01*
X231930497Y-147732311D01*
X231930495Y-147732311D01*
X231793495Y-147783411D01*
X231676439Y-147871039D01*
X231588811Y-147988095D01*
X231537709Y-148125100D01*
X231536382Y-148130719D01*
X231501808Y-148191435D01*
X231439896Y-148223820D01*
X231370305Y-148217592D01*
X231329083Y-148187923D01*
X231327614Y-148189393D01*
X231163435Y-148025214D01*
X231110424Y-147988095D01*
X230977676Y-147895143D01*
X230977672Y-147895141D01*
X230772157Y-147799308D01*
X230772146Y-147799304D01*
X230553109Y-147740613D01*
X230553102Y-147740612D01*
X230327202Y-147720849D01*
X230327198Y-147720849D01*
X230101297Y-147740612D01*
X230101290Y-147740613D01*
X229882253Y-147799304D01*
X229882249Y-147799306D01*
X229676725Y-147895143D01*
X229490965Y-148025214D01*
X229490963Y-148025215D01*
X229490960Y-148025218D01*
X229330618Y-148185560D01*
X229330615Y-148185563D01*
X229330614Y-148185565D01*
X229200543Y-148371325D01*
X229157400Y-148463847D01*
X229104707Y-148576847D01*
X229104704Y-148576853D01*
X229046013Y-148795890D01*
X229046012Y-148795897D01*
X229026249Y-149021797D01*
X226335100Y-149021797D01*
X226335100Y-148668346D01*
X226335099Y-148668342D01*
X226309011Y-148537188D01*
X226294423Y-148463847D01*
X226232707Y-148314853D01*
X226214632Y-148271214D01*
X226214627Y-148271205D01*
X226098791Y-148097845D01*
X226098788Y-148097841D01*
X225951358Y-147950411D01*
X225951354Y-147950408D01*
X225777994Y-147834572D01*
X225777985Y-147834567D01*
X225585353Y-147754777D01*
X225585345Y-147754775D01*
X225380857Y-147714100D01*
X225380853Y-147714100D01*
X225172347Y-147714100D01*
X225172342Y-147714100D01*
X224967854Y-147754775D01*
X224967846Y-147754777D01*
X224775214Y-147834567D01*
X224775205Y-147834572D01*
X224601845Y-147950408D01*
X224601841Y-147950411D01*
X224454411Y-148097841D01*
X224454408Y-148097845D01*
X224338572Y-148271205D01*
X224338567Y-148271214D01*
X224258777Y-148463846D01*
X224258775Y-148463854D01*
X224218100Y-148668342D01*
X224218100Y-149476857D01*
X224258775Y-149681345D01*
X224258777Y-149681353D01*
X224338567Y-149873985D01*
X224338572Y-149873994D01*
X224454408Y-150047354D01*
X224454411Y-150047358D01*
X224601841Y-150194788D01*
X224601845Y-150194791D01*
X224775205Y-150310627D01*
X224775214Y-150310632D01*
X224804472Y-150322751D01*
X224967847Y-150390423D01*
X225051806Y-150407123D01*
X225113715Y-150439507D01*
X225148290Y-150500222D01*
X225144551Y-150569992D01*
X225103685Y-150626664D01*
X225038667Y-150652246D01*
X225027661Y-150652740D01*
X216870027Y-150655844D01*
X216802980Y-150636185D01*
X216757205Y-150583398D01*
X216747235Y-150514244D01*
X216776236Y-150450677D01*
X216835000Y-150412880D01*
X216845768Y-150410231D01*
X216945353Y-150390423D01*
X217137988Y-150310631D01*
X217311355Y-150194791D01*
X217458791Y-150047355D01*
X217574631Y-149873988D01*
X217654423Y-149681353D01*
X217695100Y-149476853D01*
X217695100Y-148668347D01*
X217654423Y-148463847D01*
X217592707Y-148314853D01*
X217574632Y-148271214D01*
X217574627Y-148271205D01*
X217458791Y-148097845D01*
X217458788Y-148097841D01*
X217311358Y-147950411D01*
X217311354Y-147950408D01*
X217137994Y-147834572D01*
X217137985Y-147834567D01*
X216945353Y-147754777D01*
X216945345Y-147754775D01*
X216740857Y-147714100D01*
X216740853Y-147714100D01*
X216532347Y-147714100D01*
X216532342Y-147714100D01*
X216327854Y-147754775D01*
X216327846Y-147754777D01*
X216135214Y-147834567D01*
X216135205Y-147834572D01*
X215961845Y-147950408D01*
X215961841Y-147950411D01*
X215814411Y-148097841D01*
X215814408Y-148097845D01*
X215698572Y-148271205D01*
X215698567Y-148271214D01*
X215618777Y-148463846D01*
X215618775Y-148463854D01*
X215578100Y-148668342D01*
X215578100Y-149476857D01*
X215618775Y-149681345D01*
X215618777Y-149681353D01*
X215698567Y-149873985D01*
X215698572Y-149873994D01*
X215814408Y-150047354D01*
X215814411Y-150047358D01*
X215961841Y-150194788D01*
X215961845Y-150194791D01*
X216135205Y-150310627D01*
X216135214Y-150310632D01*
X216164472Y-150322751D01*
X216327847Y-150390423D01*
X216428304Y-150410405D01*
X216490212Y-150442788D01*
X216524787Y-150503503D01*
X216521048Y-150573273D01*
X216480183Y-150629945D01*
X216415165Y-150655527D01*
X216404158Y-150656021D01*
X200953059Y-150661901D01*
X200886012Y-150642242D01*
X200840237Y-150589455D01*
X200830267Y-150520301D01*
X200859268Y-150456734D01*
X200902574Y-150424623D01*
X200964352Y-150397118D01*
X201118853Y-150284866D01*
X201246640Y-150142944D01*
X201342127Y-149977556D01*
X201401142Y-149795928D01*
X201421104Y-149606000D01*
X201401142Y-149416072D01*
X201342127Y-149234444D01*
X201248686Y-149072600D01*
X210414496Y-149072600D01*
X210434458Y-149262528D01*
X210434459Y-149262531D01*
X210493470Y-149444149D01*
X210493473Y-149444156D01*
X210588960Y-149609544D01*
X210716747Y-149751466D01*
X210871248Y-149863718D01*
X211045712Y-149941394D01*
X211232513Y-149981100D01*
X211423487Y-149981100D01*
X211610288Y-149941394D01*
X211784752Y-149863718D01*
X211939253Y-149751466D01*
X212067040Y-149609544D01*
X212162527Y-149444156D01*
X212221542Y-149262528D01*
X212241504Y-149072600D01*
X212221542Y-148882672D01*
X212162527Y-148701044D01*
X212067040Y-148535656D01*
X211939253Y-148393734D01*
X211784752Y-148281482D01*
X211610288Y-148203806D01*
X211610286Y-148203805D01*
X211423487Y-148164100D01*
X211232513Y-148164100D01*
X211045714Y-148203805D01*
X210985347Y-148230682D01*
X210894311Y-148271214D01*
X210871246Y-148281483D01*
X210716745Y-148393735D01*
X210588959Y-148535657D01*
X210493473Y-148701043D01*
X210493470Y-148701050D01*
X210456484Y-148814882D01*
X210434458Y-148882672D01*
X210414496Y-149072600D01*
X201248686Y-149072600D01*
X201246640Y-149069056D01*
X201118853Y-148927134D01*
X200964352Y-148814882D01*
X200789888Y-148737206D01*
X200789886Y-148737205D01*
X200603087Y-148697500D01*
X200412113Y-148697500D01*
X200225314Y-148737205D01*
X200225312Y-148737206D01*
X200093501Y-148795892D01*
X200050846Y-148814883D01*
X199896345Y-148927135D01*
X199768558Y-149069057D01*
X199764738Y-149074316D01*
X199762439Y-149072645D01*
X199720791Y-149112263D01*
X199652168Y-149125403D01*
X199587335Y-149099358D01*
X199546874Y-149042395D01*
X199540783Y-149014948D01*
X199521542Y-148831872D01*
X199462527Y-148650244D01*
X199367040Y-148484856D01*
X199239253Y-148342934D01*
X199084752Y-148230682D01*
X198910288Y-148153006D01*
X198910286Y-148153005D01*
X198723487Y-148113300D01*
X198532513Y-148113300D01*
X198345714Y-148153005D01*
X198345712Y-148153006D01*
X198186661Y-148223820D01*
X198171246Y-148230683D01*
X198016745Y-148342935D01*
X197888959Y-148484857D01*
X197793473Y-148650243D01*
X197793470Y-148650250D01*
X197739978Y-148814882D01*
X197734458Y-148831872D01*
X197714496Y-149021800D01*
X197734458Y-149211728D01*
X197734459Y-149211731D01*
X197793470Y-149393349D01*
X197793473Y-149393356D01*
X197888960Y-149558744D01*
X197991181Y-149672272D01*
X197999357Y-149681353D01*
X198016747Y-149700666D01*
X198171248Y-149812918D01*
X198345712Y-149890594D01*
X198532513Y-149930300D01*
X198723487Y-149930300D01*
X198910288Y-149890594D01*
X199084752Y-149812918D01*
X199239253Y-149700666D01*
X199367040Y-149558744D01*
X199367041Y-149558740D01*
X199370862Y-149553484D01*
X199373198Y-149555181D01*
X199414571Y-149515658D01*
X199483166Y-149502370D01*
X199548055Y-149528277D01*
X199588638Y-149585153D01*
X199594816Y-149612856D01*
X199614058Y-149795928D01*
X199614059Y-149795931D01*
X199673070Y-149977549D01*
X199673073Y-149977556D01*
X199768560Y-150142944D01*
X199896347Y-150284866D01*
X200050848Y-150397118D01*
X200113383Y-150424960D01*
X200166620Y-150470209D01*
X200186942Y-150537057D01*
X200167897Y-150604281D01*
X200115532Y-150650537D01*
X200062995Y-150662239D01*
X197308722Y-150663287D01*
X197241675Y-150643628D01*
X197216526Y-150622260D01*
X197131054Y-150527335D01*
X197124378Y-150522484D01*
X196976552Y-150415082D01*
X196802088Y-150337406D01*
X196802086Y-150337405D01*
X196615287Y-150297700D01*
X196424313Y-150297700D01*
X196237514Y-150337405D01*
X196237512Y-150337406D01*
X196103401Y-150397116D01*
X196063046Y-150415083D01*
X195908547Y-150527334D01*
X195822531Y-150622862D01*
X195763043Y-150659509D01*
X195730429Y-150663888D01*
X175285413Y-150671668D01*
X175218366Y-150652009D01*
X175172591Y-150599222D01*
X175162621Y-150530068D01*
X175183350Y-150478979D01*
X175182991Y-150478772D01*
X175184483Y-150476187D01*
X175185060Y-150474766D01*
X175186228Y-150473156D01*
X175186240Y-150473144D01*
X175281727Y-150307756D01*
X175340742Y-150126128D01*
X175360704Y-149936200D01*
X175340742Y-149746272D01*
X175281727Y-149564644D01*
X175186240Y-149399256D01*
X175058453Y-149257334D01*
X174903952Y-149145082D01*
X174729488Y-149067406D01*
X174729486Y-149067405D01*
X174542687Y-149027700D01*
X174351713Y-149027700D01*
X174164914Y-149067405D01*
X173990446Y-149145083D01*
X173835945Y-149257335D01*
X173708159Y-149399257D01*
X173612673Y-149564643D01*
X173612670Y-149564650D01*
X173568477Y-149700664D01*
X173553658Y-149746272D01*
X173533696Y-149936200D01*
X173553658Y-150126128D01*
X173553659Y-150126131D01*
X173612670Y-150307749D01*
X173612673Y-150307756D01*
X173708158Y-150473141D01*
X173709813Y-150475419D01*
X173710362Y-150476960D01*
X173711409Y-150478772D01*
X173711077Y-150478963D01*
X173733294Y-150541225D01*
X173717470Y-150609279D01*
X173667365Y-150657975D01*
X173609543Y-150672306D01*
X172437282Y-150672752D01*
X172370235Y-150653093D01*
X172324460Y-150600306D01*
X172313236Y-150549119D01*
X172307557Y-148615400D01*
X181585496Y-148615400D01*
X181605458Y-148805328D01*
X181605459Y-148805331D01*
X181664470Y-148986949D01*
X181664473Y-148986956D01*
X181759960Y-149152344D01*
X181845821Y-149247702D01*
X181877363Y-149282734D01*
X181887747Y-149294266D01*
X182042248Y-149406518D01*
X182216712Y-149484194D01*
X182403513Y-149523900D01*
X182594487Y-149523900D01*
X182781288Y-149484194D01*
X182955752Y-149406518D01*
X183110253Y-149294266D01*
X183238040Y-149152344D01*
X183333527Y-148986956D01*
X183392542Y-148805328D01*
X183412504Y-148615400D01*
X183392542Y-148425472D01*
X183333527Y-148243844D01*
X183238040Y-148078456D01*
X183110253Y-147936534D01*
X182955752Y-147824282D01*
X182781288Y-147746606D01*
X182781286Y-147746605D01*
X182594487Y-147706900D01*
X182403513Y-147706900D01*
X182216714Y-147746605D01*
X182042246Y-147824283D01*
X181887745Y-147936535D01*
X181759959Y-148078457D01*
X181664473Y-148243843D01*
X181664470Y-148243850D01*
X181615770Y-148393734D01*
X181605458Y-148425472D01*
X181585496Y-148615400D01*
X172307557Y-148615400D01*
X172299873Y-145999200D01*
X183592096Y-145999200D01*
X183612058Y-146189128D01*
X183612059Y-146189131D01*
X183671070Y-146370749D01*
X183671073Y-146370756D01*
X183766560Y-146536144D01*
X183894347Y-146678066D01*
X184048848Y-146790318D01*
X184223312Y-146867994D01*
X184410113Y-146907700D01*
X184601087Y-146907700D01*
X184787888Y-146867994D01*
X184962352Y-146790318D01*
X185107309Y-146685000D01*
X187275096Y-146685000D01*
X187295058Y-146874928D01*
X187295059Y-146874931D01*
X187354070Y-147056549D01*
X187354073Y-147056556D01*
X187449560Y-147221944D01*
X187577347Y-147363866D01*
X187731848Y-147476118D01*
X187906312Y-147553794D01*
X188093113Y-147593500D01*
X188284087Y-147593500D01*
X188470888Y-147553794D01*
X188645352Y-147476118D01*
X188799853Y-147363866D01*
X188927640Y-147221944D01*
X189023127Y-147056556D01*
X189082142Y-146874928D01*
X189083417Y-146862800D01*
X209881096Y-146862800D01*
X209901058Y-147052728D01*
X209901059Y-147052731D01*
X209960070Y-147234349D01*
X209960073Y-147234356D01*
X210055560Y-147399744D01*
X210183347Y-147541666D01*
X210337848Y-147653918D01*
X210512312Y-147731594D01*
X210699113Y-147771300D01*
X210890087Y-147771300D01*
X211076888Y-147731594D01*
X211251352Y-147653918D01*
X211405853Y-147541666D01*
X211533640Y-147399744D01*
X211629127Y-147234356D01*
X211683830Y-147066000D01*
X235433496Y-147066000D01*
X235453458Y-147255928D01*
X235453459Y-147255931D01*
X235512470Y-147437549D01*
X235512473Y-147437556D01*
X235607960Y-147602944D01*
X235701562Y-147706900D01*
X235731917Y-147740613D01*
X235735747Y-147744866D01*
X235890248Y-147857118D01*
X236064712Y-147934794D01*
X236251513Y-147974500D01*
X236442487Y-147974500D01*
X236629288Y-147934794D01*
X236803752Y-147857118D01*
X236958253Y-147744866D01*
X237086040Y-147602944D01*
X237181527Y-147437556D01*
X237240542Y-147255928D01*
X237260504Y-147066000D01*
X237240542Y-146876072D01*
X237181527Y-146694444D01*
X237086040Y-146529056D01*
X236958253Y-146387134D01*
X236803752Y-146274882D01*
X236629288Y-146197206D01*
X236629286Y-146197205D01*
X236442487Y-146157500D01*
X236251513Y-146157500D01*
X236064714Y-146197205D01*
X235890246Y-146274883D01*
X235735745Y-146387135D01*
X235607959Y-146529057D01*
X235512473Y-146694443D01*
X235512470Y-146694450D01*
X235453459Y-146876068D01*
X235453458Y-146876072D01*
X235433496Y-147066000D01*
X211683830Y-147066000D01*
X211688142Y-147052728D01*
X211708104Y-146862800D01*
X211688142Y-146672872D01*
X211629127Y-146491244D01*
X211533640Y-146325856D01*
X211405853Y-146183934D01*
X211251352Y-146071682D01*
X211076888Y-145994006D01*
X211076886Y-145994005D01*
X210890087Y-145954300D01*
X210699113Y-145954300D01*
X210512314Y-145994005D01*
X210512312Y-145994006D01*
X210351819Y-146065462D01*
X210337846Y-146071683D01*
X210183345Y-146183935D01*
X210055559Y-146325857D01*
X209960073Y-146491243D01*
X209960070Y-146491250D01*
X209938382Y-146558000D01*
X209901058Y-146672872D01*
X209881096Y-146862800D01*
X189083417Y-146862800D01*
X189102104Y-146685000D01*
X189082142Y-146495072D01*
X189023127Y-146313444D01*
X188927640Y-146148056D01*
X188799853Y-146006134D01*
X188645352Y-145893882D01*
X188470888Y-145816206D01*
X188470886Y-145816205D01*
X188284087Y-145776500D01*
X188093113Y-145776500D01*
X187906314Y-145816205D01*
X187906312Y-145816206D01*
X187764971Y-145879135D01*
X187731846Y-145893883D01*
X187577345Y-146006135D01*
X187449559Y-146148057D01*
X187354073Y-146313443D01*
X187354070Y-146313450D01*
X187296300Y-146491250D01*
X187295058Y-146495072D01*
X187275096Y-146685000D01*
X185107309Y-146685000D01*
X185116853Y-146678066D01*
X185244640Y-146536144D01*
X185340127Y-146370756D01*
X185399142Y-146189128D01*
X185419104Y-145999200D01*
X185399142Y-145809272D01*
X185340127Y-145627644D01*
X185244640Y-145462256D01*
X185116853Y-145320334D01*
X184962352Y-145208082D01*
X184787888Y-145130406D01*
X184787886Y-145130405D01*
X184601087Y-145090700D01*
X184410113Y-145090700D01*
X184223314Y-145130405D01*
X184048846Y-145208083D01*
X183894345Y-145320335D01*
X183766559Y-145462257D01*
X183671073Y-145627643D01*
X183671070Y-145627650D01*
X183612059Y-145809268D01*
X183612058Y-145809272D01*
X183592096Y-145999200D01*
X172299873Y-145999200D01*
X172296222Y-144755893D01*
X172311352Y-144703800D01*
X174930696Y-144703800D01*
X174950658Y-144893728D01*
X174950659Y-144893731D01*
X175009670Y-145075349D01*
X175009673Y-145075356D01*
X175105160Y-145240744D01*
X175232947Y-145382666D01*
X175387448Y-145494918D01*
X175561912Y-145572594D01*
X175748713Y-145612300D01*
X175939687Y-145612300D01*
X176126488Y-145572594D01*
X176300952Y-145494918D01*
X176455453Y-145382666D01*
X176583240Y-145240744D01*
X176678727Y-145075356D01*
X176737742Y-144893728D01*
X176757704Y-144703800D01*
X176737742Y-144513872D01*
X176678727Y-144332244D01*
X176583240Y-144166856D01*
X176455453Y-144024934D01*
X176300952Y-143912682D01*
X176126488Y-143835006D01*
X176126486Y-143835005D01*
X175939687Y-143795300D01*
X175748713Y-143795300D01*
X175561914Y-143835005D01*
X175387446Y-143912683D01*
X175232945Y-144024935D01*
X175105159Y-144166857D01*
X175009673Y-144332243D01*
X175009670Y-144332250D01*
X174972064Y-144447991D01*
X174950658Y-144513872D01*
X174930696Y-144703800D01*
X172311352Y-144703800D01*
X172315708Y-144688803D01*
X172368377Y-144642893D01*
X172437506Y-144632747D01*
X172440588Y-144633220D01*
X172632831Y-144665300D01*
X172632832Y-144665300D01*
X172857969Y-144665300D01*
X173080035Y-144628244D01*
X173292974Y-144555142D01*
X173490976Y-144447989D01*
X173668640Y-144309706D01*
X173821122Y-144144068D01*
X173944260Y-143955591D01*
X174034696Y-143749416D01*
X174089964Y-143531168D01*
X174090713Y-143522128D01*
X174106452Y-143332200D01*
X214072096Y-143332200D01*
X214092058Y-143522128D01*
X214092059Y-143522131D01*
X214151070Y-143703749D01*
X214151073Y-143703756D01*
X214246560Y-143869144D01*
X214374347Y-144011066D01*
X214528848Y-144123318D01*
X214703312Y-144200994D01*
X214890113Y-144240700D01*
X215081087Y-144240700D01*
X215267888Y-144200994D01*
X215403666Y-144140541D01*
X215472914Y-144131257D01*
X215536191Y-144160885D01*
X215573404Y-144220020D01*
X215578100Y-144253821D01*
X215578100Y-145546857D01*
X215618775Y-145751345D01*
X215618777Y-145751353D01*
X215698567Y-145943985D01*
X215698572Y-145943994D01*
X215814408Y-146117354D01*
X215814411Y-146117358D01*
X215961841Y-146264788D01*
X215961845Y-146264791D01*
X216135205Y-146380627D01*
X216135214Y-146380632D01*
X216150914Y-146387135D01*
X216327847Y-146460423D01*
X216482792Y-146491243D01*
X216532342Y-146501099D01*
X216532346Y-146501100D01*
X216532347Y-146501100D01*
X216740854Y-146501100D01*
X216740855Y-146501099D01*
X216945353Y-146460423D01*
X217137988Y-146380631D01*
X217311355Y-146264791D01*
X217458791Y-146117355D01*
X217480910Y-146084251D01*
X217534519Y-146039448D01*
X217603844Y-146030739D01*
X217666872Y-146060893D01*
X217671692Y-146065462D01*
X217738335Y-146132105D01*
X217858164Y-146201288D01*
X217991817Y-146237100D01*
X217991819Y-146237100D01*
X218130181Y-146237100D01*
X218130183Y-146237100D01*
X218263836Y-146201288D01*
X218383665Y-146132105D01*
X218481505Y-146034265D01*
X218550688Y-145914436D01*
X218586500Y-145780783D01*
X218586500Y-145642417D01*
X218550688Y-145508764D01*
X218481505Y-145388935D01*
X218383665Y-145291095D01*
X218383664Y-145291094D01*
X218383661Y-145291092D01*
X218263838Y-145221913D01*
X218263837Y-145221912D01*
X218263836Y-145221912D01*
X218130183Y-145186100D01*
X217991817Y-145186100D01*
X217851193Y-145223780D01*
X217781343Y-145222117D01*
X217723481Y-145182954D01*
X217695977Y-145118726D01*
X217695100Y-145104005D01*
X217695100Y-144238346D01*
X217695099Y-144238342D01*
X217679692Y-144160885D01*
X217654423Y-144033847D01*
X217574631Y-143841212D01*
X217574630Y-143841211D01*
X217574627Y-143841205D01*
X217458791Y-143667845D01*
X217458788Y-143667841D01*
X217311358Y-143520411D01*
X217311354Y-143520408D01*
X217137994Y-143404572D01*
X217137985Y-143404567D01*
X216945353Y-143324777D01*
X216945345Y-143324775D01*
X216740857Y-143284100D01*
X216740853Y-143284100D01*
X216532347Y-143284100D01*
X216532342Y-143284100D01*
X216327854Y-143324775D01*
X216327846Y-143324777D01*
X216135214Y-143404567D01*
X216135205Y-143404572D01*
X216091995Y-143433445D01*
X216025317Y-143454323D01*
X215957937Y-143435838D01*
X215911247Y-143383860D01*
X215900963Y-143338539D01*
X215899783Y-143338664D01*
X215899104Y-143332200D01*
X215879142Y-143142272D01*
X215820127Y-142960644D01*
X215724640Y-142795256D01*
X215596853Y-142653334D01*
X215442352Y-142541082D01*
X215267888Y-142463406D01*
X215267886Y-142463405D01*
X215081087Y-142423700D01*
X214890113Y-142423700D01*
X214703314Y-142463405D01*
X214703312Y-142463406D01*
X214569201Y-142523116D01*
X214528846Y-142541083D01*
X214374345Y-142653335D01*
X214246559Y-142795257D01*
X214151073Y-142960643D01*
X214151070Y-142960650D01*
X214092059Y-143142268D01*
X214092058Y-143142272D01*
X214072096Y-143332200D01*
X174106452Y-143332200D01*
X174108556Y-143306805D01*
X174108556Y-143306794D01*
X174089965Y-143082440D01*
X174089963Y-143082428D01*
X174064061Y-142980144D01*
X174034696Y-142864184D01*
X173944260Y-142658009D01*
X173941206Y-142653335D01*
X173870297Y-142544800D01*
X173821122Y-142469532D01*
X173821119Y-142469529D01*
X173821115Y-142469523D01*
X173668643Y-142303897D01*
X173668638Y-142303892D01*
X173490977Y-142165612D01*
X173490978Y-142165612D01*
X173490976Y-142165611D01*
X173454470Y-142145855D01*
X173404879Y-142096636D01*
X173389771Y-142028419D01*
X173413941Y-141962864D01*
X173454470Y-141927745D01*
X173465213Y-141921931D01*
X173490976Y-141907989D01*
X173668640Y-141769706D01*
X173703351Y-141732000D01*
X217704296Y-141732000D01*
X217724258Y-141921928D01*
X217724259Y-141921931D01*
X217783270Y-142103549D01*
X217783273Y-142103556D01*
X217878760Y-142268944D01*
X218006547Y-142410866D01*
X218161048Y-142523118D01*
X218335512Y-142600794D01*
X218522313Y-142640500D01*
X218713287Y-142640500D01*
X218900088Y-142600794D01*
X218980508Y-142564988D01*
X219049757Y-142555704D01*
X219113034Y-142585332D01*
X219148874Y-142639949D01*
X219205671Y-142814752D01*
X219205673Y-142814756D01*
X219301160Y-142980144D01*
X219428947Y-143122066D01*
X219583448Y-143234318D01*
X219757912Y-143311994D01*
X219944713Y-143351700D01*
X220135687Y-143351700D01*
X220322488Y-143311994D01*
X220496952Y-143234318D01*
X220651453Y-143122066D01*
X220779240Y-142980144D01*
X220866978Y-142828176D01*
X220917543Y-142779963D01*
X220986150Y-142766739D01*
X221000145Y-142768888D01*
X221113113Y-142792900D01*
X221304087Y-142792900D01*
X221490888Y-142753194D01*
X221665352Y-142675518D01*
X221819853Y-142563266D01*
X221947640Y-142421344D01*
X221979016Y-142367000D01*
X223114496Y-142367000D01*
X223134458Y-142556928D01*
X223134459Y-142556931D01*
X223193470Y-142738549D01*
X223193473Y-142738556D01*
X223288960Y-142903944D01*
X223416747Y-143045866D01*
X223571248Y-143158118D01*
X223745712Y-143235794D01*
X223932513Y-143275500D01*
X224123487Y-143275500D01*
X224310288Y-143235794D01*
X224484752Y-143158118D01*
X224542279Y-143116321D01*
X224608082Y-143092842D01*
X224676136Y-143108667D01*
X224707311Y-143133666D01*
X224788346Y-143223665D01*
X224789242Y-143224660D01*
X224819472Y-143287652D01*
X224810846Y-143356987D01*
X224766105Y-143410652D01*
X224765983Y-143410734D01*
X224601845Y-143520408D01*
X224601841Y-143520411D01*
X224454411Y-143667841D01*
X224454408Y-143667845D01*
X224338572Y-143841205D01*
X224338567Y-143841214D01*
X224258777Y-144033846D01*
X224258775Y-144033854D01*
X224218100Y-144238342D01*
X224218100Y-145097199D01*
X224198415Y-145164238D01*
X224145611Y-145209993D01*
X224076453Y-145219937D01*
X224062007Y-145216974D01*
X224028821Y-145208082D01*
X223946783Y-145186100D01*
X223808417Y-145186100D01*
X223674764Y-145221912D01*
X223674761Y-145221913D01*
X223554938Y-145291092D01*
X223554933Y-145291096D01*
X223457096Y-145388933D01*
X223457092Y-145388938D01*
X223387913Y-145508761D01*
X223387912Y-145508764D01*
X223352100Y-145642417D01*
X223352100Y-145780783D01*
X223361592Y-145816205D01*
X223387912Y-145914435D01*
X223387913Y-145914438D01*
X223457092Y-146034261D01*
X223457094Y-146034264D01*
X223457095Y-146034265D01*
X223554935Y-146132105D01*
X223674764Y-146201288D01*
X223808417Y-146237100D01*
X223808419Y-146237100D01*
X223946781Y-146237100D01*
X223946783Y-146237100D01*
X224080436Y-146201288D01*
X224200265Y-146132105D01*
X224251682Y-146080687D01*
X224313003Y-146047203D01*
X224382695Y-146052187D01*
X224438628Y-146094058D01*
X224442465Y-146099479D01*
X224454410Y-146117357D01*
X224601841Y-146264788D01*
X224601845Y-146264791D01*
X224775205Y-146380627D01*
X224775214Y-146380632D01*
X224790914Y-146387135D01*
X224967847Y-146460423D01*
X225122792Y-146491243D01*
X225172342Y-146501099D01*
X225172346Y-146501100D01*
X225172347Y-146501100D01*
X225380854Y-146501100D01*
X225380855Y-146501099D01*
X225585353Y-146460423D01*
X225777988Y-146380631D01*
X225951355Y-146264791D01*
X226098791Y-146117355D01*
X226214631Y-145943988D01*
X226294423Y-145751353D01*
X226335100Y-145546853D01*
X226335100Y-144238347D01*
X226294423Y-144033847D01*
X226214631Y-143841212D01*
X226214630Y-143841211D01*
X226214627Y-143841205D01*
X226098791Y-143667845D01*
X226098788Y-143667841D01*
X225951357Y-143520410D01*
X225937203Y-143510953D01*
X225917518Y-143497799D01*
X225872714Y-143444189D01*
X225864006Y-143374864D01*
X225894160Y-143311836D01*
X225913524Y-143294380D01*
X225994160Y-143235794D01*
X226010853Y-143223666D01*
X226138640Y-143081744D01*
X226234127Y-142916356D01*
X226293142Y-142734728D01*
X226313104Y-142544800D01*
X226293142Y-142354872D01*
X226234127Y-142173244D01*
X226138640Y-142007856D01*
X226010853Y-141865934D01*
X225856352Y-141753682D01*
X225681888Y-141676006D01*
X225681886Y-141676005D01*
X225495087Y-141636300D01*
X225304113Y-141636300D01*
X225117314Y-141676005D01*
X224942844Y-141753684D01*
X224885320Y-141795477D01*
X224819513Y-141818956D01*
X224751460Y-141803130D01*
X224720286Y-141778130D01*
X224639254Y-141688135D01*
X224532002Y-141610211D01*
X224484752Y-141575882D01*
X224310288Y-141498206D01*
X224310286Y-141498205D01*
X224123487Y-141458500D01*
X223932513Y-141458500D01*
X223745714Y-141498205D01*
X223712834Y-141512844D01*
X223574566Y-141574405D01*
X223571246Y-141575883D01*
X223416745Y-141688135D01*
X223288959Y-141830057D01*
X223193473Y-141995443D01*
X223193470Y-141995450D01*
X223135700Y-142173250D01*
X223134458Y-142177072D01*
X223114496Y-142367000D01*
X221979016Y-142367000D01*
X222043127Y-142255956D01*
X222102142Y-142074328D01*
X222122104Y-141884400D01*
X222102142Y-141694472D01*
X222043127Y-141512844D01*
X221947640Y-141347456D01*
X221819853Y-141205534D01*
X221665352Y-141093282D01*
X221490888Y-141015606D01*
X221490886Y-141015605D01*
X221304087Y-140975900D01*
X221113113Y-140975900D01*
X220926314Y-141015605D01*
X220751846Y-141093283D01*
X220597345Y-141205535D01*
X220469558Y-141347457D01*
X220381822Y-141499421D01*
X220331255Y-141547637D01*
X220262648Y-141560859D01*
X220248655Y-141558711D01*
X220135688Y-141534700D01*
X220135687Y-141534700D01*
X219944713Y-141534700D01*
X219757913Y-141574405D01*
X219757910Y-141574406D01*
X219677490Y-141610211D01*
X219608240Y-141619495D01*
X219544964Y-141589866D01*
X219509125Y-141535249D01*
X219452329Y-141360450D01*
X219452328Y-141360449D01*
X219452327Y-141360444D01*
X219356840Y-141195056D01*
X219229053Y-141053134D01*
X219074552Y-140940882D01*
X218900088Y-140863206D01*
X218900086Y-140863205D01*
X218713287Y-140823500D01*
X218522313Y-140823500D01*
X218335514Y-140863205D01*
X218161046Y-140940883D01*
X218006545Y-141053135D01*
X217878759Y-141195057D01*
X217783273Y-141360443D01*
X217783270Y-141360450D01*
X217726653Y-141534700D01*
X217724258Y-141542072D01*
X217704296Y-141732000D01*
X173703351Y-141732000D01*
X173791450Y-141636300D01*
X173821115Y-141604076D01*
X173821116Y-141604074D01*
X173821122Y-141604068D01*
X173944260Y-141415591D01*
X174034696Y-141209416D01*
X174089964Y-140991168D01*
X174094131Y-140940882D01*
X174108556Y-140766805D01*
X174108556Y-140766794D01*
X174098033Y-140639800D01*
X214478496Y-140639800D01*
X214498458Y-140829728D01*
X214498459Y-140829731D01*
X214557470Y-141011349D01*
X214557473Y-141011356D01*
X214652960Y-141176744D01*
X214780747Y-141318666D01*
X214935248Y-141430918D01*
X215109712Y-141508594D01*
X215296513Y-141548300D01*
X215487487Y-141548300D01*
X215674288Y-141508594D01*
X215848752Y-141430918D01*
X216003253Y-141318666D01*
X216131040Y-141176744D01*
X216226527Y-141011356D01*
X216285542Y-140829728D01*
X216305504Y-140639800D01*
X216285542Y-140449872D01*
X216226527Y-140268244D01*
X216158256Y-140149995D01*
X228432899Y-140149995D01*
X228459818Y-140285322D01*
X228459821Y-140285332D01*
X228512621Y-140412804D01*
X228512628Y-140412817D01*
X228589285Y-140527541D01*
X228589288Y-140527545D01*
X228686854Y-140625111D01*
X228686858Y-140625114D01*
X228801582Y-140701771D01*
X228801595Y-140701778D01*
X228929067Y-140754578D01*
X228929072Y-140754580D01*
X228929076Y-140754580D01*
X228929077Y-140754581D01*
X229064404Y-140781500D01*
X229064407Y-140781500D01*
X229202395Y-140781500D01*
X229293441Y-140763389D01*
X229337728Y-140754580D01*
X229465211Y-140701775D01*
X229579942Y-140625114D01*
X229677514Y-140527542D01*
X229754175Y-140412811D01*
X229757715Y-140404266D01*
X229806978Y-140285332D01*
X229806980Y-140285328D01*
X229833900Y-140149995D01*
X235232899Y-140149995D01*
X235259818Y-140285322D01*
X235259821Y-140285332D01*
X235312621Y-140412804D01*
X235312628Y-140412817D01*
X235389285Y-140527541D01*
X235389288Y-140527545D01*
X235486854Y-140625111D01*
X235486858Y-140625114D01*
X235601582Y-140701771D01*
X235601595Y-140701778D01*
X235729067Y-140754578D01*
X235729072Y-140754580D01*
X235729076Y-140754580D01*
X235729077Y-140754581D01*
X235864404Y-140781500D01*
X235864407Y-140781500D01*
X236002395Y-140781500D01*
X236093441Y-140763389D01*
X236137728Y-140754580D01*
X236265211Y-140701775D01*
X236379942Y-140625114D01*
X236477514Y-140527542D01*
X236554175Y-140412811D01*
X236557715Y-140404266D01*
X236606978Y-140285332D01*
X236606980Y-140285328D01*
X236633900Y-140149993D01*
X236633900Y-140012007D01*
X236633900Y-140012004D01*
X236606981Y-139876677D01*
X236606980Y-139876676D01*
X236606980Y-139876672D01*
X236563212Y-139771006D01*
X236554178Y-139749195D01*
X236554171Y-139749182D01*
X236477514Y-139634458D01*
X236477511Y-139634454D01*
X236379945Y-139536888D01*
X236379941Y-139536885D01*
X236265217Y-139460228D01*
X236265204Y-139460221D01*
X236137732Y-139407421D01*
X236137722Y-139407418D01*
X236002395Y-139380500D01*
X236002393Y-139380500D01*
X235864407Y-139380500D01*
X235864405Y-139380500D01*
X235729077Y-139407418D01*
X235729067Y-139407421D01*
X235601595Y-139460221D01*
X235601582Y-139460228D01*
X235486858Y-139536885D01*
X235486854Y-139536888D01*
X235389288Y-139634454D01*
X235389285Y-139634458D01*
X235312628Y-139749182D01*
X235312621Y-139749195D01*
X235259821Y-139876667D01*
X235259818Y-139876677D01*
X235232900Y-140012004D01*
X235232900Y-140012007D01*
X235232900Y-140149993D01*
X235232900Y-140149995D01*
X235232899Y-140149995D01*
X229833900Y-140149995D01*
X229833900Y-140149993D01*
X229833900Y-140012007D01*
X229833900Y-140012004D01*
X229806981Y-139876677D01*
X229806980Y-139876676D01*
X229806980Y-139876672D01*
X229763212Y-139771006D01*
X229754178Y-139749195D01*
X229754171Y-139749182D01*
X229677514Y-139634458D01*
X229677511Y-139634454D01*
X229579945Y-139536888D01*
X229579941Y-139536885D01*
X229465217Y-139460228D01*
X229465204Y-139460221D01*
X229337732Y-139407421D01*
X229337722Y-139407418D01*
X229202395Y-139380500D01*
X229202393Y-139380500D01*
X229064407Y-139380500D01*
X229064405Y-139380500D01*
X228929077Y-139407418D01*
X228929067Y-139407421D01*
X228801595Y-139460221D01*
X228801582Y-139460228D01*
X228686858Y-139536885D01*
X228686854Y-139536888D01*
X228589288Y-139634454D01*
X228589285Y-139634458D01*
X228512628Y-139749182D01*
X228512621Y-139749195D01*
X228459821Y-139876667D01*
X228459818Y-139876677D01*
X228432900Y-140012004D01*
X228432900Y-140012007D01*
X228432900Y-140149993D01*
X228432900Y-140149995D01*
X228432899Y-140149995D01*
X216158256Y-140149995D01*
X216131040Y-140102856D01*
X216003253Y-139960934D01*
X215848752Y-139848682D01*
X215674288Y-139771006D01*
X215674286Y-139771005D01*
X215487487Y-139731300D01*
X215296513Y-139731300D01*
X215109714Y-139771005D01*
X214935246Y-139848683D01*
X214780745Y-139960935D01*
X214652959Y-140102857D01*
X214557473Y-140268243D01*
X214557470Y-140268250D01*
X214510498Y-140412817D01*
X214498458Y-140449872D01*
X214478496Y-140639800D01*
X174098033Y-140639800D01*
X174089965Y-140542440D01*
X174089963Y-140542428D01*
X174070911Y-140467194D01*
X174034696Y-140324184D01*
X173944260Y-140118009D01*
X173930505Y-140096956D01*
X173882691Y-140023770D01*
X173821122Y-139929532D01*
X173821119Y-139929529D01*
X173821115Y-139929523D01*
X173675910Y-139771791D01*
X173644987Y-139709137D01*
X173652847Y-139639711D01*
X173686523Y-139598400D01*
X194691896Y-139598400D01*
X194711858Y-139788328D01*
X194711859Y-139788331D01*
X194770870Y-139969949D01*
X194770873Y-139969956D01*
X194866360Y-140135344D01*
X194968690Y-140248994D01*
X194986023Y-140268244D01*
X194994147Y-140277266D01*
X195148648Y-140389518D01*
X195323112Y-140467194D01*
X195509913Y-140506900D01*
X195700887Y-140506900D01*
X195887688Y-140467194D01*
X196062152Y-140389518D01*
X196216653Y-140277266D01*
X196344440Y-140135344D01*
X196439927Y-139969956D01*
X196498942Y-139788328D01*
X196505556Y-139725400D01*
X199314696Y-139725400D01*
X199334658Y-139915328D01*
X199334659Y-139915331D01*
X199393670Y-140096949D01*
X199393673Y-140096956D01*
X199489160Y-140262344D01*
X199616947Y-140404266D01*
X199771448Y-140516518D01*
X199945912Y-140594194D01*
X200132713Y-140633900D01*
X200323687Y-140633900D01*
X200510488Y-140594194D01*
X200684952Y-140516518D01*
X200839453Y-140404266D01*
X200967240Y-140262344D01*
X201062727Y-140096956D01*
X201121742Y-139915328D01*
X201141704Y-139725400D01*
X201121742Y-139535472D01*
X201062727Y-139353844D01*
X200967240Y-139188456D01*
X200839453Y-139046534D01*
X200684952Y-138934282D01*
X200510488Y-138856606D01*
X200510486Y-138856605D01*
X200323687Y-138816900D01*
X200132713Y-138816900D01*
X199945914Y-138856605D01*
X199945912Y-138856606D01*
X199804571Y-138919535D01*
X199771446Y-138934283D01*
X199616945Y-139046535D01*
X199489159Y-139188457D01*
X199393673Y-139353843D01*
X199393670Y-139353850D01*
X199337187Y-139527689D01*
X199334658Y-139535472D01*
X199314696Y-139725400D01*
X196505556Y-139725400D01*
X196518904Y-139598400D01*
X196498942Y-139408472D01*
X196439927Y-139226844D01*
X196344440Y-139061456D01*
X196216653Y-138919534D01*
X196062152Y-138807282D01*
X195887688Y-138729606D01*
X195887686Y-138729605D01*
X195700887Y-138689900D01*
X195509913Y-138689900D01*
X195323114Y-138729605D01*
X195148646Y-138807283D01*
X194994145Y-138919535D01*
X194866359Y-139061457D01*
X194770873Y-139226843D01*
X194770870Y-139226850D01*
X194712200Y-139407418D01*
X194711858Y-139408472D01*
X194691896Y-139598400D01*
X173686523Y-139598400D01*
X173696994Y-139585555D01*
X173723805Y-139571627D01*
X173804039Y-139541700D01*
X173841604Y-139527689D01*
X173958661Y-139440061D01*
X174046289Y-139323004D01*
X174097389Y-139186001D01*
X174100991Y-139152492D01*
X174103899Y-139125454D01*
X174103900Y-139125437D01*
X174103900Y-138633200D01*
X190983496Y-138633200D01*
X191003458Y-138823128D01*
X191003459Y-138823131D01*
X191062470Y-139004749D01*
X191062473Y-139004756D01*
X191157960Y-139170144D01*
X191285747Y-139312066D01*
X191440248Y-139424318D01*
X191614712Y-139501994D01*
X191801513Y-139541700D01*
X191992487Y-139541700D01*
X192179288Y-139501994D01*
X192353752Y-139424318D01*
X192508253Y-139312066D01*
X192636040Y-139170144D01*
X192731527Y-139004756D01*
X192790542Y-138823128D01*
X192810504Y-138633200D01*
X192790542Y-138443272D01*
X192731527Y-138261644D01*
X192636040Y-138096256D01*
X192508253Y-137954334D01*
X192353752Y-137842082D01*
X192179288Y-137764406D01*
X192179286Y-137764405D01*
X191992487Y-137724700D01*
X191801513Y-137724700D01*
X191614714Y-137764405D01*
X191440246Y-137842083D01*
X191285745Y-137954335D01*
X191157959Y-138096257D01*
X191062473Y-138261643D01*
X191062470Y-138261650D01*
X191026529Y-138372266D01*
X191003458Y-138443272D01*
X190983496Y-138633200D01*
X174103900Y-138633200D01*
X174103900Y-137328162D01*
X174103899Y-137328145D01*
X174100557Y-137297070D01*
X174097389Y-137267599D01*
X174095151Y-137261600D01*
X197165117Y-137261600D01*
X197184318Y-137444288D01*
X197184319Y-137444291D01*
X197241080Y-137618987D01*
X197241083Y-137618993D01*
X197332931Y-137778077D01*
X197455846Y-137914589D01*
X197510552Y-137954335D01*
X197604459Y-138022563D01*
X197697558Y-138064012D01*
X197772272Y-138097277D01*
X197951953Y-138135469D01*
X197951954Y-138135469D01*
X198135645Y-138135469D01*
X198135647Y-138135469D01*
X198315328Y-138097277D01*
X198483142Y-138022562D01*
X198631754Y-137914589D01*
X198754669Y-137778077D01*
X198803558Y-137693400D01*
X204877296Y-137693400D01*
X204897258Y-137883328D01*
X204897259Y-137883331D01*
X204956270Y-138064949D01*
X204956273Y-138064956D01*
X205051760Y-138230344D01*
X205179547Y-138372266D01*
X205334048Y-138484518D01*
X205508512Y-138562194D01*
X205695313Y-138601900D01*
X205886287Y-138601900D01*
X206073088Y-138562194D01*
X206247552Y-138484518D01*
X206402053Y-138372266D01*
X206529840Y-138230344D01*
X206625327Y-138064956D01*
X206684342Y-137883328D01*
X206704304Y-137693400D01*
X206684342Y-137503472D01*
X206680030Y-137490200D01*
X210668496Y-137490200D01*
X210688458Y-137680128D01*
X210688459Y-137680131D01*
X210747470Y-137861749D01*
X210747473Y-137861756D01*
X210842960Y-138027144D01*
X210970747Y-138169066D01*
X211125248Y-138281318D01*
X211299712Y-138358994D01*
X211486513Y-138398700D01*
X211677487Y-138398700D01*
X211864288Y-138358994D01*
X212038752Y-138281318D01*
X212193253Y-138169066D01*
X212321040Y-138027144D01*
X212416527Y-137861756D01*
X212475542Y-137680128D01*
X212495504Y-137490200D01*
X212476817Y-137312400D01*
X221819096Y-137312400D01*
X221839058Y-137502328D01*
X221839059Y-137502331D01*
X221898070Y-137683949D01*
X221898073Y-137683956D01*
X221993560Y-137849344D01*
X222121347Y-137991266D01*
X222275848Y-138103518D01*
X222450312Y-138181194D01*
X222637113Y-138220900D01*
X222828087Y-138220900D01*
X223014888Y-138181194D01*
X223189352Y-138103518D01*
X223343853Y-137991266D01*
X223471640Y-137849344D01*
X223567127Y-137683956D01*
X223626142Y-137502328D01*
X223646104Y-137312400D01*
X223626142Y-137122472D01*
X223567127Y-136940844D01*
X223471640Y-136775456D01*
X223343853Y-136633534D01*
X223189352Y-136521282D01*
X223014888Y-136443606D01*
X223014886Y-136443605D01*
X222828087Y-136403900D01*
X222637113Y-136403900D01*
X222450314Y-136443605D01*
X222430686Y-136452344D01*
X222322216Y-136500638D01*
X222275846Y-136521283D01*
X222121345Y-136633535D01*
X221993559Y-136775457D01*
X221898073Y-136940843D01*
X221898070Y-136940850D01*
X221840300Y-137118650D01*
X221839058Y-137122472D01*
X221819096Y-137312400D01*
X212476817Y-137312400D01*
X212475542Y-137300272D01*
X212416527Y-137118644D01*
X212321040Y-136953256D01*
X212193253Y-136811334D01*
X212038752Y-136699082D01*
X211864288Y-136621406D01*
X211864286Y-136621405D01*
X211677487Y-136581700D01*
X211486513Y-136581700D01*
X211299714Y-136621405D01*
X211125246Y-136699083D01*
X210970745Y-136811335D01*
X210842959Y-136953257D01*
X210747473Y-137118643D01*
X210747470Y-137118650D01*
X210699074Y-137267599D01*
X210688458Y-137300272D01*
X210668496Y-137490200D01*
X206680030Y-137490200D01*
X206625327Y-137321844D01*
X206529840Y-137156456D01*
X206402053Y-137014534D01*
X206247552Y-136902282D01*
X206073088Y-136824606D01*
X206073086Y-136824605D01*
X205886287Y-136784900D01*
X205695313Y-136784900D01*
X205508514Y-136824605D01*
X205334046Y-136902283D01*
X205179545Y-137014535D01*
X205051759Y-137156457D01*
X204956273Y-137321843D01*
X204956270Y-137321850D01*
X204897259Y-137503468D01*
X204897258Y-137503472D01*
X204877296Y-137693400D01*
X198803558Y-137693400D01*
X198846517Y-137618993D01*
X198903282Y-137444288D01*
X198922483Y-137261600D01*
X198903282Y-137078912D01*
X198846517Y-136904207D01*
X198754669Y-136745123D01*
X198631754Y-136608611D01*
X198538635Y-136540956D01*
X198483140Y-136500636D01*
X198315326Y-136425922D01*
X198184146Y-136398039D01*
X198135647Y-136387731D01*
X197951953Y-136387731D01*
X197913762Y-136395848D01*
X197772273Y-136425922D01*
X197772272Y-136425922D01*
X197604458Y-136500637D01*
X197604457Y-136500638D01*
X197455847Y-136608610D01*
X197455845Y-136608611D01*
X197332930Y-136745124D01*
X197241083Y-136904206D01*
X197241080Y-136904212D01*
X197205235Y-137014535D01*
X197184318Y-137078912D01*
X197165117Y-137261600D01*
X174095151Y-137261600D01*
X174074922Y-137207364D01*
X174046289Y-137130596D01*
X173958661Y-137013539D01*
X173841604Y-136925911D01*
X173704603Y-136874811D01*
X173644054Y-136868300D01*
X173644038Y-136868300D01*
X172396693Y-136868300D01*
X172329654Y-136848615D01*
X172283899Y-136795811D01*
X172272695Y-136744668D01*
X172271005Y-136169400D01*
X176226096Y-136169400D01*
X176246058Y-136359328D01*
X176246059Y-136359331D01*
X176305070Y-136540949D01*
X176305073Y-136540956D01*
X176400560Y-136706344D01*
X176528347Y-136848266D01*
X176682848Y-136960518D01*
X176857312Y-137038194D01*
X177044113Y-137077900D01*
X177235087Y-137077900D01*
X177421888Y-137038194D01*
X177596352Y-136960518D01*
X177750853Y-136848266D01*
X177878640Y-136706344D01*
X177974127Y-136540956D01*
X178033142Y-136359328D01*
X178053104Y-136169400D01*
X178034417Y-135991600D01*
X179375696Y-135991600D01*
X179395658Y-136181528D01*
X179395659Y-136181531D01*
X179454670Y-136363149D01*
X179454673Y-136363156D01*
X179550160Y-136528544D01*
X179677947Y-136670466D01*
X179832448Y-136782718D01*
X180006912Y-136860394D01*
X180193713Y-136900100D01*
X180384687Y-136900100D01*
X180571488Y-136860394D01*
X180745952Y-136782718D01*
X180900453Y-136670466D01*
X181028240Y-136528544D01*
X181123727Y-136363156D01*
X181182742Y-136181528D01*
X181202704Y-135991600D01*
X181194695Y-135915400D01*
X213970496Y-135915400D01*
X213990458Y-136105328D01*
X213990459Y-136105331D01*
X214049470Y-136286949D01*
X214049473Y-136286956D01*
X214144960Y-136452344D01*
X214207032Y-136521282D01*
X214261432Y-136581700D01*
X214272747Y-136594266D01*
X214427248Y-136706518D01*
X214601712Y-136784194D01*
X214788513Y-136823900D01*
X214979487Y-136823900D01*
X215166288Y-136784194D01*
X215340752Y-136706518D01*
X215495253Y-136594266D01*
X215623040Y-136452344D01*
X215718527Y-136286956D01*
X215777542Y-136105328D01*
X215797504Y-135915400D01*
X215777542Y-135725472D01*
X215718527Y-135543844D01*
X215626472Y-135384400D01*
X217195400Y-135384400D01*
X235000800Y-135382000D01*
X235026200Y-129540000D01*
X217195400Y-129540000D01*
X217195400Y-135384400D01*
X215626472Y-135384400D01*
X215623040Y-135378456D01*
X215495253Y-135236534D01*
X215340752Y-135124282D01*
X215166288Y-135046606D01*
X215166286Y-135046605D01*
X214979487Y-135006900D01*
X214788513Y-135006900D01*
X214601714Y-135046605D01*
X214601712Y-135046606D01*
X214430566Y-135122805D01*
X214427246Y-135124283D01*
X214272745Y-135236535D01*
X214144959Y-135378457D01*
X214049473Y-135543843D01*
X214049470Y-135543850D01*
X213990459Y-135725468D01*
X213990458Y-135725472D01*
X213970496Y-135915400D01*
X181194695Y-135915400D01*
X181182742Y-135801672D01*
X181123727Y-135620044D01*
X181028240Y-135454656D01*
X180900453Y-135312734D01*
X180745952Y-135200482D01*
X180571488Y-135122806D01*
X180571486Y-135122805D01*
X180384687Y-135083100D01*
X180193713Y-135083100D01*
X180006914Y-135122805D01*
X179832446Y-135200483D01*
X179677945Y-135312735D01*
X179550159Y-135454657D01*
X179454673Y-135620043D01*
X179454670Y-135620050D01*
X179396900Y-135797850D01*
X179395658Y-135801672D01*
X179375696Y-135991600D01*
X178034417Y-135991600D01*
X178033142Y-135979472D01*
X177974127Y-135797844D01*
X177878640Y-135632456D01*
X177750853Y-135490534D01*
X177596352Y-135378282D01*
X177421888Y-135300606D01*
X177421886Y-135300605D01*
X177235087Y-135260900D01*
X177044113Y-135260900D01*
X176857314Y-135300605D01*
X176682846Y-135378283D01*
X176528345Y-135490535D01*
X176400559Y-135632457D01*
X176305073Y-135797843D01*
X176305070Y-135797850D01*
X176266876Y-135915400D01*
X176246058Y-135979472D01*
X176226096Y-136169400D01*
X172271005Y-136169400D01*
X172266595Y-134667898D01*
X172286082Y-134600805D01*
X172338752Y-134554895D01*
X172407881Y-134544749D01*
X172422687Y-134547763D01*
X172444600Y-134553634D01*
X172444600Y-133656012D01*
X172501607Y-133688925D01*
X172628774Y-133723000D01*
X172760426Y-133723000D01*
X172887593Y-133688925D01*
X172944600Y-133656012D01*
X172944600Y-134553633D01*
X173158083Y-134496433D01*
X173158092Y-134496429D01*
X173372178Y-134396600D01*
X173565682Y-134261105D01*
X173732705Y-134094082D01*
X173755730Y-134061200D01*
X206020296Y-134061200D01*
X206040258Y-134251128D01*
X206040259Y-134251131D01*
X206099270Y-134432749D01*
X206099273Y-134432756D01*
X206194760Y-134598144D01*
X206322547Y-134740066D01*
X206477048Y-134852318D01*
X206651512Y-134929994D01*
X206838313Y-134969700D01*
X207029287Y-134969700D01*
X207216088Y-134929994D01*
X207390552Y-134852318D01*
X207545053Y-134740066D01*
X207672840Y-134598144D01*
X207768327Y-134432756D01*
X207827342Y-134251128D01*
X207847304Y-134061200D01*
X207827342Y-133871272D01*
X207768327Y-133689644D01*
X207672840Y-133524256D01*
X207545053Y-133382334D01*
X207390552Y-133270082D01*
X207216088Y-133192406D01*
X207216086Y-133192405D01*
X207029287Y-133152700D01*
X206838313Y-133152700D01*
X206651514Y-133192405D01*
X206477046Y-133270083D01*
X206322545Y-133382335D01*
X206194759Y-133524257D01*
X206099273Y-133689643D01*
X206099270Y-133689650D01*
X206055077Y-133825664D01*
X206040258Y-133871272D01*
X206020296Y-134061200D01*
X173755730Y-134061200D01*
X173868200Y-133900578D01*
X173968029Y-133686492D01*
X173968032Y-133686486D01*
X174025236Y-133473000D01*
X173127612Y-133473000D01*
X173160525Y-133415993D01*
X173194600Y-133288826D01*
X173194600Y-133157174D01*
X173191820Y-133146800D01*
X178893096Y-133146800D01*
X178913058Y-133336728D01*
X178913059Y-133336731D01*
X178972070Y-133518349D01*
X178972073Y-133518356D01*
X179067560Y-133683744D01*
X179195347Y-133825666D01*
X179349848Y-133937918D01*
X179524312Y-134015594D01*
X179711113Y-134055300D01*
X179902087Y-134055300D01*
X180088888Y-134015594D01*
X180263352Y-133937918D01*
X180417853Y-133825666D01*
X180545640Y-133683744D01*
X180641127Y-133518356D01*
X180700142Y-133336728D01*
X180720104Y-133146800D01*
X180700142Y-132956872D01*
X180641127Y-132775244D01*
X180545640Y-132609856D01*
X180417853Y-132467934D01*
X180263352Y-132355682D01*
X180088888Y-132278006D01*
X180088886Y-132278005D01*
X179993828Y-132257800D01*
X194717296Y-132257800D01*
X194737258Y-132447728D01*
X194737259Y-132447731D01*
X194796270Y-132629349D01*
X194796273Y-132629356D01*
X194891760Y-132794744D01*
X195019547Y-132936666D01*
X195174048Y-133048918D01*
X195348512Y-133126594D01*
X195535313Y-133166300D01*
X195726287Y-133166300D01*
X195913088Y-133126594D01*
X196087552Y-133048918D01*
X196242053Y-132936666D01*
X196369840Y-132794744D01*
X196465327Y-132629356D01*
X196524342Y-132447728D01*
X196544304Y-132257800D01*
X196541634Y-132232400D01*
X199441696Y-132232400D01*
X199461658Y-132422328D01*
X199461659Y-132422331D01*
X199520670Y-132603949D01*
X199520673Y-132603956D01*
X199616160Y-132769344D01*
X199743947Y-132911266D01*
X199898448Y-133023518D01*
X200072912Y-133101194D01*
X200259713Y-133140900D01*
X200450687Y-133140900D01*
X200637488Y-133101194D01*
X200811952Y-133023518D01*
X200966453Y-132911266D01*
X201094240Y-132769344D01*
X201154945Y-132664200D01*
X208966696Y-132664200D01*
X208986658Y-132854128D01*
X208986659Y-132854131D01*
X209045670Y-133035749D01*
X209045673Y-133035756D01*
X209141160Y-133201144D01*
X209268947Y-133343066D01*
X209423448Y-133455318D01*
X209597912Y-133532994D01*
X209784713Y-133572700D01*
X209975687Y-133572700D01*
X210162488Y-133532994D01*
X210336952Y-133455318D01*
X210491453Y-133343066D01*
X210619240Y-133201144D01*
X210714727Y-133035756D01*
X210773742Y-132854128D01*
X210793704Y-132664200D01*
X210773742Y-132474272D01*
X210714727Y-132292644D01*
X210619240Y-132127256D01*
X210491453Y-131985334D01*
X210336952Y-131873082D01*
X210162488Y-131795406D01*
X210162486Y-131795405D01*
X209975687Y-131755700D01*
X209784713Y-131755700D01*
X209597914Y-131795405D01*
X209533264Y-131824189D01*
X209430672Y-131869866D01*
X209423446Y-131873083D01*
X209268945Y-131985335D01*
X209141159Y-132127257D01*
X209045673Y-132292643D01*
X209045670Y-132292650D01*
X208988717Y-132467934D01*
X208986658Y-132474272D01*
X208966696Y-132664200D01*
X201154945Y-132664200D01*
X201189727Y-132603956D01*
X201248742Y-132422328D01*
X201268704Y-132232400D01*
X201248742Y-132042472D01*
X201189727Y-131860844D01*
X201094240Y-131695456D01*
X200966453Y-131553534D01*
X200811952Y-131441282D01*
X200637488Y-131363606D01*
X200637486Y-131363605D01*
X200450687Y-131323900D01*
X200259713Y-131323900D01*
X200072914Y-131363605D01*
X199898446Y-131441283D01*
X199743945Y-131553535D01*
X199616159Y-131695457D01*
X199520673Y-131860843D01*
X199520670Y-131860850D01*
X199481268Y-131982118D01*
X199461658Y-132042472D01*
X199441696Y-132232400D01*
X196541634Y-132232400D01*
X196524342Y-132067872D01*
X196465327Y-131886244D01*
X196369840Y-131720856D01*
X196242053Y-131578934D01*
X196087552Y-131466682D01*
X195913088Y-131389006D01*
X195913086Y-131389005D01*
X195726287Y-131349300D01*
X195535313Y-131349300D01*
X195348514Y-131389005D01*
X195174046Y-131466683D01*
X195019545Y-131578935D01*
X194891759Y-131720857D01*
X194796273Y-131886243D01*
X194796270Y-131886250D01*
X194737259Y-132067868D01*
X194737258Y-132067872D01*
X194717296Y-132257800D01*
X179993828Y-132257800D01*
X179902087Y-132238300D01*
X179711113Y-132238300D01*
X179524314Y-132278005D01*
X179349846Y-132355683D01*
X179195345Y-132467935D01*
X179067559Y-132609857D01*
X178972073Y-132775243D01*
X178972070Y-132775250D01*
X178919624Y-132936664D01*
X178913058Y-132956872D01*
X178893096Y-133146800D01*
X173191820Y-133146800D01*
X173160525Y-133030007D01*
X173127612Y-132973000D01*
X174025236Y-132973000D01*
X174025235Y-132972999D01*
X173968032Y-132759513D01*
X173968029Y-132759507D01*
X173868200Y-132545422D01*
X173868199Y-132545420D01*
X173732713Y-132351926D01*
X173732708Y-132351920D01*
X173565682Y-132184894D01*
X173384797Y-132058236D01*
X173341172Y-132003659D01*
X173333980Y-131934160D01*
X173365502Y-131871806D01*
X173396900Y-131847608D01*
X173440176Y-131824189D01*
X173617840Y-131685906D01*
X173770322Y-131520268D01*
X173893460Y-131331791D01*
X173983896Y-131125616D01*
X174039164Y-130907368D01*
X174042729Y-130864344D01*
X174057756Y-130683005D01*
X174057756Y-130682994D01*
X174039165Y-130458640D01*
X174039163Y-130458628D01*
X174005931Y-130327400D01*
X193472696Y-130327400D01*
X193492658Y-130517328D01*
X193492659Y-130517331D01*
X193551670Y-130698949D01*
X193551673Y-130698956D01*
X193647160Y-130864344D01*
X193774947Y-131006266D01*
X193929448Y-131118518D01*
X194103912Y-131196194D01*
X194290713Y-131235900D01*
X194481687Y-131235900D01*
X194668488Y-131196194D01*
X194680154Y-131191000D01*
X214021296Y-131191000D01*
X214041258Y-131380928D01*
X214041259Y-131380931D01*
X214100270Y-131562549D01*
X214100273Y-131562556D01*
X214195760Y-131727944D01*
X214282419Y-131824189D01*
X214315423Y-131860844D01*
X214323547Y-131869866D01*
X214478048Y-131982118D01*
X214652512Y-132059794D01*
X214839313Y-132099500D01*
X215030287Y-132099500D01*
X215217088Y-132059794D01*
X215391552Y-131982118D01*
X215546053Y-131869866D01*
X215673840Y-131727944D01*
X215769327Y-131562556D01*
X215828342Y-131380928D01*
X215848304Y-131191000D01*
X215828342Y-131001072D01*
X215769327Y-130819444D01*
X215673840Y-130654056D01*
X215546053Y-130512134D01*
X215391552Y-130399882D01*
X215217088Y-130322206D01*
X215217086Y-130322205D01*
X215030287Y-130282500D01*
X214839313Y-130282500D01*
X214652514Y-130322205D01*
X214478046Y-130399883D01*
X214323545Y-130512135D01*
X214195759Y-130654057D01*
X214100273Y-130819443D01*
X214100270Y-130819450D01*
X214041259Y-131001068D01*
X214041258Y-131001072D01*
X214021296Y-131191000D01*
X194680154Y-131191000D01*
X194842952Y-131118518D01*
X194997453Y-131006266D01*
X195125240Y-130864344D01*
X195220727Y-130698956D01*
X195279742Y-130517328D01*
X195299704Y-130327400D01*
X195279742Y-130137472D01*
X195220727Y-129955844D01*
X195125240Y-129790456D01*
X194997453Y-129648534D01*
X194842952Y-129536282D01*
X194668488Y-129458606D01*
X194668486Y-129458605D01*
X194481687Y-129418900D01*
X194290713Y-129418900D01*
X194103914Y-129458605D01*
X193929446Y-129536283D01*
X193774945Y-129648535D01*
X193647159Y-129790457D01*
X193551673Y-129955843D01*
X193551670Y-129955850D01*
X193492659Y-130137468D01*
X193492658Y-130137472D01*
X193472696Y-130327400D01*
X174005931Y-130327400D01*
X173983896Y-130240385D01*
X173967987Y-130204116D01*
X173893460Y-130034209D01*
X173770322Y-129845732D01*
X173770319Y-129845729D01*
X173770315Y-129845723D01*
X173617843Y-129680097D01*
X173617838Y-129680092D01*
X173440177Y-129541812D01*
X173440178Y-129541812D01*
X173440176Y-129541811D01*
X173403670Y-129522055D01*
X173354079Y-129472836D01*
X173338971Y-129404619D01*
X173363141Y-129339064D01*
X173403670Y-129303945D01*
X173403684Y-129303936D01*
X173440176Y-129284189D01*
X173617840Y-129145906D01*
X173770322Y-128980268D01*
X173893460Y-128791791D01*
X173894093Y-128790347D01*
X184011550Y-128790347D01*
X184031512Y-128980275D01*
X184031513Y-128980278D01*
X184090524Y-129161896D01*
X184090527Y-129161903D01*
X184186014Y-129327291D01*
X184263187Y-129413000D01*
X184304249Y-129458605D01*
X184313801Y-129469213D01*
X184468302Y-129581465D01*
X184642766Y-129659141D01*
X184829567Y-129698847D01*
X185020541Y-129698847D01*
X185207342Y-129659141D01*
X185381806Y-129581465D01*
X185536307Y-129469213D01*
X185664094Y-129327291D01*
X185759581Y-129161903D01*
X185760524Y-129159000D01*
X200876196Y-129159000D01*
X200896158Y-129348928D01*
X200896159Y-129348931D01*
X200955170Y-129530549D01*
X200955173Y-129530556D01*
X201050660Y-129695944D01*
X201178447Y-129837866D01*
X201332948Y-129950118D01*
X201507412Y-130027794D01*
X201694213Y-130067500D01*
X201885187Y-130067500D01*
X202071988Y-130027794D01*
X202246452Y-129950118D01*
X202400953Y-129837866D01*
X202528740Y-129695944D01*
X202624227Y-129530556D01*
X202662424Y-129413000D01*
X204623296Y-129413000D01*
X204643258Y-129602928D01*
X204643259Y-129602931D01*
X204702270Y-129784549D01*
X204702273Y-129784556D01*
X204797760Y-129949944D01*
X204925547Y-130091866D01*
X205080048Y-130204118D01*
X205254512Y-130281794D01*
X205441313Y-130321500D01*
X205632287Y-130321500D01*
X205819088Y-130281794D01*
X205993552Y-130204118D01*
X206094985Y-130130421D01*
X206160791Y-130106941D01*
X206218307Y-130117460D01*
X206245107Y-130129392D01*
X206245112Y-130129394D01*
X206431913Y-130169100D01*
X206622887Y-130169100D01*
X206809688Y-130129394D01*
X206984152Y-130051718D01*
X207138653Y-129939466D01*
X207266440Y-129797544D01*
X207361927Y-129632156D01*
X207420942Y-129450528D01*
X207440904Y-129260600D01*
X207420942Y-129070672D01*
X207361927Y-128889044D01*
X207266440Y-128723656D01*
X207138653Y-128581734D01*
X206984152Y-128469482D01*
X206809688Y-128391806D01*
X206809686Y-128391805D01*
X206622887Y-128352100D01*
X206431913Y-128352100D01*
X206245114Y-128391805D01*
X206070643Y-128469484D01*
X205969213Y-128543178D01*
X205903407Y-128566658D01*
X205845893Y-128556140D01*
X205819087Y-128544205D01*
X205632287Y-128504500D01*
X205441313Y-128504500D01*
X205254514Y-128544205D01*
X205080046Y-128621883D01*
X204925545Y-128734135D01*
X204797759Y-128876057D01*
X204702273Y-129041443D01*
X204702270Y-129041450D01*
X204664076Y-129159000D01*
X204643258Y-129223072D01*
X204623296Y-129413000D01*
X202662424Y-129413000D01*
X202683242Y-129348928D01*
X202703204Y-129159000D01*
X202683242Y-128969072D01*
X202624227Y-128787444D01*
X202528740Y-128622056D01*
X202400953Y-128480134D01*
X202246452Y-128367882D01*
X202071988Y-128290206D01*
X202071986Y-128290205D01*
X201885187Y-128250500D01*
X201694213Y-128250500D01*
X201507414Y-128290205D01*
X201507412Y-128290206D01*
X201334103Y-128367368D01*
X201332946Y-128367883D01*
X201178445Y-128480135D01*
X201050659Y-128622057D01*
X200955173Y-128787443D01*
X200955170Y-128787450D01*
X200896159Y-128969068D01*
X200896158Y-128969072D01*
X200876196Y-129159000D01*
X185760524Y-129159000D01*
X185818596Y-128980275D01*
X185838558Y-128790347D01*
X185818596Y-128600419D01*
X185759581Y-128418791D01*
X185664094Y-128253403D01*
X185536307Y-128111481D01*
X185381806Y-127999229D01*
X185207342Y-127921553D01*
X185207340Y-127921552D01*
X185020541Y-127881847D01*
X184829567Y-127881847D01*
X184642768Y-127921552D01*
X184468300Y-127999230D01*
X184313799Y-128111482D01*
X184186013Y-128253404D01*
X184090527Y-128418790D01*
X184090524Y-128418797D01*
X184031513Y-128600415D01*
X184031512Y-128600419D01*
X184011550Y-128790347D01*
X173894093Y-128790347D01*
X173983896Y-128585616D01*
X174039164Y-128367368D01*
X174045558Y-128290205D01*
X174057756Y-128143005D01*
X174057756Y-128142994D01*
X174039165Y-127918640D01*
X174039163Y-127918628D01*
X173983896Y-127700385D01*
X173934361Y-127587456D01*
X173893460Y-127494209D01*
X173888303Y-127486316D01*
X173770323Y-127305734D01*
X173770315Y-127305723D01*
X173617843Y-127140097D01*
X173617838Y-127140092D01*
X173471218Y-127025972D01*
X173440176Y-127001811D01*
X173403670Y-126982055D01*
X173354079Y-126932836D01*
X173338971Y-126864619D01*
X173363141Y-126799064D01*
X173403670Y-126763945D01*
X173403684Y-126763936D01*
X173440176Y-126744189D01*
X173503116Y-126695200D01*
X208331696Y-126695200D01*
X208351658Y-126885128D01*
X208351659Y-126885131D01*
X208410670Y-127066749D01*
X208410673Y-127066756D01*
X208506160Y-127232144D01*
X208633947Y-127374066D01*
X208788448Y-127486318D01*
X208962912Y-127563994D01*
X209149713Y-127603700D01*
X209340687Y-127603700D01*
X209527488Y-127563994D01*
X209701952Y-127486318D01*
X209776937Y-127431838D01*
X209842743Y-127408357D01*
X209910797Y-127424182D01*
X209959492Y-127474287D01*
X209967754Y-127493837D01*
X209998170Y-127587449D01*
X209998173Y-127587456D01*
X210093660Y-127752844D01*
X210221447Y-127894766D01*
X210375948Y-128007018D01*
X210550412Y-128084694D01*
X210737213Y-128124400D01*
X210928187Y-128124400D01*
X211114988Y-128084694D01*
X211289452Y-128007018D01*
X211443953Y-127894766D01*
X211571740Y-127752844D01*
X211667227Y-127587456D01*
X211726242Y-127405828D01*
X211736860Y-127304800D01*
X232055296Y-127304800D01*
X232075258Y-127494728D01*
X232075259Y-127494731D01*
X232134270Y-127676349D01*
X232134273Y-127676356D01*
X232229760Y-127841744D01*
X232357547Y-127983666D01*
X232512048Y-128095918D01*
X232686512Y-128173594D01*
X232873313Y-128213300D01*
X233064287Y-128213300D01*
X233251088Y-128173594D01*
X233425552Y-128095918D01*
X233580053Y-127983666D01*
X233707840Y-127841744D01*
X233803327Y-127676356D01*
X233862342Y-127494728D01*
X233882304Y-127304800D01*
X233862342Y-127114872D01*
X233803327Y-126933244D01*
X233707840Y-126767856D01*
X233580053Y-126625934D01*
X233425552Y-126513682D01*
X233251088Y-126436006D01*
X233251086Y-126436005D01*
X233064287Y-126396300D01*
X232873313Y-126396300D01*
X232686514Y-126436005D01*
X232512046Y-126513683D01*
X232357545Y-126625935D01*
X232229759Y-126767857D01*
X232134273Y-126933243D01*
X232134270Y-126933250D01*
X232075259Y-127114868D01*
X232075258Y-127114872D01*
X232055296Y-127304800D01*
X211736860Y-127304800D01*
X211746204Y-127215900D01*
X211726242Y-127025972D01*
X211667227Y-126844344D01*
X211571740Y-126678956D01*
X211443953Y-126537034D01*
X211289452Y-126424782D01*
X211114988Y-126347106D01*
X211114986Y-126347105D01*
X210928187Y-126307400D01*
X210737213Y-126307400D01*
X210550414Y-126347105D01*
X210375946Y-126424783D01*
X210300961Y-126479263D01*
X210235154Y-126502742D01*
X210167101Y-126486916D01*
X210118406Y-126436810D01*
X210110145Y-126417261D01*
X210103334Y-126396300D01*
X210098247Y-126380643D01*
X210079730Y-126323652D01*
X210079728Y-126323648D01*
X210079727Y-126323644D01*
X209984240Y-126158256D01*
X209856453Y-126016334D01*
X209701952Y-125904082D01*
X209527488Y-125826406D01*
X209527486Y-125826405D01*
X209340687Y-125786700D01*
X209149713Y-125786700D01*
X208962914Y-125826405D01*
X208875680Y-125865244D01*
X208850399Y-125876500D01*
X208788446Y-125904083D01*
X208633945Y-126016335D01*
X208506159Y-126158257D01*
X208410673Y-126323643D01*
X208410670Y-126323650D01*
X208357622Y-126486916D01*
X208351658Y-126505272D01*
X208331696Y-126695200D01*
X173503116Y-126695200D01*
X173617840Y-126605906D01*
X173770322Y-126440268D01*
X173893460Y-126251791D01*
X173983896Y-126045616D01*
X174039164Y-125827368D01*
X174042729Y-125784344D01*
X174051442Y-125679200D01*
X176124496Y-125679200D01*
X176144458Y-125869128D01*
X176144459Y-125869131D01*
X176203470Y-126050749D01*
X176203473Y-126050756D01*
X176298960Y-126216144D01*
X176331057Y-126251791D01*
X176416878Y-126347106D01*
X176426747Y-126358066D01*
X176581248Y-126470318D01*
X176755712Y-126547994D01*
X176942513Y-126587700D01*
X177133487Y-126587700D01*
X177320288Y-126547994D01*
X177494752Y-126470318D01*
X177649253Y-126358066D01*
X177777040Y-126216144D01*
X177872527Y-126050756D01*
X177931542Y-125869128D01*
X177951504Y-125679200D01*
X177931542Y-125489272D01*
X177872527Y-125307644D01*
X177837745Y-125247400D01*
X182728496Y-125247400D01*
X182748458Y-125437328D01*
X182748459Y-125437331D01*
X182807470Y-125618949D01*
X182807473Y-125618956D01*
X182902960Y-125784344D01*
X183030747Y-125926266D01*
X183185248Y-126038518D01*
X183359712Y-126116194D01*
X183546513Y-126155900D01*
X183737487Y-126155900D01*
X183924288Y-126116194D01*
X184098752Y-126038518D01*
X184253253Y-125926266D01*
X184381040Y-125784344D01*
X184476527Y-125618956D01*
X184535542Y-125437328D01*
X184555504Y-125247400D01*
X184535542Y-125057472D01*
X184506471Y-124968000D01*
X184938296Y-124968000D01*
X184958258Y-125157928D01*
X184958259Y-125157931D01*
X185017270Y-125339549D01*
X185017273Y-125339556D01*
X185112760Y-125504944D01*
X185240547Y-125646866D01*
X185395048Y-125759118D01*
X185569512Y-125836794D01*
X185756313Y-125876500D01*
X185947287Y-125876500D01*
X186134088Y-125836794D01*
X186308552Y-125759118D01*
X186463053Y-125646866D01*
X186590840Y-125504944D01*
X186686327Y-125339556D01*
X186741030Y-125171200D01*
X194260096Y-125171200D01*
X194280058Y-125361128D01*
X194280059Y-125361131D01*
X194339070Y-125542749D01*
X194339073Y-125542756D01*
X194434560Y-125708144D01*
X194562347Y-125850066D01*
X194716848Y-125962318D01*
X194891312Y-126039994D01*
X195078113Y-126079700D01*
X195269087Y-126079700D01*
X195455888Y-126039994D01*
X195630352Y-125962318D01*
X195784853Y-125850066D01*
X195912640Y-125708144D01*
X196008127Y-125542756D01*
X196067142Y-125361128D01*
X196087104Y-125171200D01*
X196067142Y-124981272D01*
X196008127Y-124799644D01*
X195912640Y-124634256D01*
X195784853Y-124492334D01*
X195630352Y-124380082D01*
X195455888Y-124302406D01*
X195455886Y-124302405D01*
X195269087Y-124262700D01*
X195078113Y-124262700D01*
X194891314Y-124302405D01*
X194822596Y-124333000D01*
X194720166Y-124378605D01*
X194716846Y-124380083D01*
X194562345Y-124492335D01*
X194434559Y-124634257D01*
X194339073Y-124799643D01*
X194339070Y-124799650D01*
X194280059Y-124981268D01*
X194280058Y-124981272D01*
X194260096Y-125171200D01*
X186741030Y-125171200D01*
X186745342Y-125157928D01*
X186765304Y-124968000D01*
X186745342Y-124778072D01*
X186686327Y-124596444D01*
X186590840Y-124431056D01*
X186463053Y-124289134D01*
X186308552Y-124176882D01*
X186145754Y-124104400D01*
X206477496Y-124104400D01*
X206497458Y-124294328D01*
X206497459Y-124294331D01*
X206556470Y-124475949D01*
X206556473Y-124475956D01*
X206651960Y-124641344D01*
X206714189Y-124710456D01*
X206768432Y-124770700D01*
X206779747Y-124783266D01*
X206934248Y-124895518D01*
X207108712Y-124973194D01*
X207295513Y-125012900D01*
X207486487Y-125012900D01*
X207673288Y-124973194D01*
X207847752Y-124895518D01*
X208002253Y-124783266D01*
X208130040Y-124641344D01*
X208225527Y-124475956D01*
X208284542Y-124294328D01*
X208288486Y-124256800D01*
X213792696Y-124256800D01*
X213812658Y-124446728D01*
X213812659Y-124446731D01*
X213871670Y-124628349D01*
X213871673Y-124628356D01*
X213967160Y-124793744D01*
X214094947Y-124935666D01*
X214249448Y-125047918D01*
X214423912Y-125125594D01*
X214610713Y-125165300D01*
X214801687Y-125165300D01*
X214988488Y-125125594D01*
X215162952Y-125047918D01*
X215317453Y-124935666D01*
X215445240Y-124793744D01*
X215540727Y-124628356D01*
X215599742Y-124446728D01*
X215619704Y-124256800D01*
X215599742Y-124066872D01*
X215540727Y-123885244D01*
X215445240Y-123719856D01*
X215317453Y-123577934D01*
X215162952Y-123465682D01*
X214988488Y-123388006D01*
X214988486Y-123388005D01*
X214801687Y-123348300D01*
X214610713Y-123348300D01*
X214423914Y-123388005D01*
X214249446Y-123465683D01*
X214094945Y-123577935D01*
X213967159Y-123719857D01*
X213871673Y-123885243D01*
X213871670Y-123885250D01*
X213812659Y-124066868D01*
X213812658Y-124066872D01*
X213792696Y-124256800D01*
X208288486Y-124256800D01*
X208304504Y-124104400D01*
X208284542Y-123914472D01*
X208225527Y-123732844D01*
X208130040Y-123567456D01*
X208002253Y-123425534D01*
X207847752Y-123313282D01*
X207673288Y-123235606D01*
X207673286Y-123235605D01*
X207486487Y-123195900D01*
X207295513Y-123195900D01*
X207108714Y-123235605D01*
X206934246Y-123313283D01*
X206779745Y-123425535D01*
X206651959Y-123567457D01*
X206556473Y-123732843D01*
X206556470Y-123732850D01*
X206497459Y-123914468D01*
X206497458Y-123914472D01*
X206477496Y-124104400D01*
X186145754Y-124104400D01*
X186134088Y-124099206D01*
X186134086Y-124099205D01*
X185947287Y-124059500D01*
X185756313Y-124059500D01*
X185569514Y-124099205D01*
X185395046Y-124176883D01*
X185240545Y-124289135D01*
X185112759Y-124431057D01*
X185017273Y-124596443D01*
X185017270Y-124596450D01*
X184962267Y-124765734D01*
X184958258Y-124778072D01*
X184938296Y-124968000D01*
X184506471Y-124968000D01*
X184476527Y-124875844D01*
X184381040Y-124710456D01*
X184253253Y-124568534D01*
X184098752Y-124456282D01*
X183924288Y-124378606D01*
X183924286Y-124378605D01*
X183737487Y-124338900D01*
X183546513Y-124338900D01*
X183359714Y-124378605D01*
X183185246Y-124456283D01*
X183030745Y-124568535D01*
X182902959Y-124710457D01*
X182807473Y-124875843D01*
X182807470Y-124875850D01*
X182767023Y-125000334D01*
X182748458Y-125057472D01*
X182728496Y-125247400D01*
X177837745Y-125247400D01*
X177777040Y-125142256D01*
X177649253Y-125000334D01*
X177494752Y-124888082D01*
X177320288Y-124810406D01*
X177320286Y-124810405D01*
X177133487Y-124770700D01*
X176942513Y-124770700D01*
X176755714Y-124810405D01*
X176755712Y-124810406D01*
X176608738Y-124875843D01*
X176581246Y-124888083D01*
X176426745Y-125000335D01*
X176298959Y-125142257D01*
X176203473Y-125307643D01*
X176203470Y-125307650D01*
X176144459Y-125489268D01*
X176144458Y-125489272D01*
X176124496Y-125679200D01*
X174051442Y-125679200D01*
X174057756Y-125603005D01*
X174057756Y-125602994D01*
X174039165Y-125378640D01*
X174039163Y-125378628D01*
X173983896Y-125160385D01*
X173982818Y-125157928D01*
X173893460Y-124954209D01*
X173881345Y-124935666D01*
X173788622Y-124793742D01*
X173770322Y-124765732D01*
X173770319Y-124765729D01*
X173770315Y-124765723D01*
X173617843Y-124600097D01*
X173617838Y-124600092D01*
X173479393Y-124492335D01*
X173440176Y-124461811D01*
X173403670Y-124442055D01*
X173354079Y-124392836D01*
X173338971Y-124324619D01*
X173363141Y-124259064D01*
X173403670Y-124223945D01*
X173403684Y-124223936D01*
X173440176Y-124204189D01*
X173617840Y-124065906D01*
X173770322Y-123900268D01*
X173893460Y-123711791D01*
X173983896Y-123505616D01*
X174039164Y-123287368D01*
X174043453Y-123235606D01*
X174057756Y-123063005D01*
X174057756Y-123062994D01*
X174051442Y-122986800D01*
X176124496Y-122986800D01*
X176144458Y-123176728D01*
X176144459Y-123176731D01*
X176203470Y-123358349D01*
X176203473Y-123358356D01*
X176298960Y-123523744D01*
X176426747Y-123665666D01*
X176581248Y-123777918D01*
X176755712Y-123855594D01*
X176942513Y-123895300D01*
X177133487Y-123895300D01*
X177320288Y-123855594D01*
X177494752Y-123777918D01*
X177649253Y-123665666D01*
X177777040Y-123523744D01*
X177872527Y-123358356D01*
X177931542Y-123176728D01*
X177951504Y-122986800D01*
X177931542Y-122796872D01*
X177872527Y-122615244D01*
X177777040Y-122449856D01*
X177649253Y-122307934D01*
X177494752Y-122195682D01*
X177320288Y-122118006D01*
X177320286Y-122118005D01*
X177133487Y-122078300D01*
X176942513Y-122078300D01*
X176755714Y-122118005D01*
X176581246Y-122195683D01*
X176426745Y-122307935D01*
X176298959Y-122449857D01*
X176203473Y-122615243D01*
X176203470Y-122615250D01*
X176167529Y-122725866D01*
X176144458Y-122796872D01*
X176124496Y-122986800D01*
X174051442Y-122986800D01*
X174039165Y-122838640D01*
X174039163Y-122838628D01*
X173983896Y-122620385D01*
X173969182Y-122586841D01*
X173893460Y-122414209D01*
X173770322Y-122225732D01*
X173770319Y-122225729D01*
X173770315Y-122225723D01*
X173617843Y-122060097D01*
X173617838Y-122060092D01*
X173601018Y-122047000D01*
X213767296Y-122047000D01*
X213787258Y-122236928D01*
X213787259Y-122236931D01*
X213846270Y-122418549D01*
X213846273Y-122418556D01*
X213941760Y-122583944D01*
X214069547Y-122725866D01*
X214224048Y-122838118D01*
X214398512Y-122915794D01*
X214585313Y-122955500D01*
X214776287Y-122955500D01*
X214963088Y-122915794D01*
X215137552Y-122838118D01*
X215292053Y-122725866D01*
X215419840Y-122583944D01*
X215515327Y-122418556D01*
X215574342Y-122236928D01*
X215594304Y-122047000D01*
X215574342Y-121857072D01*
X215515327Y-121675444D01*
X215419840Y-121510056D01*
X215292053Y-121368134D01*
X215137552Y-121255882D01*
X214963088Y-121178206D01*
X214963086Y-121178205D01*
X214776287Y-121138500D01*
X214585313Y-121138500D01*
X214398514Y-121178205D01*
X214224046Y-121255883D01*
X214069545Y-121368135D01*
X213941759Y-121510057D01*
X213846273Y-121675443D01*
X213846270Y-121675450D01*
X213809993Y-121787100D01*
X213787258Y-121857072D01*
X213767296Y-122047000D01*
X173601018Y-122047000D01*
X173440177Y-121921812D01*
X173440178Y-121921812D01*
X173440176Y-121921811D01*
X173403670Y-121902055D01*
X173354079Y-121852836D01*
X173338971Y-121784619D01*
X173363141Y-121719064D01*
X173403670Y-121683945D01*
X173419367Y-121675450D01*
X173440176Y-121664189D01*
X173617840Y-121525906D01*
X173770322Y-121360268D01*
X173893460Y-121171791D01*
X173983896Y-120965616D01*
X174005931Y-120878600D01*
X180950496Y-120878600D01*
X180970458Y-121068528D01*
X180970459Y-121068531D01*
X181029470Y-121250149D01*
X181029473Y-121250156D01*
X181124960Y-121415544D01*
X181252747Y-121557466D01*
X181407248Y-121669718D01*
X181581712Y-121747394D01*
X181768513Y-121787100D01*
X181959487Y-121787100D01*
X182146288Y-121747394D01*
X182320752Y-121669718D01*
X182475253Y-121557466D01*
X182603040Y-121415544D01*
X182698527Y-121250156D01*
X182757542Y-121068528D01*
X182768993Y-120959569D01*
X182795576Y-120894960D01*
X182852873Y-120854974D01*
X182922692Y-120852314D01*
X182942741Y-120859252D01*
X183054912Y-120909194D01*
X183241713Y-120948900D01*
X183432687Y-120948900D01*
X183619488Y-120909194D01*
X183793952Y-120831518D01*
X183948453Y-120719266D01*
X184076240Y-120577344D01*
X184136945Y-120472200D01*
X194742696Y-120472200D01*
X194762658Y-120662128D01*
X194762659Y-120662131D01*
X194821670Y-120843749D01*
X194821673Y-120843756D01*
X194917160Y-121009144D01*
X195019490Y-121122794D01*
X195042455Y-121148299D01*
X195044947Y-121151066D01*
X195199448Y-121263318D01*
X195373912Y-121340994D01*
X195560713Y-121380700D01*
X195751687Y-121380700D01*
X195938488Y-121340994D01*
X196112952Y-121263318D01*
X196267453Y-121151066D01*
X196395240Y-121009144D01*
X196490727Y-120843756D01*
X196549742Y-120662128D01*
X196569704Y-120472200D01*
X196559026Y-120370600D01*
X210312896Y-120370600D01*
X210332858Y-120560528D01*
X210332859Y-120560531D01*
X210391870Y-120742149D01*
X210391873Y-120742156D01*
X210487360Y-120907544D01*
X210615147Y-121049466D01*
X210769648Y-121161718D01*
X210944112Y-121239394D01*
X211130913Y-121279100D01*
X211321887Y-121279100D01*
X211508688Y-121239394D01*
X211683152Y-121161718D01*
X211837653Y-121049466D01*
X211965440Y-120907544D01*
X212060927Y-120742156D01*
X212090465Y-120651246D01*
X212129900Y-120593573D01*
X212194259Y-120566374D01*
X212258831Y-120576286D01*
X212264912Y-120578994D01*
X212451713Y-120618700D01*
X212642687Y-120618700D01*
X212829488Y-120578994D01*
X213003952Y-120501318D01*
X213158453Y-120389066D01*
X213286240Y-120247144D01*
X213381727Y-120081756D01*
X213402254Y-120018582D01*
X213441692Y-119960906D01*
X213506050Y-119933708D01*
X213520185Y-119932900D01*
X213531687Y-119932900D01*
X213718488Y-119893194D01*
X213892952Y-119815518D01*
X214047453Y-119703266D01*
X214175240Y-119561344D01*
X214181443Y-119550600D01*
X225197420Y-119550600D01*
X225216891Y-119748299D01*
X225274560Y-119938408D01*
X225368203Y-120113602D01*
X225368205Y-120113604D01*
X225416076Y-120171936D01*
X225443388Y-120236246D01*
X225431597Y-120305113D01*
X225416076Y-120329264D01*
X225368205Y-120387595D01*
X225368203Y-120387597D01*
X225274560Y-120562791D01*
X225216891Y-120752900D01*
X225197420Y-120950600D01*
X225216891Y-121148299D01*
X225274560Y-121338408D01*
X225368201Y-121513598D01*
X225368205Y-121513605D01*
X225494231Y-121667168D01*
X225647794Y-121793194D01*
X225647801Y-121793198D01*
X225822988Y-121886837D01*
X225822989Y-121886837D01*
X225822996Y-121886841D01*
X225875860Y-121902877D01*
X225934295Y-121941172D01*
X225958522Y-121985539D01*
X225974559Y-122038406D01*
X226068201Y-122213598D01*
X226068205Y-122213605D01*
X226194231Y-122367168D01*
X226347794Y-122493194D01*
X226347801Y-122493198D01*
X226522991Y-122586839D01*
X226522993Y-122586839D01*
X226522996Y-122586841D01*
X226713099Y-122644508D01*
X226713098Y-122644508D01*
X226730824Y-122646253D01*
X226910800Y-122663980D01*
X227108501Y-122644508D01*
X227298604Y-122586841D01*
X227473804Y-122493195D01*
X227506837Y-122466085D01*
X227532135Y-122445324D01*
X227596445Y-122418011D01*
X227665312Y-122429802D01*
X227689465Y-122445324D01*
X227747794Y-122493194D01*
X227747801Y-122493198D01*
X227922991Y-122586839D01*
X227922993Y-122586839D01*
X227922996Y-122586841D01*
X228113099Y-122644508D01*
X228113098Y-122644508D01*
X228130824Y-122646253D01*
X228310800Y-122663980D01*
X228508501Y-122644508D01*
X228698604Y-122586841D01*
X228873804Y-122493195D01*
X229027368Y-122367168D01*
X229153395Y-122213604D01*
X229247041Y-122038404D01*
X229263076Y-121985540D01*
X229301371Y-121927103D01*
X229345739Y-121902877D01*
X229398604Y-121886841D01*
X229573804Y-121793195D01*
X229727368Y-121667168D01*
X229853395Y-121513604D01*
X229935350Y-121360276D01*
X229947039Y-121338408D01*
X229947039Y-121338407D01*
X229947041Y-121338404D01*
X230004708Y-121148301D01*
X230024180Y-120950600D01*
X230004708Y-120752899D01*
X229947041Y-120562796D01*
X229947039Y-120562793D01*
X229947039Y-120562791D01*
X229853398Y-120387601D01*
X229853394Y-120387594D01*
X229805524Y-120329265D01*
X229778211Y-120264955D01*
X229790002Y-120196088D01*
X229805524Y-120171935D01*
X229853394Y-120113605D01*
X229853398Y-120113598D01*
X229947039Y-119938408D01*
X229947039Y-119938407D01*
X229947041Y-119938404D01*
X230004708Y-119748301D01*
X230024180Y-119550600D01*
X230004708Y-119352899D01*
X229947041Y-119162796D01*
X229947039Y-119162793D01*
X229947039Y-119162791D01*
X229853398Y-118987601D01*
X229853394Y-118987594D01*
X229727368Y-118834031D01*
X229573805Y-118708005D01*
X229573798Y-118708001D01*
X229398606Y-118614359D01*
X229345739Y-118598322D01*
X229287301Y-118560024D01*
X229263077Y-118515660D01*
X229247041Y-118462796D01*
X229220597Y-118413322D01*
X229153398Y-118287601D01*
X229153394Y-118287594D01*
X229027368Y-118134031D01*
X228873805Y-118008005D01*
X228873798Y-118008001D01*
X228698608Y-117914360D01*
X228529078Y-117862934D01*
X228508501Y-117856692D01*
X228508499Y-117856691D01*
X228508501Y-117856691D01*
X228310800Y-117837220D01*
X228113100Y-117856691D01*
X227922991Y-117914360D01*
X227747797Y-118008003D01*
X227747795Y-118008005D01*
X227689464Y-118055876D01*
X227625154Y-118083188D01*
X227556287Y-118071397D01*
X227532136Y-118055876D01*
X227473804Y-118008005D01*
X227473802Y-118008003D01*
X227298608Y-117914360D01*
X227129078Y-117862934D01*
X227108501Y-117856692D01*
X227108499Y-117856691D01*
X227108501Y-117856691D01*
X226910800Y-117837220D01*
X226713100Y-117856691D01*
X226522991Y-117914360D01*
X226347801Y-118008001D01*
X226347794Y-118008005D01*
X226194231Y-118134031D01*
X226068205Y-118287594D01*
X226068201Y-118287601D01*
X225974560Y-118462792D01*
X225958522Y-118515660D01*
X225920223Y-118574098D01*
X225875860Y-118598322D01*
X225822992Y-118614360D01*
X225647801Y-118708001D01*
X225647794Y-118708005D01*
X225494231Y-118834031D01*
X225368205Y-118987594D01*
X225368201Y-118987601D01*
X225274560Y-119162791D01*
X225216891Y-119352900D01*
X225197420Y-119550600D01*
X214181443Y-119550600D01*
X214270727Y-119395956D01*
X214329742Y-119214328D01*
X214349704Y-119024400D01*
X214329742Y-118834472D01*
X214270727Y-118652844D01*
X214175240Y-118487456D01*
X214047453Y-118345534D01*
X213892952Y-118233282D01*
X213718488Y-118155606D01*
X213718486Y-118155605D01*
X213531687Y-118115900D01*
X213340713Y-118115900D01*
X213153914Y-118155605D01*
X212979446Y-118233283D01*
X212824945Y-118345535D01*
X212760695Y-118416892D01*
X212701209Y-118453540D01*
X212631352Y-118452209D01*
X212573304Y-118413322D01*
X212545494Y-118349225D01*
X212545226Y-118320953D01*
X212546304Y-118310700D01*
X212526342Y-118120772D01*
X212467327Y-117939144D01*
X212371840Y-117773756D01*
X212244053Y-117631834D01*
X212089552Y-117519582D01*
X211915088Y-117441906D01*
X211915086Y-117441905D01*
X211728287Y-117402200D01*
X211537313Y-117402200D01*
X211350514Y-117441905D01*
X211176046Y-117519583D01*
X211021545Y-117631835D01*
X210893759Y-117773757D01*
X210798273Y-117939143D01*
X210798270Y-117939150D01*
X210740841Y-118115900D01*
X210739258Y-118120772D01*
X210719296Y-118310700D01*
X210739258Y-118500628D01*
X210739259Y-118500631D01*
X210798270Y-118682249D01*
X210798273Y-118682256D01*
X210893760Y-118847644D01*
X210975647Y-118938589D01*
X211018251Y-118985906D01*
X211021547Y-118989566D01*
X211176048Y-119101818D01*
X211350512Y-119179494D01*
X211537313Y-119219200D01*
X211580811Y-119219200D01*
X211647850Y-119238885D01*
X211693605Y-119291689D01*
X211703549Y-119360847D01*
X211698741Y-119381521D01*
X211683133Y-119429554D01*
X211643694Y-119487228D01*
X211579335Y-119514425D01*
X211514770Y-119504514D01*
X211512394Y-119503456D01*
X211508688Y-119501806D01*
X211508686Y-119501805D01*
X211321887Y-119462100D01*
X211130913Y-119462100D01*
X210944114Y-119501805D01*
X210902636Y-119520272D01*
X210839559Y-119548356D01*
X210769646Y-119579483D01*
X210615145Y-119691735D01*
X210487359Y-119833657D01*
X210391873Y-119999043D01*
X210391870Y-119999050D01*
X210332859Y-120180668D01*
X210332858Y-120180672D01*
X210312896Y-120370600D01*
X196559026Y-120370600D01*
X196549742Y-120282272D01*
X196490727Y-120100644D01*
X196395240Y-119935256D01*
X196267453Y-119793334D01*
X196112952Y-119681082D01*
X195938488Y-119603406D01*
X195938486Y-119603405D01*
X195751687Y-119563700D01*
X195560713Y-119563700D01*
X195373914Y-119603405D01*
X195373912Y-119603406D01*
X195226938Y-119668843D01*
X195199446Y-119681083D01*
X195044945Y-119793335D01*
X194917159Y-119935257D01*
X194821673Y-120100643D01*
X194821670Y-120100650D01*
X194762659Y-120282268D01*
X194762658Y-120282272D01*
X194742696Y-120472200D01*
X184136945Y-120472200D01*
X184171727Y-120411956D01*
X184230742Y-120230328D01*
X184250704Y-120040400D01*
X184230742Y-119850472D01*
X184171727Y-119668844D01*
X184076240Y-119503456D01*
X183948453Y-119361534D01*
X183793952Y-119249282D01*
X183619488Y-119171606D01*
X183619486Y-119171605D01*
X183432687Y-119131900D01*
X183241713Y-119131900D01*
X183054914Y-119171605D01*
X183054912Y-119171606D01*
X182890922Y-119244619D01*
X182880446Y-119249283D01*
X182725945Y-119361535D01*
X182598159Y-119503457D01*
X182502673Y-119668843D01*
X182502670Y-119668850D01*
X182443659Y-119850468D01*
X182443658Y-119850472D01*
X182439168Y-119893194D01*
X182432207Y-119959425D01*
X182405622Y-120024039D01*
X182348325Y-120064024D01*
X182278506Y-120066684D01*
X182258452Y-120059743D01*
X182146289Y-120009806D01*
X182146286Y-120009805D01*
X181959487Y-119970100D01*
X181768513Y-119970100D01*
X181581714Y-120009805D01*
X181549744Y-120024039D01*
X181423191Y-120080384D01*
X181407246Y-120087483D01*
X181252745Y-120199735D01*
X181124959Y-120341657D01*
X181029473Y-120507043D01*
X181029470Y-120507050D01*
X180970459Y-120688668D01*
X180970458Y-120688672D01*
X180950496Y-120878600D01*
X174005931Y-120878600D01*
X174039164Y-120747368D01*
X174039596Y-120742156D01*
X174057756Y-120523005D01*
X174057756Y-120522994D01*
X174039165Y-120298640D01*
X174039163Y-120298628D01*
X174014120Y-120199735D01*
X173983896Y-120080384D01*
X173893460Y-119874209D01*
X173881345Y-119855666D01*
X173788622Y-119713742D01*
X173770322Y-119685732D01*
X173770319Y-119685729D01*
X173770315Y-119685723D01*
X173617843Y-119520097D01*
X173617838Y-119520092D01*
X173440177Y-119381812D01*
X173440178Y-119381812D01*
X173440176Y-119381811D01*
X173403670Y-119362055D01*
X173354079Y-119312836D01*
X173338971Y-119244619D01*
X173363141Y-119179064D01*
X173365754Y-119176800D01*
X177267496Y-119176800D01*
X177287458Y-119366728D01*
X177287459Y-119366731D01*
X177346470Y-119548349D01*
X177346473Y-119548356D01*
X177441960Y-119713744D01*
X177569747Y-119855666D01*
X177724248Y-119967918D01*
X177898712Y-120045594D01*
X178085513Y-120085300D01*
X178276487Y-120085300D01*
X178463288Y-120045594D01*
X178637752Y-119967918D01*
X178792253Y-119855666D01*
X178920040Y-119713744D01*
X179015527Y-119548356D01*
X179074542Y-119366728D01*
X179094504Y-119176800D01*
X179074542Y-118986872D01*
X179015527Y-118805244D01*
X178920040Y-118639856D01*
X178831750Y-118541800D01*
X184938296Y-118541800D01*
X184958258Y-118731728D01*
X184958259Y-118731731D01*
X185017270Y-118913349D01*
X185017273Y-118913356D01*
X185112760Y-119078744D01*
X185240547Y-119220666D01*
X185395048Y-119332918D01*
X185569512Y-119410594D01*
X185756313Y-119450300D01*
X185947287Y-119450300D01*
X186134088Y-119410594D01*
X186308552Y-119332918D01*
X186463053Y-119220666D01*
X186590840Y-119078744D01*
X186686327Y-118913356D01*
X186745342Y-118731728D01*
X186765304Y-118541800D01*
X186745342Y-118351872D01*
X186686327Y-118170244D01*
X186590840Y-118004856D01*
X186463053Y-117862934D01*
X186308552Y-117750682D01*
X186134088Y-117673006D01*
X186134086Y-117673005D01*
X185947287Y-117633300D01*
X185756313Y-117633300D01*
X185569514Y-117673005D01*
X185395046Y-117750683D01*
X185240545Y-117862935D01*
X185112759Y-118004857D01*
X185017273Y-118170243D01*
X185017270Y-118170250D01*
X184971635Y-118310701D01*
X184958258Y-118351872D01*
X184938296Y-118541800D01*
X178831750Y-118541800D01*
X178792253Y-118497934D01*
X178637752Y-118385682D01*
X178463288Y-118308006D01*
X178463286Y-118308005D01*
X178276487Y-118268300D01*
X178085513Y-118268300D01*
X177898714Y-118308005D01*
X177724246Y-118385683D01*
X177569745Y-118497935D01*
X177441959Y-118639857D01*
X177346473Y-118805243D01*
X177346470Y-118805250D01*
X177287459Y-118986868D01*
X177287458Y-118986872D01*
X177267496Y-119176800D01*
X173365754Y-119176800D01*
X173403670Y-119143945D01*
X173403684Y-119143936D01*
X173440176Y-119124189D01*
X173617840Y-118985906D01*
X173728130Y-118866100D01*
X173770315Y-118820276D01*
X173770316Y-118820274D01*
X173770322Y-118820268D01*
X173893460Y-118631791D01*
X173983896Y-118425616D01*
X174039164Y-118207368D01*
X174042240Y-118170250D01*
X174057756Y-117983005D01*
X174057756Y-117982994D01*
X174039165Y-117758640D01*
X174039163Y-117758628D01*
X174036476Y-117748018D01*
X173983896Y-117540384D01*
X173893460Y-117334209D01*
X173857216Y-117278734D01*
X173770323Y-117145734D01*
X173770315Y-117145723D01*
X173617843Y-116980097D01*
X173617838Y-116980092D01*
X173440177Y-116841812D01*
X173440178Y-116841812D01*
X173440176Y-116841811D01*
X173403670Y-116822055D01*
X173354079Y-116772836D01*
X173352078Y-116763800D01*
X208357096Y-116763800D01*
X208377058Y-116953728D01*
X208377059Y-116953731D01*
X208436070Y-117135349D01*
X208436073Y-117135356D01*
X208531560Y-117300744D01*
X208590252Y-117365928D01*
X208658662Y-117441906D01*
X208659347Y-117442666D01*
X208813848Y-117554918D01*
X208988312Y-117632594D01*
X209175113Y-117672300D01*
X209366087Y-117672300D01*
X209552888Y-117632594D01*
X209727352Y-117554918D01*
X209881853Y-117442666D01*
X210009640Y-117300744D01*
X210105127Y-117135356D01*
X210164142Y-116953728D01*
X210184104Y-116763800D01*
X210164142Y-116573872D01*
X210105127Y-116392244D01*
X210009640Y-116226856D01*
X209881853Y-116084934D01*
X209727352Y-115972682D01*
X209552888Y-115895006D01*
X209552886Y-115895005D01*
X209366087Y-115855300D01*
X209175113Y-115855300D01*
X208988314Y-115895005D01*
X208813846Y-115972683D01*
X208659345Y-116084935D01*
X208531559Y-116226857D01*
X208436073Y-116392243D01*
X208436070Y-116392250D01*
X208391540Y-116529300D01*
X208377058Y-116573872D01*
X208357096Y-116763800D01*
X173352078Y-116763800D01*
X173338971Y-116704619D01*
X173363141Y-116639064D01*
X173403670Y-116603945D01*
X173403684Y-116603936D01*
X173440176Y-116584189D01*
X173617840Y-116445906D01*
X173770322Y-116280268D01*
X173893460Y-116091791D01*
X173983896Y-115885616D01*
X174039164Y-115667368D01*
X174040429Y-115652100D01*
X174043023Y-115620800D01*
X176149896Y-115620800D01*
X176169858Y-115810728D01*
X176169859Y-115810731D01*
X176228870Y-115992349D01*
X176228873Y-115992356D01*
X176324360Y-116157744D01*
X176452147Y-116299666D01*
X176606648Y-116411918D01*
X176781112Y-116489594D01*
X176967913Y-116529300D01*
X177158887Y-116529300D01*
X177345688Y-116489594D01*
X177520152Y-116411918D01*
X177674653Y-116299666D01*
X177802440Y-116157744D01*
X177897927Y-115992356D01*
X177956942Y-115810728D01*
X177976904Y-115620800D01*
X177956942Y-115430872D01*
X177952630Y-115417600D01*
X212014696Y-115417600D01*
X212034658Y-115607528D01*
X212034659Y-115607531D01*
X212093670Y-115789149D01*
X212093673Y-115789156D01*
X212189160Y-115954544D01*
X212251389Y-116023656D01*
X212312738Y-116091792D01*
X212316947Y-116096466D01*
X212471448Y-116208718D01*
X212645912Y-116286394D01*
X212832713Y-116326100D01*
X213023687Y-116326100D01*
X213210488Y-116286394D01*
X213384952Y-116208718D01*
X213539453Y-116096466D01*
X213667240Y-115954544D01*
X213762727Y-115789156D01*
X213821742Y-115607528D01*
X213841704Y-115417600D01*
X213821742Y-115227672D01*
X213762727Y-115046044D01*
X213667240Y-114880656D01*
X213539453Y-114738734D01*
X213384952Y-114626482D01*
X213210488Y-114548806D01*
X213210486Y-114548805D01*
X213023687Y-114509100D01*
X212832713Y-114509100D01*
X212645914Y-114548805D01*
X212645912Y-114548806D01*
X212518054Y-114605732D01*
X212471446Y-114626483D01*
X212316945Y-114738735D01*
X212189159Y-114880657D01*
X212093673Y-115046043D01*
X212093670Y-115046050D01*
X212034659Y-115227668D01*
X212034658Y-115227672D01*
X212014696Y-115417600D01*
X177952630Y-115417600D01*
X177897927Y-115249244D01*
X177802440Y-115083856D01*
X177674653Y-114941934D01*
X177520152Y-114829682D01*
X177345688Y-114752006D01*
X177345686Y-114752005D01*
X177158887Y-114712300D01*
X176967913Y-114712300D01*
X176781114Y-114752005D01*
X176606646Y-114829683D01*
X176452145Y-114941935D01*
X176324359Y-115083857D01*
X176228873Y-115249243D01*
X176228870Y-115249250D01*
X176174170Y-115417600D01*
X176169858Y-115430872D01*
X176149896Y-115620800D01*
X174043023Y-115620800D01*
X174057756Y-115443005D01*
X174057756Y-115442994D01*
X174039165Y-115218640D01*
X174039163Y-115218628D01*
X174006873Y-115091118D01*
X173983896Y-115000384D01*
X173893460Y-114794209D01*
X173865887Y-114752006D01*
X173783879Y-114626483D01*
X173770322Y-114605732D01*
X173770319Y-114605729D01*
X173770315Y-114605723D01*
X173617843Y-114440097D01*
X173617838Y-114440092D01*
X173440177Y-114301812D01*
X173440178Y-114301812D01*
X173440176Y-114301811D01*
X173436830Y-114300000D01*
X188494296Y-114300000D01*
X188514258Y-114489928D01*
X188514259Y-114489931D01*
X188573270Y-114671549D01*
X188573273Y-114671556D01*
X188668760Y-114836944D01*
X188796547Y-114978866D01*
X188951048Y-115091118D01*
X189125512Y-115168794D01*
X189312313Y-115208500D01*
X189503287Y-115208500D01*
X189690088Y-115168794D01*
X189864552Y-115091118D01*
X190019053Y-114978866D01*
X190146840Y-114836944D01*
X190242327Y-114671556D01*
X190301342Y-114489928D01*
X190321304Y-114300000D01*
X190301342Y-114110072D01*
X190287393Y-114067143D01*
X201158529Y-114067143D01*
X201178491Y-114257071D01*
X201178492Y-114257074D01*
X201237503Y-114438692D01*
X201237506Y-114438699D01*
X201332993Y-114604087D01*
X201430428Y-114712300D01*
X201454229Y-114738734D01*
X201460780Y-114746009D01*
X201615281Y-114858261D01*
X201789745Y-114935937D01*
X201976546Y-114975643D01*
X202167520Y-114975643D01*
X202354321Y-114935937D01*
X202528785Y-114858261D01*
X202683286Y-114746009D01*
X202811073Y-114604087D01*
X202819908Y-114588784D01*
X202870471Y-114540570D01*
X202939077Y-114527344D01*
X202965614Y-114532852D01*
X202968506Y-114533791D01*
X202968512Y-114533794D01*
X203155313Y-114573500D01*
X203346287Y-114573500D01*
X203533088Y-114533794D01*
X203707552Y-114456118D01*
X203862053Y-114343866D01*
X203989840Y-114201944D01*
X204085327Y-114036556D01*
X204144342Y-113854928D01*
X204164304Y-113665000D01*
X204144342Y-113475072D01*
X204085327Y-113293444D01*
X203989840Y-113128056D01*
X203862053Y-112986134D01*
X203707552Y-112873882D01*
X203533088Y-112796206D01*
X203533086Y-112796205D01*
X203346287Y-112756500D01*
X203155313Y-112756500D01*
X202968514Y-112796205D01*
X202794046Y-112873883D01*
X202639545Y-112986135D01*
X202511759Y-113128057D01*
X202502923Y-113143361D01*
X202452355Y-113191576D01*
X202383748Y-113204797D01*
X202357226Y-113199292D01*
X202354325Y-113198349D01*
X202167520Y-113158643D01*
X201976546Y-113158643D01*
X201789747Y-113198348D01*
X201789745Y-113198349D01*
X201622269Y-113272914D01*
X201615279Y-113276026D01*
X201460778Y-113388278D01*
X201332992Y-113530200D01*
X201237506Y-113695586D01*
X201237503Y-113695593D01*
X201178492Y-113877211D01*
X201178491Y-113877215D01*
X201158529Y-114067143D01*
X190287393Y-114067143D01*
X190242327Y-113928444D01*
X190146840Y-113763056D01*
X190019053Y-113621134D01*
X189864552Y-113508882D01*
X189690088Y-113431206D01*
X189690086Y-113431205D01*
X189503287Y-113391500D01*
X189312313Y-113391500D01*
X189125514Y-113431205D01*
X188951046Y-113508883D01*
X188796545Y-113621135D01*
X188668759Y-113763057D01*
X188573273Y-113928443D01*
X188573270Y-113928450D01*
X188514259Y-114110068D01*
X188514258Y-114110072D01*
X188494296Y-114300000D01*
X173436830Y-114300000D01*
X173403670Y-114282055D01*
X173354079Y-114232836D01*
X173338971Y-114164619D01*
X173363141Y-114099064D01*
X173403670Y-114063945D01*
X173403684Y-114063936D01*
X173440176Y-114044189D01*
X173617840Y-113905906D01*
X173770322Y-113740268D01*
X173893460Y-113551791D01*
X173983896Y-113345616D01*
X174039164Y-113127368D01*
X174039165Y-113127359D01*
X174057756Y-112903005D01*
X174057756Y-112902994D01*
X174039165Y-112678640D01*
X174039163Y-112678628D01*
X173983896Y-112460385D01*
X173955216Y-112395000D01*
X181407696Y-112395000D01*
X181427658Y-112584928D01*
X181427659Y-112584931D01*
X181486670Y-112766549D01*
X181486673Y-112766556D01*
X181582160Y-112931944D01*
X181709947Y-113073866D01*
X181864448Y-113186118D01*
X182038912Y-113263794D01*
X182225713Y-113303500D01*
X182416687Y-113303500D01*
X182603488Y-113263794D01*
X182777952Y-113186118D01*
X182932453Y-113073866D01*
X183060240Y-112931944D01*
X183155727Y-112766556D01*
X183214742Y-112584928D01*
X183234704Y-112395000D01*
X183214742Y-112205072D01*
X183155727Y-112023444D01*
X183060240Y-111858056D01*
X182932453Y-111716134D01*
X182777952Y-111603882D01*
X182603488Y-111526206D01*
X182603486Y-111526205D01*
X182416687Y-111486500D01*
X182225713Y-111486500D01*
X182038914Y-111526205D01*
X181864446Y-111603883D01*
X181709945Y-111716135D01*
X181582159Y-111858057D01*
X181486673Y-112023443D01*
X181486670Y-112023450D01*
X181427659Y-112205068D01*
X181427658Y-112205072D01*
X181407696Y-112395000D01*
X173955216Y-112395000D01*
X173909978Y-112291868D01*
X173893460Y-112254209D01*
X173770322Y-112065732D01*
X173770319Y-112065729D01*
X173770315Y-112065723D01*
X173617843Y-111900097D01*
X173617838Y-111900092D01*
X173440177Y-111761812D01*
X173440178Y-111761812D01*
X173440176Y-111761811D01*
X173403670Y-111742055D01*
X173354079Y-111692836D01*
X173338971Y-111624619D01*
X173363141Y-111559064D01*
X173403670Y-111523945D01*
X173403684Y-111523936D01*
X173440176Y-111504189D01*
X173617840Y-111365906D01*
X173770322Y-111200268D01*
X173893460Y-111011791D01*
X173983896Y-110805616D01*
X174039164Y-110587368D01*
X174050120Y-110455156D01*
X174057756Y-110363005D01*
X174057756Y-110362994D01*
X174049337Y-110261400D01*
X181966496Y-110261400D01*
X181986458Y-110451328D01*
X181986459Y-110451331D01*
X182045470Y-110632949D01*
X182045473Y-110632956D01*
X182140960Y-110798344D01*
X182268747Y-110940266D01*
X182423248Y-111052518D01*
X182597712Y-111130194D01*
X182784513Y-111169900D01*
X182975487Y-111169900D01*
X183162288Y-111130194D01*
X183336752Y-111052518D01*
X183491253Y-110940266D01*
X183619040Y-110798344D01*
X183714527Y-110632956D01*
X183773542Y-110451328D01*
X183793504Y-110261400D01*
X183773542Y-110071472D01*
X183714527Y-109889844D01*
X183709074Y-109880400D01*
X185801896Y-109880400D01*
X185821858Y-110070328D01*
X185821859Y-110070331D01*
X185880870Y-110251949D01*
X185880873Y-110251956D01*
X185976360Y-110417344D01*
X186104147Y-110559266D01*
X186258648Y-110671518D01*
X186258651Y-110671520D01*
X186264493Y-110674121D01*
X186317731Y-110719371D01*
X186338053Y-110786219D01*
X186337380Y-110800356D01*
X186335296Y-110820193D01*
X186335296Y-110820197D01*
X186335296Y-110820200D01*
X186355258Y-111010128D01*
X186355259Y-111010131D01*
X186414270Y-111191749D01*
X186414273Y-111191756D01*
X186509760Y-111357144D01*
X186612090Y-111470794D01*
X186626232Y-111486500D01*
X186637547Y-111499066D01*
X186792048Y-111611318D01*
X186966512Y-111688994D01*
X187153313Y-111728700D01*
X187218515Y-111728700D01*
X187285554Y-111748385D01*
X187331309Y-111801189D01*
X187341253Y-111870347D01*
X187323694Y-111913607D01*
X187325809Y-111914828D01*
X187227073Y-112085843D01*
X187227070Y-112085850D01*
X187188334Y-112205068D01*
X187168058Y-112267472D01*
X187148096Y-112457400D01*
X187168058Y-112647328D01*
X187168059Y-112647331D01*
X187227070Y-112828949D01*
X187227073Y-112828956D01*
X187322560Y-112994344D01*
X187394160Y-113073864D01*
X187442955Y-113128057D01*
X187450347Y-113136266D01*
X187604848Y-113248518D01*
X187779312Y-113326194D01*
X187966113Y-113365900D01*
X188157087Y-113365900D01*
X188343888Y-113326194D01*
X188518352Y-113248518D01*
X188672853Y-113136266D01*
X188800640Y-112994344D01*
X188896127Y-112828956D01*
X188955142Y-112647328D01*
X188972540Y-112481796D01*
X210922298Y-112481796D01*
X210942260Y-112671724D01*
X210942261Y-112671727D01*
X211001272Y-112853345D01*
X211001275Y-112853352D01*
X211096762Y-113018740D01*
X211224549Y-113160662D01*
X211379050Y-113272914D01*
X211553514Y-113350590D01*
X211740315Y-113390296D01*
X211931289Y-113390296D01*
X212118090Y-113350590D01*
X212292554Y-113272914D01*
X212447055Y-113160662D01*
X212574842Y-113018740D01*
X212670329Y-112853352D01*
X212729344Y-112671724D01*
X212749306Y-112481796D01*
X212729344Y-112291868D01*
X212670329Y-112110240D01*
X212574842Y-111944852D01*
X212447055Y-111802930D01*
X212292554Y-111690678D01*
X212118090Y-111613002D01*
X212118088Y-111613001D01*
X211931289Y-111573296D01*
X211740315Y-111573296D01*
X211553516Y-111613001D01*
X211466282Y-111651840D01*
X211382833Y-111688994D01*
X211379048Y-111690679D01*
X211224547Y-111802931D01*
X211096761Y-111944853D01*
X211001275Y-112110239D01*
X211001272Y-112110246D01*
X210942261Y-112291864D01*
X210942260Y-112291868D01*
X210922298Y-112481796D01*
X188972540Y-112481796D01*
X188975104Y-112457400D01*
X188955142Y-112267472D01*
X188896127Y-112085844D01*
X188800640Y-111920456D01*
X188672853Y-111778534D01*
X188518352Y-111666282D01*
X188343888Y-111588606D01*
X188343886Y-111588605D01*
X188157087Y-111548900D01*
X188091885Y-111548900D01*
X188024846Y-111529215D01*
X187979091Y-111476411D01*
X187969147Y-111407253D01*
X187986705Y-111363992D01*
X187984591Y-111362772D01*
X188009306Y-111319962D01*
X188083327Y-111191756D01*
X188142342Y-111010128D01*
X188148098Y-110955355D01*
X188174681Y-110890745D01*
X188231978Y-110850760D01*
X188301797Y-110848099D01*
X188344302Y-110868001D01*
X188353544Y-110874715D01*
X188353543Y-110874715D01*
X188353545Y-110874716D01*
X188353548Y-110874718D01*
X188528012Y-110952394D01*
X188714813Y-110992100D01*
X188905787Y-110992100D01*
X189092588Y-110952394D01*
X189267052Y-110874718D01*
X189421553Y-110762466D01*
X189483920Y-110693200D01*
X193421896Y-110693200D01*
X193441858Y-110883128D01*
X193441859Y-110883131D01*
X193500870Y-111064749D01*
X193500873Y-111064756D01*
X193596360Y-111230144D01*
X193698690Y-111343794D01*
X193718600Y-111365906D01*
X193724147Y-111372066D01*
X193878648Y-111484318D01*
X194053112Y-111561994D01*
X194239913Y-111601700D01*
X194430887Y-111601700D01*
X194617688Y-111561994D01*
X194792152Y-111484318D01*
X194946653Y-111372066D01*
X195074440Y-111230144D01*
X195169927Y-111064756D01*
X195228942Y-110883128D01*
X195248904Y-110693200D01*
X195228942Y-110503272D01*
X195169927Y-110321644D01*
X195074440Y-110156256D01*
X194946653Y-110014334D01*
X194792152Y-109902082D01*
X194617688Y-109824406D01*
X194617686Y-109824405D01*
X194430887Y-109784700D01*
X194239913Y-109784700D01*
X194053114Y-109824405D01*
X194053112Y-109824406D01*
X193906138Y-109889843D01*
X193878646Y-109902083D01*
X193724145Y-110014335D01*
X193596359Y-110156257D01*
X193500873Y-110321643D01*
X193500870Y-110321650D01*
X193441859Y-110503268D01*
X193441858Y-110503272D01*
X193421896Y-110693200D01*
X189483920Y-110693200D01*
X189549340Y-110620544D01*
X189644827Y-110455156D01*
X189703842Y-110273528D01*
X189723804Y-110083600D01*
X189703842Y-109893672D01*
X189644827Y-109712044D01*
X189549340Y-109546656D01*
X189421553Y-109404734D01*
X189267052Y-109292482D01*
X189092588Y-109214806D01*
X189092586Y-109214805D01*
X188905787Y-109175100D01*
X188714813Y-109175100D01*
X188528014Y-109214805D01*
X188353546Y-109292483D01*
X188199045Y-109404735D01*
X188071259Y-109546657D01*
X187975773Y-109712043D01*
X187975770Y-109712050D01*
X187918000Y-109889850D01*
X187916758Y-109893672D01*
X187911002Y-109948441D01*
X187884417Y-110013056D01*
X187827119Y-110053040D01*
X187757300Y-110055700D01*
X187714798Y-110035799D01*
X187705555Y-110029084D01*
X187705554Y-110029083D01*
X187705552Y-110029082D01*
X187699702Y-110026477D01*
X187646467Y-109981229D01*
X187626145Y-109914380D01*
X187626819Y-109900234D01*
X187627509Y-109893668D01*
X187628904Y-109880400D01*
X187608942Y-109690472D01*
X187549927Y-109508844D01*
X187454440Y-109343456D01*
X187326653Y-109201534D01*
X187172152Y-109089282D01*
X186997688Y-109011606D01*
X186997686Y-109011605D01*
X186810887Y-108971900D01*
X186619913Y-108971900D01*
X186433114Y-109011605D01*
X186433112Y-109011606D01*
X186269122Y-109084619D01*
X186258646Y-109089283D01*
X186104145Y-109201535D01*
X185976359Y-109343457D01*
X185880873Y-109508843D01*
X185880870Y-109508850D01*
X185821859Y-109690468D01*
X185821858Y-109690472D01*
X185801896Y-109880400D01*
X183709074Y-109880400D01*
X183619040Y-109724456D01*
X183491253Y-109582534D01*
X183336752Y-109470282D01*
X183162288Y-109392606D01*
X183162286Y-109392605D01*
X182975487Y-109352900D01*
X182784513Y-109352900D01*
X182597714Y-109392605D01*
X182423246Y-109470283D01*
X182268745Y-109582535D01*
X182140959Y-109724457D01*
X182045473Y-109889843D01*
X182045470Y-109889850D01*
X181986459Y-110071468D01*
X181986458Y-110071472D01*
X181966496Y-110261400D01*
X174049337Y-110261400D01*
X174039165Y-110138640D01*
X174039163Y-110138628D01*
X173983896Y-109920385D01*
X173975868Y-109902083D01*
X173893460Y-109714209D01*
X173892049Y-109712050D01*
X173807433Y-109582535D01*
X173770322Y-109525732D01*
X173770319Y-109525729D01*
X173770315Y-109525723D01*
X173617843Y-109360097D01*
X173617838Y-109360092D01*
X173440177Y-109221812D01*
X173440178Y-109221812D01*
X173440176Y-109221811D01*
X173403670Y-109202055D01*
X173354079Y-109152836D01*
X173338971Y-109084619D01*
X173363141Y-109019064D01*
X173403670Y-108983945D01*
X173403684Y-108983936D01*
X173440176Y-108964189D01*
X173617840Y-108825906D01*
X173770322Y-108660268D01*
X173893460Y-108471791D01*
X173983896Y-108265616D01*
X174039164Y-108047368D01*
X174039165Y-108047359D01*
X174057756Y-107823005D01*
X174057756Y-107822994D01*
X174039165Y-107598640D01*
X174039163Y-107598628D01*
X173983896Y-107380385D01*
X173975868Y-107362083D01*
X173893460Y-107174209D01*
X173868277Y-107135664D01*
X173812162Y-107049773D01*
X173770322Y-106985732D01*
X173770319Y-106985729D01*
X173770315Y-106985723D01*
X173617843Y-106820097D01*
X173617838Y-106820092D01*
X173601018Y-106807000D01*
X190145296Y-106807000D01*
X190165258Y-106996928D01*
X190165259Y-106996931D01*
X190224270Y-107178549D01*
X190224273Y-107178556D01*
X190319760Y-107343944D01*
X190352571Y-107380384D01*
X190437163Y-107474334D01*
X190447547Y-107485866D01*
X190602048Y-107598118D01*
X190776512Y-107675794D01*
X190963313Y-107715500D01*
X191154287Y-107715500D01*
X191341088Y-107675794D01*
X191515552Y-107598118D01*
X191670053Y-107485866D01*
X191797840Y-107343944D01*
X191893327Y-107178556D01*
X191952342Y-106996928D01*
X191961626Y-106908600D01*
X201815996Y-106908600D01*
X201835958Y-107098528D01*
X201835959Y-107098531D01*
X201894970Y-107280149D01*
X201894973Y-107280156D01*
X201990460Y-107445544D01*
X202118247Y-107587466D01*
X202272748Y-107699718D01*
X202447212Y-107777394D01*
X202634013Y-107817100D01*
X202824987Y-107817100D01*
X203011788Y-107777394D01*
X203186252Y-107699718D01*
X203340753Y-107587466D01*
X203468540Y-107445544D01*
X203537792Y-107325596D01*
X211227098Y-107325596D01*
X211247060Y-107515524D01*
X211247061Y-107515527D01*
X211306072Y-107697145D01*
X211306075Y-107697152D01*
X211401562Y-107862540D01*
X211529349Y-108004462D01*
X211683850Y-108116714D01*
X211858314Y-108194390D01*
X212045115Y-108234096D01*
X212236089Y-108234096D01*
X212422890Y-108194390D01*
X212515405Y-108153200D01*
X230277296Y-108153200D01*
X230297258Y-108343128D01*
X230297259Y-108343131D01*
X230356270Y-108524749D01*
X230356273Y-108524756D01*
X230451760Y-108690144D01*
X230554090Y-108803794D01*
X230574000Y-108825906D01*
X230579547Y-108832066D01*
X230734048Y-108944318D01*
X230908512Y-109021994D01*
X231095313Y-109061700D01*
X231286287Y-109061700D01*
X231473088Y-109021994D01*
X231647552Y-108944318D01*
X231802053Y-108832066D01*
X231929840Y-108690144D01*
X232025327Y-108524756D01*
X232084342Y-108343128D01*
X232104304Y-108153200D01*
X232084342Y-107963272D01*
X232025327Y-107781644D01*
X231929840Y-107616256D01*
X231802053Y-107474334D01*
X231647552Y-107362082D01*
X231473088Y-107284406D01*
X231473086Y-107284405D01*
X231286287Y-107244700D01*
X231095313Y-107244700D01*
X230908514Y-107284405D01*
X230734046Y-107362083D01*
X230579545Y-107474335D01*
X230451759Y-107616257D01*
X230356273Y-107781643D01*
X230356270Y-107781650D01*
X230297259Y-107963268D01*
X230297258Y-107963272D01*
X230277296Y-108153200D01*
X212515405Y-108153200D01*
X212597354Y-108116714D01*
X212751855Y-108004462D01*
X212879642Y-107862540D01*
X212975129Y-107697152D01*
X213034144Y-107515524D01*
X213054106Y-107325596D01*
X213034144Y-107135668D01*
X212975129Y-106954040D01*
X212879642Y-106788652D01*
X212751855Y-106646730D01*
X212597354Y-106534478D01*
X212422890Y-106456802D01*
X212422888Y-106456801D01*
X212236089Y-106417096D01*
X212045115Y-106417096D01*
X211858316Y-106456801D01*
X211683848Y-106534479D01*
X211529347Y-106646731D01*
X211401561Y-106788653D01*
X211306075Y-106954039D01*
X211306072Y-106954046D01*
X211253607Y-107115518D01*
X211247060Y-107135668D01*
X211227098Y-107325596D01*
X203537792Y-107325596D01*
X203564027Y-107280156D01*
X203623042Y-107098528D01*
X203628166Y-107049769D01*
X203654749Y-106985158D01*
X203712045Y-106945173D01*
X203725694Y-106941445D01*
X203736288Y-106939194D01*
X203910752Y-106861518D01*
X204065253Y-106749266D01*
X204193040Y-106607344D01*
X204288527Y-106441956D01*
X204326724Y-106324400D01*
X221209496Y-106324400D01*
X221229458Y-106514328D01*
X221229459Y-106514331D01*
X221288470Y-106695949D01*
X221288473Y-106695956D01*
X221383960Y-106861344D01*
X221459440Y-106945173D01*
X221495442Y-106985158D01*
X221511747Y-107003266D01*
X221666248Y-107115518D01*
X221840712Y-107193194D01*
X222027513Y-107232900D01*
X222218487Y-107232900D01*
X222405288Y-107193194D01*
X222579752Y-107115518D01*
X222734253Y-107003266D01*
X222862040Y-106861344D01*
X222957527Y-106695956D01*
X223016542Y-106514328D01*
X223036504Y-106324400D01*
X223016542Y-106134472D01*
X222957527Y-105952844D01*
X222862040Y-105787456D01*
X222734253Y-105645534D01*
X222579752Y-105533282D01*
X222405288Y-105455606D01*
X222405286Y-105455605D01*
X222218487Y-105415900D01*
X222027513Y-105415900D01*
X221840714Y-105455605D01*
X221666246Y-105533283D01*
X221511745Y-105645535D01*
X221383959Y-105787457D01*
X221288473Y-105952843D01*
X221288470Y-105952850D01*
X221231517Y-106128134D01*
X221229458Y-106134472D01*
X221209496Y-106324400D01*
X204326724Y-106324400D01*
X204347542Y-106260328D01*
X204367504Y-106070400D01*
X204347542Y-105880472D01*
X204288527Y-105698844D01*
X204193040Y-105533456D01*
X204065253Y-105391534D01*
X203910752Y-105279282D01*
X203736288Y-105201606D01*
X203736286Y-105201605D01*
X203549487Y-105161900D01*
X203358513Y-105161900D01*
X203171714Y-105201605D01*
X202997246Y-105279283D01*
X202842745Y-105391535D01*
X202714959Y-105533457D01*
X202619473Y-105698843D01*
X202619470Y-105698850D01*
X202560459Y-105880467D01*
X202560457Y-105880478D01*
X202555332Y-105929230D01*
X202528747Y-105993844D01*
X202471448Y-106033828D01*
X202457798Y-106037555D01*
X202447215Y-106039804D01*
X202272744Y-106117484D01*
X202118245Y-106229735D01*
X201990459Y-106371657D01*
X201894973Y-106537043D01*
X201894970Y-106537050D01*
X201843341Y-106695949D01*
X201835958Y-106718672D01*
X201815996Y-106908600D01*
X191961626Y-106908600D01*
X191972304Y-106807000D01*
X191952342Y-106617072D01*
X191893327Y-106435444D01*
X191797840Y-106270056D01*
X191670053Y-106128134D01*
X191515552Y-106015882D01*
X191341088Y-105938206D01*
X191341086Y-105938205D01*
X191154287Y-105898500D01*
X190963313Y-105898500D01*
X190776514Y-105938205D01*
X190743634Y-105952844D01*
X190651547Y-105993844D01*
X190602046Y-106015883D01*
X190447545Y-106128135D01*
X190319759Y-106270057D01*
X190224273Y-106435443D01*
X190224270Y-106435450D01*
X190186076Y-106553000D01*
X190165258Y-106617072D01*
X190145296Y-106807000D01*
X173601018Y-106807000D01*
X173440177Y-106681812D01*
X173440178Y-106681812D01*
X173440176Y-106681811D01*
X173403670Y-106662055D01*
X173354079Y-106612836D01*
X173338971Y-106544619D01*
X173363141Y-106479064D01*
X173403670Y-106443945D01*
X173419367Y-106435450D01*
X173440176Y-106424189D01*
X173617840Y-106285906D01*
X173770322Y-106120268D01*
X173893460Y-105931791D01*
X173983896Y-105725616D01*
X174039164Y-105507368D01*
X174043453Y-105455606D01*
X174057756Y-105283005D01*
X174057756Y-105282994D01*
X174039165Y-105058640D01*
X174039163Y-105058628D01*
X173983896Y-104840385D01*
X173893459Y-104634207D01*
X173770323Y-104445734D01*
X173770315Y-104445723D01*
X173617843Y-104280097D01*
X173617838Y-104280092D01*
X173440177Y-104141812D01*
X173440178Y-104141812D01*
X173440176Y-104141811D01*
X173403670Y-104122055D01*
X173396159Y-104114600D01*
X186030496Y-104114600D01*
X186050458Y-104304528D01*
X186050459Y-104304531D01*
X186109470Y-104486149D01*
X186109473Y-104486156D01*
X186204960Y-104651544D01*
X186332747Y-104793466D01*
X186487248Y-104905718D01*
X186661712Y-104983394D01*
X186848513Y-105023100D01*
X187039487Y-105023100D01*
X187226288Y-104983394D01*
X187400752Y-104905718D01*
X187555253Y-104793466D01*
X187683040Y-104651544D01*
X187778527Y-104486156D01*
X187837542Y-104304528D01*
X187857504Y-104114600D01*
X187837542Y-103924672D01*
X187778527Y-103743044D01*
X187683040Y-103577656D01*
X187555253Y-103435734D01*
X187400752Y-103323482D01*
X187226288Y-103245806D01*
X187226286Y-103245805D01*
X187097331Y-103218395D01*
X213755299Y-103218395D01*
X213782218Y-103353722D01*
X213782221Y-103353732D01*
X213835021Y-103481204D01*
X213835028Y-103481217D01*
X213911685Y-103595941D01*
X213911688Y-103595945D01*
X214009254Y-103693511D01*
X214009258Y-103693514D01*
X214123982Y-103770171D01*
X214123995Y-103770178D01*
X214251467Y-103822978D01*
X214251472Y-103822980D01*
X214251476Y-103822980D01*
X214251477Y-103822981D01*
X214386804Y-103849900D01*
X214386807Y-103849900D01*
X214524795Y-103849900D01*
X214615841Y-103831789D01*
X214660128Y-103822980D01*
X214787611Y-103770175D01*
X214902342Y-103693514D01*
X214999914Y-103595942D01*
X215076575Y-103481211D01*
X215129380Y-103353728D01*
X215150847Y-103245806D01*
X215156300Y-103218395D01*
X220555299Y-103218395D01*
X220582218Y-103353722D01*
X220582221Y-103353732D01*
X220635021Y-103481204D01*
X220635028Y-103481217D01*
X220711685Y-103595941D01*
X220711688Y-103595945D01*
X220809254Y-103693511D01*
X220809258Y-103693514D01*
X220923982Y-103770171D01*
X220923995Y-103770178D01*
X221051467Y-103822978D01*
X221051472Y-103822980D01*
X221051476Y-103822980D01*
X221051477Y-103822981D01*
X221186804Y-103849900D01*
X221186807Y-103849900D01*
X221324795Y-103849900D01*
X221415841Y-103831789D01*
X221460128Y-103822980D01*
X221587611Y-103770175D01*
X221702342Y-103693514D01*
X221799914Y-103595942D01*
X221876575Y-103481211D01*
X221929380Y-103353728D01*
X221950847Y-103245806D01*
X221956300Y-103218395D01*
X221956300Y-103080404D01*
X221929381Y-102945077D01*
X221929380Y-102945076D01*
X221929380Y-102945072D01*
X221929378Y-102945067D01*
X221876578Y-102817595D01*
X221876571Y-102817582D01*
X221799914Y-102702858D01*
X221799911Y-102702854D01*
X221702345Y-102605288D01*
X221702341Y-102605285D01*
X221587617Y-102528628D01*
X221587604Y-102528621D01*
X221460132Y-102475821D01*
X221460122Y-102475818D01*
X221324795Y-102448900D01*
X221324793Y-102448900D01*
X221186807Y-102448900D01*
X221186805Y-102448900D01*
X221051477Y-102475818D01*
X221051467Y-102475821D01*
X220923995Y-102528621D01*
X220923982Y-102528628D01*
X220809258Y-102605285D01*
X220809254Y-102605288D01*
X220711688Y-102702854D01*
X220711685Y-102702858D01*
X220635028Y-102817582D01*
X220635021Y-102817595D01*
X220582221Y-102945067D01*
X220582218Y-102945077D01*
X220555300Y-103080404D01*
X220555300Y-103080407D01*
X220555300Y-103218393D01*
X220555300Y-103218395D01*
X220555299Y-103218395D01*
X215156300Y-103218395D01*
X215156300Y-103080404D01*
X215129381Y-102945077D01*
X215129380Y-102945076D01*
X215129380Y-102945072D01*
X215129378Y-102945067D01*
X215076578Y-102817595D01*
X215076571Y-102817582D01*
X214999914Y-102702858D01*
X214999911Y-102702854D01*
X214902345Y-102605288D01*
X214902341Y-102605285D01*
X214787617Y-102528628D01*
X214787604Y-102528621D01*
X214660132Y-102475821D01*
X214660122Y-102475818D01*
X214524795Y-102448900D01*
X214524793Y-102448900D01*
X214386807Y-102448900D01*
X214386805Y-102448900D01*
X214251477Y-102475818D01*
X214251467Y-102475821D01*
X214123995Y-102528621D01*
X214123982Y-102528628D01*
X214009258Y-102605285D01*
X214009254Y-102605288D01*
X213911688Y-102702854D01*
X213911685Y-102702858D01*
X213835028Y-102817582D01*
X213835021Y-102817595D01*
X213782221Y-102945067D01*
X213782218Y-102945077D01*
X213755300Y-103080404D01*
X213755300Y-103080407D01*
X213755300Y-103218393D01*
X213755300Y-103218395D01*
X213755299Y-103218395D01*
X187097331Y-103218395D01*
X187039487Y-103206100D01*
X186848513Y-103206100D01*
X186661714Y-103245805D01*
X186487246Y-103323483D01*
X186332745Y-103435735D01*
X186204959Y-103577657D01*
X186109473Y-103743043D01*
X186109470Y-103743050D01*
X186050459Y-103924668D01*
X186050458Y-103924672D01*
X186030496Y-104114600D01*
X173396159Y-104114600D01*
X173354079Y-104072836D01*
X173338971Y-104004619D01*
X173363141Y-103939064D01*
X173403670Y-103903945D01*
X173403684Y-103903936D01*
X173440176Y-103884189D01*
X173617840Y-103745906D01*
X173770322Y-103580268D01*
X173893460Y-103391791D01*
X173983896Y-103185616D01*
X174039164Y-102967368D01*
X174051575Y-102817595D01*
X174057756Y-102743005D01*
X174057756Y-102742994D01*
X174039165Y-102518640D01*
X174039163Y-102518628D01*
X174028323Y-102475821D01*
X173983896Y-102300384D01*
X173893460Y-102094209D01*
X173770322Y-101905732D01*
X173770319Y-101905729D01*
X173770315Y-101905723D01*
X173625110Y-101747991D01*
X173594187Y-101685337D01*
X173602047Y-101615911D01*
X173646194Y-101561755D01*
X173673005Y-101547827D01*
X173753184Y-101517920D01*
X173790804Y-101503889D01*
X173907861Y-101416261D01*
X173995489Y-101299204D01*
X174046589Y-101162201D01*
X174050191Y-101128692D01*
X174053099Y-101101654D01*
X174053100Y-101101637D01*
X174053100Y-99304362D01*
X174053099Y-99304345D01*
X174049757Y-99273270D01*
X174046589Y-99243799D01*
X173995489Y-99106796D01*
X173907861Y-98989739D01*
X173907859Y-98989737D01*
X173907858Y-98989736D01*
X173901590Y-98983468D01*
X173903027Y-98982030D01*
X173868121Y-98935402D01*
X173863137Y-98865710D01*
X173896622Y-98804387D01*
X173957945Y-98770902D01*
X173983448Y-98768071D01*
X187064785Y-98678130D01*
X187131957Y-98697353D01*
X187153317Y-98714446D01*
X187153318Y-98714447D01*
X187173024Y-98740128D01*
X187176272Y-98745754D01*
X187176273Y-98745756D01*
X187271760Y-98911144D01*
X187399547Y-99053066D01*
X187554048Y-99165318D01*
X187728512Y-99242994D01*
X187915313Y-99282700D01*
X188106287Y-99282700D01*
X188293088Y-99242994D01*
X188467552Y-99165318D01*
X188622053Y-99053066D01*
X188749840Y-98911144D01*
X188845327Y-98745756D01*
X188845328Y-98745750D01*
X188847968Y-98739824D01*
X188850447Y-98740927D01*
X188883068Y-98693151D01*
X188947408Y-98665909D01*
X188960757Y-98665095D01*
X192543345Y-98640463D01*
X192610516Y-98659685D01*
X192656633Y-98712173D01*
X192667515Y-98751494D01*
X192679858Y-98868928D01*
X192679859Y-98868931D01*
X192738870Y-99050549D01*
X192738873Y-99050556D01*
X192834360Y-99215944D01*
X192962147Y-99357866D01*
X193116648Y-99470118D01*
X193291112Y-99547794D01*
X193477913Y-99587500D01*
X193668887Y-99587500D01*
X193855688Y-99547794D01*
X194030152Y-99470118D01*
X194184653Y-99357866D01*
X194312440Y-99215944D01*
X194407927Y-99050556D01*
X194466942Y-98868928D01*
X194480773Y-98737332D01*
X194507356Y-98672720D01*
X194564654Y-98632735D01*
X194603232Y-98626300D01*
X238534515Y-98324251D01*
X238601687Y-98343474D01*
G37*
%TD.AperFunction*%
%TD*%
M02*
