%TF.GenerationSoftware,KiCad,Pcbnew,8.0.7*%
%TF.CreationDate,2024-12-23T22:44:15-05:00*%
%TF.ProjectId,OverSoon,4f766572-536f-46f6-9e2e-6b696361645f,rev?*%
%TF.SameCoordinates,Original*%
%TF.FileFunction,Legend,Top*%
%TF.FilePolarity,Positive*%
%FSLAX46Y46*%
G04 Gerber Fmt 4.6, Leading zero omitted, Abs format (unit mm)*
G04 Created by KiCad (PCBNEW 8.0.7) date 2024-12-23 22:44:15*
%MOMM*%
%LPD*%
G01*
G04 APERTURE LIST*
%ADD10C,0.150000*%
%ADD11C,0.152400*%
%ADD12C,0.120000*%
%ADD13C,0.200000*%
%ADD14C,0.100000*%
%ADD15C,0.127000*%
%ADD16C,0.508000*%
G04 APERTURE END LIST*
D10*
X217028733Y-136935380D02*
X216981114Y-136983000D01*
X216981114Y-136983000D02*
X216838257Y-137030619D01*
X216838257Y-137030619D02*
X216743019Y-137030619D01*
X216743019Y-137030619D02*
X216600162Y-136983000D01*
X216600162Y-136983000D02*
X216504924Y-136887761D01*
X216504924Y-136887761D02*
X216457305Y-136792523D01*
X216457305Y-136792523D02*
X216409686Y-136602047D01*
X216409686Y-136602047D02*
X216409686Y-136459190D01*
X216409686Y-136459190D02*
X216457305Y-136268714D01*
X216457305Y-136268714D02*
X216504924Y-136173476D01*
X216504924Y-136173476D02*
X216600162Y-136078238D01*
X216600162Y-136078238D02*
X216743019Y-136030619D01*
X216743019Y-136030619D02*
X216838257Y-136030619D01*
X216838257Y-136030619D02*
X216981114Y-136078238D01*
X216981114Y-136078238D02*
X217028733Y-136125857D01*
X217362067Y-136030619D02*
X217981114Y-136030619D01*
X217981114Y-136030619D02*
X217647781Y-136411571D01*
X217647781Y-136411571D02*
X217790638Y-136411571D01*
X217790638Y-136411571D02*
X217885876Y-136459190D01*
X217885876Y-136459190D02*
X217933495Y-136506809D01*
X217933495Y-136506809D02*
X217981114Y-136602047D01*
X217981114Y-136602047D02*
X217981114Y-136840142D01*
X217981114Y-136840142D02*
X217933495Y-136935380D01*
X217933495Y-136935380D02*
X217885876Y-136983000D01*
X217885876Y-136983000D02*
X217790638Y-137030619D01*
X217790638Y-137030619D02*
X217504924Y-137030619D01*
X217504924Y-137030619D02*
X217409686Y-136983000D01*
X217409686Y-136983000D02*
X217362067Y-136935380D01*
X209923142Y-113999180D02*
X209875523Y-114046800D01*
X209875523Y-114046800D02*
X209732666Y-114094419D01*
X209732666Y-114094419D02*
X209637428Y-114094419D01*
X209637428Y-114094419D02*
X209494571Y-114046800D01*
X209494571Y-114046800D02*
X209399333Y-113951561D01*
X209399333Y-113951561D02*
X209351714Y-113856323D01*
X209351714Y-113856323D02*
X209304095Y-113665847D01*
X209304095Y-113665847D02*
X209304095Y-113522990D01*
X209304095Y-113522990D02*
X209351714Y-113332514D01*
X209351714Y-113332514D02*
X209399333Y-113237276D01*
X209399333Y-113237276D02*
X209494571Y-113142038D01*
X209494571Y-113142038D02*
X209637428Y-113094419D01*
X209637428Y-113094419D02*
X209732666Y-113094419D01*
X209732666Y-113094419D02*
X209875523Y-113142038D01*
X209875523Y-113142038D02*
X209923142Y-113189657D01*
X210875523Y-114094419D02*
X210304095Y-114094419D01*
X210589809Y-114094419D02*
X210589809Y-113094419D01*
X210589809Y-113094419D02*
X210494571Y-113237276D01*
X210494571Y-113237276D02*
X210399333Y-113332514D01*
X210399333Y-113332514D02*
X210304095Y-113380133D01*
X211827904Y-114094419D02*
X211256476Y-114094419D01*
X211542190Y-114094419D02*
X211542190Y-113094419D01*
X211542190Y-113094419D02*
X211446952Y-113237276D01*
X211446952Y-113237276D02*
X211351714Y-113332514D01*
X211351714Y-113332514D02*
X211256476Y-113380133D01*
X212336142Y-125549819D02*
X212002809Y-125073628D01*
X211764714Y-125549819D02*
X211764714Y-124549819D01*
X211764714Y-124549819D02*
X212145666Y-124549819D01*
X212145666Y-124549819D02*
X212240904Y-124597438D01*
X212240904Y-124597438D02*
X212288523Y-124645057D01*
X212288523Y-124645057D02*
X212336142Y-124740295D01*
X212336142Y-124740295D02*
X212336142Y-124883152D01*
X212336142Y-124883152D02*
X212288523Y-124978390D01*
X212288523Y-124978390D02*
X212240904Y-125026009D01*
X212240904Y-125026009D02*
X212145666Y-125073628D01*
X212145666Y-125073628D02*
X211764714Y-125073628D01*
X213288523Y-125549819D02*
X212717095Y-125549819D01*
X213002809Y-125549819D02*
X213002809Y-124549819D01*
X213002809Y-124549819D02*
X212907571Y-124692676D01*
X212907571Y-124692676D02*
X212812333Y-124787914D01*
X212812333Y-124787914D02*
X212717095Y-124835533D01*
X214193285Y-124549819D02*
X213717095Y-124549819D01*
X213717095Y-124549819D02*
X213669476Y-125026009D01*
X213669476Y-125026009D02*
X213717095Y-124978390D01*
X213717095Y-124978390D02*
X213812333Y-124930771D01*
X213812333Y-124930771D02*
X214050428Y-124930771D01*
X214050428Y-124930771D02*
X214145666Y-124978390D01*
X214145666Y-124978390D02*
X214193285Y-125026009D01*
X214193285Y-125026009D02*
X214240904Y-125121247D01*
X214240904Y-125121247D02*
X214240904Y-125359342D01*
X214240904Y-125359342D02*
X214193285Y-125454580D01*
X214193285Y-125454580D02*
X214145666Y-125502200D01*
X214145666Y-125502200D02*
X214050428Y-125549819D01*
X214050428Y-125549819D02*
X213812333Y-125549819D01*
X213812333Y-125549819D02*
X213717095Y-125502200D01*
X213717095Y-125502200D02*
X213669476Y-125454580D01*
D11*
X210666105Y-141281417D02*
X210666105Y-140481317D01*
X210666105Y-140481317D02*
X210904200Y-140481317D01*
X210904200Y-140481317D02*
X211047057Y-140519417D01*
X211047057Y-140519417D02*
X211142295Y-140595617D01*
X211142295Y-140595617D02*
X211189914Y-140671817D01*
X211189914Y-140671817D02*
X211237533Y-140824217D01*
X211237533Y-140824217D02*
X211237533Y-140938517D01*
X211237533Y-140938517D02*
X211189914Y-141090917D01*
X211189914Y-141090917D02*
X211142295Y-141167117D01*
X211142295Y-141167117D02*
X211047057Y-141243317D01*
X211047057Y-141243317D02*
X210904200Y-141281417D01*
X210904200Y-141281417D02*
X210666105Y-141281417D01*
X212189914Y-141281417D02*
X211618486Y-141281417D01*
X211904200Y-141281417D02*
X211904200Y-140481317D01*
X211904200Y-140481317D02*
X211808962Y-140595617D01*
X211808962Y-140595617D02*
X211713724Y-140671817D01*
X211713724Y-140671817D02*
X211618486Y-140709917D01*
D10*
X238244142Y-109725619D02*
X237910809Y-109249428D01*
X237672714Y-109725619D02*
X237672714Y-108725619D01*
X237672714Y-108725619D02*
X238053666Y-108725619D01*
X238053666Y-108725619D02*
X238148904Y-108773238D01*
X238148904Y-108773238D02*
X238196523Y-108820857D01*
X238196523Y-108820857D02*
X238244142Y-108916095D01*
X238244142Y-108916095D02*
X238244142Y-109058952D01*
X238244142Y-109058952D02*
X238196523Y-109154190D01*
X238196523Y-109154190D02*
X238148904Y-109201809D01*
X238148904Y-109201809D02*
X238053666Y-109249428D01*
X238053666Y-109249428D02*
X237672714Y-109249428D01*
X239196523Y-109725619D02*
X238625095Y-109725619D01*
X238910809Y-109725619D02*
X238910809Y-108725619D01*
X238910809Y-108725619D02*
X238815571Y-108868476D01*
X238815571Y-108868476D02*
X238720333Y-108963714D01*
X238720333Y-108963714D02*
X238625095Y-109011333D01*
X239577476Y-108820857D02*
X239625095Y-108773238D01*
X239625095Y-108773238D02*
X239720333Y-108725619D01*
X239720333Y-108725619D02*
X239958428Y-108725619D01*
X239958428Y-108725619D02*
X240053666Y-108773238D01*
X240053666Y-108773238D02*
X240101285Y-108820857D01*
X240101285Y-108820857D02*
X240148904Y-108916095D01*
X240148904Y-108916095D02*
X240148904Y-109011333D01*
X240148904Y-109011333D02*
X240101285Y-109154190D01*
X240101285Y-109154190D02*
X239529857Y-109725619D01*
X239529857Y-109725619D02*
X240148904Y-109725619D01*
X224883742Y-108760419D02*
X224550409Y-108284228D01*
X224312314Y-108760419D02*
X224312314Y-107760419D01*
X224312314Y-107760419D02*
X224693266Y-107760419D01*
X224693266Y-107760419D02*
X224788504Y-107808038D01*
X224788504Y-107808038D02*
X224836123Y-107855657D01*
X224836123Y-107855657D02*
X224883742Y-107950895D01*
X224883742Y-107950895D02*
X224883742Y-108093752D01*
X224883742Y-108093752D02*
X224836123Y-108188990D01*
X224836123Y-108188990D02*
X224788504Y-108236609D01*
X224788504Y-108236609D02*
X224693266Y-108284228D01*
X224693266Y-108284228D02*
X224312314Y-108284228D01*
X225836123Y-108760419D02*
X225264695Y-108760419D01*
X225550409Y-108760419D02*
X225550409Y-107760419D01*
X225550409Y-107760419D02*
X225455171Y-107903276D01*
X225455171Y-107903276D02*
X225359933Y-107998514D01*
X225359933Y-107998514D02*
X225264695Y-108046133D01*
X226169457Y-107760419D02*
X226788504Y-107760419D01*
X226788504Y-107760419D02*
X226455171Y-108141371D01*
X226455171Y-108141371D02*
X226598028Y-108141371D01*
X226598028Y-108141371D02*
X226693266Y-108188990D01*
X226693266Y-108188990D02*
X226740885Y-108236609D01*
X226740885Y-108236609D02*
X226788504Y-108331847D01*
X226788504Y-108331847D02*
X226788504Y-108569942D01*
X226788504Y-108569942D02*
X226740885Y-108665180D01*
X226740885Y-108665180D02*
X226693266Y-108712800D01*
X226693266Y-108712800D02*
X226598028Y-108760419D01*
X226598028Y-108760419D02*
X226312314Y-108760419D01*
X226312314Y-108760419D02*
X226217076Y-108712800D01*
X226217076Y-108712800D02*
X226169457Y-108665180D01*
X189063333Y-98530580D02*
X189015714Y-98578200D01*
X189015714Y-98578200D02*
X188872857Y-98625819D01*
X188872857Y-98625819D02*
X188777619Y-98625819D01*
X188777619Y-98625819D02*
X188634762Y-98578200D01*
X188634762Y-98578200D02*
X188539524Y-98482961D01*
X188539524Y-98482961D02*
X188491905Y-98387723D01*
X188491905Y-98387723D02*
X188444286Y-98197247D01*
X188444286Y-98197247D02*
X188444286Y-98054390D01*
X188444286Y-98054390D02*
X188491905Y-97863914D01*
X188491905Y-97863914D02*
X188539524Y-97768676D01*
X188539524Y-97768676D02*
X188634762Y-97673438D01*
X188634762Y-97673438D02*
X188777619Y-97625819D01*
X188777619Y-97625819D02*
X188872857Y-97625819D01*
X188872857Y-97625819D02*
X189015714Y-97673438D01*
X189015714Y-97673438D02*
X189063333Y-97721057D01*
X189539524Y-98625819D02*
X189730000Y-98625819D01*
X189730000Y-98625819D02*
X189825238Y-98578200D01*
X189825238Y-98578200D02*
X189872857Y-98530580D01*
X189872857Y-98530580D02*
X189968095Y-98387723D01*
X189968095Y-98387723D02*
X190015714Y-98197247D01*
X190015714Y-98197247D02*
X190015714Y-97816295D01*
X190015714Y-97816295D02*
X189968095Y-97721057D01*
X189968095Y-97721057D02*
X189920476Y-97673438D01*
X189920476Y-97673438D02*
X189825238Y-97625819D01*
X189825238Y-97625819D02*
X189634762Y-97625819D01*
X189634762Y-97625819D02*
X189539524Y-97673438D01*
X189539524Y-97673438D02*
X189491905Y-97721057D01*
X189491905Y-97721057D02*
X189444286Y-97816295D01*
X189444286Y-97816295D02*
X189444286Y-98054390D01*
X189444286Y-98054390D02*
X189491905Y-98149628D01*
X189491905Y-98149628D02*
X189539524Y-98197247D01*
X189539524Y-98197247D02*
X189634762Y-98244866D01*
X189634762Y-98244866D02*
X189825238Y-98244866D01*
X189825238Y-98244866D02*
X189920476Y-98197247D01*
X189920476Y-98197247D02*
X189968095Y-98149628D01*
X189968095Y-98149628D02*
X190015714Y-98054390D01*
X187426695Y-108471619D02*
X187426695Y-109281142D01*
X187426695Y-109281142D02*
X187474314Y-109376380D01*
X187474314Y-109376380D02*
X187521933Y-109424000D01*
X187521933Y-109424000D02*
X187617171Y-109471619D01*
X187617171Y-109471619D02*
X187807647Y-109471619D01*
X187807647Y-109471619D02*
X187902885Y-109424000D01*
X187902885Y-109424000D02*
X187950504Y-109376380D01*
X187950504Y-109376380D02*
X187998123Y-109281142D01*
X187998123Y-109281142D02*
X187998123Y-108471619D01*
X188902885Y-108471619D02*
X188712409Y-108471619D01*
X188712409Y-108471619D02*
X188617171Y-108519238D01*
X188617171Y-108519238D02*
X188569552Y-108566857D01*
X188569552Y-108566857D02*
X188474314Y-108709714D01*
X188474314Y-108709714D02*
X188426695Y-108900190D01*
X188426695Y-108900190D02*
X188426695Y-109281142D01*
X188426695Y-109281142D02*
X188474314Y-109376380D01*
X188474314Y-109376380D02*
X188521933Y-109424000D01*
X188521933Y-109424000D02*
X188617171Y-109471619D01*
X188617171Y-109471619D02*
X188807647Y-109471619D01*
X188807647Y-109471619D02*
X188902885Y-109424000D01*
X188902885Y-109424000D02*
X188950504Y-109376380D01*
X188950504Y-109376380D02*
X188998123Y-109281142D01*
X188998123Y-109281142D02*
X188998123Y-109043047D01*
X188998123Y-109043047D02*
X188950504Y-108947809D01*
X188950504Y-108947809D02*
X188902885Y-108900190D01*
X188902885Y-108900190D02*
X188807647Y-108852571D01*
X188807647Y-108852571D02*
X188617171Y-108852571D01*
X188617171Y-108852571D02*
X188521933Y-108900190D01*
X188521933Y-108900190D02*
X188474314Y-108947809D01*
X188474314Y-108947809D02*
X188426695Y-109043047D01*
X184846933Y-111687780D02*
X184799314Y-111735400D01*
X184799314Y-111735400D02*
X184656457Y-111783019D01*
X184656457Y-111783019D02*
X184561219Y-111783019D01*
X184561219Y-111783019D02*
X184418362Y-111735400D01*
X184418362Y-111735400D02*
X184323124Y-111640161D01*
X184323124Y-111640161D02*
X184275505Y-111544923D01*
X184275505Y-111544923D02*
X184227886Y-111354447D01*
X184227886Y-111354447D02*
X184227886Y-111211590D01*
X184227886Y-111211590D02*
X184275505Y-111021114D01*
X184275505Y-111021114D02*
X184323124Y-110925876D01*
X184323124Y-110925876D02*
X184418362Y-110830638D01*
X184418362Y-110830638D02*
X184561219Y-110783019D01*
X184561219Y-110783019D02*
X184656457Y-110783019D01*
X184656457Y-110783019D02*
X184799314Y-110830638D01*
X184799314Y-110830638D02*
X184846933Y-110878257D01*
X185418362Y-111211590D02*
X185323124Y-111163971D01*
X185323124Y-111163971D02*
X185275505Y-111116352D01*
X185275505Y-111116352D02*
X185227886Y-111021114D01*
X185227886Y-111021114D02*
X185227886Y-110973495D01*
X185227886Y-110973495D02*
X185275505Y-110878257D01*
X185275505Y-110878257D02*
X185323124Y-110830638D01*
X185323124Y-110830638D02*
X185418362Y-110783019D01*
X185418362Y-110783019D02*
X185608838Y-110783019D01*
X185608838Y-110783019D02*
X185704076Y-110830638D01*
X185704076Y-110830638D02*
X185751695Y-110878257D01*
X185751695Y-110878257D02*
X185799314Y-110973495D01*
X185799314Y-110973495D02*
X185799314Y-111021114D01*
X185799314Y-111021114D02*
X185751695Y-111116352D01*
X185751695Y-111116352D02*
X185704076Y-111163971D01*
X185704076Y-111163971D02*
X185608838Y-111211590D01*
X185608838Y-111211590D02*
X185418362Y-111211590D01*
X185418362Y-111211590D02*
X185323124Y-111259209D01*
X185323124Y-111259209D02*
X185275505Y-111306828D01*
X185275505Y-111306828D02*
X185227886Y-111402066D01*
X185227886Y-111402066D02*
X185227886Y-111592542D01*
X185227886Y-111592542D02*
X185275505Y-111687780D01*
X185275505Y-111687780D02*
X185323124Y-111735400D01*
X185323124Y-111735400D02*
X185418362Y-111783019D01*
X185418362Y-111783019D02*
X185608838Y-111783019D01*
X185608838Y-111783019D02*
X185704076Y-111735400D01*
X185704076Y-111735400D02*
X185751695Y-111687780D01*
X185751695Y-111687780D02*
X185799314Y-111592542D01*
X185799314Y-111592542D02*
X185799314Y-111402066D01*
X185799314Y-111402066D02*
X185751695Y-111306828D01*
X185751695Y-111306828D02*
X185704076Y-111259209D01*
X185704076Y-111259209D02*
X185608838Y-111211590D01*
X216800890Y-100813704D02*
X216943852Y-100861357D01*
X216943852Y-100861357D02*
X217182121Y-100861357D01*
X217182121Y-100861357D02*
X217277429Y-100813704D01*
X217277429Y-100813704D02*
X217325083Y-100766050D01*
X217325083Y-100766050D02*
X217372737Y-100670742D01*
X217372737Y-100670742D02*
X217372737Y-100575434D01*
X217372737Y-100575434D02*
X217325083Y-100480126D01*
X217325083Y-100480126D02*
X217277429Y-100432472D01*
X217277429Y-100432472D02*
X217182121Y-100384818D01*
X217182121Y-100384818D02*
X216991506Y-100337164D01*
X216991506Y-100337164D02*
X216896198Y-100289511D01*
X216896198Y-100289511D02*
X216848544Y-100241857D01*
X216848544Y-100241857D02*
X216800890Y-100146549D01*
X216800890Y-100146549D02*
X216800890Y-100051241D01*
X216800890Y-100051241D02*
X216848544Y-99955933D01*
X216848544Y-99955933D02*
X216896198Y-99908279D01*
X216896198Y-99908279D02*
X216991506Y-99860625D01*
X216991506Y-99860625D02*
X217229775Y-99860625D01*
X217229775Y-99860625D02*
X217372737Y-99908279D01*
X217706314Y-99860625D02*
X217944584Y-100861357D01*
X217944584Y-100861357D02*
X218135199Y-100146549D01*
X218135199Y-100146549D02*
X218325815Y-100861357D01*
X218325815Y-100861357D02*
X218564085Y-99860625D01*
X218897662Y-99955933D02*
X218945316Y-99908279D01*
X218945316Y-99908279D02*
X219040624Y-99860625D01*
X219040624Y-99860625D02*
X219278893Y-99860625D01*
X219278893Y-99860625D02*
X219374201Y-99908279D01*
X219374201Y-99908279D02*
X219421855Y-99955933D01*
X219421855Y-99955933D02*
X219469509Y-100051241D01*
X219469509Y-100051241D02*
X219469509Y-100146549D01*
X219469509Y-100146549D02*
X219421855Y-100289511D01*
X219421855Y-100289511D02*
X218850008Y-100861357D01*
X218850008Y-100861357D02*
X219469509Y-100861357D01*
X225475895Y-137046619D02*
X225475895Y-137856142D01*
X225475895Y-137856142D02*
X225523514Y-137951380D01*
X225523514Y-137951380D02*
X225571133Y-137999000D01*
X225571133Y-137999000D02*
X225666371Y-138046619D01*
X225666371Y-138046619D02*
X225856847Y-138046619D01*
X225856847Y-138046619D02*
X225952085Y-137999000D01*
X225952085Y-137999000D02*
X225999704Y-137951380D01*
X225999704Y-137951380D02*
X226047323Y-137856142D01*
X226047323Y-137856142D02*
X226047323Y-137046619D01*
X226475895Y-137141857D02*
X226523514Y-137094238D01*
X226523514Y-137094238D02*
X226618752Y-137046619D01*
X226618752Y-137046619D02*
X226856847Y-137046619D01*
X226856847Y-137046619D02*
X226952085Y-137094238D01*
X226952085Y-137094238D02*
X226999704Y-137141857D01*
X226999704Y-137141857D02*
X227047323Y-137237095D01*
X227047323Y-137237095D02*
X227047323Y-137332333D01*
X227047323Y-137332333D02*
X226999704Y-137475190D01*
X226999704Y-137475190D02*
X226428276Y-138046619D01*
X226428276Y-138046619D02*
X227047323Y-138046619D01*
X197129495Y-129680619D02*
X197129495Y-130490142D01*
X197129495Y-130490142D02*
X197177114Y-130585380D01*
X197177114Y-130585380D02*
X197224733Y-130633000D01*
X197224733Y-130633000D02*
X197319971Y-130680619D01*
X197319971Y-130680619D02*
X197510447Y-130680619D01*
X197510447Y-130680619D02*
X197605685Y-130633000D01*
X197605685Y-130633000D02*
X197653304Y-130585380D01*
X197653304Y-130585380D02*
X197700923Y-130490142D01*
X197700923Y-130490142D02*
X197700923Y-129680619D01*
X198653304Y-129680619D02*
X198177114Y-129680619D01*
X198177114Y-129680619D02*
X198129495Y-130156809D01*
X198129495Y-130156809D02*
X198177114Y-130109190D01*
X198177114Y-130109190D02*
X198272352Y-130061571D01*
X198272352Y-130061571D02*
X198510447Y-130061571D01*
X198510447Y-130061571D02*
X198605685Y-130109190D01*
X198605685Y-130109190D02*
X198653304Y-130156809D01*
X198653304Y-130156809D02*
X198700923Y-130252047D01*
X198700923Y-130252047D02*
X198700923Y-130490142D01*
X198700923Y-130490142D02*
X198653304Y-130585380D01*
X198653304Y-130585380D02*
X198605685Y-130633000D01*
X198605685Y-130633000D02*
X198510447Y-130680619D01*
X198510447Y-130680619D02*
X198272352Y-130680619D01*
X198272352Y-130680619D02*
X198177114Y-130633000D01*
X198177114Y-130633000D02*
X198129495Y-130585380D01*
X192470476Y-106948895D02*
X192927619Y-106948895D01*
X192699047Y-107748895D02*
X192699047Y-106948895D01*
X193194286Y-107748895D02*
X193194286Y-106948895D01*
X193194286Y-106948895D02*
X193499048Y-106948895D01*
X193499048Y-106948895D02*
X193575238Y-106986990D01*
X193575238Y-106986990D02*
X193613333Y-107025085D01*
X193613333Y-107025085D02*
X193651429Y-107101276D01*
X193651429Y-107101276D02*
X193651429Y-107215561D01*
X193651429Y-107215561D02*
X193613333Y-107291752D01*
X193613333Y-107291752D02*
X193575238Y-107329847D01*
X193575238Y-107329847D02*
X193499048Y-107367942D01*
X193499048Y-107367942D02*
X193194286Y-107367942D01*
X193918095Y-106948895D02*
X194451429Y-106948895D01*
X194451429Y-106948895D02*
X194108571Y-107748895D01*
X209434133Y-135024019D02*
X209100800Y-134547828D01*
X208862705Y-135024019D02*
X208862705Y-134024019D01*
X208862705Y-134024019D02*
X209243657Y-134024019D01*
X209243657Y-134024019D02*
X209338895Y-134071638D01*
X209338895Y-134071638D02*
X209386514Y-134119257D01*
X209386514Y-134119257D02*
X209434133Y-134214495D01*
X209434133Y-134214495D02*
X209434133Y-134357352D01*
X209434133Y-134357352D02*
X209386514Y-134452590D01*
X209386514Y-134452590D02*
X209338895Y-134500209D01*
X209338895Y-134500209D02*
X209243657Y-134547828D01*
X209243657Y-134547828D02*
X208862705Y-134547828D01*
X210291276Y-134024019D02*
X210100800Y-134024019D01*
X210100800Y-134024019D02*
X210005562Y-134071638D01*
X210005562Y-134071638D02*
X209957943Y-134119257D01*
X209957943Y-134119257D02*
X209862705Y-134262114D01*
X209862705Y-134262114D02*
X209815086Y-134452590D01*
X209815086Y-134452590D02*
X209815086Y-134833542D01*
X209815086Y-134833542D02*
X209862705Y-134928780D01*
X209862705Y-134928780D02*
X209910324Y-134976400D01*
X209910324Y-134976400D02*
X210005562Y-135024019D01*
X210005562Y-135024019D02*
X210196038Y-135024019D01*
X210196038Y-135024019D02*
X210291276Y-134976400D01*
X210291276Y-134976400D02*
X210338895Y-134928780D01*
X210338895Y-134928780D02*
X210386514Y-134833542D01*
X210386514Y-134833542D02*
X210386514Y-134595447D01*
X210386514Y-134595447D02*
X210338895Y-134500209D01*
X210338895Y-134500209D02*
X210291276Y-134452590D01*
X210291276Y-134452590D02*
X210196038Y-134404971D01*
X210196038Y-134404971D02*
X210005562Y-134404971D01*
X210005562Y-134404971D02*
X209910324Y-134452590D01*
X209910324Y-134452590D02*
X209862705Y-134500209D01*
X209862705Y-134500209D02*
X209815086Y-134595447D01*
X199158266Y-104890219D02*
X199158266Y-105604504D01*
X199158266Y-105604504D02*
X199110647Y-105747361D01*
X199110647Y-105747361D02*
X199015409Y-105842600D01*
X199015409Y-105842600D02*
X198872552Y-105890219D01*
X198872552Y-105890219D02*
X198777314Y-105890219D01*
X199539219Y-104890219D02*
X200158266Y-104890219D01*
X200158266Y-104890219D02*
X199824933Y-105271171D01*
X199824933Y-105271171D02*
X199967790Y-105271171D01*
X199967790Y-105271171D02*
X200063028Y-105318790D01*
X200063028Y-105318790D02*
X200110647Y-105366409D01*
X200110647Y-105366409D02*
X200158266Y-105461647D01*
X200158266Y-105461647D02*
X200158266Y-105699742D01*
X200158266Y-105699742D02*
X200110647Y-105794980D01*
X200110647Y-105794980D02*
X200063028Y-105842600D01*
X200063028Y-105842600D02*
X199967790Y-105890219D01*
X199967790Y-105890219D02*
X199682076Y-105890219D01*
X199682076Y-105890219D02*
X199586838Y-105842600D01*
X199586838Y-105842600D02*
X199539219Y-105794980D01*
X189905076Y-146928495D02*
X190362219Y-146928495D01*
X190133647Y-147728495D02*
X190133647Y-146928495D01*
X190628886Y-147728495D02*
X190628886Y-146928495D01*
X190628886Y-146928495D02*
X190933648Y-146928495D01*
X190933648Y-146928495D02*
X191009838Y-146966590D01*
X191009838Y-146966590D02*
X191047933Y-147004685D01*
X191047933Y-147004685D02*
X191086029Y-147080876D01*
X191086029Y-147080876D02*
X191086029Y-147195161D01*
X191086029Y-147195161D02*
X191047933Y-147271352D01*
X191047933Y-147271352D02*
X191009838Y-147309447D01*
X191009838Y-147309447D02*
X190933648Y-147347542D01*
X190933648Y-147347542D02*
X190628886Y-147347542D01*
X191809838Y-146928495D02*
X191428886Y-146928495D01*
X191428886Y-146928495D02*
X191390790Y-147309447D01*
X191390790Y-147309447D02*
X191428886Y-147271352D01*
X191428886Y-147271352D02*
X191505076Y-147233257D01*
X191505076Y-147233257D02*
X191695552Y-147233257D01*
X191695552Y-147233257D02*
X191771743Y-147271352D01*
X191771743Y-147271352D02*
X191809838Y-147309447D01*
X191809838Y-147309447D02*
X191847933Y-147385638D01*
X191847933Y-147385638D02*
X191847933Y-147576114D01*
X191847933Y-147576114D02*
X191809838Y-147652304D01*
X191809838Y-147652304D02*
X191771743Y-147690400D01*
X191771743Y-147690400D02*
X191695552Y-147728495D01*
X191695552Y-147728495D02*
X191505076Y-147728495D01*
X191505076Y-147728495D02*
X191428886Y-147690400D01*
X191428886Y-147690400D02*
X191390790Y-147652304D01*
X176559695Y-97305819D02*
X176559695Y-98115342D01*
X176559695Y-98115342D02*
X176607314Y-98210580D01*
X176607314Y-98210580D02*
X176654933Y-98258200D01*
X176654933Y-98258200D02*
X176750171Y-98305819D01*
X176750171Y-98305819D02*
X176940647Y-98305819D01*
X176940647Y-98305819D02*
X177035885Y-98258200D01*
X177035885Y-98258200D02*
X177083504Y-98210580D01*
X177083504Y-98210580D02*
X177131123Y-98115342D01*
X177131123Y-98115342D02*
X177131123Y-97305819D01*
X177750171Y-97734390D02*
X177654933Y-97686771D01*
X177654933Y-97686771D02*
X177607314Y-97639152D01*
X177607314Y-97639152D02*
X177559695Y-97543914D01*
X177559695Y-97543914D02*
X177559695Y-97496295D01*
X177559695Y-97496295D02*
X177607314Y-97401057D01*
X177607314Y-97401057D02*
X177654933Y-97353438D01*
X177654933Y-97353438D02*
X177750171Y-97305819D01*
X177750171Y-97305819D02*
X177940647Y-97305819D01*
X177940647Y-97305819D02*
X178035885Y-97353438D01*
X178035885Y-97353438D02*
X178083504Y-97401057D01*
X178083504Y-97401057D02*
X178131123Y-97496295D01*
X178131123Y-97496295D02*
X178131123Y-97543914D01*
X178131123Y-97543914D02*
X178083504Y-97639152D01*
X178083504Y-97639152D02*
X178035885Y-97686771D01*
X178035885Y-97686771D02*
X177940647Y-97734390D01*
X177940647Y-97734390D02*
X177750171Y-97734390D01*
X177750171Y-97734390D02*
X177654933Y-97782009D01*
X177654933Y-97782009D02*
X177607314Y-97829628D01*
X177607314Y-97829628D02*
X177559695Y-97924866D01*
X177559695Y-97924866D02*
X177559695Y-98115342D01*
X177559695Y-98115342D02*
X177607314Y-98210580D01*
X177607314Y-98210580D02*
X177654933Y-98258200D01*
X177654933Y-98258200D02*
X177750171Y-98305819D01*
X177750171Y-98305819D02*
X177940647Y-98305819D01*
X177940647Y-98305819D02*
X178035885Y-98258200D01*
X178035885Y-98258200D02*
X178083504Y-98210580D01*
X178083504Y-98210580D02*
X178131123Y-98115342D01*
X178131123Y-98115342D02*
X178131123Y-97924866D01*
X178131123Y-97924866D02*
X178083504Y-97829628D01*
X178083504Y-97829628D02*
X178035885Y-97782009D01*
X178035885Y-97782009D02*
X177940647Y-97734390D01*
X174838979Y-123578019D02*
X174838979Y-122578019D01*
X174838979Y-122578019D02*
X175077074Y-122578019D01*
X175077074Y-122578019D02*
X175219931Y-122625638D01*
X175219931Y-122625638D02*
X175315169Y-122720876D01*
X175315169Y-122720876D02*
X175362788Y-122816114D01*
X175362788Y-122816114D02*
X175410407Y-123006590D01*
X175410407Y-123006590D02*
X175410407Y-123149447D01*
X175410407Y-123149447D02*
X175362788Y-123339923D01*
X175362788Y-123339923D02*
X175315169Y-123435161D01*
X175315169Y-123435161D02*
X175219931Y-123530400D01*
X175219931Y-123530400D02*
X175077074Y-123578019D01*
X175077074Y-123578019D02*
X174838979Y-123578019D01*
X176410407Y-123482780D02*
X176362788Y-123530400D01*
X176362788Y-123530400D02*
X176219931Y-123578019D01*
X176219931Y-123578019D02*
X176124693Y-123578019D01*
X176124693Y-123578019D02*
X175981836Y-123530400D01*
X175981836Y-123530400D02*
X175886598Y-123435161D01*
X175886598Y-123435161D02*
X175838979Y-123339923D01*
X175838979Y-123339923D02*
X175791360Y-123149447D01*
X175791360Y-123149447D02*
X175791360Y-123006590D01*
X175791360Y-123006590D02*
X175838979Y-122816114D01*
X175838979Y-122816114D02*
X175886598Y-122720876D01*
X175886598Y-122720876D02*
X175981836Y-122625638D01*
X175981836Y-122625638D02*
X176124693Y-122578019D01*
X176124693Y-122578019D02*
X176219931Y-122578019D01*
X176219931Y-122578019D02*
X176362788Y-122625638D01*
X176362788Y-122625638D02*
X176410407Y-122673257D01*
X174864379Y-113392619D02*
X174864379Y-112392619D01*
X174864379Y-112392619D02*
X175197712Y-113106904D01*
X175197712Y-113106904D02*
X175531045Y-112392619D01*
X175531045Y-112392619D02*
X175531045Y-113392619D01*
X176007236Y-113392619D02*
X176007236Y-112392619D01*
X176435807Y-113345000D02*
X176578664Y-113392619D01*
X176578664Y-113392619D02*
X176816759Y-113392619D01*
X176816759Y-113392619D02*
X176911997Y-113345000D01*
X176911997Y-113345000D02*
X176959616Y-113297380D01*
X176959616Y-113297380D02*
X177007235Y-113202142D01*
X177007235Y-113202142D02*
X177007235Y-113106904D01*
X177007235Y-113106904D02*
X176959616Y-113011666D01*
X176959616Y-113011666D02*
X176911997Y-112964047D01*
X176911997Y-112964047D02*
X176816759Y-112916428D01*
X176816759Y-112916428D02*
X176626283Y-112868809D01*
X176626283Y-112868809D02*
X176531045Y-112821190D01*
X176531045Y-112821190D02*
X176483426Y-112773571D01*
X176483426Y-112773571D02*
X176435807Y-112678333D01*
X176435807Y-112678333D02*
X176435807Y-112583095D01*
X176435807Y-112583095D02*
X176483426Y-112487857D01*
X176483426Y-112487857D02*
X176531045Y-112440238D01*
X176531045Y-112440238D02*
X176626283Y-112392619D01*
X176626283Y-112392619D02*
X176864378Y-112392619D01*
X176864378Y-112392619D02*
X177007235Y-112440238D01*
X177626283Y-112392619D02*
X177816759Y-112392619D01*
X177816759Y-112392619D02*
X177911997Y-112440238D01*
X177911997Y-112440238D02*
X178007235Y-112535476D01*
X178007235Y-112535476D02*
X178054854Y-112725952D01*
X178054854Y-112725952D02*
X178054854Y-113059285D01*
X178054854Y-113059285D02*
X178007235Y-113249761D01*
X178007235Y-113249761D02*
X177911997Y-113345000D01*
X177911997Y-113345000D02*
X177816759Y-113392619D01*
X177816759Y-113392619D02*
X177626283Y-113392619D01*
X177626283Y-113392619D02*
X177531045Y-113345000D01*
X177531045Y-113345000D02*
X177435807Y-113249761D01*
X177435807Y-113249761D02*
X177388188Y-113059285D01*
X177388188Y-113059285D02*
X177388188Y-112725952D01*
X177388188Y-112725952D02*
X177435807Y-112535476D01*
X177435807Y-112535476D02*
X177531045Y-112440238D01*
X177531045Y-112440238D02*
X177626283Y-112392619D01*
X174645322Y-132712619D02*
X174978655Y-133712619D01*
X174978655Y-133712619D02*
X175311988Y-132712619D01*
X176216750Y-133617380D02*
X176169131Y-133665000D01*
X176169131Y-133665000D02*
X176026274Y-133712619D01*
X176026274Y-133712619D02*
X175931036Y-133712619D01*
X175931036Y-133712619D02*
X175788179Y-133665000D01*
X175788179Y-133665000D02*
X175692941Y-133569761D01*
X175692941Y-133569761D02*
X175645322Y-133474523D01*
X175645322Y-133474523D02*
X175597703Y-133284047D01*
X175597703Y-133284047D02*
X175597703Y-133141190D01*
X175597703Y-133141190D02*
X175645322Y-132950714D01*
X175645322Y-132950714D02*
X175692941Y-132855476D01*
X175692941Y-132855476D02*
X175788179Y-132760238D01*
X175788179Y-132760238D02*
X175931036Y-132712619D01*
X175931036Y-132712619D02*
X176026274Y-132712619D01*
X176026274Y-132712619D02*
X176169131Y-132760238D01*
X176169131Y-132760238D02*
X176216750Y-132807857D01*
X177216750Y-133617380D02*
X177169131Y-133665000D01*
X177169131Y-133665000D02*
X177026274Y-133712619D01*
X177026274Y-133712619D02*
X176931036Y-133712619D01*
X176931036Y-133712619D02*
X176788179Y-133665000D01*
X176788179Y-133665000D02*
X176692941Y-133569761D01*
X176692941Y-133569761D02*
X176645322Y-133474523D01*
X176645322Y-133474523D02*
X176597703Y-133284047D01*
X176597703Y-133284047D02*
X176597703Y-133141190D01*
X176597703Y-133141190D02*
X176645322Y-132950714D01*
X176645322Y-132950714D02*
X176692941Y-132855476D01*
X176692941Y-132855476D02*
X176788179Y-132760238D01*
X176788179Y-132760238D02*
X176931036Y-132712619D01*
X176931036Y-132712619D02*
X177026274Y-132712619D01*
X177026274Y-132712619D02*
X177169131Y-132760238D01*
X177169131Y-132760238D02*
X177216750Y-132807857D01*
X174746922Y-109903419D02*
X175318350Y-109903419D01*
X175032636Y-110903419D02*
X175032636Y-109903419D01*
X175413589Y-110998657D02*
X176175493Y-110998657D01*
X176985017Y-110808180D02*
X176937398Y-110855800D01*
X176937398Y-110855800D02*
X176794541Y-110903419D01*
X176794541Y-110903419D02*
X176699303Y-110903419D01*
X176699303Y-110903419D02*
X176556446Y-110855800D01*
X176556446Y-110855800D02*
X176461208Y-110760561D01*
X176461208Y-110760561D02*
X176413589Y-110665323D01*
X176413589Y-110665323D02*
X176365970Y-110474847D01*
X176365970Y-110474847D02*
X176365970Y-110331990D01*
X176365970Y-110331990D02*
X176413589Y-110141514D01*
X176413589Y-110141514D02*
X176461208Y-110046276D01*
X176461208Y-110046276D02*
X176556446Y-109951038D01*
X176556446Y-109951038D02*
X176699303Y-109903419D01*
X176699303Y-109903419D02*
X176794541Y-109903419D01*
X176794541Y-109903419D02*
X176937398Y-109951038D01*
X176937398Y-109951038D02*
X176985017Y-109998657D01*
X177889779Y-110903419D02*
X177413589Y-110903419D01*
X177413589Y-110903419D02*
X177413589Y-109903419D01*
X178223113Y-110903419D02*
X178223113Y-109903419D01*
X178794541Y-110903419D02*
X178365970Y-110331990D01*
X178794541Y-109903419D02*
X178223113Y-110474847D01*
X174619922Y-104798019D02*
X175191350Y-104798019D01*
X174905636Y-105798019D02*
X174905636Y-104798019D01*
X175286589Y-105893257D02*
X176048493Y-105893257D01*
X176286589Y-105798019D02*
X176286589Y-104798019D01*
X176286589Y-104798019D02*
X176524684Y-104798019D01*
X176524684Y-104798019D02*
X176667541Y-104845638D01*
X176667541Y-104845638D02*
X176762779Y-104940876D01*
X176762779Y-104940876D02*
X176810398Y-105036114D01*
X176810398Y-105036114D02*
X176858017Y-105226590D01*
X176858017Y-105226590D02*
X176858017Y-105369447D01*
X176858017Y-105369447D02*
X176810398Y-105559923D01*
X176810398Y-105559923D02*
X176762779Y-105655161D01*
X176762779Y-105655161D02*
X176667541Y-105750400D01*
X176667541Y-105750400D02*
X176524684Y-105798019D01*
X176524684Y-105798019D02*
X176286589Y-105798019D01*
X177286589Y-105798019D02*
X177286589Y-104798019D01*
X177762779Y-105798019D02*
X177762779Y-104798019D01*
X177762779Y-104798019D02*
X178334207Y-105798019D01*
X178334207Y-105798019D02*
X178334207Y-104798019D01*
X175258007Y-126194219D02*
X174924674Y-125718028D01*
X174686579Y-126194219D02*
X174686579Y-125194219D01*
X174686579Y-125194219D02*
X175067531Y-125194219D01*
X175067531Y-125194219D02*
X175162769Y-125241838D01*
X175162769Y-125241838D02*
X175210388Y-125289457D01*
X175210388Y-125289457D02*
X175258007Y-125384695D01*
X175258007Y-125384695D02*
X175258007Y-125527552D01*
X175258007Y-125527552D02*
X175210388Y-125622790D01*
X175210388Y-125622790D02*
X175162769Y-125670409D01*
X175162769Y-125670409D02*
X175067531Y-125718028D01*
X175067531Y-125718028D02*
X174686579Y-125718028D01*
X175686579Y-125670409D02*
X176019912Y-125670409D01*
X176162769Y-126194219D02*
X175686579Y-126194219D01*
X175686579Y-126194219D02*
X175686579Y-125194219D01*
X175686579Y-125194219D02*
X176162769Y-125194219D01*
X176543722Y-126146600D02*
X176686579Y-126194219D01*
X176686579Y-126194219D02*
X176924674Y-126194219D01*
X176924674Y-126194219D02*
X177019912Y-126146600D01*
X177019912Y-126146600D02*
X177067531Y-126098980D01*
X177067531Y-126098980D02*
X177115150Y-126003742D01*
X177115150Y-126003742D02*
X177115150Y-125908504D01*
X177115150Y-125908504D02*
X177067531Y-125813266D01*
X177067531Y-125813266D02*
X177019912Y-125765647D01*
X177019912Y-125765647D02*
X176924674Y-125718028D01*
X176924674Y-125718028D02*
X176734198Y-125670409D01*
X176734198Y-125670409D02*
X176638960Y-125622790D01*
X176638960Y-125622790D02*
X176591341Y-125575171D01*
X176591341Y-125575171D02*
X176543722Y-125479933D01*
X176543722Y-125479933D02*
X176543722Y-125384695D01*
X176543722Y-125384695D02*
X176591341Y-125289457D01*
X176591341Y-125289457D02*
X176638960Y-125241838D01*
X176638960Y-125241838D02*
X176734198Y-125194219D01*
X176734198Y-125194219D02*
X176972293Y-125194219D01*
X176972293Y-125194219D02*
X177115150Y-125241838D01*
X177543722Y-125670409D02*
X177877055Y-125670409D01*
X178019912Y-126194219D02*
X177543722Y-126194219D01*
X177543722Y-126194219D02*
X177543722Y-125194219D01*
X177543722Y-125194219D02*
X178019912Y-125194219D01*
X178305627Y-125194219D02*
X178877055Y-125194219D01*
X178591341Y-126194219D02*
X178591341Y-125194219D01*
X174670722Y-107490419D02*
X175242150Y-107490419D01*
X174956436Y-108490419D02*
X174956436Y-107490419D01*
X175337389Y-108585657D02*
X176099293Y-108585657D01*
X176908817Y-108395180D02*
X176861198Y-108442800D01*
X176861198Y-108442800D02*
X176718341Y-108490419D01*
X176718341Y-108490419D02*
X176623103Y-108490419D01*
X176623103Y-108490419D02*
X176480246Y-108442800D01*
X176480246Y-108442800D02*
X176385008Y-108347561D01*
X176385008Y-108347561D02*
X176337389Y-108252323D01*
X176337389Y-108252323D02*
X176289770Y-108061847D01*
X176289770Y-108061847D02*
X176289770Y-107918990D01*
X176289770Y-107918990D02*
X176337389Y-107728514D01*
X176337389Y-107728514D02*
X176385008Y-107633276D01*
X176385008Y-107633276D02*
X176480246Y-107538038D01*
X176480246Y-107538038D02*
X176623103Y-107490419D01*
X176623103Y-107490419D02*
X176718341Y-107490419D01*
X176718341Y-107490419D02*
X176861198Y-107538038D01*
X176861198Y-107538038D02*
X176908817Y-107585657D01*
X177289770Y-108442800D02*
X177432627Y-108490419D01*
X177432627Y-108490419D02*
X177670722Y-108490419D01*
X177670722Y-108490419D02*
X177765960Y-108442800D01*
X177765960Y-108442800D02*
X177813579Y-108395180D01*
X177813579Y-108395180D02*
X177861198Y-108299942D01*
X177861198Y-108299942D02*
X177861198Y-108204704D01*
X177861198Y-108204704D02*
X177813579Y-108109466D01*
X177813579Y-108109466D02*
X177765960Y-108061847D01*
X177765960Y-108061847D02*
X177670722Y-108014228D01*
X177670722Y-108014228D02*
X177480246Y-107966609D01*
X177480246Y-107966609D02*
X177385008Y-107918990D01*
X177385008Y-107918990D02*
X177337389Y-107871371D01*
X177337389Y-107871371D02*
X177289770Y-107776133D01*
X177289770Y-107776133D02*
X177289770Y-107680895D01*
X177289770Y-107680895D02*
X177337389Y-107585657D01*
X177337389Y-107585657D02*
X177385008Y-107538038D01*
X177385008Y-107538038D02*
X177480246Y-107490419D01*
X177480246Y-107490419D02*
X177718341Y-107490419D01*
X177718341Y-107490419D02*
X177861198Y-107538038D01*
X175108788Y-130245638D02*
X175013550Y-130198019D01*
X175013550Y-130198019D02*
X174870693Y-130198019D01*
X174870693Y-130198019D02*
X174727836Y-130245638D01*
X174727836Y-130245638D02*
X174632598Y-130340876D01*
X174632598Y-130340876D02*
X174584979Y-130436114D01*
X174584979Y-130436114D02*
X174537360Y-130626590D01*
X174537360Y-130626590D02*
X174537360Y-130769447D01*
X174537360Y-130769447D02*
X174584979Y-130959923D01*
X174584979Y-130959923D02*
X174632598Y-131055161D01*
X174632598Y-131055161D02*
X174727836Y-131150400D01*
X174727836Y-131150400D02*
X174870693Y-131198019D01*
X174870693Y-131198019D02*
X174965931Y-131198019D01*
X174965931Y-131198019D02*
X175108788Y-131150400D01*
X175108788Y-131150400D02*
X175156407Y-131102780D01*
X175156407Y-131102780D02*
X175156407Y-130769447D01*
X175156407Y-130769447D02*
X174965931Y-130769447D01*
X175584979Y-131198019D02*
X175584979Y-130198019D01*
X175584979Y-130198019D02*
X176156407Y-131198019D01*
X176156407Y-131198019D02*
X176156407Y-130198019D01*
X176632598Y-131198019D02*
X176632598Y-130198019D01*
X176632598Y-130198019D02*
X176870693Y-130198019D01*
X176870693Y-130198019D02*
X177013550Y-130245638D01*
X177013550Y-130245638D02*
X177108788Y-130340876D01*
X177108788Y-130340876D02*
X177156407Y-130436114D01*
X177156407Y-130436114D02*
X177204026Y-130626590D01*
X177204026Y-130626590D02*
X177204026Y-130769447D01*
X177204026Y-130769447D02*
X177156407Y-130959923D01*
X177156407Y-130959923D02*
X177108788Y-131055161D01*
X177108788Y-131055161D02*
X177013550Y-131150400D01*
X177013550Y-131150400D02*
X176870693Y-131198019D01*
X176870693Y-131198019D02*
X176632598Y-131198019D01*
X174543722Y-99616419D02*
X175115150Y-99616419D01*
X174829436Y-100616419D02*
X174829436Y-99616419D01*
X175210389Y-100711657D02*
X175972293Y-100711657D01*
X176210389Y-100616419D02*
X176210389Y-99616419D01*
X177258007Y-100616419D02*
X176924674Y-100140228D01*
X176686579Y-100616419D02*
X176686579Y-99616419D01*
X176686579Y-99616419D02*
X177067531Y-99616419D01*
X177067531Y-99616419D02*
X177162769Y-99664038D01*
X177162769Y-99664038D02*
X177210388Y-99711657D01*
X177210388Y-99711657D02*
X177258007Y-99806895D01*
X177258007Y-99806895D02*
X177258007Y-99949752D01*
X177258007Y-99949752D02*
X177210388Y-100044990D01*
X177210388Y-100044990D02*
X177162769Y-100092609D01*
X177162769Y-100092609D02*
X177067531Y-100140228D01*
X177067531Y-100140228D02*
X176686579Y-100140228D01*
X178353245Y-100711657D02*
X178258007Y-100664038D01*
X178258007Y-100664038D02*
X178162769Y-100568800D01*
X178162769Y-100568800D02*
X178019912Y-100425942D01*
X178019912Y-100425942D02*
X177924674Y-100378323D01*
X177924674Y-100378323D02*
X177829436Y-100378323D01*
X177877055Y-100616419D02*
X177781817Y-100568800D01*
X177781817Y-100568800D02*
X177686579Y-100473561D01*
X177686579Y-100473561D02*
X177638960Y-100283085D01*
X177638960Y-100283085D02*
X177638960Y-99949752D01*
X177638960Y-99949752D02*
X177686579Y-99759276D01*
X177686579Y-99759276D02*
X177781817Y-99664038D01*
X177781817Y-99664038D02*
X177877055Y-99616419D01*
X177877055Y-99616419D02*
X178067531Y-99616419D01*
X178067531Y-99616419D02*
X178162769Y-99664038D01*
X178162769Y-99664038D02*
X178258007Y-99759276D01*
X178258007Y-99759276D02*
X178305626Y-99949752D01*
X178305626Y-99949752D02*
X178305626Y-100283085D01*
X178305626Y-100283085D02*
X178258007Y-100473561D01*
X178258007Y-100473561D02*
X178162769Y-100568800D01*
X178162769Y-100568800D02*
X178067531Y-100616419D01*
X178067531Y-100616419D02*
X177877055Y-100616419D01*
X174816760Y-118425000D02*
X174959617Y-118472619D01*
X174959617Y-118472619D02*
X175197712Y-118472619D01*
X175197712Y-118472619D02*
X175292950Y-118425000D01*
X175292950Y-118425000D02*
X175340569Y-118377380D01*
X175340569Y-118377380D02*
X175388188Y-118282142D01*
X175388188Y-118282142D02*
X175388188Y-118186904D01*
X175388188Y-118186904D02*
X175340569Y-118091666D01*
X175340569Y-118091666D02*
X175292950Y-118044047D01*
X175292950Y-118044047D02*
X175197712Y-117996428D01*
X175197712Y-117996428D02*
X175007236Y-117948809D01*
X175007236Y-117948809D02*
X174911998Y-117901190D01*
X174911998Y-117901190D02*
X174864379Y-117853571D01*
X174864379Y-117853571D02*
X174816760Y-117758333D01*
X174816760Y-117758333D02*
X174816760Y-117663095D01*
X174816760Y-117663095D02*
X174864379Y-117567857D01*
X174864379Y-117567857D02*
X174911998Y-117520238D01*
X174911998Y-117520238D02*
X175007236Y-117472619D01*
X175007236Y-117472619D02*
X175245331Y-117472619D01*
X175245331Y-117472619D02*
X175388188Y-117520238D01*
X176388188Y-118377380D02*
X176340569Y-118425000D01*
X176340569Y-118425000D02*
X176197712Y-118472619D01*
X176197712Y-118472619D02*
X176102474Y-118472619D01*
X176102474Y-118472619D02*
X175959617Y-118425000D01*
X175959617Y-118425000D02*
X175864379Y-118329761D01*
X175864379Y-118329761D02*
X175816760Y-118234523D01*
X175816760Y-118234523D02*
X175769141Y-118044047D01*
X175769141Y-118044047D02*
X175769141Y-117901190D01*
X175769141Y-117901190D02*
X175816760Y-117710714D01*
X175816760Y-117710714D02*
X175864379Y-117615476D01*
X175864379Y-117615476D02*
X175959617Y-117520238D01*
X175959617Y-117520238D02*
X176102474Y-117472619D01*
X176102474Y-117472619D02*
X176197712Y-117472619D01*
X176197712Y-117472619D02*
X176340569Y-117520238D01*
X176340569Y-117520238D02*
X176388188Y-117567857D01*
X176816760Y-118472619D02*
X176816760Y-117472619D01*
X177388188Y-118472619D02*
X176959617Y-117901190D01*
X177388188Y-117472619D02*
X176816760Y-118044047D01*
X174746922Y-102308819D02*
X175318350Y-102308819D01*
X175032636Y-103308819D02*
X175032636Y-102308819D01*
X175413589Y-103404057D02*
X176175493Y-103404057D01*
X176413589Y-103308819D02*
X176413589Y-102308819D01*
X176413589Y-102308819D02*
X176651684Y-102308819D01*
X176651684Y-102308819D02*
X176794541Y-102356438D01*
X176794541Y-102356438D02*
X176889779Y-102451676D01*
X176889779Y-102451676D02*
X176937398Y-102546914D01*
X176937398Y-102546914D02*
X176985017Y-102737390D01*
X176985017Y-102737390D02*
X176985017Y-102880247D01*
X176985017Y-102880247D02*
X176937398Y-103070723D01*
X176937398Y-103070723D02*
X176889779Y-103165961D01*
X176889779Y-103165961D02*
X176794541Y-103261200D01*
X176794541Y-103261200D02*
X176651684Y-103308819D01*
X176651684Y-103308819D02*
X176413589Y-103308819D01*
X177604065Y-102308819D02*
X177699303Y-102308819D01*
X177699303Y-102308819D02*
X177794541Y-102356438D01*
X177794541Y-102356438D02*
X177842160Y-102404057D01*
X177842160Y-102404057D02*
X177889779Y-102499295D01*
X177889779Y-102499295D02*
X177937398Y-102689771D01*
X177937398Y-102689771D02*
X177937398Y-102927866D01*
X177937398Y-102927866D02*
X177889779Y-103118342D01*
X177889779Y-103118342D02*
X177842160Y-103213580D01*
X177842160Y-103213580D02*
X177794541Y-103261200D01*
X177794541Y-103261200D02*
X177699303Y-103308819D01*
X177699303Y-103308819D02*
X177604065Y-103308819D01*
X177604065Y-103308819D02*
X177508827Y-103261200D01*
X177508827Y-103261200D02*
X177461208Y-103213580D01*
X177461208Y-103213580D02*
X177413589Y-103118342D01*
X177413589Y-103118342D02*
X177365970Y-102927866D01*
X177365970Y-102927866D02*
X177365970Y-102689771D01*
X177365970Y-102689771D02*
X177413589Y-102499295D01*
X177413589Y-102499295D02*
X177461208Y-102404057D01*
X177461208Y-102404057D02*
X177508827Y-102356438D01*
X177508827Y-102356438D02*
X177604065Y-102308819D01*
X175492969Y-115983419D02*
X175016779Y-115983419D01*
X175016779Y-115983419D02*
X175016779Y-114983419D01*
X175826303Y-115459609D02*
X176159636Y-115459609D01*
X176302493Y-115983419D02*
X175826303Y-115983419D01*
X175826303Y-115983419D02*
X175826303Y-114983419D01*
X175826303Y-114983419D02*
X176302493Y-114983419D01*
X176731065Y-115983419D02*
X176731065Y-114983419D01*
X176731065Y-114983419D02*
X176969160Y-114983419D01*
X176969160Y-114983419D02*
X177112017Y-115031038D01*
X177112017Y-115031038D02*
X177207255Y-115126276D01*
X177207255Y-115126276D02*
X177254874Y-115221514D01*
X177254874Y-115221514D02*
X177302493Y-115411990D01*
X177302493Y-115411990D02*
X177302493Y-115554847D01*
X177302493Y-115554847D02*
X177254874Y-115745323D01*
X177254874Y-115745323D02*
X177207255Y-115840561D01*
X177207255Y-115840561D02*
X177112017Y-115935800D01*
X177112017Y-115935800D02*
X176969160Y-115983419D01*
X176969160Y-115983419D02*
X176731065Y-115983419D01*
X175385007Y-128638980D02*
X175337388Y-128686600D01*
X175337388Y-128686600D02*
X175194531Y-128734219D01*
X175194531Y-128734219D02*
X175099293Y-128734219D01*
X175099293Y-128734219D02*
X174956436Y-128686600D01*
X174956436Y-128686600D02*
X174861198Y-128591361D01*
X174861198Y-128591361D02*
X174813579Y-128496123D01*
X174813579Y-128496123D02*
X174765960Y-128305647D01*
X174765960Y-128305647D02*
X174765960Y-128162790D01*
X174765960Y-128162790D02*
X174813579Y-127972314D01*
X174813579Y-127972314D02*
X174861198Y-127877076D01*
X174861198Y-127877076D02*
X174956436Y-127781838D01*
X174956436Y-127781838D02*
X175099293Y-127734219D01*
X175099293Y-127734219D02*
X175194531Y-127734219D01*
X175194531Y-127734219D02*
X175337388Y-127781838D01*
X175337388Y-127781838D02*
X175385007Y-127829457D01*
X175765960Y-128686600D02*
X175908817Y-128734219D01*
X175908817Y-128734219D02*
X176146912Y-128734219D01*
X176146912Y-128734219D02*
X176242150Y-128686600D01*
X176242150Y-128686600D02*
X176289769Y-128638980D01*
X176289769Y-128638980D02*
X176337388Y-128543742D01*
X176337388Y-128543742D02*
X176337388Y-128448504D01*
X176337388Y-128448504D02*
X176289769Y-128353266D01*
X176289769Y-128353266D02*
X176242150Y-128305647D01*
X176242150Y-128305647D02*
X176146912Y-128258028D01*
X176146912Y-128258028D02*
X175956436Y-128210409D01*
X175956436Y-128210409D02*
X175861198Y-128162790D01*
X175861198Y-128162790D02*
X175813579Y-128115171D01*
X175813579Y-128115171D02*
X175765960Y-128019933D01*
X175765960Y-128019933D02*
X175765960Y-127924695D01*
X175765960Y-127924695D02*
X175813579Y-127829457D01*
X175813579Y-127829457D02*
X175861198Y-127781838D01*
X175861198Y-127781838D02*
X175956436Y-127734219D01*
X175956436Y-127734219D02*
X176194531Y-127734219D01*
X176194531Y-127734219D02*
X176337388Y-127781838D01*
X174788179Y-120987219D02*
X174788179Y-119987219D01*
X174788179Y-119987219D02*
X175121512Y-120701504D01*
X175121512Y-120701504D02*
X175454845Y-119987219D01*
X175454845Y-119987219D02*
X175454845Y-120987219D01*
X176121512Y-119987219D02*
X176311988Y-119987219D01*
X176311988Y-119987219D02*
X176407226Y-120034838D01*
X176407226Y-120034838D02*
X176502464Y-120130076D01*
X176502464Y-120130076D02*
X176550083Y-120320552D01*
X176550083Y-120320552D02*
X176550083Y-120653885D01*
X176550083Y-120653885D02*
X176502464Y-120844361D01*
X176502464Y-120844361D02*
X176407226Y-120939600D01*
X176407226Y-120939600D02*
X176311988Y-120987219D01*
X176311988Y-120987219D02*
X176121512Y-120987219D01*
X176121512Y-120987219D02*
X176026274Y-120939600D01*
X176026274Y-120939600D02*
X175931036Y-120844361D01*
X175931036Y-120844361D02*
X175883417Y-120653885D01*
X175883417Y-120653885D02*
X175883417Y-120320552D01*
X175883417Y-120320552D02*
X175931036Y-120130076D01*
X175931036Y-120130076D02*
X176026274Y-120034838D01*
X176026274Y-120034838D02*
X176121512Y-119987219D01*
X176931036Y-120939600D02*
X177073893Y-120987219D01*
X177073893Y-120987219D02*
X177311988Y-120987219D01*
X177311988Y-120987219D02*
X177407226Y-120939600D01*
X177407226Y-120939600D02*
X177454845Y-120891980D01*
X177454845Y-120891980D02*
X177502464Y-120796742D01*
X177502464Y-120796742D02*
X177502464Y-120701504D01*
X177502464Y-120701504D02*
X177454845Y-120606266D01*
X177454845Y-120606266D02*
X177407226Y-120558647D01*
X177407226Y-120558647D02*
X177311988Y-120511028D01*
X177311988Y-120511028D02*
X177121512Y-120463409D01*
X177121512Y-120463409D02*
X177026274Y-120415790D01*
X177026274Y-120415790D02*
X176978655Y-120368171D01*
X176978655Y-120368171D02*
X176931036Y-120272933D01*
X176931036Y-120272933D02*
X176931036Y-120177695D01*
X176931036Y-120177695D02*
X176978655Y-120082457D01*
X176978655Y-120082457D02*
X177026274Y-120034838D01*
X177026274Y-120034838D02*
X177121512Y-119987219D01*
X177121512Y-119987219D02*
X177359607Y-119987219D01*
X177359607Y-119987219D02*
X177502464Y-120034838D01*
X177931036Y-120987219D02*
X177931036Y-119987219D01*
X181677580Y-102362922D02*
X181677580Y-102934350D01*
X180677580Y-102648636D02*
X181677580Y-102648636D01*
X181677580Y-103458160D02*
X181677580Y-103648636D01*
X181677580Y-103648636D02*
X181629961Y-103743874D01*
X181629961Y-103743874D02*
X181534723Y-103839112D01*
X181534723Y-103839112D02*
X181344247Y-103886731D01*
X181344247Y-103886731D02*
X181010914Y-103886731D01*
X181010914Y-103886731D02*
X180820438Y-103839112D01*
X180820438Y-103839112D02*
X180725200Y-103743874D01*
X180725200Y-103743874D02*
X180677580Y-103648636D01*
X180677580Y-103648636D02*
X180677580Y-103458160D01*
X180677580Y-103458160D02*
X180725200Y-103362922D01*
X180725200Y-103362922D02*
X180820438Y-103267684D01*
X180820438Y-103267684D02*
X181010914Y-103220065D01*
X181010914Y-103220065D02*
X181344247Y-103220065D01*
X181344247Y-103220065D02*
X181534723Y-103267684D01*
X181534723Y-103267684D02*
X181629961Y-103362922D01*
X181629961Y-103362922D02*
X181677580Y-103458160D01*
X181677580Y-104315303D02*
X180868057Y-104315303D01*
X180868057Y-104315303D02*
X180772819Y-104362922D01*
X180772819Y-104362922D02*
X180725200Y-104410541D01*
X180725200Y-104410541D02*
X180677580Y-104505779D01*
X180677580Y-104505779D02*
X180677580Y-104696255D01*
X180677580Y-104696255D02*
X180725200Y-104791493D01*
X180725200Y-104791493D02*
X180772819Y-104839112D01*
X180772819Y-104839112D02*
X180868057Y-104886731D01*
X180868057Y-104886731D02*
X181677580Y-104886731D01*
X180772819Y-105934350D02*
X180725200Y-105886731D01*
X180725200Y-105886731D02*
X180677580Y-105743874D01*
X180677580Y-105743874D02*
X180677580Y-105648636D01*
X180677580Y-105648636D02*
X180725200Y-105505779D01*
X180725200Y-105505779D02*
X180820438Y-105410541D01*
X180820438Y-105410541D02*
X180915676Y-105362922D01*
X180915676Y-105362922D02*
X181106152Y-105315303D01*
X181106152Y-105315303D02*
X181249009Y-105315303D01*
X181249009Y-105315303D02*
X181439485Y-105362922D01*
X181439485Y-105362922D02*
X181534723Y-105410541D01*
X181534723Y-105410541D02*
X181629961Y-105505779D01*
X181629961Y-105505779D02*
X181677580Y-105648636D01*
X181677580Y-105648636D02*
X181677580Y-105743874D01*
X181677580Y-105743874D02*
X181629961Y-105886731D01*
X181629961Y-105886731D02*
X181582342Y-105934350D01*
X180677580Y-106362922D02*
X181677580Y-106362922D01*
X181201390Y-106362922D02*
X181201390Y-106934350D01*
X180677580Y-106934350D02*
X181677580Y-106934350D01*
X190025542Y-137766219D02*
X189692209Y-137290028D01*
X189454114Y-137766219D02*
X189454114Y-136766219D01*
X189454114Y-136766219D02*
X189835066Y-136766219D01*
X189835066Y-136766219D02*
X189930304Y-136813838D01*
X189930304Y-136813838D02*
X189977923Y-136861457D01*
X189977923Y-136861457D02*
X190025542Y-136956695D01*
X190025542Y-136956695D02*
X190025542Y-137099552D01*
X190025542Y-137099552D02*
X189977923Y-137194790D01*
X189977923Y-137194790D02*
X189930304Y-137242409D01*
X189930304Y-137242409D02*
X189835066Y-137290028D01*
X189835066Y-137290028D02*
X189454114Y-137290028D01*
X190977923Y-137766219D02*
X190406495Y-137766219D01*
X190692209Y-137766219D02*
X190692209Y-136766219D01*
X190692209Y-136766219D02*
X190596971Y-136909076D01*
X190596971Y-136909076D02*
X190501733Y-137004314D01*
X190501733Y-137004314D02*
X190406495Y-137051933D01*
X191454114Y-137766219D02*
X191644590Y-137766219D01*
X191644590Y-137766219D02*
X191739828Y-137718600D01*
X191739828Y-137718600D02*
X191787447Y-137670980D01*
X191787447Y-137670980D02*
X191882685Y-137528123D01*
X191882685Y-137528123D02*
X191930304Y-137337647D01*
X191930304Y-137337647D02*
X191930304Y-136956695D01*
X191930304Y-136956695D02*
X191882685Y-136861457D01*
X191882685Y-136861457D02*
X191835066Y-136813838D01*
X191835066Y-136813838D02*
X191739828Y-136766219D01*
X191739828Y-136766219D02*
X191549352Y-136766219D01*
X191549352Y-136766219D02*
X191454114Y-136813838D01*
X191454114Y-136813838D02*
X191406495Y-136861457D01*
X191406495Y-136861457D02*
X191358876Y-136956695D01*
X191358876Y-136956695D02*
X191358876Y-137194790D01*
X191358876Y-137194790D02*
X191406495Y-137290028D01*
X191406495Y-137290028D02*
X191454114Y-137337647D01*
X191454114Y-137337647D02*
X191549352Y-137385266D01*
X191549352Y-137385266D02*
X191739828Y-137385266D01*
X191739828Y-137385266D02*
X191835066Y-137337647D01*
X191835066Y-137337647D02*
X191882685Y-137290028D01*
X191882685Y-137290028D02*
X191930304Y-137194790D01*
X238364733Y-141253380D02*
X238317114Y-141301000D01*
X238317114Y-141301000D02*
X238174257Y-141348619D01*
X238174257Y-141348619D02*
X238079019Y-141348619D01*
X238079019Y-141348619D02*
X237936162Y-141301000D01*
X237936162Y-141301000D02*
X237840924Y-141205761D01*
X237840924Y-141205761D02*
X237793305Y-141110523D01*
X237793305Y-141110523D02*
X237745686Y-140920047D01*
X237745686Y-140920047D02*
X237745686Y-140777190D01*
X237745686Y-140777190D02*
X237793305Y-140586714D01*
X237793305Y-140586714D02*
X237840924Y-140491476D01*
X237840924Y-140491476D02*
X237936162Y-140396238D01*
X237936162Y-140396238D02*
X238079019Y-140348619D01*
X238079019Y-140348619D02*
X238174257Y-140348619D01*
X238174257Y-140348619D02*
X238317114Y-140396238D01*
X238317114Y-140396238D02*
X238364733Y-140443857D01*
X238745686Y-140443857D02*
X238793305Y-140396238D01*
X238793305Y-140396238D02*
X238888543Y-140348619D01*
X238888543Y-140348619D02*
X239126638Y-140348619D01*
X239126638Y-140348619D02*
X239221876Y-140396238D01*
X239221876Y-140396238D02*
X239269495Y-140443857D01*
X239269495Y-140443857D02*
X239317114Y-140539095D01*
X239317114Y-140539095D02*
X239317114Y-140634333D01*
X239317114Y-140634333D02*
X239269495Y-140777190D01*
X239269495Y-140777190D02*
X238698067Y-141348619D01*
X238698067Y-141348619D02*
X239317114Y-141348619D01*
X213091733Y-131823619D02*
X212758400Y-131347428D01*
X212520305Y-131823619D02*
X212520305Y-130823619D01*
X212520305Y-130823619D02*
X212901257Y-130823619D01*
X212901257Y-130823619D02*
X212996495Y-130871238D01*
X212996495Y-130871238D02*
X213044114Y-130918857D01*
X213044114Y-130918857D02*
X213091733Y-131014095D01*
X213091733Y-131014095D02*
X213091733Y-131156952D01*
X213091733Y-131156952D02*
X213044114Y-131252190D01*
X213044114Y-131252190D02*
X212996495Y-131299809D01*
X212996495Y-131299809D02*
X212901257Y-131347428D01*
X212901257Y-131347428D02*
X212520305Y-131347428D01*
X213425067Y-130823619D02*
X214044114Y-130823619D01*
X214044114Y-130823619D02*
X213710781Y-131204571D01*
X213710781Y-131204571D02*
X213853638Y-131204571D01*
X213853638Y-131204571D02*
X213948876Y-131252190D01*
X213948876Y-131252190D02*
X213996495Y-131299809D01*
X213996495Y-131299809D02*
X214044114Y-131395047D01*
X214044114Y-131395047D02*
X214044114Y-131633142D01*
X214044114Y-131633142D02*
X213996495Y-131728380D01*
X213996495Y-131728380D02*
X213948876Y-131776000D01*
X213948876Y-131776000D02*
X213853638Y-131823619D01*
X213853638Y-131823619D02*
X213567924Y-131823619D01*
X213567924Y-131823619D02*
X213472686Y-131776000D01*
X213472686Y-131776000D02*
X213425067Y-131728380D01*
X228815090Y-138075504D02*
X228958052Y-138123157D01*
X228958052Y-138123157D02*
X229196321Y-138123157D01*
X229196321Y-138123157D02*
X229291629Y-138075504D01*
X229291629Y-138075504D02*
X229339283Y-138027850D01*
X229339283Y-138027850D02*
X229386937Y-137932542D01*
X229386937Y-137932542D02*
X229386937Y-137837234D01*
X229386937Y-137837234D02*
X229339283Y-137741926D01*
X229339283Y-137741926D02*
X229291629Y-137694272D01*
X229291629Y-137694272D02*
X229196321Y-137646618D01*
X229196321Y-137646618D02*
X229005706Y-137598964D01*
X229005706Y-137598964D02*
X228910398Y-137551311D01*
X228910398Y-137551311D02*
X228862744Y-137503657D01*
X228862744Y-137503657D02*
X228815090Y-137408349D01*
X228815090Y-137408349D02*
X228815090Y-137313041D01*
X228815090Y-137313041D02*
X228862744Y-137217733D01*
X228862744Y-137217733D02*
X228910398Y-137170079D01*
X228910398Y-137170079D02*
X229005706Y-137122425D01*
X229005706Y-137122425D02*
X229243975Y-137122425D01*
X229243975Y-137122425D02*
X229386937Y-137170079D01*
X229720514Y-137122425D02*
X229958784Y-138123157D01*
X229958784Y-138123157D02*
X230149399Y-137408349D01*
X230149399Y-137408349D02*
X230340015Y-138123157D01*
X230340015Y-138123157D02*
X230578285Y-137122425D01*
X231483709Y-138123157D02*
X230911862Y-138123157D01*
X231197786Y-138123157D02*
X231197786Y-137122425D01*
X231197786Y-137122425D02*
X231102478Y-137265387D01*
X231102478Y-137265387D02*
X231007170Y-137360695D01*
X231007170Y-137360695D02*
X230911862Y-137408349D01*
X184048495Y-145682619D02*
X184048495Y-146492142D01*
X184048495Y-146492142D02*
X184096114Y-146587380D01*
X184096114Y-146587380D02*
X184143733Y-146635000D01*
X184143733Y-146635000D02*
X184238971Y-146682619D01*
X184238971Y-146682619D02*
X184429447Y-146682619D01*
X184429447Y-146682619D02*
X184524685Y-146635000D01*
X184524685Y-146635000D02*
X184572304Y-146587380D01*
X184572304Y-146587380D02*
X184619923Y-146492142D01*
X184619923Y-146492142D02*
X184619923Y-145682619D01*
X185000876Y-145682619D02*
X185619923Y-145682619D01*
X185619923Y-145682619D02*
X185286590Y-146063571D01*
X185286590Y-146063571D02*
X185429447Y-146063571D01*
X185429447Y-146063571D02*
X185524685Y-146111190D01*
X185524685Y-146111190D02*
X185572304Y-146158809D01*
X185572304Y-146158809D02*
X185619923Y-146254047D01*
X185619923Y-146254047D02*
X185619923Y-146492142D01*
X185619923Y-146492142D02*
X185572304Y-146587380D01*
X185572304Y-146587380D02*
X185524685Y-146635000D01*
X185524685Y-146635000D02*
X185429447Y-146682619D01*
X185429447Y-146682619D02*
X185143733Y-146682619D01*
X185143733Y-146682619D02*
X185048495Y-146635000D01*
X185048495Y-146635000D02*
X185000876Y-146587380D01*
X191228742Y-126362619D02*
X190895409Y-125886428D01*
X190657314Y-126362619D02*
X190657314Y-125362619D01*
X190657314Y-125362619D02*
X191038266Y-125362619D01*
X191038266Y-125362619D02*
X191133504Y-125410238D01*
X191133504Y-125410238D02*
X191181123Y-125457857D01*
X191181123Y-125457857D02*
X191228742Y-125553095D01*
X191228742Y-125553095D02*
X191228742Y-125695952D01*
X191228742Y-125695952D02*
X191181123Y-125791190D01*
X191181123Y-125791190D02*
X191133504Y-125838809D01*
X191133504Y-125838809D02*
X191038266Y-125886428D01*
X191038266Y-125886428D02*
X190657314Y-125886428D01*
X192181123Y-126362619D02*
X191609695Y-126362619D01*
X191895409Y-126362619D02*
X191895409Y-125362619D01*
X191895409Y-125362619D02*
X191800171Y-125505476D01*
X191800171Y-125505476D02*
X191704933Y-125600714D01*
X191704933Y-125600714D02*
X191609695Y-125648333D01*
X193038266Y-125362619D02*
X192847790Y-125362619D01*
X192847790Y-125362619D02*
X192752552Y-125410238D01*
X192752552Y-125410238D02*
X192704933Y-125457857D01*
X192704933Y-125457857D02*
X192609695Y-125600714D01*
X192609695Y-125600714D02*
X192562076Y-125791190D01*
X192562076Y-125791190D02*
X192562076Y-126172142D01*
X192562076Y-126172142D02*
X192609695Y-126267380D01*
X192609695Y-126267380D02*
X192657314Y-126315000D01*
X192657314Y-126315000D02*
X192752552Y-126362619D01*
X192752552Y-126362619D02*
X192943028Y-126362619D01*
X192943028Y-126362619D02*
X193038266Y-126315000D01*
X193038266Y-126315000D02*
X193085885Y-126267380D01*
X193085885Y-126267380D02*
X193133504Y-126172142D01*
X193133504Y-126172142D02*
X193133504Y-125934047D01*
X193133504Y-125934047D02*
X193085885Y-125838809D01*
X193085885Y-125838809D02*
X193038266Y-125791190D01*
X193038266Y-125791190D02*
X192943028Y-125743571D01*
X192943028Y-125743571D02*
X192752552Y-125743571D01*
X192752552Y-125743571D02*
X192657314Y-125791190D01*
X192657314Y-125791190D02*
X192609695Y-125838809D01*
X192609695Y-125838809D02*
X192562076Y-125934047D01*
X192854342Y-104651980D02*
X192806723Y-104699600D01*
X192806723Y-104699600D02*
X192663866Y-104747219D01*
X192663866Y-104747219D02*
X192568628Y-104747219D01*
X192568628Y-104747219D02*
X192425771Y-104699600D01*
X192425771Y-104699600D02*
X192330533Y-104604361D01*
X192330533Y-104604361D02*
X192282914Y-104509123D01*
X192282914Y-104509123D02*
X192235295Y-104318647D01*
X192235295Y-104318647D02*
X192235295Y-104175790D01*
X192235295Y-104175790D02*
X192282914Y-103985314D01*
X192282914Y-103985314D02*
X192330533Y-103890076D01*
X192330533Y-103890076D02*
X192425771Y-103794838D01*
X192425771Y-103794838D02*
X192568628Y-103747219D01*
X192568628Y-103747219D02*
X192663866Y-103747219D01*
X192663866Y-103747219D02*
X192806723Y-103794838D01*
X192806723Y-103794838D02*
X192854342Y-103842457D01*
X193806723Y-104747219D02*
X193235295Y-104747219D01*
X193521009Y-104747219D02*
X193521009Y-103747219D01*
X193521009Y-103747219D02*
X193425771Y-103890076D01*
X193425771Y-103890076D02*
X193330533Y-103985314D01*
X193330533Y-103985314D02*
X193235295Y-104032933D01*
X194425771Y-103747219D02*
X194521009Y-103747219D01*
X194521009Y-103747219D02*
X194616247Y-103794838D01*
X194616247Y-103794838D02*
X194663866Y-103842457D01*
X194663866Y-103842457D02*
X194711485Y-103937695D01*
X194711485Y-103937695D02*
X194759104Y-104128171D01*
X194759104Y-104128171D02*
X194759104Y-104366266D01*
X194759104Y-104366266D02*
X194711485Y-104556742D01*
X194711485Y-104556742D02*
X194663866Y-104651980D01*
X194663866Y-104651980D02*
X194616247Y-104699600D01*
X194616247Y-104699600D02*
X194521009Y-104747219D01*
X194521009Y-104747219D02*
X194425771Y-104747219D01*
X194425771Y-104747219D02*
X194330533Y-104699600D01*
X194330533Y-104699600D02*
X194282914Y-104651980D01*
X194282914Y-104651980D02*
X194235295Y-104556742D01*
X194235295Y-104556742D02*
X194187676Y-104366266D01*
X194187676Y-104366266D02*
X194187676Y-104128171D01*
X194187676Y-104128171D02*
X194235295Y-103937695D01*
X194235295Y-103937695D02*
X194282914Y-103842457D01*
X194282914Y-103842457D02*
X194330533Y-103794838D01*
X194330533Y-103794838D02*
X194425771Y-103747219D01*
X231902095Y-137097419D02*
X231902095Y-137906942D01*
X231902095Y-137906942D02*
X231949714Y-138002180D01*
X231949714Y-138002180D02*
X231997333Y-138049800D01*
X231997333Y-138049800D02*
X232092571Y-138097419D01*
X232092571Y-138097419D02*
X232283047Y-138097419D01*
X232283047Y-138097419D02*
X232378285Y-138049800D01*
X232378285Y-138049800D02*
X232425904Y-138002180D01*
X232425904Y-138002180D02*
X232473523Y-137906942D01*
X232473523Y-137906942D02*
X232473523Y-137097419D01*
X232854476Y-137097419D02*
X233521142Y-137097419D01*
X233521142Y-137097419D02*
X233092571Y-138097419D01*
X196200733Y-142491619D02*
X195867400Y-142015428D01*
X195629305Y-142491619D02*
X195629305Y-141491619D01*
X195629305Y-141491619D02*
X196010257Y-141491619D01*
X196010257Y-141491619D02*
X196105495Y-141539238D01*
X196105495Y-141539238D02*
X196153114Y-141586857D01*
X196153114Y-141586857D02*
X196200733Y-141682095D01*
X196200733Y-141682095D02*
X196200733Y-141824952D01*
X196200733Y-141824952D02*
X196153114Y-141920190D01*
X196153114Y-141920190D02*
X196105495Y-141967809D01*
X196105495Y-141967809D02*
X196010257Y-142015428D01*
X196010257Y-142015428D02*
X195629305Y-142015428D01*
X197105495Y-141491619D02*
X196629305Y-141491619D01*
X196629305Y-141491619D02*
X196581686Y-141967809D01*
X196581686Y-141967809D02*
X196629305Y-141920190D01*
X196629305Y-141920190D02*
X196724543Y-141872571D01*
X196724543Y-141872571D02*
X196962638Y-141872571D01*
X196962638Y-141872571D02*
X197057876Y-141920190D01*
X197057876Y-141920190D02*
X197105495Y-141967809D01*
X197105495Y-141967809D02*
X197153114Y-142063047D01*
X197153114Y-142063047D02*
X197153114Y-142301142D01*
X197153114Y-142301142D02*
X197105495Y-142396380D01*
X197105495Y-142396380D02*
X197057876Y-142444000D01*
X197057876Y-142444000D02*
X196962638Y-142491619D01*
X196962638Y-142491619D02*
X196724543Y-142491619D01*
X196724543Y-142491619D02*
X196629305Y-142444000D01*
X196629305Y-142444000D02*
X196581686Y-142396380D01*
X196674333Y-116404819D02*
X196198143Y-116404819D01*
X196198143Y-116404819D02*
X196198143Y-115404819D01*
X197531476Y-116404819D02*
X196960048Y-116404819D01*
X197245762Y-116404819D02*
X197245762Y-115404819D01*
X197245762Y-115404819D02*
X197150524Y-115547676D01*
X197150524Y-115547676D02*
X197055286Y-115642914D01*
X197055286Y-115642914D02*
X196960048Y-115690533D01*
X230088642Y-103275380D02*
X230041023Y-103323000D01*
X230041023Y-103323000D02*
X229898166Y-103370619D01*
X229898166Y-103370619D02*
X229802928Y-103370619D01*
X229802928Y-103370619D02*
X229660071Y-103323000D01*
X229660071Y-103323000D02*
X229564833Y-103227761D01*
X229564833Y-103227761D02*
X229517214Y-103132523D01*
X229517214Y-103132523D02*
X229469595Y-102942047D01*
X229469595Y-102942047D02*
X229469595Y-102799190D01*
X229469595Y-102799190D02*
X229517214Y-102608714D01*
X229517214Y-102608714D02*
X229564833Y-102513476D01*
X229564833Y-102513476D02*
X229660071Y-102418238D01*
X229660071Y-102418238D02*
X229802928Y-102370619D01*
X229802928Y-102370619D02*
X229898166Y-102370619D01*
X229898166Y-102370619D02*
X230041023Y-102418238D01*
X230041023Y-102418238D02*
X230088642Y-102465857D01*
X231041023Y-103370619D02*
X230469595Y-103370619D01*
X230755309Y-103370619D02*
X230755309Y-102370619D01*
X230755309Y-102370619D02*
X230660071Y-102513476D01*
X230660071Y-102513476D02*
X230564833Y-102608714D01*
X230564833Y-102608714D02*
X230469595Y-102656333D01*
X231898166Y-102703952D02*
X231898166Y-103370619D01*
X231660071Y-102323000D02*
X231421976Y-103037285D01*
X231421976Y-103037285D02*
X232041023Y-103037285D01*
X206751133Y-138200019D02*
X206417800Y-137723828D01*
X206179705Y-138200019D02*
X206179705Y-137200019D01*
X206179705Y-137200019D02*
X206560657Y-137200019D01*
X206560657Y-137200019D02*
X206655895Y-137247638D01*
X206655895Y-137247638D02*
X206703514Y-137295257D01*
X206703514Y-137295257D02*
X206751133Y-137390495D01*
X206751133Y-137390495D02*
X206751133Y-137533352D01*
X206751133Y-137533352D02*
X206703514Y-137628590D01*
X206703514Y-137628590D02*
X206655895Y-137676209D01*
X206655895Y-137676209D02*
X206560657Y-137723828D01*
X206560657Y-137723828D02*
X206179705Y-137723828D01*
X207084467Y-137200019D02*
X207751133Y-137200019D01*
X207751133Y-137200019D02*
X207322562Y-138200019D01*
X219111533Y-139475380D02*
X219063914Y-139523000D01*
X219063914Y-139523000D02*
X218921057Y-139570619D01*
X218921057Y-139570619D02*
X218825819Y-139570619D01*
X218825819Y-139570619D02*
X218682962Y-139523000D01*
X218682962Y-139523000D02*
X218587724Y-139427761D01*
X218587724Y-139427761D02*
X218540105Y-139332523D01*
X218540105Y-139332523D02*
X218492486Y-139142047D01*
X218492486Y-139142047D02*
X218492486Y-138999190D01*
X218492486Y-138999190D02*
X218540105Y-138808714D01*
X218540105Y-138808714D02*
X218587724Y-138713476D01*
X218587724Y-138713476D02*
X218682962Y-138618238D01*
X218682962Y-138618238D02*
X218825819Y-138570619D01*
X218825819Y-138570619D02*
X218921057Y-138570619D01*
X218921057Y-138570619D02*
X219063914Y-138618238D01*
X219063914Y-138618238D02*
X219111533Y-138665857D01*
X220063914Y-139570619D02*
X219492486Y-139570619D01*
X219778200Y-139570619D02*
X219778200Y-138570619D01*
X219778200Y-138570619D02*
X219682962Y-138713476D01*
X219682962Y-138713476D02*
X219587724Y-138808714D01*
X219587724Y-138808714D02*
X219492486Y-138856333D01*
X237888542Y-117421819D02*
X237555209Y-116945628D01*
X237317114Y-117421819D02*
X237317114Y-116421819D01*
X237317114Y-116421819D02*
X237698066Y-116421819D01*
X237698066Y-116421819D02*
X237793304Y-116469438D01*
X237793304Y-116469438D02*
X237840923Y-116517057D01*
X237840923Y-116517057D02*
X237888542Y-116612295D01*
X237888542Y-116612295D02*
X237888542Y-116755152D01*
X237888542Y-116755152D02*
X237840923Y-116850390D01*
X237840923Y-116850390D02*
X237793304Y-116898009D01*
X237793304Y-116898009D02*
X237698066Y-116945628D01*
X237698066Y-116945628D02*
X237317114Y-116945628D01*
X238840923Y-117421819D02*
X238269495Y-117421819D01*
X238555209Y-117421819D02*
X238555209Y-116421819D01*
X238555209Y-116421819D02*
X238459971Y-116564676D01*
X238459971Y-116564676D02*
X238364733Y-116659914D01*
X238364733Y-116659914D02*
X238269495Y-116707533D01*
X239793304Y-117421819D02*
X239221876Y-117421819D01*
X239507590Y-117421819D02*
X239507590Y-116421819D01*
X239507590Y-116421819D02*
X239412352Y-116564676D01*
X239412352Y-116564676D02*
X239317114Y-116659914D01*
X239317114Y-116659914D02*
X239221876Y-116707533D01*
X180253076Y-123839895D02*
X180710219Y-123839895D01*
X180481647Y-124639895D02*
X180481647Y-123839895D01*
X180976886Y-124639895D02*
X180976886Y-123839895D01*
X180976886Y-123839895D02*
X181281648Y-123839895D01*
X181281648Y-123839895D02*
X181357838Y-123877990D01*
X181357838Y-123877990D02*
X181395933Y-123916085D01*
X181395933Y-123916085D02*
X181434029Y-123992276D01*
X181434029Y-123992276D02*
X181434029Y-124106561D01*
X181434029Y-124106561D02*
X181395933Y-124182752D01*
X181395933Y-124182752D02*
X181357838Y-124220847D01*
X181357838Y-124220847D02*
X181281648Y-124258942D01*
X181281648Y-124258942D02*
X180976886Y-124258942D01*
X181891171Y-124182752D02*
X181814981Y-124144657D01*
X181814981Y-124144657D02*
X181776886Y-124106561D01*
X181776886Y-124106561D02*
X181738790Y-124030371D01*
X181738790Y-124030371D02*
X181738790Y-123992276D01*
X181738790Y-123992276D02*
X181776886Y-123916085D01*
X181776886Y-123916085D02*
X181814981Y-123877990D01*
X181814981Y-123877990D02*
X181891171Y-123839895D01*
X181891171Y-123839895D02*
X182043552Y-123839895D01*
X182043552Y-123839895D02*
X182119743Y-123877990D01*
X182119743Y-123877990D02*
X182157838Y-123916085D01*
X182157838Y-123916085D02*
X182195933Y-123992276D01*
X182195933Y-123992276D02*
X182195933Y-124030371D01*
X182195933Y-124030371D02*
X182157838Y-124106561D01*
X182157838Y-124106561D02*
X182119743Y-124144657D01*
X182119743Y-124144657D02*
X182043552Y-124182752D01*
X182043552Y-124182752D02*
X181891171Y-124182752D01*
X181891171Y-124182752D02*
X181814981Y-124220847D01*
X181814981Y-124220847D02*
X181776886Y-124258942D01*
X181776886Y-124258942D02*
X181738790Y-124335133D01*
X181738790Y-124335133D02*
X181738790Y-124487514D01*
X181738790Y-124487514D02*
X181776886Y-124563704D01*
X181776886Y-124563704D02*
X181814981Y-124601800D01*
X181814981Y-124601800D02*
X181891171Y-124639895D01*
X181891171Y-124639895D02*
X182043552Y-124639895D01*
X182043552Y-124639895D02*
X182119743Y-124601800D01*
X182119743Y-124601800D02*
X182157838Y-124563704D01*
X182157838Y-124563704D02*
X182195933Y-124487514D01*
X182195933Y-124487514D02*
X182195933Y-124335133D01*
X182195933Y-124335133D02*
X182157838Y-124258942D01*
X182157838Y-124258942D02*
X182119743Y-124220847D01*
X182119743Y-124220847D02*
X182043552Y-124182752D01*
X184218342Y-98321019D02*
X183885009Y-97844828D01*
X183646914Y-98321019D02*
X183646914Y-97321019D01*
X183646914Y-97321019D02*
X184027866Y-97321019D01*
X184027866Y-97321019D02*
X184123104Y-97368638D01*
X184123104Y-97368638D02*
X184170723Y-97416257D01*
X184170723Y-97416257D02*
X184218342Y-97511495D01*
X184218342Y-97511495D02*
X184218342Y-97654352D01*
X184218342Y-97654352D02*
X184170723Y-97749590D01*
X184170723Y-97749590D02*
X184123104Y-97797209D01*
X184123104Y-97797209D02*
X184027866Y-97844828D01*
X184027866Y-97844828D02*
X183646914Y-97844828D01*
X185170723Y-98321019D02*
X184599295Y-98321019D01*
X184885009Y-98321019D02*
X184885009Y-97321019D01*
X184885009Y-97321019D02*
X184789771Y-97463876D01*
X184789771Y-97463876D02*
X184694533Y-97559114D01*
X184694533Y-97559114D02*
X184599295Y-97606733D01*
X185789771Y-97321019D02*
X185885009Y-97321019D01*
X185885009Y-97321019D02*
X185980247Y-97368638D01*
X185980247Y-97368638D02*
X186027866Y-97416257D01*
X186027866Y-97416257D02*
X186075485Y-97511495D01*
X186075485Y-97511495D02*
X186123104Y-97701971D01*
X186123104Y-97701971D02*
X186123104Y-97940066D01*
X186123104Y-97940066D02*
X186075485Y-98130542D01*
X186075485Y-98130542D02*
X186027866Y-98225780D01*
X186027866Y-98225780D02*
X185980247Y-98273400D01*
X185980247Y-98273400D02*
X185885009Y-98321019D01*
X185885009Y-98321019D02*
X185789771Y-98321019D01*
X185789771Y-98321019D02*
X185694533Y-98273400D01*
X185694533Y-98273400D02*
X185646914Y-98225780D01*
X185646914Y-98225780D02*
X185599295Y-98130542D01*
X185599295Y-98130542D02*
X185551676Y-97940066D01*
X185551676Y-97940066D02*
X185551676Y-97701971D01*
X185551676Y-97701971D02*
X185599295Y-97511495D01*
X185599295Y-97511495D02*
X185646914Y-97416257D01*
X185646914Y-97416257D02*
X185694533Y-97368638D01*
X185694533Y-97368638D02*
X185789771Y-97321019D01*
X213298476Y-136717695D02*
X213755619Y-136717695D01*
X213527047Y-137517695D02*
X213527047Y-136717695D01*
X214022286Y-137517695D02*
X214022286Y-136717695D01*
X214022286Y-136717695D02*
X214327048Y-136717695D01*
X214327048Y-136717695D02*
X214403238Y-136755790D01*
X214403238Y-136755790D02*
X214441333Y-136793885D01*
X214441333Y-136793885D02*
X214479429Y-136870076D01*
X214479429Y-136870076D02*
X214479429Y-136984361D01*
X214479429Y-136984361D02*
X214441333Y-137060552D01*
X214441333Y-137060552D02*
X214403238Y-137098647D01*
X214403238Y-137098647D02*
X214327048Y-137136742D01*
X214327048Y-137136742D02*
X214022286Y-137136742D01*
X214746095Y-136717695D02*
X215241333Y-136717695D01*
X215241333Y-136717695D02*
X214974667Y-137022457D01*
X214974667Y-137022457D02*
X215088952Y-137022457D01*
X215088952Y-137022457D02*
X215165143Y-137060552D01*
X215165143Y-137060552D02*
X215203238Y-137098647D01*
X215203238Y-137098647D02*
X215241333Y-137174838D01*
X215241333Y-137174838D02*
X215241333Y-137365314D01*
X215241333Y-137365314D02*
X215203238Y-137441504D01*
X215203238Y-137441504D02*
X215165143Y-137479600D01*
X215165143Y-137479600D02*
X215088952Y-137517695D01*
X215088952Y-137517695D02*
X214860381Y-137517695D01*
X214860381Y-137517695D02*
X214784190Y-137479600D01*
X214784190Y-137479600D02*
X214746095Y-137441504D01*
X184694533Y-105017219D02*
X184361200Y-104541028D01*
X184123105Y-105017219D02*
X184123105Y-104017219D01*
X184123105Y-104017219D02*
X184504057Y-104017219D01*
X184504057Y-104017219D02*
X184599295Y-104064838D01*
X184599295Y-104064838D02*
X184646914Y-104112457D01*
X184646914Y-104112457D02*
X184694533Y-104207695D01*
X184694533Y-104207695D02*
X184694533Y-104350552D01*
X184694533Y-104350552D02*
X184646914Y-104445790D01*
X184646914Y-104445790D02*
X184599295Y-104493409D01*
X184599295Y-104493409D02*
X184504057Y-104541028D01*
X184504057Y-104541028D02*
X184123105Y-104541028D01*
X185170724Y-105017219D02*
X185361200Y-105017219D01*
X185361200Y-105017219D02*
X185456438Y-104969600D01*
X185456438Y-104969600D02*
X185504057Y-104921980D01*
X185504057Y-104921980D02*
X185599295Y-104779123D01*
X185599295Y-104779123D02*
X185646914Y-104588647D01*
X185646914Y-104588647D02*
X185646914Y-104207695D01*
X185646914Y-104207695D02*
X185599295Y-104112457D01*
X185599295Y-104112457D02*
X185551676Y-104064838D01*
X185551676Y-104064838D02*
X185456438Y-104017219D01*
X185456438Y-104017219D02*
X185265962Y-104017219D01*
X185265962Y-104017219D02*
X185170724Y-104064838D01*
X185170724Y-104064838D02*
X185123105Y-104112457D01*
X185123105Y-104112457D02*
X185075486Y-104207695D01*
X185075486Y-104207695D02*
X185075486Y-104445790D01*
X185075486Y-104445790D02*
X185123105Y-104541028D01*
X185123105Y-104541028D02*
X185170724Y-104588647D01*
X185170724Y-104588647D02*
X185265962Y-104636266D01*
X185265962Y-104636266D02*
X185456438Y-104636266D01*
X185456438Y-104636266D02*
X185551676Y-104588647D01*
X185551676Y-104588647D02*
X185599295Y-104541028D01*
X185599295Y-104541028D02*
X185646914Y-104445790D01*
X206959295Y-146165219D02*
X206959295Y-146974742D01*
X206959295Y-146974742D02*
X207006914Y-147069980D01*
X207006914Y-147069980D02*
X207054533Y-147117600D01*
X207054533Y-147117600D02*
X207149771Y-147165219D01*
X207149771Y-147165219D02*
X207340247Y-147165219D01*
X207340247Y-147165219D02*
X207435485Y-147117600D01*
X207435485Y-147117600D02*
X207483104Y-147069980D01*
X207483104Y-147069980D02*
X207530723Y-146974742D01*
X207530723Y-146974742D02*
X207530723Y-146165219D01*
X208530723Y-147165219D02*
X207959295Y-147165219D01*
X208245009Y-147165219D02*
X208245009Y-146165219D01*
X208245009Y-146165219D02*
X208149771Y-146308076D01*
X208149771Y-146308076D02*
X208054533Y-146403314D01*
X208054533Y-146403314D02*
X207959295Y-146450933D01*
X230049742Y-107542380D02*
X230002123Y-107590000D01*
X230002123Y-107590000D02*
X229859266Y-107637619D01*
X229859266Y-107637619D02*
X229764028Y-107637619D01*
X229764028Y-107637619D02*
X229621171Y-107590000D01*
X229621171Y-107590000D02*
X229525933Y-107494761D01*
X229525933Y-107494761D02*
X229478314Y-107399523D01*
X229478314Y-107399523D02*
X229430695Y-107209047D01*
X229430695Y-107209047D02*
X229430695Y-107066190D01*
X229430695Y-107066190D02*
X229478314Y-106875714D01*
X229478314Y-106875714D02*
X229525933Y-106780476D01*
X229525933Y-106780476D02*
X229621171Y-106685238D01*
X229621171Y-106685238D02*
X229764028Y-106637619D01*
X229764028Y-106637619D02*
X229859266Y-106637619D01*
X229859266Y-106637619D02*
X230002123Y-106685238D01*
X230002123Y-106685238D02*
X230049742Y-106732857D01*
X231002123Y-107637619D02*
X230430695Y-107637619D01*
X230716409Y-107637619D02*
X230716409Y-106637619D01*
X230716409Y-106637619D02*
X230621171Y-106780476D01*
X230621171Y-106780476D02*
X230525933Y-106875714D01*
X230525933Y-106875714D02*
X230430695Y-106923333D01*
X231859266Y-106637619D02*
X231668790Y-106637619D01*
X231668790Y-106637619D02*
X231573552Y-106685238D01*
X231573552Y-106685238D02*
X231525933Y-106732857D01*
X231525933Y-106732857D02*
X231430695Y-106875714D01*
X231430695Y-106875714D02*
X231383076Y-107066190D01*
X231383076Y-107066190D02*
X231383076Y-107447142D01*
X231383076Y-107447142D02*
X231430695Y-107542380D01*
X231430695Y-107542380D02*
X231478314Y-107590000D01*
X231478314Y-107590000D02*
X231573552Y-107637619D01*
X231573552Y-107637619D02*
X231764028Y-107637619D01*
X231764028Y-107637619D02*
X231859266Y-107590000D01*
X231859266Y-107590000D02*
X231906885Y-107542380D01*
X231906885Y-107542380D02*
X231954504Y-107447142D01*
X231954504Y-107447142D02*
X231954504Y-107209047D01*
X231954504Y-107209047D02*
X231906885Y-107113809D01*
X231906885Y-107113809D02*
X231859266Y-107066190D01*
X231859266Y-107066190D02*
X231764028Y-107018571D01*
X231764028Y-107018571D02*
X231573552Y-107018571D01*
X231573552Y-107018571D02*
X231478314Y-107066190D01*
X231478314Y-107066190D02*
X231430695Y-107113809D01*
X231430695Y-107113809D02*
X231383076Y-107209047D01*
X213117133Y-149121019D02*
X212783800Y-148644828D01*
X212545705Y-149121019D02*
X212545705Y-148121019D01*
X212545705Y-148121019D02*
X212926657Y-148121019D01*
X212926657Y-148121019D02*
X213021895Y-148168638D01*
X213021895Y-148168638D02*
X213069514Y-148216257D01*
X213069514Y-148216257D02*
X213117133Y-148311495D01*
X213117133Y-148311495D02*
X213117133Y-148454352D01*
X213117133Y-148454352D02*
X213069514Y-148549590D01*
X213069514Y-148549590D02*
X213021895Y-148597209D01*
X213021895Y-148597209D02*
X212926657Y-148644828D01*
X212926657Y-148644828D02*
X212545705Y-148644828D01*
X214069514Y-149121019D02*
X213498086Y-149121019D01*
X213783800Y-149121019D02*
X213783800Y-148121019D01*
X213783800Y-148121019D02*
X213688562Y-148263876D01*
X213688562Y-148263876D02*
X213593324Y-148359114D01*
X213593324Y-148359114D02*
X213498086Y-148406733D01*
X214241142Y-115847019D02*
X213907809Y-115370828D01*
X213669714Y-115847019D02*
X213669714Y-114847019D01*
X213669714Y-114847019D02*
X214050666Y-114847019D01*
X214050666Y-114847019D02*
X214145904Y-114894638D01*
X214145904Y-114894638D02*
X214193523Y-114942257D01*
X214193523Y-114942257D02*
X214241142Y-115037495D01*
X214241142Y-115037495D02*
X214241142Y-115180352D01*
X214241142Y-115180352D02*
X214193523Y-115275590D01*
X214193523Y-115275590D02*
X214145904Y-115323209D01*
X214145904Y-115323209D02*
X214050666Y-115370828D01*
X214050666Y-115370828D02*
X213669714Y-115370828D01*
X215193523Y-115847019D02*
X214622095Y-115847019D01*
X214907809Y-115847019D02*
X214907809Y-114847019D01*
X214907809Y-114847019D02*
X214812571Y-114989876D01*
X214812571Y-114989876D02*
X214717333Y-115085114D01*
X214717333Y-115085114D02*
X214622095Y-115132733D01*
X215764952Y-115275590D02*
X215669714Y-115227971D01*
X215669714Y-115227971D02*
X215622095Y-115180352D01*
X215622095Y-115180352D02*
X215574476Y-115085114D01*
X215574476Y-115085114D02*
X215574476Y-115037495D01*
X215574476Y-115037495D02*
X215622095Y-114942257D01*
X215622095Y-114942257D02*
X215669714Y-114894638D01*
X215669714Y-114894638D02*
X215764952Y-114847019D01*
X215764952Y-114847019D02*
X215955428Y-114847019D01*
X215955428Y-114847019D02*
X216050666Y-114894638D01*
X216050666Y-114894638D02*
X216098285Y-114942257D01*
X216098285Y-114942257D02*
X216145904Y-115037495D01*
X216145904Y-115037495D02*
X216145904Y-115085114D01*
X216145904Y-115085114D02*
X216098285Y-115180352D01*
X216098285Y-115180352D02*
X216050666Y-115227971D01*
X216050666Y-115227971D02*
X215955428Y-115275590D01*
X215955428Y-115275590D02*
X215764952Y-115275590D01*
X215764952Y-115275590D02*
X215669714Y-115323209D01*
X215669714Y-115323209D02*
X215622095Y-115370828D01*
X215622095Y-115370828D02*
X215574476Y-115466066D01*
X215574476Y-115466066D02*
X215574476Y-115656542D01*
X215574476Y-115656542D02*
X215622095Y-115751780D01*
X215622095Y-115751780D02*
X215669714Y-115799400D01*
X215669714Y-115799400D02*
X215764952Y-115847019D01*
X215764952Y-115847019D02*
X215955428Y-115847019D01*
X215955428Y-115847019D02*
X216050666Y-115799400D01*
X216050666Y-115799400D02*
X216098285Y-115751780D01*
X216098285Y-115751780D02*
X216145904Y-115656542D01*
X216145904Y-115656542D02*
X216145904Y-115466066D01*
X216145904Y-115466066D02*
X216098285Y-115370828D01*
X216098285Y-115370828D02*
X216050666Y-115323209D01*
X216050666Y-115323209D02*
X215955428Y-115275590D01*
X236785276Y-134741095D02*
X237242419Y-134741095D01*
X237013847Y-135541095D02*
X237013847Y-134741095D01*
X237509086Y-135541095D02*
X237509086Y-134741095D01*
X237509086Y-134741095D02*
X237813848Y-134741095D01*
X237813848Y-134741095D02*
X237890038Y-134779190D01*
X237890038Y-134779190D02*
X237928133Y-134817285D01*
X237928133Y-134817285D02*
X237966229Y-134893476D01*
X237966229Y-134893476D02*
X237966229Y-135007761D01*
X237966229Y-135007761D02*
X237928133Y-135083952D01*
X237928133Y-135083952D02*
X237890038Y-135122047D01*
X237890038Y-135122047D02*
X237813848Y-135160142D01*
X237813848Y-135160142D02*
X237509086Y-135160142D01*
X238270990Y-134817285D02*
X238309086Y-134779190D01*
X238309086Y-134779190D02*
X238385276Y-134741095D01*
X238385276Y-134741095D02*
X238575752Y-134741095D01*
X238575752Y-134741095D02*
X238651943Y-134779190D01*
X238651943Y-134779190D02*
X238690038Y-134817285D01*
X238690038Y-134817285D02*
X238728133Y-134893476D01*
X238728133Y-134893476D02*
X238728133Y-134969666D01*
X238728133Y-134969666D02*
X238690038Y-135083952D01*
X238690038Y-135083952D02*
X238232895Y-135541095D01*
X238232895Y-135541095D02*
X238728133Y-135541095D01*
X208146706Y-109658017D02*
X208146706Y-110467540D01*
X208146706Y-110467540D02*
X208194325Y-110562778D01*
X208194325Y-110562778D02*
X208241944Y-110610398D01*
X208241944Y-110610398D02*
X208337182Y-110658017D01*
X208337182Y-110658017D02*
X208527658Y-110658017D01*
X208527658Y-110658017D02*
X208622896Y-110610398D01*
X208622896Y-110610398D02*
X208670515Y-110562778D01*
X208670515Y-110562778D02*
X208718134Y-110467540D01*
X208718134Y-110467540D02*
X208718134Y-109658017D01*
X209718134Y-110658017D02*
X209146706Y-110658017D01*
X209432420Y-110658017D02*
X209432420Y-109658017D01*
X209432420Y-109658017D02*
X209337182Y-109800874D01*
X209337182Y-109800874D02*
X209241944Y-109896112D01*
X209241944Y-109896112D02*
X209146706Y-109943731D01*
X210337182Y-109658017D02*
X210432420Y-109658017D01*
X210432420Y-109658017D02*
X210527658Y-109705636D01*
X210527658Y-109705636D02*
X210575277Y-109753255D01*
X210575277Y-109753255D02*
X210622896Y-109848493D01*
X210622896Y-109848493D02*
X210670515Y-110038969D01*
X210670515Y-110038969D02*
X210670515Y-110277064D01*
X210670515Y-110277064D02*
X210622896Y-110467540D01*
X210622896Y-110467540D02*
X210575277Y-110562778D01*
X210575277Y-110562778D02*
X210527658Y-110610398D01*
X210527658Y-110610398D02*
X210432420Y-110658017D01*
X210432420Y-110658017D02*
X210337182Y-110658017D01*
X210337182Y-110658017D02*
X210241944Y-110610398D01*
X210241944Y-110610398D02*
X210194325Y-110562778D01*
X210194325Y-110562778D02*
X210146706Y-110467540D01*
X210146706Y-110467540D02*
X210099087Y-110277064D01*
X210099087Y-110277064D02*
X210099087Y-110038969D01*
X210099087Y-110038969D02*
X210146706Y-109848493D01*
X210146706Y-109848493D02*
X210194325Y-109753255D01*
X210194325Y-109753255D02*
X210241944Y-109705636D01*
X210241944Y-109705636D02*
X210337182Y-109658017D01*
X178536695Y-142710819D02*
X178536695Y-143520342D01*
X178536695Y-143520342D02*
X178584314Y-143615580D01*
X178584314Y-143615580D02*
X178631933Y-143663200D01*
X178631933Y-143663200D02*
X178727171Y-143710819D01*
X178727171Y-143710819D02*
X178917647Y-143710819D01*
X178917647Y-143710819D02*
X179012885Y-143663200D01*
X179012885Y-143663200D02*
X179060504Y-143615580D01*
X179060504Y-143615580D02*
X179108123Y-143520342D01*
X179108123Y-143520342D02*
X179108123Y-142710819D01*
X179631933Y-143710819D02*
X179822409Y-143710819D01*
X179822409Y-143710819D02*
X179917647Y-143663200D01*
X179917647Y-143663200D02*
X179965266Y-143615580D01*
X179965266Y-143615580D02*
X180060504Y-143472723D01*
X180060504Y-143472723D02*
X180108123Y-143282247D01*
X180108123Y-143282247D02*
X180108123Y-142901295D01*
X180108123Y-142901295D02*
X180060504Y-142806057D01*
X180060504Y-142806057D02*
X180012885Y-142758438D01*
X180012885Y-142758438D02*
X179917647Y-142710819D01*
X179917647Y-142710819D02*
X179727171Y-142710819D01*
X179727171Y-142710819D02*
X179631933Y-142758438D01*
X179631933Y-142758438D02*
X179584314Y-142806057D01*
X179584314Y-142806057D02*
X179536695Y-142901295D01*
X179536695Y-142901295D02*
X179536695Y-143139390D01*
X179536695Y-143139390D02*
X179584314Y-143234628D01*
X179584314Y-143234628D02*
X179631933Y-143282247D01*
X179631933Y-143282247D02*
X179727171Y-143329866D01*
X179727171Y-143329866D02*
X179917647Y-143329866D01*
X179917647Y-143329866D02*
X180012885Y-143282247D01*
X180012885Y-143282247D02*
X180060504Y-143234628D01*
X180060504Y-143234628D02*
X180108123Y-143139390D01*
X193446495Y-146063619D02*
X193446495Y-146873142D01*
X193446495Y-146873142D02*
X193494114Y-146968380D01*
X193494114Y-146968380D02*
X193541733Y-147016000D01*
X193541733Y-147016000D02*
X193636971Y-147063619D01*
X193636971Y-147063619D02*
X193827447Y-147063619D01*
X193827447Y-147063619D02*
X193922685Y-147016000D01*
X193922685Y-147016000D02*
X193970304Y-146968380D01*
X193970304Y-146968380D02*
X194017923Y-146873142D01*
X194017923Y-146873142D02*
X194017923Y-146063619D01*
X194922685Y-146396952D02*
X194922685Y-147063619D01*
X194684590Y-146016000D02*
X194446495Y-146730285D01*
X194446495Y-146730285D02*
X195065542Y-146730285D01*
X185202533Y-129518580D02*
X185154914Y-129566200D01*
X185154914Y-129566200D02*
X185012057Y-129613819D01*
X185012057Y-129613819D02*
X184916819Y-129613819D01*
X184916819Y-129613819D02*
X184773962Y-129566200D01*
X184773962Y-129566200D02*
X184678724Y-129470961D01*
X184678724Y-129470961D02*
X184631105Y-129375723D01*
X184631105Y-129375723D02*
X184583486Y-129185247D01*
X184583486Y-129185247D02*
X184583486Y-129042390D01*
X184583486Y-129042390D02*
X184631105Y-128851914D01*
X184631105Y-128851914D02*
X184678724Y-128756676D01*
X184678724Y-128756676D02*
X184773962Y-128661438D01*
X184773962Y-128661438D02*
X184916819Y-128613819D01*
X184916819Y-128613819D02*
X185012057Y-128613819D01*
X185012057Y-128613819D02*
X185154914Y-128661438D01*
X185154914Y-128661438D02*
X185202533Y-128709057D01*
X186107295Y-128613819D02*
X185631105Y-128613819D01*
X185631105Y-128613819D02*
X185583486Y-129090009D01*
X185583486Y-129090009D02*
X185631105Y-129042390D01*
X185631105Y-129042390D02*
X185726343Y-128994771D01*
X185726343Y-128994771D02*
X185964438Y-128994771D01*
X185964438Y-128994771D02*
X186059676Y-129042390D01*
X186059676Y-129042390D02*
X186107295Y-129090009D01*
X186107295Y-129090009D02*
X186154914Y-129185247D01*
X186154914Y-129185247D02*
X186154914Y-129423342D01*
X186154914Y-129423342D02*
X186107295Y-129518580D01*
X186107295Y-129518580D02*
X186059676Y-129566200D01*
X186059676Y-129566200D02*
X185964438Y-129613819D01*
X185964438Y-129613819D02*
X185726343Y-129613819D01*
X185726343Y-129613819D02*
X185631105Y-129566200D01*
X185631105Y-129566200D02*
X185583486Y-129518580D01*
X185431133Y-131931580D02*
X185383514Y-131979200D01*
X185383514Y-131979200D02*
X185240657Y-132026819D01*
X185240657Y-132026819D02*
X185145419Y-132026819D01*
X185145419Y-132026819D02*
X185002562Y-131979200D01*
X185002562Y-131979200D02*
X184907324Y-131883961D01*
X184907324Y-131883961D02*
X184859705Y-131788723D01*
X184859705Y-131788723D02*
X184812086Y-131598247D01*
X184812086Y-131598247D02*
X184812086Y-131455390D01*
X184812086Y-131455390D02*
X184859705Y-131264914D01*
X184859705Y-131264914D02*
X184907324Y-131169676D01*
X184907324Y-131169676D02*
X185002562Y-131074438D01*
X185002562Y-131074438D02*
X185145419Y-131026819D01*
X185145419Y-131026819D02*
X185240657Y-131026819D01*
X185240657Y-131026819D02*
X185383514Y-131074438D01*
X185383514Y-131074438D02*
X185431133Y-131122057D01*
X185764467Y-131026819D02*
X186431133Y-131026819D01*
X186431133Y-131026819D02*
X186002562Y-132026819D01*
X201606305Y-118479219D02*
X201606305Y-119288742D01*
X201606305Y-119288742D02*
X201653924Y-119383980D01*
X201653924Y-119383980D02*
X201701543Y-119431600D01*
X201701543Y-119431600D02*
X201796781Y-119479219D01*
X201796781Y-119479219D02*
X201987257Y-119479219D01*
X201987257Y-119479219D02*
X202082495Y-119431600D01*
X202082495Y-119431600D02*
X202130114Y-119383980D01*
X202130114Y-119383980D02*
X202177733Y-119288742D01*
X202177733Y-119288742D02*
X202177733Y-118479219D01*
X203177733Y-119479219D02*
X202606305Y-119479219D01*
X202892019Y-119479219D02*
X202892019Y-118479219D01*
X202892019Y-118479219D02*
X202796781Y-118622076D01*
X202796781Y-118622076D02*
X202701543Y-118717314D01*
X202701543Y-118717314D02*
X202606305Y-118764933D01*
X204130114Y-119479219D02*
X203558686Y-119479219D01*
X203844400Y-119479219D02*
X203844400Y-118479219D01*
X203844400Y-118479219D02*
X203749162Y-118622076D01*
X203749162Y-118622076D02*
X203653924Y-118717314D01*
X203653924Y-118717314D02*
X203558686Y-118764933D01*
X211396342Y-130756819D02*
X211063009Y-130280628D01*
X210824914Y-130756819D02*
X210824914Y-129756819D01*
X210824914Y-129756819D02*
X211205866Y-129756819D01*
X211205866Y-129756819D02*
X211301104Y-129804438D01*
X211301104Y-129804438D02*
X211348723Y-129852057D01*
X211348723Y-129852057D02*
X211396342Y-129947295D01*
X211396342Y-129947295D02*
X211396342Y-130090152D01*
X211396342Y-130090152D02*
X211348723Y-130185390D01*
X211348723Y-130185390D02*
X211301104Y-130233009D01*
X211301104Y-130233009D02*
X211205866Y-130280628D01*
X211205866Y-130280628D02*
X210824914Y-130280628D01*
X212348723Y-130756819D02*
X211777295Y-130756819D01*
X212063009Y-130756819D02*
X212063009Y-129756819D01*
X212063009Y-129756819D02*
X211967771Y-129899676D01*
X211967771Y-129899676D02*
X211872533Y-129994914D01*
X211872533Y-129994914D02*
X211777295Y-130042533D01*
X213205866Y-130090152D02*
X213205866Y-130756819D01*
X212967771Y-129709200D02*
X212729676Y-130423485D01*
X212729676Y-130423485D02*
X213348723Y-130423485D01*
X205030533Y-130859419D02*
X204697200Y-130383228D01*
X204459105Y-130859419D02*
X204459105Y-129859419D01*
X204459105Y-129859419D02*
X204840057Y-129859419D01*
X204840057Y-129859419D02*
X204935295Y-129907038D01*
X204935295Y-129907038D02*
X204982914Y-129954657D01*
X204982914Y-129954657D02*
X205030533Y-130049895D01*
X205030533Y-130049895D02*
X205030533Y-130192752D01*
X205030533Y-130192752D02*
X204982914Y-130287990D01*
X204982914Y-130287990D02*
X204935295Y-130335609D01*
X204935295Y-130335609D02*
X204840057Y-130383228D01*
X204840057Y-130383228D02*
X204459105Y-130383228D01*
X205601962Y-130287990D02*
X205506724Y-130240371D01*
X205506724Y-130240371D02*
X205459105Y-130192752D01*
X205459105Y-130192752D02*
X205411486Y-130097514D01*
X205411486Y-130097514D02*
X205411486Y-130049895D01*
X205411486Y-130049895D02*
X205459105Y-129954657D01*
X205459105Y-129954657D02*
X205506724Y-129907038D01*
X205506724Y-129907038D02*
X205601962Y-129859419D01*
X205601962Y-129859419D02*
X205792438Y-129859419D01*
X205792438Y-129859419D02*
X205887676Y-129907038D01*
X205887676Y-129907038D02*
X205935295Y-129954657D01*
X205935295Y-129954657D02*
X205982914Y-130049895D01*
X205982914Y-130049895D02*
X205982914Y-130097514D01*
X205982914Y-130097514D02*
X205935295Y-130192752D01*
X205935295Y-130192752D02*
X205887676Y-130240371D01*
X205887676Y-130240371D02*
X205792438Y-130287990D01*
X205792438Y-130287990D02*
X205601962Y-130287990D01*
X205601962Y-130287990D02*
X205506724Y-130335609D01*
X205506724Y-130335609D02*
X205459105Y-130383228D01*
X205459105Y-130383228D02*
X205411486Y-130478466D01*
X205411486Y-130478466D02*
X205411486Y-130668942D01*
X205411486Y-130668942D02*
X205459105Y-130764180D01*
X205459105Y-130764180D02*
X205506724Y-130811800D01*
X205506724Y-130811800D02*
X205601962Y-130859419D01*
X205601962Y-130859419D02*
X205792438Y-130859419D01*
X205792438Y-130859419D02*
X205887676Y-130811800D01*
X205887676Y-130811800D02*
X205935295Y-130764180D01*
X205935295Y-130764180D02*
X205982914Y-130668942D01*
X205982914Y-130668942D02*
X205982914Y-130478466D01*
X205982914Y-130478466D02*
X205935295Y-130383228D01*
X205935295Y-130383228D02*
X205887676Y-130335609D01*
X205887676Y-130335609D02*
X205792438Y-130287990D01*
X230049742Y-105421580D02*
X230002123Y-105469200D01*
X230002123Y-105469200D02*
X229859266Y-105516819D01*
X229859266Y-105516819D02*
X229764028Y-105516819D01*
X229764028Y-105516819D02*
X229621171Y-105469200D01*
X229621171Y-105469200D02*
X229525933Y-105373961D01*
X229525933Y-105373961D02*
X229478314Y-105278723D01*
X229478314Y-105278723D02*
X229430695Y-105088247D01*
X229430695Y-105088247D02*
X229430695Y-104945390D01*
X229430695Y-104945390D02*
X229478314Y-104754914D01*
X229478314Y-104754914D02*
X229525933Y-104659676D01*
X229525933Y-104659676D02*
X229621171Y-104564438D01*
X229621171Y-104564438D02*
X229764028Y-104516819D01*
X229764028Y-104516819D02*
X229859266Y-104516819D01*
X229859266Y-104516819D02*
X230002123Y-104564438D01*
X230002123Y-104564438D02*
X230049742Y-104612057D01*
X231002123Y-105516819D02*
X230430695Y-105516819D01*
X230716409Y-105516819D02*
X230716409Y-104516819D01*
X230716409Y-104516819D02*
X230621171Y-104659676D01*
X230621171Y-104659676D02*
X230525933Y-104754914D01*
X230525933Y-104754914D02*
X230430695Y-104802533D01*
X231906885Y-104516819D02*
X231430695Y-104516819D01*
X231430695Y-104516819D02*
X231383076Y-104993009D01*
X231383076Y-104993009D02*
X231430695Y-104945390D01*
X231430695Y-104945390D02*
X231525933Y-104897771D01*
X231525933Y-104897771D02*
X231764028Y-104897771D01*
X231764028Y-104897771D02*
X231859266Y-104945390D01*
X231859266Y-104945390D02*
X231906885Y-104993009D01*
X231906885Y-104993009D02*
X231954504Y-105088247D01*
X231954504Y-105088247D02*
X231954504Y-105326342D01*
X231954504Y-105326342D02*
X231906885Y-105421580D01*
X231906885Y-105421580D02*
X231859266Y-105469200D01*
X231859266Y-105469200D02*
X231764028Y-105516819D01*
X231764028Y-105516819D02*
X231525933Y-105516819D01*
X231525933Y-105516819D02*
X231430695Y-105469200D01*
X231430695Y-105469200D02*
X231383076Y-105421580D01*
X230617733Y-99216380D02*
X230570114Y-99264000D01*
X230570114Y-99264000D02*
X230427257Y-99311619D01*
X230427257Y-99311619D02*
X230332019Y-99311619D01*
X230332019Y-99311619D02*
X230189162Y-99264000D01*
X230189162Y-99264000D02*
X230093924Y-99168761D01*
X230093924Y-99168761D02*
X230046305Y-99073523D01*
X230046305Y-99073523D02*
X229998686Y-98883047D01*
X229998686Y-98883047D02*
X229998686Y-98740190D01*
X229998686Y-98740190D02*
X230046305Y-98549714D01*
X230046305Y-98549714D02*
X230093924Y-98454476D01*
X230093924Y-98454476D02*
X230189162Y-98359238D01*
X230189162Y-98359238D02*
X230332019Y-98311619D01*
X230332019Y-98311619D02*
X230427257Y-98311619D01*
X230427257Y-98311619D02*
X230570114Y-98359238D01*
X230570114Y-98359238D02*
X230617733Y-98406857D01*
X231474876Y-98311619D02*
X231284400Y-98311619D01*
X231284400Y-98311619D02*
X231189162Y-98359238D01*
X231189162Y-98359238D02*
X231141543Y-98406857D01*
X231141543Y-98406857D02*
X231046305Y-98549714D01*
X231046305Y-98549714D02*
X230998686Y-98740190D01*
X230998686Y-98740190D02*
X230998686Y-99121142D01*
X230998686Y-99121142D02*
X231046305Y-99216380D01*
X231046305Y-99216380D02*
X231093924Y-99264000D01*
X231093924Y-99264000D02*
X231189162Y-99311619D01*
X231189162Y-99311619D02*
X231379638Y-99311619D01*
X231379638Y-99311619D02*
X231474876Y-99264000D01*
X231474876Y-99264000D02*
X231522495Y-99216380D01*
X231522495Y-99216380D02*
X231570114Y-99121142D01*
X231570114Y-99121142D02*
X231570114Y-98883047D01*
X231570114Y-98883047D02*
X231522495Y-98787809D01*
X231522495Y-98787809D02*
X231474876Y-98740190D01*
X231474876Y-98740190D02*
X231379638Y-98692571D01*
X231379638Y-98692571D02*
X231189162Y-98692571D01*
X231189162Y-98692571D02*
X231093924Y-98740190D01*
X231093924Y-98740190D02*
X231046305Y-98787809D01*
X231046305Y-98787809D02*
X230998686Y-98883047D01*
X230024342Y-101095980D02*
X229976723Y-101143600D01*
X229976723Y-101143600D02*
X229833866Y-101191219D01*
X229833866Y-101191219D02*
X229738628Y-101191219D01*
X229738628Y-101191219D02*
X229595771Y-101143600D01*
X229595771Y-101143600D02*
X229500533Y-101048361D01*
X229500533Y-101048361D02*
X229452914Y-100953123D01*
X229452914Y-100953123D02*
X229405295Y-100762647D01*
X229405295Y-100762647D02*
X229405295Y-100619790D01*
X229405295Y-100619790D02*
X229452914Y-100429314D01*
X229452914Y-100429314D02*
X229500533Y-100334076D01*
X229500533Y-100334076D02*
X229595771Y-100238838D01*
X229595771Y-100238838D02*
X229738628Y-100191219D01*
X229738628Y-100191219D02*
X229833866Y-100191219D01*
X229833866Y-100191219D02*
X229976723Y-100238838D01*
X229976723Y-100238838D02*
X230024342Y-100286457D01*
X230976723Y-101191219D02*
X230405295Y-101191219D01*
X230691009Y-101191219D02*
X230691009Y-100191219D01*
X230691009Y-100191219D02*
X230595771Y-100334076D01*
X230595771Y-100334076D02*
X230500533Y-100429314D01*
X230500533Y-100429314D02*
X230405295Y-100476933D01*
X231310057Y-100191219D02*
X231976723Y-100191219D01*
X231976723Y-100191219D02*
X231548152Y-101191219D01*
X200031476Y-140938695D02*
X200488619Y-140938695D01*
X200260047Y-141738695D02*
X200260047Y-140938695D01*
X200755286Y-141738695D02*
X200755286Y-140938695D01*
X200755286Y-140938695D02*
X201060048Y-140938695D01*
X201060048Y-140938695D02*
X201136238Y-140976790D01*
X201136238Y-140976790D02*
X201174333Y-141014885D01*
X201174333Y-141014885D02*
X201212429Y-141091076D01*
X201212429Y-141091076D02*
X201212429Y-141205361D01*
X201212429Y-141205361D02*
X201174333Y-141281552D01*
X201174333Y-141281552D02*
X201136238Y-141319647D01*
X201136238Y-141319647D02*
X201060048Y-141357742D01*
X201060048Y-141357742D02*
X200755286Y-141357742D01*
X201898143Y-140938695D02*
X201745762Y-140938695D01*
X201745762Y-140938695D02*
X201669571Y-140976790D01*
X201669571Y-140976790D02*
X201631476Y-141014885D01*
X201631476Y-141014885D02*
X201555286Y-141129171D01*
X201555286Y-141129171D02*
X201517190Y-141281552D01*
X201517190Y-141281552D02*
X201517190Y-141586314D01*
X201517190Y-141586314D02*
X201555286Y-141662504D01*
X201555286Y-141662504D02*
X201593381Y-141700600D01*
X201593381Y-141700600D02*
X201669571Y-141738695D01*
X201669571Y-141738695D02*
X201821952Y-141738695D01*
X201821952Y-141738695D02*
X201898143Y-141700600D01*
X201898143Y-141700600D02*
X201936238Y-141662504D01*
X201936238Y-141662504D02*
X201974333Y-141586314D01*
X201974333Y-141586314D02*
X201974333Y-141395838D01*
X201974333Y-141395838D02*
X201936238Y-141319647D01*
X201936238Y-141319647D02*
X201898143Y-141281552D01*
X201898143Y-141281552D02*
X201821952Y-141243457D01*
X201821952Y-141243457D02*
X201669571Y-141243457D01*
X201669571Y-141243457D02*
X201593381Y-141281552D01*
X201593381Y-141281552D02*
X201555286Y-141319647D01*
X201555286Y-141319647D02*
X201517190Y-141395838D01*
X171794876Y-148147695D02*
X172252019Y-148147695D01*
X172023447Y-148947695D02*
X172023447Y-148147695D01*
X172518686Y-148947695D02*
X172518686Y-148147695D01*
X172518686Y-148147695D02*
X172823448Y-148147695D01*
X172823448Y-148147695D02*
X172899638Y-148185790D01*
X172899638Y-148185790D02*
X172937733Y-148223885D01*
X172937733Y-148223885D02*
X172975829Y-148300076D01*
X172975829Y-148300076D02*
X172975829Y-148414361D01*
X172975829Y-148414361D02*
X172937733Y-148490552D01*
X172937733Y-148490552D02*
X172899638Y-148528647D01*
X172899638Y-148528647D02*
X172823448Y-148566742D01*
X172823448Y-148566742D02*
X172518686Y-148566742D01*
X173737733Y-148947695D02*
X173280590Y-148947695D01*
X173509162Y-148947695D02*
X173509162Y-148147695D01*
X173509162Y-148147695D02*
X173432971Y-148261980D01*
X173432971Y-148261980D02*
X173356781Y-148338171D01*
X173356781Y-148338171D02*
X173280590Y-148376266D01*
X200671133Y-147724019D02*
X200337800Y-147247828D01*
X200099705Y-147724019D02*
X200099705Y-146724019D01*
X200099705Y-146724019D02*
X200480657Y-146724019D01*
X200480657Y-146724019D02*
X200575895Y-146771638D01*
X200575895Y-146771638D02*
X200623514Y-146819257D01*
X200623514Y-146819257D02*
X200671133Y-146914495D01*
X200671133Y-146914495D02*
X200671133Y-147057352D01*
X200671133Y-147057352D02*
X200623514Y-147152590D01*
X200623514Y-147152590D02*
X200575895Y-147200209D01*
X200575895Y-147200209D02*
X200480657Y-147247828D01*
X200480657Y-147247828D02*
X200099705Y-147247828D01*
X201052086Y-146819257D02*
X201099705Y-146771638D01*
X201099705Y-146771638D02*
X201194943Y-146724019D01*
X201194943Y-146724019D02*
X201433038Y-146724019D01*
X201433038Y-146724019D02*
X201528276Y-146771638D01*
X201528276Y-146771638D02*
X201575895Y-146819257D01*
X201575895Y-146819257D02*
X201623514Y-146914495D01*
X201623514Y-146914495D02*
X201623514Y-147009733D01*
X201623514Y-147009733D02*
X201575895Y-147152590D01*
X201575895Y-147152590D02*
X201004467Y-147724019D01*
X201004467Y-147724019D02*
X201623514Y-147724019D01*
X220623266Y-141737419D02*
X220623266Y-142451704D01*
X220623266Y-142451704D02*
X220575647Y-142594561D01*
X220575647Y-142594561D02*
X220480409Y-142689800D01*
X220480409Y-142689800D02*
X220337552Y-142737419D01*
X220337552Y-142737419D02*
X220242314Y-142737419D01*
X221051838Y-141832657D02*
X221099457Y-141785038D01*
X221099457Y-141785038D02*
X221194695Y-141737419D01*
X221194695Y-141737419D02*
X221432790Y-141737419D01*
X221432790Y-141737419D02*
X221528028Y-141785038D01*
X221528028Y-141785038D02*
X221575647Y-141832657D01*
X221575647Y-141832657D02*
X221623266Y-141927895D01*
X221623266Y-141927895D02*
X221623266Y-142023133D01*
X221623266Y-142023133D02*
X221575647Y-142165990D01*
X221575647Y-142165990D02*
X221004219Y-142737419D01*
X221004219Y-142737419D02*
X221623266Y-142737419D01*
X203955733Y-147222380D02*
X203908114Y-147270000D01*
X203908114Y-147270000D02*
X203765257Y-147317619D01*
X203765257Y-147317619D02*
X203670019Y-147317619D01*
X203670019Y-147317619D02*
X203527162Y-147270000D01*
X203527162Y-147270000D02*
X203431924Y-147174761D01*
X203431924Y-147174761D02*
X203384305Y-147079523D01*
X203384305Y-147079523D02*
X203336686Y-146889047D01*
X203336686Y-146889047D02*
X203336686Y-146746190D01*
X203336686Y-146746190D02*
X203384305Y-146555714D01*
X203384305Y-146555714D02*
X203431924Y-146460476D01*
X203431924Y-146460476D02*
X203527162Y-146365238D01*
X203527162Y-146365238D02*
X203670019Y-146317619D01*
X203670019Y-146317619D02*
X203765257Y-146317619D01*
X203765257Y-146317619D02*
X203908114Y-146365238D01*
X203908114Y-146365238D02*
X203955733Y-146412857D01*
X204955733Y-147317619D02*
X204622400Y-146841428D01*
X204384305Y-147317619D02*
X204384305Y-146317619D01*
X204384305Y-146317619D02*
X204765257Y-146317619D01*
X204765257Y-146317619D02*
X204860495Y-146365238D01*
X204860495Y-146365238D02*
X204908114Y-146412857D01*
X204908114Y-146412857D02*
X204955733Y-146508095D01*
X204955733Y-146508095D02*
X204955733Y-146650952D01*
X204955733Y-146650952D02*
X204908114Y-146746190D01*
X204908114Y-146746190D02*
X204860495Y-146793809D01*
X204860495Y-146793809D02*
X204765257Y-146841428D01*
X204765257Y-146841428D02*
X204384305Y-146841428D01*
X205908114Y-147317619D02*
X205336686Y-147317619D01*
X205622400Y-147317619D02*
X205622400Y-146317619D01*
X205622400Y-146317619D02*
X205527162Y-146460476D01*
X205527162Y-146460476D02*
X205431924Y-146555714D01*
X205431924Y-146555714D02*
X205336686Y-146603333D01*
X236166066Y-144895219D02*
X236166066Y-145609504D01*
X236166066Y-145609504D02*
X236118447Y-145752361D01*
X236118447Y-145752361D02*
X236023209Y-145847600D01*
X236023209Y-145847600D02*
X235880352Y-145895219D01*
X235880352Y-145895219D02*
X235785114Y-145895219D01*
X237166066Y-145895219D02*
X236594638Y-145895219D01*
X236880352Y-145895219D02*
X236880352Y-144895219D01*
X236880352Y-144895219D02*
X236785114Y-145038076D01*
X236785114Y-145038076D02*
X236689876Y-145133314D01*
X236689876Y-145133314D02*
X236594638Y-145180933D01*
X186885342Y-114557980D02*
X186837723Y-114605600D01*
X186837723Y-114605600D02*
X186694866Y-114653219D01*
X186694866Y-114653219D02*
X186599628Y-114653219D01*
X186599628Y-114653219D02*
X186456771Y-114605600D01*
X186456771Y-114605600D02*
X186361533Y-114510361D01*
X186361533Y-114510361D02*
X186313914Y-114415123D01*
X186313914Y-114415123D02*
X186266295Y-114224647D01*
X186266295Y-114224647D02*
X186266295Y-114081790D01*
X186266295Y-114081790D02*
X186313914Y-113891314D01*
X186313914Y-113891314D02*
X186361533Y-113796076D01*
X186361533Y-113796076D02*
X186456771Y-113700838D01*
X186456771Y-113700838D02*
X186599628Y-113653219D01*
X186599628Y-113653219D02*
X186694866Y-113653219D01*
X186694866Y-113653219D02*
X186837723Y-113700838D01*
X186837723Y-113700838D02*
X186885342Y-113748457D01*
X187837723Y-114653219D02*
X187266295Y-114653219D01*
X187552009Y-114653219D02*
X187552009Y-113653219D01*
X187552009Y-113653219D02*
X187456771Y-113796076D01*
X187456771Y-113796076D02*
X187361533Y-113891314D01*
X187361533Y-113891314D02*
X187266295Y-113938933D01*
X188171057Y-113653219D02*
X188790104Y-113653219D01*
X188790104Y-113653219D02*
X188456771Y-114034171D01*
X188456771Y-114034171D02*
X188599628Y-114034171D01*
X188599628Y-114034171D02*
X188694866Y-114081790D01*
X188694866Y-114081790D02*
X188742485Y-114129409D01*
X188742485Y-114129409D02*
X188790104Y-114224647D01*
X188790104Y-114224647D02*
X188790104Y-114462742D01*
X188790104Y-114462742D02*
X188742485Y-114557980D01*
X188742485Y-114557980D02*
X188694866Y-114605600D01*
X188694866Y-114605600D02*
X188599628Y-114653219D01*
X188599628Y-114653219D02*
X188313914Y-114653219D01*
X188313914Y-114653219D02*
X188218676Y-114605600D01*
X188218676Y-114605600D02*
X188171057Y-114557980D01*
X172412066Y-135351619D02*
X172412066Y-136065904D01*
X172412066Y-136065904D02*
X172364447Y-136208761D01*
X172364447Y-136208761D02*
X172269209Y-136304000D01*
X172269209Y-136304000D02*
X172126352Y-136351619D01*
X172126352Y-136351619D02*
X172031114Y-136351619D01*
X173316828Y-135684952D02*
X173316828Y-136351619D01*
X173078733Y-135304000D02*
X172840638Y-136018285D01*
X172840638Y-136018285D02*
X173459685Y-136018285D01*
X175702933Y-144072780D02*
X175655314Y-144120400D01*
X175655314Y-144120400D02*
X175512457Y-144168019D01*
X175512457Y-144168019D02*
X175417219Y-144168019D01*
X175417219Y-144168019D02*
X175274362Y-144120400D01*
X175274362Y-144120400D02*
X175179124Y-144025161D01*
X175179124Y-144025161D02*
X175131505Y-143929923D01*
X175131505Y-143929923D02*
X175083886Y-143739447D01*
X175083886Y-143739447D02*
X175083886Y-143596590D01*
X175083886Y-143596590D02*
X175131505Y-143406114D01*
X175131505Y-143406114D02*
X175179124Y-143310876D01*
X175179124Y-143310876D02*
X175274362Y-143215638D01*
X175274362Y-143215638D02*
X175417219Y-143168019D01*
X175417219Y-143168019D02*
X175512457Y-143168019D01*
X175512457Y-143168019D02*
X175655314Y-143215638D01*
X175655314Y-143215638D02*
X175702933Y-143263257D01*
X176560076Y-143501352D02*
X176560076Y-144168019D01*
X176321981Y-143120400D02*
X176083886Y-143834685D01*
X176083886Y-143834685D02*
X176702933Y-143834685D01*
X180046333Y-146581019D02*
X179713000Y-146104828D01*
X179474905Y-146581019D02*
X179474905Y-145581019D01*
X179474905Y-145581019D02*
X179855857Y-145581019D01*
X179855857Y-145581019D02*
X179951095Y-145628638D01*
X179951095Y-145628638D02*
X179998714Y-145676257D01*
X179998714Y-145676257D02*
X180046333Y-145771495D01*
X180046333Y-145771495D02*
X180046333Y-145914352D01*
X180046333Y-145914352D02*
X179998714Y-146009590D01*
X179998714Y-146009590D02*
X179951095Y-146057209D01*
X179951095Y-146057209D02*
X179855857Y-146104828D01*
X179855857Y-146104828D02*
X179474905Y-146104828D01*
X180903476Y-145914352D02*
X180903476Y-146581019D01*
X180665381Y-145533400D02*
X180427286Y-146247685D01*
X180427286Y-146247685D02*
X181046333Y-146247685D01*
X188002942Y-118063180D02*
X187955323Y-118110800D01*
X187955323Y-118110800D02*
X187812466Y-118158419D01*
X187812466Y-118158419D02*
X187717228Y-118158419D01*
X187717228Y-118158419D02*
X187574371Y-118110800D01*
X187574371Y-118110800D02*
X187479133Y-118015561D01*
X187479133Y-118015561D02*
X187431514Y-117920323D01*
X187431514Y-117920323D02*
X187383895Y-117729847D01*
X187383895Y-117729847D02*
X187383895Y-117586990D01*
X187383895Y-117586990D02*
X187431514Y-117396514D01*
X187431514Y-117396514D02*
X187479133Y-117301276D01*
X187479133Y-117301276D02*
X187574371Y-117206038D01*
X187574371Y-117206038D02*
X187717228Y-117158419D01*
X187717228Y-117158419D02*
X187812466Y-117158419D01*
X187812466Y-117158419D02*
X187955323Y-117206038D01*
X187955323Y-117206038D02*
X188002942Y-117253657D01*
X188955323Y-118158419D02*
X188383895Y-118158419D01*
X188669609Y-118158419D02*
X188669609Y-117158419D01*
X188669609Y-117158419D02*
X188574371Y-117301276D01*
X188574371Y-117301276D02*
X188479133Y-117396514D01*
X188479133Y-117396514D02*
X188383895Y-117444133D01*
X189336276Y-117253657D02*
X189383895Y-117206038D01*
X189383895Y-117206038D02*
X189479133Y-117158419D01*
X189479133Y-117158419D02*
X189717228Y-117158419D01*
X189717228Y-117158419D02*
X189812466Y-117206038D01*
X189812466Y-117206038D02*
X189860085Y-117253657D01*
X189860085Y-117253657D02*
X189907704Y-117348895D01*
X189907704Y-117348895D02*
X189907704Y-117444133D01*
X189907704Y-117444133D02*
X189860085Y-117586990D01*
X189860085Y-117586990D02*
X189288657Y-118158419D01*
X189288657Y-118158419D02*
X189907704Y-118158419D01*
X193494942Y-104200819D02*
X193161609Y-103724628D01*
X192923514Y-104200819D02*
X192923514Y-103200819D01*
X192923514Y-103200819D02*
X193304466Y-103200819D01*
X193304466Y-103200819D02*
X193399704Y-103248438D01*
X193399704Y-103248438D02*
X193447323Y-103296057D01*
X193447323Y-103296057D02*
X193494942Y-103391295D01*
X193494942Y-103391295D02*
X193494942Y-103534152D01*
X193494942Y-103534152D02*
X193447323Y-103629390D01*
X193447323Y-103629390D02*
X193399704Y-103677009D01*
X193399704Y-103677009D02*
X193304466Y-103724628D01*
X193304466Y-103724628D02*
X192923514Y-103724628D01*
X194447323Y-104200819D02*
X193875895Y-104200819D01*
X194161609Y-104200819D02*
X194161609Y-103200819D01*
X194161609Y-103200819D02*
X194066371Y-103343676D01*
X194066371Y-103343676D02*
X193971133Y-103438914D01*
X193971133Y-103438914D02*
X193875895Y-103486533D01*
X194780657Y-103200819D02*
X195447323Y-103200819D01*
X195447323Y-103200819D02*
X195018752Y-104200819D01*
X186399876Y-142331095D02*
X186857019Y-142331095D01*
X186628447Y-143131095D02*
X186628447Y-142331095D01*
X187123686Y-143131095D02*
X187123686Y-142331095D01*
X187123686Y-142331095D02*
X187428448Y-142331095D01*
X187428448Y-142331095D02*
X187504638Y-142369190D01*
X187504638Y-142369190D02*
X187542733Y-142407285D01*
X187542733Y-142407285D02*
X187580829Y-142483476D01*
X187580829Y-142483476D02*
X187580829Y-142597761D01*
X187580829Y-142597761D02*
X187542733Y-142673952D01*
X187542733Y-142673952D02*
X187504638Y-142712047D01*
X187504638Y-142712047D02*
X187428448Y-142750142D01*
X187428448Y-142750142D02*
X187123686Y-142750142D01*
X188266543Y-142597761D02*
X188266543Y-143131095D01*
X188076067Y-142293000D02*
X187885590Y-142864428D01*
X187885590Y-142864428D02*
X188380829Y-142864428D01*
D12*
%TO.C,C3*%
X217981200Y-138756848D02*
X217981200Y-139279352D01*
X216511200Y-138756848D02*
X216511200Y-139279352D01*
%TO.C,C11*%
X210123048Y-114403200D02*
X210645552Y-114403200D01*
X210123048Y-115873200D02*
X210645552Y-115873200D01*
%TO.C,R15*%
X213082200Y-128106664D02*
X213082200Y-127652536D01*
X214552200Y-128106664D02*
X214552200Y-127652536D01*
D13*
%TO.C,D1*%
X213206000Y-143879200D02*
G75*
G02*
X213006000Y-143879200I-100000J0D01*
G01*
X213006000Y-143879200D02*
G75*
G02*
X213206000Y-143879200I100000J0D01*
G01*
D12*
%TO.C,R12*%
X238723664Y-111606000D02*
X238269536Y-111606000D01*
X238723664Y-110136000D02*
X238269536Y-110136000D01*
%TO.C,R13*%
X226312400Y-105319336D02*
X226312400Y-105773464D01*
X224842400Y-105319336D02*
X224842400Y-105773464D01*
%TO.C,C9*%
X187225000Y-101128552D02*
X187225000Y-100606048D01*
X188695000Y-101128552D02*
X188695000Y-100606048D01*
D14*
%TO.C,U6*%
X186639400Y-104927600D02*
X186639400Y-105427600D01*
X186639400Y-108127600D02*
X186639400Y-107627600D01*
X186639400Y-108127600D02*
X187139400Y-108127600D01*
X189339400Y-104927600D02*
X189839400Y-104927600D01*
X189839400Y-104927600D02*
X189839400Y-105427600D01*
X189839400Y-107627600D02*
X189839400Y-108127600D01*
X189839400Y-108127600D02*
X189339400Y-108127600D01*
X189839400Y-108127600D02*
X189839400Y-107627600D01*
D12*
%TO.C,C8*%
X185926400Y-108429248D02*
X185926400Y-108951752D01*
X184456400Y-108429248D02*
X184456400Y-108951752D01*
D15*
%TO.C,SW2*%
X222355800Y-104949400D02*
X222355800Y-101349400D01*
X222355800Y-101349400D02*
X213355800Y-101349400D01*
X213355800Y-104949400D02*
X213355800Y-101349400D01*
D11*
%TO.C,U2*%
X226085400Y-139319000D02*
X226085400Y-138455400D01*
X223088200Y-138861800D02*
X223088200Y-139319000D01*
X223088200Y-138455400D02*
X223088200Y-138861800D01*
X223977200Y-138455400D02*
X223088200Y-138455400D01*
X226085400Y-138455400D02*
X225196400Y-138455400D01*
X223088200Y-138861800D02*
G75*
G02*
X223393000Y-139192000I1115J-304748D01*
G01*
%TO.C,U5*%
D14*
X201218800Y-140374350D02*
X194868800Y-140374350D01*
X194868800Y-131484350D01*
X201218800Y-131484350D01*
X201218800Y-140374350D01*
D15*
%TO.C,TP7*%
X192040000Y-108214600D02*
X194040000Y-108214600D01*
X194040000Y-110174600D02*
X192040000Y-110174600D01*
D13*
X191250000Y-109149600D02*
G75*
G02*
X191050000Y-109149600I-100000J0D01*
G01*
X191050000Y-109149600D02*
G75*
G02*
X191250000Y-109149600I100000J0D01*
G01*
D12*
%TO.C,R6*%
X206621136Y-135104200D02*
X207075264Y-135104200D01*
X206621136Y-136574200D02*
X207075264Y-136574200D01*
D15*
%TO.C,J3*%
X211048600Y-104342000D02*
X211048600Y-99342000D01*
X211048600Y-99342000D02*
X207883600Y-99342000D01*
X207883600Y-104342000D02*
X211048600Y-104342000D01*
X201513600Y-99342000D02*
X198348600Y-99342000D01*
X198348600Y-104342000D02*
X201513600Y-104342000D01*
X198348600Y-99342000D02*
X198348600Y-104342000D01*
D13*
X207338600Y-97823000D02*
G75*
G02*
X207138600Y-97823000I-100000J0D01*
G01*
X207138600Y-97823000D02*
G75*
G02*
X207338600Y-97823000I100000J0D01*
G01*
D15*
%TO.C,TP5*%
X189474600Y-148194200D02*
X191474600Y-148194200D01*
X191474600Y-150154200D02*
X189474600Y-150154200D01*
D13*
X188684600Y-149129200D02*
G75*
G02*
X188484600Y-149129200I-100000J0D01*
G01*
X188484600Y-149129200D02*
G75*
G02*
X188684600Y-149129200I100000J0D01*
G01*
D12*
%TO.C,U8*%
X171424600Y-98933000D02*
X172694600Y-98933000D01*
X171424600Y-100203000D02*
X171424600Y-98933000D01*
X173737529Y-102363000D02*
X174134600Y-102363000D01*
X173737529Y-103123000D02*
X174134600Y-103123000D01*
X173737529Y-104903000D02*
X174134600Y-104903000D01*
X173737529Y-105663000D02*
X174134600Y-105663000D01*
X173737529Y-107443000D02*
X174134600Y-107443000D01*
X173737529Y-108203000D02*
X174134600Y-108203000D01*
X173737529Y-109983000D02*
X174134600Y-109983000D01*
X173737529Y-110743000D02*
X174134600Y-110743000D01*
X173737529Y-112523000D02*
X174134600Y-112523000D01*
X173737529Y-113283000D02*
X174134600Y-113283000D01*
X173737529Y-115063000D02*
X174134600Y-115063000D01*
X173737529Y-115823000D02*
X174134600Y-115823000D01*
X173737529Y-117603000D02*
X174134600Y-117603000D01*
X173737529Y-118363000D02*
X174134600Y-118363000D01*
X173737529Y-120143000D02*
X174134600Y-120143000D01*
X173737529Y-120903000D02*
X174134600Y-120903000D01*
X173737529Y-122683000D02*
X174134600Y-122683000D01*
X173737529Y-123443000D02*
X174134600Y-123443000D01*
X173737529Y-125223000D02*
X174134600Y-125223000D01*
X173737529Y-125983000D02*
X174134600Y-125983000D01*
X173737529Y-127763000D02*
X174134600Y-127763000D01*
X173737529Y-128523000D02*
X174134600Y-128523000D01*
X173737529Y-130303000D02*
X174134600Y-130303000D01*
X173737529Y-131063000D02*
X174134600Y-131063000D01*
X173737529Y-132843000D02*
X174134600Y-132843000D01*
X173737529Y-133603000D02*
X174134600Y-133603000D01*
X173804600Y-99823000D02*
X174134600Y-99823000D01*
X173804600Y-100583000D02*
X174134600Y-100583000D01*
X174134600Y-98873000D02*
X174134600Y-134553000D01*
D10*
X179252000Y-100162400D02*
X180395000Y-101534000D01*
X180395000Y-101534000D02*
X180395000Y-103947000D01*
X180395000Y-103947000D02*
X180395000Y-107401400D01*
X180395000Y-107401400D02*
X180395000Y-108798400D01*
X180395000Y-108798400D02*
X179379000Y-110170000D01*
D12*
%TO.C,R19*%
X190895464Y-136396400D02*
X190441336Y-136396400D01*
X190895464Y-134926400D02*
X190441336Y-134926400D01*
%TO.C,C2*%
X239317200Y-143498848D02*
X239317200Y-144021352D01*
X237847200Y-143498848D02*
X237847200Y-144021352D01*
%TO.C,R3*%
X212625000Y-134151864D02*
X212625000Y-133697736D01*
X214095000Y-134151864D02*
X214095000Y-133697736D01*
D15*
%TO.C,SW1*%
X237033400Y-141881000D02*
X237033400Y-138281000D01*
X237033400Y-138281000D02*
X228033400Y-138281000D01*
X228033400Y-141881000D02*
X228033400Y-138281000D01*
D12*
%TO.C,U3*%
X185699400Y-147106200D02*
X183899400Y-147106200D01*
X185699400Y-147106200D02*
X186499400Y-147106200D01*
X185699400Y-150226200D02*
X184899400Y-150226200D01*
X185699400Y-150226200D02*
X186499400Y-150226200D01*
%TO.C,R16*%
X192809800Y-128230136D02*
X192809800Y-128684264D01*
X191339800Y-128230136D02*
X191339800Y-128684264D01*
%TO.C,C10*%
X192940000Y-101738152D02*
X192940000Y-101215648D01*
X194410000Y-101738152D02*
X194410000Y-101215648D01*
D15*
%TO.C,U7*%
X235110800Y-135460600D02*
X217110800Y-135460600D01*
X235110800Y-128740600D02*
X235110800Y-135460600D01*
X235110800Y-110690600D02*
X235110800Y-109960600D01*
X235110800Y-109960600D02*
X233865800Y-109960600D01*
X217110800Y-135460600D02*
X217110800Y-128740600D01*
X217110800Y-110690600D02*
X217110800Y-109960600D01*
X217110800Y-109960600D02*
X218355800Y-109960600D01*
D13*
X236410800Y-127970600D02*
G75*
G02*
X236210800Y-127970600I-100000J0D01*
G01*
X236210800Y-127970600D02*
G75*
G02*
X236410800Y-127970600I100000J0D01*
G01*
D12*
%TO.C,R5*%
X197153200Y-144333736D02*
X197153200Y-144787864D01*
X195683200Y-144333736D02*
X195683200Y-144787864D01*
%TO.C,L1*%
X197102252Y-115010000D02*
X196579748Y-115010000D01*
X197102252Y-113590000D02*
X196579748Y-113590000D01*
%TO.C,C14*%
X233813448Y-102262000D02*
X234335952Y-102262000D01*
X233813448Y-103732000D02*
X234335952Y-103732000D01*
%TO.C,R7*%
X206690736Y-138660200D02*
X207144864Y-138660200D01*
X206690736Y-140130200D02*
X207144864Y-140130200D01*
%TO.C,C1*%
X220372000Y-139250052D02*
X220372000Y-138727548D01*
X221842000Y-139250052D02*
X221842000Y-138727548D01*
%TO.C,R11*%
X237745600Y-114365264D02*
X237745600Y-113911136D01*
X239215600Y-114365264D02*
X239215600Y-113911136D01*
D15*
%TO.C,TP8*%
X179822600Y-125105600D02*
X181822600Y-125105600D01*
X181822600Y-127065600D02*
X179822600Y-127065600D01*
D13*
X179032600Y-126040600D02*
G75*
G02*
X178832600Y-126040600I-100000J0D01*
G01*
X178832600Y-126040600D02*
G75*
G02*
X179032600Y-126040600I100000J0D01*
G01*
D12*
%TO.C,R10*%
X185672400Y-100366336D02*
X185672400Y-100820464D01*
X184202400Y-100366336D02*
X184202400Y-100820464D01*
D15*
%TO.C,TP3*%
X212868000Y-137983400D02*
X214868000Y-137983400D01*
X214868000Y-139943400D02*
X212868000Y-139943400D01*
D13*
X212078000Y-138918400D02*
G75*
G02*
X211878000Y-138918400I-100000J0D01*
G01*
X211878000Y-138918400D02*
G75*
G02*
X212078000Y-138918400I100000J0D01*
G01*
D12*
%TO.C,R9*%
X183716600Y-106427536D02*
X183716600Y-106881664D01*
X182246600Y-106427536D02*
X182246600Y-106881664D01*
D11*
%TO.C,U1*%
X208648300Y-147396200D02*
X206590900Y-147396200D01*
X206590900Y-150749000D02*
X208648300Y-150749000D01*
X206590900Y-148709339D02*
X206590900Y-149435861D01*
D12*
%TO.C,C16*%
X233799948Y-106529200D02*
X234322452Y-106529200D01*
X233799948Y-107999200D02*
X234322452Y-107999200D01*
%TO.C,R1*%
X212371000Y-146216864D02*
X212371000Y-145762736D01*
X213841000Y-146216864D02*
X213841000Y-145762736D01*
%TO.C,R18*%
X214882400Y-112437936D02*
X214882400Y-112892064D01*
X213412400Y-112437936D02*
X213412400Y-112892064D01*
D15*
%TO.C,TP2*%
X236820200Y-135976800D02*
X238820200Y-135976800D01*
X238820200Y-137936800D02*
X236820200Y-137936800D01*
D13*
X236030200Y-136911800D02*
G75*
G02*
X235830200Y-136911800I-100000J0D01*
G01*
X235830200Y-136911800D02*
G75*
G02*
X236030200Y-136911800I100000J0D01*
G01*
D11*
%TO.C,U10*%
X207860801Y-108839387D02*
X207860801Y-111567009D01*
X210908801Y-111567009D02*
X210908801Y-108839387D01*
D16*
X206463801Y-108153198D02*
G75*
G02*
X205701801Y-108153198I-381000J0D01*
G01*
X205701801Y-108153198D02*
G75*
G02*
X206463801Y-108153198I381000J0D01*
G01*
D11*
%TO.C,U9*%
X177736401Y-138191191D02*
X177736401Y-140918813D01*
X180784401Y-140918813D02*
X180784401Y-138191191D01*
D16*
X176339401Y-137505002D02*
G75*
G02*
X175577401Y-137505002I-381000J0D01*
G01*
X175577401Y-137505002D02*
G75*
G02*
X176339401Y-137505002I381000J0D01*
G01*
D12*
%TO.C,U4*%
X195300600Y-150607200D02*
X197100600Y-150607200D01*
X195300600Y-150607200D02*
X194500600Y-150607200D01*
X195300600Y-147487200D02*
X196100600Y-147487200D01*
X195300600Y-147487200D02*
X194500600Y-147487200D01*
%TO.C,C5*%
X182840352Y-130046400D02*
X182317848Y-130046400D01*
X182840352Y-128576400D02*
X182317848Y-128576400D01*
%TO.C,C7*%
X182814952Y-132230800D02*
X182292448Y-132230800D01*
X182814952Y-130760800D02*
X182292448Y-130760800D01*
%TO.C,U11*%
X198140800Y-116733800D02*
X198140800Y-117683800D01*
X198140800Y-117683800D02*
X196850800Y-117683800D01*
X198140800Y-126953800D02*
X198140800Y-126003800D01*
X199090800Y-116733800D02*
X198140800Y-116733800D01*
X199090800Y-126953800D02*
X198140800Y-126953800D01*
X207410800Y-116733800D02*
X208360800Y-116733800D01*
X207410800Y-126953800D02*
X208360800Y-126953800D01*
X208360800Y-116733800D02*
X208360800Y-117683800D01*
X208360800Y-126953800D02*
X208360800Y-126003800D01*
%TO.C,R14*%
X210335800Y-130236736D02*
X210335800Y-130690864D01*
X208865800Y-130236736D02*
X208865800Y-130690864D01*
%TO.C,R8*%
X204970136Y-131319600D02*
X205424264Y-131319600D01*
X204970136Y-132789600D02*
X205424264Y-132789600D01*
%TO.C,C15*%
X233799948Y-104395600D02*
X234322452Y-104395600D01*
X233799948Y-105865600D02*
X234322452Y-105865600D01*
%TO.C,C6*%
X234343752Y-99388600D02*
X233821248Y-99388600D01*
X234343752Y-97918600D02*
X233821248Y-97918600D01*
%TO.C,C17*%
X233813448Y-100001400D02*
X234335952Y-100001400D01*
X233813448Y-101471400D02*
X234335952Y-101471400D01*
D15*
%TO.C,TP6*%
X203040100Y-141310800D02*
X205040100Y-141310800D01*
X205040100Y-143270800D02*
X203040100Y-143270800D01*
D13*
X202250100Y-142245800D02*
G75*
G02*
X202050100Y-142245800I-100000J0D01*
G01*
X202050100Y-142245800D02*
G75*
G02*
X202250100Y-142245800I100000J0D01*
G01*
D15*
%TO.C,TP1*%
X171364400Y-149413400D02*
X173364400Y-149413400D01*
X173364400Y-151373400D02*
X171364400Y-151373400D01*
D13*
X170574400Y-150348400D02*
G75*
G02*
X170374400Y-150348400I-100000J0D01*
G01*
X170374400Y-150348400D02*
G75*
G02*
X170574400Y-150348400I100000J0D01*
G01*
D12*
%TO.C,R2*%
X203477800Y-149607536D02*
X203477800Y-150061664D01*
X202007800Y-149607536D02*
X202007800Y-150061664D01*
%TO.C,J2*%
X216376600Y-151807600D02*
X216376600Y-150588400D01*
X216384600Y-146245000D02*
X216384600Y-147769000D01*
X225528600Y-146346600D02*
X225528600Y-147870600D01*
X225528600Y-151782200D02*
X225528600Y-150563000D01*
X225536600Y-151782600D02*
X216376600Y-151782600D01*
D11*
%TO.C,CR1*%
X202996800Y-145961100D02*
X206146400Y-145961100D01*
X206146400Y-143903700D02*
X202996800Y-143903700D01*
D15*
%TO.C,J1*%
X227877200Y-145621800D02*
X235277200Y-145621800D01*
X227877200Y-151371800D02*
X227877200Y-145621800D01*
X235277200Y-145621800D02*
X235277200Y-151371800D01*
X235277200Y-151371800D02*
X227877200Y-151371800D01*
D13*
X236117200Y-149021800D02*
G75*
G02*
X235917200Y-149021800I-100000J0D01*
G01*
X235917200Y-149021800D02*
G75*
G02*
X236117200Y-149021800I100000J0D01*
G01*
D12*
%TO.C,C13*%
X192263752Y-115035000D02*
X191741248Y-115035000D01*
X192263752Y-113565000D02*
X191741248Y-113565000D01*
%TO.C,J4*%
X171415400Y-136896800D02*
X172745400Y-136896800D01*
X171415400Y-138226800D02*
X171415400Y-136896800D01*
X171415400Y-139496800D02*
X171415400Y-144636800D01*
X171415400Y-139496800D02*
X174075400Y-139496800D01*
X171415400Y-144636800D02*
X174075400Y-144636800D01*
X174075400Y-139496800D02*
X174075400Y-144636800D01*
%TO.C,C4*%
X174931400Y-147458152D02*
X174931400Y-146935648D01*
X176401400Y-147458152D02*
X176401400Y-146935648D01*
%TO.C,R4*%
X180948000Y-148423136D02*
X180948000Y-148877264D01*
X179478000Y-148423136D02*
X179478000Y-148877264D01*
%TO.C,C12*%
X192238352Y-118184600D02*
X191715848Y-118184600D01*
X192238352Y-116714600D02*
X191715848Y-116714600D01*
%TO.C,R17*%
X197235000Y-104772936D02*
X197235000Y-105227064D01*
X195765000Y-104772936D02*
X195765000Y-105227064D01*
D15*
%TO.C,TP4*%
X185969400Y-143596800D02*
X187969400Y-143596800D01*
X187969400Y-145556800D02*
X185969400Y-145556800D01*
D13*
X185179400Y-144531800D02*
G75*
G02*
X184979400Y-144531800I-100000J0D01*
G01*
X184979400Y-144531800D02*
G75*
G02*
X185179400Y-144531800I100000J0D01*
G01*
%TD*%
M02*
