%TF.GenerationSoftware,KiCad,Pcbnew,8.0.7*%
%TF.CreationDate,2024-12-23T22:44:15-05:00*%
%TF.ProjectId,OverSoon,4f766572-536f-46f6-9e2e-6b696361645f,rev?*%
%TF.SameCoordinates,Original*%
%TF.FileFunction,Copper,L1,Top*%
%TF.FilePolarity,Positive*%
%FSLAX46Y46*%
G04 Gerber Fmt 4.6, Leading zero omitted, Abs format (unit mm)*
G04 Created by KiCad (PCBNEW 8.0.7) date 2024-12-23 22:44:15*
%MOMM*%
%LPD*%
G01*
G04 APERTURE LIST*
G04 Aperture macros list*
%AMRoundRect*
0 Rectangle with rounded corners*
0 $1 Rounding radius*
0 $2 $3 $4 $5 $6 $7 $8 $9 X,Y pos of 4 corners*
0 Add a 4 corners polygon primitive as box body*
4,1,4,$2,$3,$4,$5,$6,$7,$8,$9,$2,$3,0*
0 Add four circle primitives for the rounded corners*
1,1,$1+$1,$2,$3*
1,1,$1+$1,$4,$5*
1,1,$1+$1,$6,$7*
1,1,$1+$1,$8,$9*
0 Add four rect primitives between the rounded corners*
20,1,$1+$1,$2,$3,$4,$5,0*
20,1,$1+$1,$4,$5,$6,$7,0*
20,1,$1+$1,$6,$7,$8,$9,0*
20,1,$1+$1,$8,$9,$2,$3,0*%
G04 Aperture macros list end*
%TA.AperFunction,SMDPad,CuDef*%
%ADD10RoundRect,0.250000X-0.475000X0.337500X-0.475000X-0.337500X0.475000X-0.337500X0.475000X0.337500X0*%
%TD*%
%TA.AperFunction,SMDPad,CuDef*%
%ADD11RoundRect,0.250000X-0.337500X-0.475000X0.337500X-0.475000X0.337500X0.475000X-0.337500X0.475000X0*%
%TD*%
%TA.AperFunction,SMDPad,CuDef*%
%ADD12RoundRect,0.250000X0.450000X-0.350000X0.450000X0.350000X-0.450000X0.350000X-0.450000X-0.350000X0*%
%TD*%
%TA.AperFunction,SMDPad,CuDef*%
%ADD13R,0.930000X0.910000*%
%TD*%
%TA.AperFunction,SMDPad,CuDef*%
%ADD14RoundRect,0.250000X0.350000X0.450000X-0.350000X0.450000X-0.350000X-0.450000X0.350000X-0.450000X0*%
%TD*%
%TA.AperFunction,SMDPad,CuDef*%
%ADD15RoundRect,0.250000X-0.450000X0.350000X-0.450000X-0.350000X0.450000X-0.350000X0.450000X0.350000X0*%
%TD*%
%TA.AperFunction,SMDPad,CuDef*%
%ADD16RoundRect,0.250000X0.475000X-0.337500X0.475000X0.337500X-0.475000X0.337500X-0.475000X-0.337500X0*%
%TD*%
%TA.AperFunction,SMDPad,CuDef*%
%ADD17R,0.450000X0.300000*%
%TD*%
%TA.AperFunction,SMDPad,CuDef*%
%ADD18R,0.300000X0.450000*%
%TD*%
%TA.AperFunction,SMDPad,CuDef*%
%ADD19R,1.200000X2.500000*%
%TD*%
%TA.AperFunction,SMDPad,CuDef*%
%ADD20R,0.558800X1.320800*%
%TD*%
%TA.AperFunction,SMDPad,CuDef*%
%ADD21R,1.676400X0.863600*%
%TD*%
%TA.AperFunction,SMDPad,CuDef*%
%ADD22R,1.422400X0.863600*%
%TD*%
%TA.AperFunction,SMDPad,CuDef*%
%ADD23R,2.200000X1.400000*%
%TD*%
%TA.AperFunction,SMDPad,CuDef*%
%ADD24RoundRect,0.250000X-0.350000X-0.450000X0.350000X-0.450000X0.350000X0.450000X-0.350000X0.450000X0*%
%TD*%
%TA.AperFunction,SMDPad,CuDef*%
%ADD25R,0.650000X2.760000*%
%TD*%
%TA.AperFunction,ComponentPad*%
%ADD26R,1.700000X1.700000*%
%TD*%
%TA.AperFunction,ComponentPad*%
%ADD27O,1.700000X1.700000*%
%TD*%
%TA.AperFunction,SMDPad,CuDef*%
%ADD28RoundRect,0.150000X-0.512500X-0.150000X0.512500X-0.150000X0.512500X0.150000X-0.512500X0.150000X0*%
%TD*%
%TA.AperFunction,SMDPad,CuDef*%
%ADD29R,1.500000X0.900000*%
%TD*%
%TA.AperFunction,SMDPad,CuDef*%
%ADD30R,0.900000X1.500000*%
%TD*%
%TA.AperFunction,SMDPad,CuDef*%
%ADD31R,0.900000X0.900000*%
%TD*%
%TA.AperFunction,ComponentPad*%
%ADD32C,1.000000*%
%TD*%
%TA.AperFunction,SMDPad,CuDef*%
%ADD33RoundRect,0.250000X0.325000X0.450000X-0.325000X0.450000X-0.325000X-0.450000X0.325000X-0.450000X0*%
%TD*%
%TA.AperFunction,SMDPad,CuDef*%
%ADD34R,1.320800X0.508000*%
%TD*%
%TA.AperFunction,SMDPad,CuDef*%
%ADD35R,0.990600X0.889000*%
%TD*%
%TA.AperFunction,SMDPad,CuDef*%
%ADD36RoundRect,0.150000X0.512500X0.150000X-0.512500X0.150000X-0.512500X-0.150000X0.512500X-0.150000X0*%
%TD*%
%TA.AperFunction,SMDPad,CuDef*%
%ADD37RoundRect,0.250000X0.337500X0.475000X-0.337500X0.475000X-0.337500X-0.475000X0.337500X-0.475000X0*%
%TD*%
%TA.AperFunction,SMDPad,CuDef*%
%ADD38RoundRect,0.075000X-0.662500X-0.075000X0.662500X-0.075000X0.662500X0.075000X-0.662500X0.075000X0*%
%TD*%
%TA.AperFunction,SMDPad,CuDef*%
%ADD39RoundRect,0.075000X-0.075000X-0.662500X0.075000X-0.662500X0.075000X0.662500X-0.075000X0.662500X0*%
%TD*%
%TA.AperFunction,SMDPad,CuDef*%
%ADD40R,0.300000X1.150000*%
%TD*%
%TA.AperFunction,ComponentPad*%
%ADD41O,1.100000X2.200000*%
%TD*%
%TA.AperFunction,ComponentPad*%
%ADD42O,1.100000X1.700000*%
%TD*%
%TA.AperFunction,SMDPad,CuDef*%
%ADD43R,1.143000X1.092200*%
%TD*%
%TA.AperFunction,ComponentPad*%
%ADD44R,1.575000X1.575000*%
%TD*%
%TA.AperFunction,ComponentPad*%
%ADD45C,1.575000*%
%TD*%
%TA.AperFunction,ViaPad*%
%ADD46C,0.800000*%
%TD*%
%TA.AperFunction,Conductor*%
%ADD47C,0.250000*%
%TD*%
%TA.AperFunction,Conductor*%
%ADD48C,0.152400*%
%TD*%
%TA.AperFunction,Conductor*%
%ADD49C,0.200000*%
%TD*%
G04 APERTURE END LIST*
D10*
%TO.P,C3,1*%
%TO.N,Net-(U2-D)*%
X217246200Y-137980600D03*
%TO.P,C3,2*%
%TO.N,GND*%
X217246200Y-140055600D03*
%TD*%
D11*
%TO.P,C11,1*%
%TO.N,Net-(U11-~{RESET})*%
X209346800Y-115138200D03*
%TO.P,C11,2*%
%TO.N,GND*%
X211421800Y-115138200D03*
%TD*%
D12*
%TO.P,R15,1*%
%TO.N,+BATT*%
X213817200Y-128879600D03*
%TO.P,R15,2*%
%TO.N,Net-(U11-~{RESET})*%
X213817200Y-126879600D03*
%TD*%
D13*
%TO.P,D1,A*%
%TO.N,VBUS*%
X213106000Y-141304200D03*
%TO.P,D1,C*%
%TO.N,Net-(D1-PadC)*%
X213106000Y-142824200D03*
%TD*%
D14*
%TO.P,R12,1*%
%TO.N,D+*%
X239496600Y-110871000D03*
%TO.P,R12,2*%
%TO.N,Net-(U7-IO20)*%
X237496600Y-110871000D03*
%TD*%
D15*
%TO.P,R13,1*%
%TO.N,Net-(SW2-B)*%
X225577400Y-104546400D03*
%TO.P,R13,2*%
%TO.N,Net-(U7-IO0)*%
X225577400Y-106546400D03*
%TD*%
D16*
%TO.P,C9,1*%
%TO.N,Net-(U6-C1)*%
X187960000Y-101904800D03*
%TO.P,C9,2*%
%TO.N,GND*%
X187960000Y-99829800D03*
%TD*%
D17*
%TO.P,U6,1,VDDIO*%
%TO.N,Net-(U6-VDDIO)*%
X186964400Y-105777600D03*
%TO.P,U6,2,SETC*%
%TO.N,Net-(U6-SETC)*%
X186964400Y-106277600D03*
%TO.P,U6,3,SETP*%
%TO.N,Net-(U6-SETP)*%
X186964400Y-106777600D03*
%TO.P,U6,4,SCL/SPC*%
%TO.N,SCLK*%
X186964400Y-107277600D03*
D18*
%TO.P,U6,5,GND*%
%TO.N,GND*%
X187489400Y-107802600D03*
%TO.P,U6,6,SDA/SDI/SDO*%
%TO.N,to_MOSI*%
X187989400Y-107802600D03*
%TO.P,U6,7,SDO/SAO*%
%TO.N,to_MISO*%
X188489400Y-107802600D03*
%TO.P,U6,8,CS*%
%TO.N,ACCEL_CS*%
X188989400Y-107802600D03*
D17*
%TO.P,U6,9,INT2*%
%TO.N,unconnected-(U6-INT2-Pad9)*%
X189514400Y-107277600D03*
%TO.P,U6,10,GND*%
%TO.N,GND*%
X189514400Y-106777600D03*
%TO.P,U6,11,INT1*%
%TO.N,unconnected-(U6-INT1-Pad11)*%
X189514400Y-106277600D03*
%TO.P,U6,12,GND*%
%TO.N,GND*%
X189514400Y-105777600D03*
D18*
%TO.P,U6,13,GND*%
X188989400Y-105252600D03*
%TO.P,U6,14,VDD*%
%TO.N,+3V3*%
X188489400Y-105252600D03*
%TO.P,U6,15,C1*%
%TO.N,Net-(U6-C1)*%
X187989400Y-105252600D03*
%TO.P,U6,16,GND*%
%TO.N,GND*%
X187489400Y-105252600D03*
%TD*%
D10*
%TO.P,C8,1*%
%TO.N,Net-(U6-SETC)*%
X185191400Y-107653000D03*
%TO.P,C8,2*%
%TO.N,Net-(U6-SETP)*%
X185191400Y-109728000D03*
%TD*%
D19*
%TO.P,SW2,1,A*%
%TO.N,GND*%
X220355800Y-105899400D03*
%TO.P,SW2,2,B*%
%TO.N,Net-(SW2-B)*%
X217855800Y-105899400D03*
%TO.P,SW2,3,C*%
%TO.N,+3V3*%
X215355800Y-105899400D03*
%TD*%
D20*
%TO.P,U2,1,G*%
%TO.N,VBUS*%
X223621600Y-140182600D03*
%TO.P,U2,2,S*%
%TO.N,+BATT*%
X225552000Y-140182600D03*
%TO.P,U2,3,D*%
%TO.N,Net-(U2-D)*%
X224586800Y-138150600D03*
%TD*%
D21*
%TO.P,U5,1,FORCE_ON*%
%TO.N,+3V3*%
X193700400Y-133389350D03*
D22*
%TO.P,U5,2,1PPS*%
%TO.N,unconnected-(U5-1PPS-Pad2)*%
X193573400Y-134659350D03*
%TO.P,U5,3,TX*%
%TO.N,unconnected-(U5-TX-Pad3)*%
X193573400Y-135929350D03*
%TO.P,U5,4,VCC*%
%TO.N,Net-(U5-VCC)*%
X193573400Y-137199350D03*
%TO.P,U5,5,GND*%
%TO.N,GND*%
X193573400Y-138469350D03*
%TO.P,U5,6,WAKEUP*%
%TO.N,GPS_WAKEUP*%
X202514200Y-138469350D03*
%TO.P,U5,7,RST*%
%TO.N,SDA*%
X202514200Y-137199350D03*
%TO.P,U5,8,'RESET*%
%TO.N,Net-(U5-'RESET)*%
X202514200Y-135929350D03*
%TO.P,U5,9,CTS*%
%TO.N,SCL*%
X202514200Y-134659350D03*
%TO.P,U5,10,RX*%
%TO.N,unconnected-(U5-RX-Pad10)*%
X202514200Y-133389350D03*
%TD*%
D23*
%TO.P,TP7,1*%
%TO.N,ACCEL_CS*%
X193040000Y-109194600D03*
%TD*%
D24*
%TO.P,R6,1*%
%TO.N,Net-(U5-'RESET)*%
X205848200Y-135839200D03*
%TO.P,R6,2*%
%TO.N,+3V3*%
X207848200Y-135839200D03*
%TD*%
D25*
%TO.P,J3,1,1*%
%TO.N,+3V3*%
X207238600Y-99822000D03*
%TO.P,J3,2,2*%
%TO.N,TMS*%
X207238600Y-103862000D03*
%TO.P,J3,3,3*%
%TO.N,GND*%
X205968600Y-99822000D03*
%TO.P,J3,4,4*%
%TO.N,TCK*%
X205968600Y-103862000D03*
%TO.P,J3,5,5*%
%TO.N,GND*%
X204698600Y-99822000D03*
%TO.P,J3,6,6*%
%TO.N,unconnected-(J3-Pad6)*%
X204698600Y-103862000D03*
%TO.P,J3,7,7*%
%TO.N,unconnected-(J3-Pad7)*%
X203428600Y-99822000D03*
%TO.P,J3,8,8*%
%TO.N,unconnected-(J3-Pad8)*%
X203428600Y-103862000D03*
%TO.P,J3,9,9*%
%TO.N,Net-(J3-Pad9)*%
X202158600Y-99822000D03*
%TO.P,J3,10,10*%
%TO.N,unconnected-(J3-Pad10)*%
X202158600Y-103862000D03*
%TD*%
D23*
%TO.P,TP5,1*%
%TO.N,+1V8*%
X190474600Y-149174200D03*
%TD*%
D26*
%TO.P,U8,1,T_IRQ*%
%TO.N,unconnected-(U8-T_IRQ-Pad1)*%
X172694600Y-100203000D03*
D27*
%TO.P,U8,2,T_D0*%
%TO.N,unconnected-(U8-T_D0-Pad2)*%
X172694600Y-102743000D03*
%TO.P,U8,3,T_DIN*%
%TO.N,unconnected-(U8-T_DIN-Pad3)*%
X172694600Y-105283000D03*
%TO.P,U8,4,T_CS*%
%TO.N,unconnected-(U8-T_CS-Pad4)*%
X172694600Y-107823000D03*
%TO.P,U8,5,T_CLK*%
%TO.N,unconnected-(U8-T_CLK-Pad5)*%
X172694600Y-110363000D03*
%TO.P,U8,6,MISO*%
%TO.N,to_MISO*%
X172694600Y-112903000D03*
%TO.P,U8,7,LED*%
%TO.N,SCREEN_LED*%
X172694600Y-115443000D03*
%TO.P,U8,8,SCK*%
%TO.N,SCLK*%
X172694600Y-117983000D03*
%TO.P,U8,9,MOSI*%
%TO.N,to_MOSI*%
X172694600Y-120523000D03*
%TO.P,U8,10,DC*%
%TO.N,SCREEN_D{slash}C*%
X172694600Y-123063000D03*
%TO.P,U8,11,RESET*%
%TO.N,Net-(U8-RESET)*%
X172694600Y-125603000D03*
%TO.P,U8,12,CS*%
%TO.N,SCREEN_CS*%
X172694600Y-128143000D03*
%TO.P,U8,13,GND*%
%TO.N,GND*%
X172694600Y-130683000D03*
%TO.P,U8,14,VCC*%
%TO.N,+3V3*%
X172694600Y-133223000D03*
%TD*%
D14*
%TO.P,R19,1*%
%TO.N,Net-(U5-VCC)*%
X191668400Y-135661400D03*
%TO.P,R19,2*%
%TO.N,+3V3*%
X189668400Y-135661400D03*
%TD*%
D10*
%TO.P,C2,1*%
%TO.N,+BATT*%
X238582200Y-142722600D03*
%TO.P,C2,2*%
%TO.N,GND*%
X238582200Y-144797600D03*
%TD*%
D12*
%TO.P,R3,1*%
%TO.N,VBUS*%
X213360000Y-134924800D03*
%TO.P,R3,2*%
%TO.N,GND*%
X213360000Y-132924800D03*
%TD*%
D19*
%TO.P,SW1,1,A*%
%TO.N,unconnected-(SW1-A-Pad1)*%
X235033400Y-142831000D03*
%TO.P,SW1,2,B*%
%TO.N,Net-(SW1-B)*%
X232533400Y-142831000D03*
%TO.P,SW1,3,C*%
%TO.N,+BATT*%
X230033400Y-142831000D03*
%TD*%
D28*
%TO.P,U3,1,VIN*%
%TO.N,Net-(U2-D)*%
X184561900Y-147716200D03*
%TO.P,U3,2,GND*%
%TO.N,GND*%
X184561900Y-148666200D03*
%TO.P,U3,3,EN*%
%TO.N,Net-(U3-EN)*%
X184561900Y-149616200D03*
%TO.P,U3,4,NC*%
%TO.N,unconnected-(U3-NC-Pad4)*%
X186836900Y-149616200D03*
%TO.P,U3,5,VOUT*%
%TO.N,+3V3*%
X186836900Y-147716200D03*
%TD*%
D15*
%TO.P,R16,1*%
%TO.N,+3V3*%
X192074800Y-127457200D03*
%TO.P,R16,2*%
%TO.N,ACCEL_CS*%
X192074800Y-129457200D03*
%TD*%
D16*
%TO.P,C10,1*%
%TO.N,+3V3*%
X193675000Y-102514400D03*
%TO.P,C10,2*%
%TO.N,GND*%
X193675000Y-100439400D03*
%TD*%
D29*
%TO.P,U7,1,GND*%
%TO.N,GND*%
X234860800Y-127970600D03*
%TO.P,U7,2,3V3*%
%TO.N,+3V3*%
X234860800Y-126700600D03*
%TO.P,U7,3,EN*%
X234860800Y-125430600D03*
%TO.P,U7,4,IO4*%
%TO.N,unconnected-(U7-IO4-Pad4)*%
X234860800Y-124160600D03*
%TO.P,U7,5,IO5*%
%TO.N,unconnected-(U7-IO5-Pad5)*%
X234860800Y-122890600D03*
%TO.P,U7,6,IO6*%
%TO.N,unconnected-(U7-IO6-Pad6)*%
X234860800Y-121620600D03*
%TO.P,U7,7,IO7*%
%TO.N,unconnected-(U7-IO7-Pad7)*%
X234860800Y-120350600D03*
%TO.P,U7,8,IO15*%
%TO.N,unconnected-(U7-IO15-Pad8)*%
X234860800Y-119080600D03*
%TO.P,U7,9,IO16*%
%TO.N,unconnected-(U7-IO16-Pad9)*%
X234860800Y-117810600D03*
%TO.P,U7,10,IO17*%
%TO.N,unconnected-(U7-IO17-Pad10)*%
X234860800Y-116540600D03*
%TO.P,U7,11,IO18*%
%TO.N,unconnected-(U7-IO18-Pad11)*%
X234860800Y-115270600D03*
%TO.P,U7,12,IO8*%
%TO.N,unconnected-(U7-IO8-Pad12)*%
X234860800Y-114000600D03*
%TO.P,U7,13,IO19*%
%TO.N,Net-(U7-IO19)*%
X234860800Y-112730600D03*
%TO.P,U7,14,IO20*%
%TO.N,Net-(U7-IO20)*%
X234860800Y-111460600D03*
D30*
%TO.P,U7,15,IO3*%
%TO.N,unconnected-(U7-IO3-Pad15)*%
X233095800Y-110210600D03*
%TO.P,U7,16,IO46*%
%TO.N,GND*%
X231825800Y-110210600D03*
%TO.P,U7,17,IO9*%
%TO.N,unconnected-(U7-IO9-Pad17)*%
X230555800Y-110210600D03*
%TO.P,U7,18,IO10*%
%TO.N,unconnected-(U7-IO10-Pad18)*%
X229285800Y-110210600D03*
%TO.P,U7,19,IO11*%
%TO.N,unconnected-(U7-IO11-Pad19)*%
X228015800Y-110210600D03*
%TO.P,U7,20,IO12*%
%TO.N,unconnected-(U7-IO12-Pad20)*%
X226745800Y-110210600D03*
%TO.P,U7,21,IO13*%
%TO.N,unconnected-(U7-IO13-Pad21)*%
X225475800Y-110210600D03*
%TO.P,U7,22,IO14*%
%TO.N,unconnected-(U7-IO14-Pad22)*%
X224205800Y-110210600D03*
%TO.P,U7,23,IO21*%
%TO.N,unconnected-(U7-IO21-Pad23)*%
X222935800Y-110210600D03*
%TO.P,U7,24,IO47*%
%TO.N,unconnected-(U7-IO47-Pad24)*%
X221665800Y-110210600D03*
%TO.P,U7,25,IO48*%
%TO.N,unconnected-(U7-IO48-Pad25)*%
X220395800Y-110210600D03*
%TO.P,U7,26,IO45*%
%TO.N,unconnected-(U7-IO45-Pad26)*%
X219125800Y-110210600D03*
D29*
%TO.P,U7,27,IO0*%
%TO.N,Net-(U7-IO0)*%
X217360800Y-111460600D03*
%TO.P,U7,28,IO35*%
%TO.N,unconnected-(U7-IO35-Pad28)*%
X217360800Y-112730600D03*
%TO.P,U7,29,IO36*%
%TO.N,unconnected-(U7-IO36-Pad29)*%
X217360800Y-114000600D03*
%TO.P,U7,30,IO37*%
%TO.N,unconnected-(U7-IO37-Pad30)*%
X217360800Y-115270600D03*
%TO.P,U7,31,IO38*%
%TO.N,unconnected-(U7-IO38-Pad31)*%
X217360800Y-116540600D03*
%TO.P,U7,32,IO39*%
%TO.N,unconnected-(U7-IO39-Pad32)*%
X217360800Y-117810600D03*
%TO.P,U7,33,IO40*%
%TO.N,unconnected-(U7-IO40-Pad33)*%
X217360800Y-119080600D03*
%TO.P,U7,34,IO41*%
%TO.N,unconnected-(U7-IO41-Pad34)*%
X217360800Y-120350600D03*
%TO.P,U7,35,IO42*%
%TO.N,unconnected-(U7-IO42-Pad35)*%
X217360800Y-121620600D03*
%TO.P,U7,36,RXD0*%
%TO.N,MCU_TX*%
X217360800Y-122890600D03*
%TO.P,U7,37,TXD0*%
%TO.N,MCU_RX*%
X217360800Y-124160600D03*
%TO.P,U7,38,IO2*%
%TO.N,unconnected-(U7-IO2-Pad38)*%
X217360800Y-125430600D03*
%TO.P,U7,39,IO1*%
%TO.N,unconnected-(U7-IO1-Pad39)*%
X217360800Y-126700600D03*
%TO.P,U7,40,GND*%
%TO.N,GND*%
X217360800Y-127970600D03*
D31*
%TO.P,U7,41_1,GND*%
X227610800Y-120250600D03*
%TO.P,U7,41_2,GND*%
X229010800Y-120250600D03*
%TO.P,U7,41_3,GND*%
X226210800Y-120250600D03*
%TO.P,U7,41_4,GND*%
X229010800Y-118850600D03*
%TO.P,U7,41_5,GND*%
X227610800Y-118850600D03*
%TO.P,U7,41_6,GND*%
X226210800Y-118850600D03*
%TO.P,U7,41_7,GND*%
X229010800Y-121650600D03*
%TO.P,U7,41_8,GND*%
X227610800Y-121650600D03*
%TO.P,U7,41_9,GND*%
X226210800Y-121650600D03*
D32*
%TO.P,U7,41_10*%
%TO.N,N/C*%
X227610800Y-120950600D03*
%TO.P,U7,41_11*%
X229010800Y-120950600D03*
%TO.P,U7,41_12*%
X226210800Y-120950600D03*
%TO.P,U7,41_13*%
X229010800Y-119550600D03*
%TO.P,U7,41_14*%
X227610800Y-119550600D03*
%TO.P,U7,41_15*%
X226210800Y-119550600D03*
%TO.P,U7,41_16*%
X228310800Y-121650600D03*
%TO.P,U7,41_17*%
X226910800Y-121650600D03*
%TO.P,U7,41_18*%
X228310800Y-120250600D03*
%TO.P,U7,41_19*%
X226910800Y-120250600D03*
%TO.P,U7,41_20*%
X228310800Y-118850600D03*
%TO.P,U7,41_21*%
X226910800Y-118850600D03*
%TD*%
D15*
%TO.P,R5,1*%
%TO.N,Net-(U2-D)*%
X196418200Y-143560800D03*
%TO.P,R5,2*%
%TO.N,Net-(U4-EN)*%
X196418200Y-145560800D03*
%TD*%
D33*
%TO.P,L1,1,1*%
%TO.N,Net-(U11-VSW)*%
X197866000Y-114300000D03*
%TO.P,L1,2,2*%
%TO.N,Net-(U11-VDDCORE)*%
X195816000Y-114300000D03*
%TD*%
D11*
%TO.P,C14,1*%
%TO.N,GND*%
X233037200Y-102997000D03*
%TO.P,C14,2*%
%TO.N,+3V3*%
X235112200Y-102997000D03*
%TD*%
D24*
%TO.P,R7,1*%
%TO.N,SDA*%
X205917800Y-139395200D03*
%TO.P,R7,2*%
%TO.N,+3V3*%
X207917800Y-139395200D03*
%TD*%
D16*
%TO.P,C1,1*%
%TO.N,VBUS*%
X221107000Y-140026300D03*
%TO.P,C1,2*%
%TO.N,GND*%
X221107000Y-137951300D03*
%TD*%
D12*
%TO.P,R11,1*%
%TO.N,D-*%
X238480600Y-115138200D03*
%TO.P,R11,2*%
%TO.N,Net-(U7-IO19)*%
X238480600Y-113138200D03*
%TD*%
D23*
%TO.P,TP8,1*%
%TO.N,SCREEN_CS*%
X180822600Y-126085600D03*
%TD*%
D15*
%TO.P,R10,1*%
%TO.N,+3V3*%
X184937400Y-99593400D03*
%TO.P,R10,2*%
%TO.N,Net-(U6-VDDIO)*%
X184937400Y-101593400D03*
%TD*%
D23*
%TO.P,TP3,1*%
%TO.N,VBUS*%
X213868000Y-138963400D03*
%TD*%
D15*
%TO.P,R9,1*%
%TO.N,Net-(U6-VDDIO)*%
X182981600Y-105654600D03*
%TO.P,R9,2*%
%TO.N,+1V8*%
X182981600Y-107654600D03*
%TD*%
D34*
%TO.P,U1,1,STAT*%
%TO.N,Net-(U1-STAT)*%
X208915000Y-150022601D03*
%TO.P,U1,2,VSS*%
%TO.N,GND*%
X208915000Y-149072600D03*
%TO.P,U1,3,VBAT*%
%TO.N,+BATT*%
X208915000Y-148122599D03*
%TO.P,U1,4,VDD*%
%TO.N,VBUS*%
X206324200Y-148122599D03*
%TO.P,U1,5,PROG*%
%TO.N,Net-(U1-PROG)*%
X206324200Y-150022601D03*
%TD*%
D11*
%TO.P,C16,1*%
%TO.N,GND*%
X233023700Y-107264200D03*
%TO.P,C16,2*%
%TO.N,+3V3*%
X235098700Y-107264200D03*
%TD*%
D12*
%TO.P,R1,1*%
%TO.N,Net-(U1-STAT)*%
X213106000Y-146989800D03*
%TO.P,R1,2*%
%TO.N,Net-(D1-PadC)*%
X213106000Y-144989800D03*
%TD*%
D15*
%TO.P,R18,1*%
%TO.N,+3V3*%
X214147400Y-111665000D03*
%TO.P,R18,2*%
%TO.N,MCU_TX*%
X214147400Y-113665000D03*
%TD*%
D23*
%TO.P,TP2,1*%
%TO.N,+BATT*%
X237820200Y-136956800D03*
%TD*%
D35*
%TO.P,U10,1,1*%
%TO.N,Net-(U11-~{RESET})*%
X208584800Y-108153200D03*
%TO.P,U10,2,2*%
%TO.N,GND*%
X210184802Y-108153200D03*
%TO.P,U10,3,3*%
%TO.N,Net-(U11-~{RESET})*%
X208584800Y-112253196D03*
%TO.P,U10,4,4*%
%TO.N,GND*%
X210184802Y-112253196D03*
%TD*%
%TO.P,U9,1,1*%
%TO.N,Net-(U8-RESET)*%
X178460400Y-137505004D03*
%TO.P,U9,2,2*%
%TO.N,GND*%
X180060402Y-137505004D03*
%TO.P,U9,3,3*%
%TO.N,unconnected-(U9-Pad3)*%
X178460400Y-141605000D03*
%TO.P,U9,4,4*%
%TO.N,unconnected-(U9-Pad4)*%
X180060402Y-141605000D03*
%TD*%
D36*
%TO.P,U4,1,VIN*%
%TO.N,Net-(U2-D)*%
X196438100Y-149997200D03*
%TO.P,U4,2,GND*%
%TO.N,GND*%
X196438100Y-149047200D03*
%TO.P,U4,3,EN*%
%TO.N,Net-(U4-EN)*%
X196438100Y-148097200D03*
%TO.P,U4,4,NC*%
%TO.N,unconnected-(U4-NC-Pad4)*%
X194163100Y-148097200D03*
%TO.P,U4,5,VOUT*%
%TO.N,+1V8*%
X194163100Y-149997200D03*
%TD*%
D37*
%TO.P,C5,1*%
%TO.N,+1V8*%
X183616600Y-129311400D03*
%TO.P,C5,2*%
%TO.N,GND*%
X181541600Y-129311400D03*
%TD*%
%TO.P,C7,1*%
%TO.N,+1V8*%
X183591200Y-131495800D03*
%TO.P,C7,2*%
%TO.N,GND*%
X181516200Y-131495800D03*
%TD*%
D38*
%TO.P,U11,1,PA00*%
%TO.N,unconnected-(U11-PA00-Pad1)*%
X197588300Y-118093800D03*
%TO.P,U11,2,PA01*%
%TO.N,unconnected-(U11-PA01-Pad2)*%
X197588300Y-118593800D03*
%TO.P,U11,3,PA02*%
%TO.N,EX1*%
X197588300Y-119093800D03*
%TO.P,U11,4,PA03*%
%TO.N,EX2*%
X197588300Y-119593800D03*
%TO.P,U11,5,PB04*%
%TO.N,unconnected-(U11-PB04-Pad5)*%
X197588300Y-120093800D03*
%TO.P,U11,6,PB05*%
%TO.N,unconnected-(U11-PB05-Pad6)*%
X197588300Y-120593800D03*
%TO.P,U11,7,GNDANA*%
%TO.N,GND*%
X197588300Y-121093800D03*
%TO.P,U11,8,VDDANA*%
%TO.N,+3V3*%
X197588300Y-121593800D03*
%TO.P,U11,9,PB06*%
%TO.N,unconnected-(U11-PB06-Pad9)*%
X197588300Y-122093800D03*
%TO.P,U11,10,PB07*%
%TO.N,unconnected-(U11-PB07-Pad10)*%
X197588300Y-122593800D03*
%TO.P,U11,11,PB08*%
%TO.N,SCREEN_LED*%
X197588300Y-123093800D03*
%TO.P,U11,12,PB09*%
%TO.N,SCREEN_D{slash}C*%
X197588300Y-123593800D03*
%TO.P,U11,13,PA04*%
%TO.N,EX3*%
X197588300Y-124093800D03*
%TO.P,U11,14,PA05*%
%TO.N,unconnected-(U11-PA05-Pad14)*%
X197588300Y-124593800D03*
%TO.P,U11,15,PA06*%
%TO.N,unconnected-(U11-PA06-Pad15)*%
X197588300Y-125093800D03*
%TO.P,U11,16,PA07*%
%TO.N,unconnected-(U11-PA07-Pad16)*%
X197588300Y-125593800D03*
D39*
%TO.P,U11,17,PA08*%
%TO.N,unconnected-(U11-PA08-Pad17)*%
X199500800Y-127506300D03*
%TO.P,U11,18,PA09*%
%TO.N,unconnected-(U11-PA09-Pad18)*%
X200000800Y-127506300D03*
%TO.P,U11,19,PA10*%
%TO.N,unconnected-(U11-PA10-Pad19)*%
X200500800Y-127506300D03*
%TO.P,U11,20,PA11*%
%TO.N,unconnected-(U11-PA11-Pad20)*%
X201000800Y-127506300D03*
%TO.P,U11,21,VDDIOB*%
%TO.N,+3V3*%
X201500800Y-127506300D03*
%TO.P,U11,22,GND*%
%TO.N,GND*%
X202000800Y-127506300D03*
%TO.P,U11,23,PB10*%
%TO.N,SCREEN_CS*%
X202500800Y-127506300D03*
%TO.P,U11,24,PB11*%
%TO.N,unconnected-(U11-PB11-Pad24)*%
X203000800Y-127506300D03*
%TO.P,U11,25,PB12*%
%TO.N,unconnected-(U11-PB12-Pad25)*%
X203500800Y-127506300D03*
%TO.P,U11,26,PB13*%
%TO.N,unconnected-(U11-PB13-Pad26)*%
X204000800Y-127506300D03*
%TO.P,U11,27,PB14*%
%TO.N,unconnected-(U11-PB14-Pad27)*%
X204500800Y-127506300D03*
%TO.P,U11,28,PB15*%
%TO.N,unconnected-(U11-PB15-Pad28)*%
X205000800Y-127506300D03*
%TO.P,U11,29,PA12*%
%TO.N,SDA*%
X205500800Y-127506300D03*
%TO.P,U11,30,PA13*%
%TO.N,SCL*%
X206000800Y-127506300D03*
%TO.P,U11,31,PA14*%
%TO.N,unconnected-(U11-PA14-Pad31)*%
X206500800Y-127506300D03*
%TO.P,U11,32,PA15*%
%TO.N,ACCEL_CS*%
X207000800Y-127506300D03*
D38*
%TO.P,U11,33,GND*%
%TO.N,GND*%
X208913300Y-125593800D03*
%TO.P,U11,34,VDDIO*%
%TO.N,+3V3*%
X208913300Y-125093800D03*
%TO.P,U11,35,PA16*%
%TO.N,unconnected-(U11-PA16-Pad35)*%
X208913300Y-124593800D03*
%TO.P,U11,36,PA17*%
%TO.N,SCLK*%
X208913300Y-124093800D03*
%TO.P,U11,37,PA18*%
%TO.N,unconnected-(U11-PA18-Pad37)*%
X208913300Y-123593800D03*
%TO.P,U11,38,PA19*%
%TO.N,unconnected-(U11-PA19-Pad38)*%
X208913300Y-123093800D03*
%TO.P,U11,39,PB16*%
%TO.N,MCU_TX*%
X208913300Y-122593800D03*
%TO.P,U11,40,PB17*%
%TO.N,MCU_RX*%
X208913300Y-122093800D03*
%TO.P,U11,41,PA20*%
%TO.N,unconnected-(U11-PA20-Pad41)*%
X208913300Y-121593800D03*
%TO.P,U11,42,PA21*%
%TO.N,GPS_WAKEUP*%
X208913300Y-121093800D03*
%TO.P,U11,43,PA22*%
%TO.N,unconnected-(U11-PA22-Pad43)*%
X208913300Y-120593800D03*
%TO.P,U11,44,PA23*%
%TO.N,unconnected-(U11-PA23-Pad44)*%
X208913300Y-120093800D03*
%TO.P,U11,45,PA24*%
%TO.N,D-*%
X208913300Y-119593800D03*
%TO.P,U11,46,PA25*%
%TO.N,D+*%
X208913300Y-119093800D03*
%TO.P,U11,47,GND*%
%TO.N,GND*%
X208913300Y-118593800D03*
%TO.P,U11,48,VDDIO*%
%TO.N,+3V3*%
X208913300Y-118093800D03*
D39*
%TO.P,U11,49,PB22*%
%TO.N,to_MISO*%
X207000800Y-116181300D03*
%TO.P,U11,50,PB23*%
%TO.N,to_MOSI*%
X206500800Y-116181300D03*
%TO.P,U11,51,PA27*%
%TO.N,unconnected-(U11-PA27-Pad51)*%
X206000800Y-116181300D03*
%TO.P,U11,52,~{RESET}*%
%TO.N,Net-(U11-~{RESET})*%
X205500800Y-116181300D03*
%TO.P,U11,53,VDDCORE*%
%TO.N,Net-(U11-VDDCORE)*%
X205000800Y-116181300D03*
%TO.P,U11,54,GND*%
%TO.N,GND*%
X204500800Y-116181300D03*
%TO.P,U11,55,VSW*%
%TO.N,Net-(U11-VSW)*%
X204000800Y-116181300D03*
%TO.P,U11,56,VDDIO*%
%TO.N,+3V3*%
X203500800Y-116181300D03*
%TO.P,U11,57,PA30*%
%TO.N,TCK*%
X203000800Y-116181300D03*
%TO.P,U11,58,PA31*%
%TO.N,TMS*%
X202500800Y-116181300D03*
%TO.P,U11,59,PB30*%
%TO.N,unconnected-(U11-PB30-Pad59)*%
X202000800Y-116181300D03*
%TO.P,U11,60,PB31*%
%TO.N,unconnected-(U11-PB31-Pad60)*%
X201500800Y-116181300D03*
%TO.P,U11,61,PB00*%
%TO.N,unconnected-(U11-PB00-Pad61)*%
X201000800Y-116181300D03*
%TO.P,U11,62,PB01*%
%TO.N,unconnected-(U11-PB01-Pad62)*%
X200500800Y-116181300D03*
%TO.P,U11,63,PB02*%
%TO.N,unconnected-(U11-PB02-Pad63)*%
X200000800Y-116181300D03*
%TO.P,U11,64,PB03*%
%TO.N,unconnected-(U11-PB03-Pad64)*%
X199500800Y-116181300D03*
%TD*%
D15*
%TO.P,R14,1*%
%TO.N,Net-(U11-~{RESET})*%
X209600800Y-129463800D03*
%TO.P,R14,2*%
%TO.N,+BATT*%
X209600800Y-131463800D03*
%TD*%
D24*
%TO.P,R8,1*%
%TO.N,SCL*%
X204197200Y-132054600D03*
%TO.P,R8,2*%
%TO.N,+3V3*%
X206197200Y-132054600D03*
%TD*%
D11*
%TO.P,C15,1*%
%TO.N,GND*%
X233023700Y-105130600D03*
%TO.P,C15,2*%
%TO.N,+3V3*%
X235098700Y-105130600D03*
%TD*%
D37*
%TO.P,C6,1*%
%TO.N,+3V3*%
X235120000Y-98653600D03*
%TO.P,C6,2*%
%TO.N,GND*%
X233045000Y-98653600D03*
%TD*%
D11*
%TO.P,C17,1*%
%TO.N,GND*%
X233037200Y-100736400D03*
%TO.P,C17,2*%
%TO.N,+3V3*%
X235112200Y-100736400D03*
%TD*%
D23*
%TO.P,TP6,1*%
%TO.N,GPS_WAKEUP*%
X204040100Y-142290800D03*
%TD*%
%TO.P,TP1,1*%
%TO.N,GND*%
X172364400Y-150393400D03*
%TD*%
D15*
%TO.P,R2,1*%
%TO.N,Net-(U1-PROG)*%
X202742800Y-148834600D03*
%TO.P,R2,2*%
%TO.N,GND*%
X202742800Y-150834600D03*
%TD*%
D40*
%TO.P,J2,A1,GND*%
%TO.N,GND*%
X217606600Y-144327600D03*
%TO.P,J2,A4,VBUS*%
%TO.N,VBUS*%
X218406600Y-144327600D03*
%TO.P,J2,A5,CC1*%
%TO.N,unconnected-(J2-CC1-PadA5)*%
X219706600Y-144327600D03*
%TO.P,J2,A6,D+*%
%TO.N,D+*%
X220706600Y-144327600D03*
%TO.P,J2,A7,D-*%
%TO.N,D-*%
X221206600Y-144327600D03*
%TO.P,J2,A8,SBU1*%
%TO.N,unconnected-(J2-SBU1-PadA8)*%
X222206600Y-144327600D03*
%TO.P,J2,A9,VBUS*%
%TO.N,VBUS*%
X223506600Y-144327600D03*
%TO.P,J2,A12,GND*%
%TO.N,GND*%
X224306600Y-144327600D03*
%TO.P,J2,B1,GND*%
X224006600Y-144327600D03*
%TO.P,J2,B4,VBUS*%
%TO.N,VBUS*%
X223206600Y-144327600D03*
%TO.P,J2,B5,CC2*%
%TO.N,unconnected-(J2-CC2-PadB5)*%
X222706600Y-144327600D03*
%TO.P,J2,B6,D+*%
%TO.N,D+*%
X221706600Y-144327600D03*
%TO.P,J2,B7,D-*%
%TO.N,D-*%
X220206600Y-144327600D03*
%TO.P,J2,B8,SBU2*%
%TO.N,unconnected-(J2-SBU2-PadB8)*%
X219206600Y-144327600D03*
%TO.P,J2,B9,VBUS*%
%TO.N,VBUS*%
X218706600Y-144327600D03*
%TO.P,J2,B12,GND*%
%TO.N,GND*%
X217906600Y-144327600D03*
D41*
%TO.P,J2,S1,SHIELD*%
X216636600Y-144892600D03*
D42*
X216636600Y-149072600D03*
D41*
X225276600Y-144892600D03*
D42*
X225276600Y-149072600D03*
%TD*%
D43*
%TO.P,CR1,1*%
%TO.N,Net-(U2-D)*%
X203034900Y-144932400D03*
%TO.P,CR1,2*%
%TO.N,VBUS*%
X206108300Y-144932400D03*
%TD*%
D44*
%TO.P,J1,1,1*%
%TO.N,GND*%
X232827200Y-149021800D03*
D45*
%TO.P,J1,2,2*%
%TO.N,Net-(SW1-B)*%
X230327200Y-149021800D03*
%TD*%
D37*
%TO.P,C13,1*%
%TO.N,Net-(U11-VDDCORE)*%
X193040000Y-114300000D03*
%TO.P,C13,2*%
%TO.N,GND*%
X190965000Y-114300000D03*
%TD*%
D26*
%TO.P,J4,1,Pin_1*%
%TO.N,EX1*%
X172745400Y-138226800D03*
D27*
%TO.P,J4,2,Pin_2*%
%TO.N,EX2*%
X172745400Y-140766800D03*
%TO.P,J4,3,Pin_3*%
%TO.N,EX3*%
X172745400Y-143306800D03*
%TD*%
D16*
%TO.P,C4,1*%
%TO.N,+3V3*%
X175666400Y-148234400D03*
%TO.P,C4,2*%
%TO.N,GND*%
X175666400Y-146159400D03*
%TD*%
D15*
%TO.P,R4,1*%
%TO.N,Net-(U2-D)*%
X180213000Y-147650200D03*
%TO.P,R4,2*%
%TO.N,Net-(U3-EN)*%
X180213000Y-149650200D03*
%TD*%
D37*
%TO.P,C12,1*%
%TO.N,Net-(U11-VDDCORE)*%
X193014600Y-117449600D03*
%TO.P,C12,2*%
%TO.N,GND*%
X190939600Y-117449600D03*
%TD*%
D15*
%TO.P,R17,1*%
%TO.N,Net-(J3-Pad9)*%
X196500000Y-104000000D03*
%TO.P,R17,2*%
%TO.N,GND*%
X196500000Y-106000000D03*
%TD*%
D23*
%TO.P,TP4,1*%
%TO.N,+3V3*%
X186969400Y-144576800D03*
%TD*%
D46*
%TO.N,VBUS*%
X214884000Y-135915400D03*
X215392000Y-140639800D03*
%TO.N,GND*%
X201789700Y-129159000D03*
X212140602Y-107325596D03*
X186944000Y-104114600D03*
X232968800Y-127304800D03*
X231190800Y-108153200D03*
X222732600Y-137312400D03*
X222123000Y-106324400D03*
X175844200Y-144703800D03*
X198628000Y-149021800D03*
X182499000Y-148615400D03*
X225399600Y-142544800D03*
X180289200Y-135991600D03*
X189407800Y-114300000D03*
X193573400Y-98679000D03*
X238709200Y-146558000D03*
X200355200Y-132232400D03*
X200228200Y-139725400D03*
X191058800Y-106807000D03*
X236347000Y-147066000D03*
X195605400Y-139598400D03*
X214934800Y-131191000D03*
X174447200Y-149936200D03*
X195630800Y-132257800D03*
X211835802Y-112481796D03*
X188010800Y-98374200D03*
X187248800Y-110820200D03*
X191897000Y-138633200D03*
X200507600Y-149606000D03*
X226949000Y-149961600D03*
X179806600Y-133146800D03*
X214985600Y-143332200D03*
X218617800Y-141732000D03*
X212928200Y-115417600D03*
X211328000Y-149072600D03*
X195656200Y-120472200D03*
X209245200Y-126695200D03*
X211632800Y-118310700D03*
%TO.N,+BATT*%
X209880200Y-132664200D03*
X224028000Y-142367000D03*
X210794600Y-146862800D03*
%TO.N,Net-(U2-D)*%
X196519800Y-151206200D03*
X184505600Y-145999200D03*
%TO.N,+3V3*%
X204012800Y-114325400D03*
X182803800Y-101320600D03*
X233121200Y-125323600D03*
X236677200Y-108508800D03*
X176377600Y-149961600D03*
X191617600Y-133477000D03*
X212572600Y-100304600D03*
X210591400Y-125552200D03*
X192481200Y-125857000D03*
X209499200Y-136118600D03*
X188087000Y-134620000D03*
X189001400Y-104114600D03*
X175133000Y-133223000D03*
X195110700Y-121869200D03*
X214147400Y-109270800D03*
X189509400Y-144221200D03*
X212750400Y-106045000D03*
X210591400Y-117322600D03*
X208305400Y-133451600D03*
X199974200Y-129133600D03*
%TO.N,+1V8*%
X184925054Y-128790347D03*
X182880000Y-110261400D03*
X188188600Y-146685000D03*
%TO.N,Net-(U11-~{RESET})*%
X210832700Y-127215900D03*
X209270600Y-116763800D03*
%TO.N,D+*%
X238683800Y-117957600D03*
X213436200Y-119024400D03*
X221208600Y-141884400D03*
%TO.N,D-*%
X212547200Y-119710200D03*
X238531400Y-116560600D03*
X220040200Y-142443200D03*
%TO.N,TMS*%
X202729500Y-106908600D03*
X202072033Y-114067143D03*
%TO.N,TCK*%
X203250800Y-113665000D03*
X203454000Y-106070400D03*
%TO.N,EX1*%
X178181000Y-119176800D03*
%TO.N,EX2*%
X183337200Y-120040400D03*
%TO.N,EX3*%
X183642000Y-125247400D03*
%TO.N,SDA*%
X205790800Y-137693400D03*
X205536800Y-129413000D03*
%TO.N,SCL*%
X206933800Y-134061200D03*
X206527400Y-129260600D03*
%TO.N,ACCEL_CS*%
X194335400Y-110693200D03*
X194386200Y-130327400D03*
%TO.N,GPS_WAKEUP*%
X211226400Y-120370600D03*
X211582000Y-137490200D03*
%TO.N,SCLK*%
X195173600Y-125171200D03*
X185851800Y-124968000D03*
X185851800Y-118541800D03*
X186715400Y-109880400D03*
X207391000Y-124104400D03*
%TO.N,to_MOSI*%
X188061600Y-112457400D03*
X182321200Y-112395000D03*
X181864000Y-120878600D03*
X188810300Y-110083600D03*
%TO.N,MCU_RX*%
X214706200Y-124256800D03*
X214680800Y-122047000D03*
%TO.N,SCREEN_LED*%
X177038000Y-122986800D03*
X177063400Y-115620800D03*
%TO.N,Net-(U8-RESET)*%
X177139600Y-136169400D03*
X177038000Y-125679200D03*
%TD*%
D47*
%TO.N,GND*%
X204698600Y-99822000D02*
X204698600Y-101202000D01*
X204698600Y-101202000D02*
X203633600Y-102267000D01*
X203633600Y-102267000D02*
X200233000Y-102267000D01*
X200233000Y-102267000D02*
X196500000Y-106000000D01*
D48*
%TO.N,Net-(J3-Pad9)*%
X196500000Y-104000000D02*
X197980600Y-104000000D01*
X197980600Y-104000000D02*
X202158600Y-99822000D01*
D47*
%TO.N,GND*%
X191058800Y-106807000D02*
X191865800Y-106000000D01*
X191865800Y-106000000D02*
X196500000Y-106000000D01*
%TO.N,VBUS*%
X206324200Y-145148300D02*
X206108300Y-144932400D01*
X213893400Y-134924800D02*
X214884000Y-135915400D01*
X223465300Y-140026300D02*
X223621600Y-140182600D01*
X223621600Y-141681200D02*
X223621600Y-140182600D01*
X211759800Y-144424400D02*
X211759800Y-142650400D01*
X217297000Y-142570200D02*
X217419620Y-142570200D01*
X223479200Y-144214400D02*
X223206600Y-143941800D01*
X221107000Y-140026300D02*
X223465300Y-140026300D01*
X218679200Y-143829780D02*
X218679200Y-144214400D01*
X213106000Y-141304200D02*
X214024400Y-141304200D01*
X220950700Y-140182600D02*
X221107000Y-140026300D01*
X223206600Y-142096200D02*
X223621600Y-141681200D01*
X217419620Y-142570200D02*
X218679200Y-143829780D01*
X223206600Y-143941800D02*
X223206600Y-142096200D01*
X218804905Y-142570200D02*
X217297000Y-142570200D01*
X221107000Y-140026300D02*
X221107000Y-140268105D01*
X211759800Y-142650400D02*
X213106000Y-141304200D01*
X206324200Y-148122599D02*
X206324200Y-145148300D01*
X213106000Y-141304200D02*
X213106000Y-139141200D01*
X215392000Y-140487400D02*
X213868000Y-138963400D01*
X214024400Y-141304200D02*
X215290400Y-142570200D01*
X206108300Y-144932400D02*
X211251800Y-144932400D01*
X215392000Y-140639800D02*
X215392000Y-140487400D01*
X215290400Y-142570200D02*
X217297000Y-142570200D01*
X213360000Y-134924800D02*
X213893400Y-134924800D01*
X221107000Y-140268105D02*
X218804905Y-142570200D01*
X211251800Y-144932400D02*
X211759800Y-144424400D01*
%TO.N,GND*%
X208915000Y-149072600D02*
X211328000Y-149072600D01*
X222732600Y-137312400D02*
X222093700Y-137951300D01*
X174447200Y-149936200D02*
X173990000Y-150393400D01*
X184561900Y-148666200D02*
X182549800Y-148666200D01*
X187489400Y-110611300D02*
X187489400Y-107802600D01*
X233037200Y-105117100D02*
X233023700Y-105130600D01*
X204500800Y-116984486D02*
X206110114Y-118593800D01*
X208913300Y-125593800D02*
X208913300Y-126363300D01*
X187489400Y-104660000D02*
X186944000Y-104114600D01*
X204500800Y-116181300D02*
X204500800Y-116984486D01*
X177342800Y-130683000D02*
X179806600Y-133146800D01*
X234391200Y-149021800D02*
X236347000Y-147066000D01*
X181541600Y-129311400D02*
X181541600Y-131470400D01*
X197588300Y-121093800D02*
X196277800Y-121093800D01*
X187248800Y-110820200D02*
X187280500Y-110820200D01*
X202000800Y-127506300D02*
X202000800Y-128947900D01*
X190064400Y-106562220D02*
X189849020Y-106777600D01*
X208913300Y-126363300D02*
X209245200Y-126695200D01*
X201736200Y-150834600D02*
X202742800Y-150834600D01*
X192060850Y-138469350D02*
X191897000Y-138633200D01*
X233045000Y-98653600D02*
X233045000Y-100728600D01*
X234860800Y-127970600D02*
X233634600Y-127970600D01*
X211421800Y-115138200D02*
X212648800Y-115138200D01*
X187960000Y-98425000D02*
X188010800Y-98374200D01*
X193675000Y-98780600D02*
X193573400Y-98679000D01*
X233045000Y-100728600D02*
X233037200Y-100736400D01*
X211632800Y-118465600D02*
X211632800Y-118310700D01*
X187489400Y-105252600D02*
X187489400Y-104660000D01*
X181457600Y-131495800D02*
X179806600Y-133146800D01*
X222093700Y-137951300D02*
X221107000Y-137951300D01*
X217579200Y-144214400D02*
X216697000Y-143332200D01*
X182549800Y-148666200D02*
X182499000Y-148615400D01*
X220355800Y-105899400D02*
X221698000Y-105899400D01*
X233023700Y-107264200D02*
X233023700Y-105130600D01*
X226556400Y-148959400D02*
X226949000Y-149352000D01*
X190914200Y-117144800D02*
X190914200Y-114350800D01*
X211513200Y-118585200D02*
X211632800Y-118465600D01*
X181516200Y-131495800D02*
X181457600Y-131495800D01*
X189849020Y-105777600D02*
X190064400Y-105992980D01*
X226949000Y-149352000D02*
X226949000Y-149961600D01*
X238582200Y-144797600D02*
X238582200Y-146431000D01*
X175666400Y-144881600D02*
X175844200Y-144703800D01*
X210184802Y-108153200D02*
X211312998Y-108153200D01*
X213360000Y-132765800D02*
X214934800Y-131191000D01*
X211312998Y-108153200D02*
X212140602Y-107325596D01*
X193573400Y-138469350D02*
X192060850Y-138469350D01*
X196438100Y-149047200D02*
X198602600Y-149047200D01*
X206110114Y-118593800D02*
X208913300Y-118593800D01*
X233634600Y-127970600D02*
X232968800Y-127304800D01*
X231825800Y-108462100D02*
X231499700Y-108462100D01*
X225249200Y-148959400D02*
X226556400Y-148959400D01*
X217246200Y-140360400D02*
X218617800Y-141732000D01*
X190914200Y-114350800D02*
X190965000Y-114300000D01*
X233037200Y-102997000D02*
X233037200Y-105117100D01*
X231499700Y-108462100D02*
X231190800Y-108153200D01*
X189763400Y-106777600D02*
X191029400Y-106777600D01*
X202000800Y-128947900D02*
X201789700Y-129159000D01*
X210184802Y-112253196D02*
X211607202Y-112253196D01*
X204698600Y-99822000D02*
X205968600Y-99822000D01*
X233023700Y-107264200D02*
X231825800Y-108462100D01*
X200507600Y-149606000D02*
X201736200Y-150834600D01*
X216697000Y-143332200D02*
X214985600Y-143332200D01*
X175666400Y-146159400D02*
X175666400Y-144881600D01*
X217360800Y-127970600D02*
X214934800Y-130396600D01*
X190965000Y-114300000D02*
X189407800Y-114300000D01*
X187960000Y-99829800D02*
X187960000Y-98425000D01*
X181541600Y-131470400D02*
X181516200Y-131495800D01*
X189514400Y-106777600D02*
X189763400Y-106777600D01*
X189849020Y-106777600D02*
X189763400Y-106777600D01*
X213360000Y-132924800D02*
X213360000Y-132765800D01*
X189514400Y-105777600D02*
X188989400Y-105252600D01*
X173990000Y-150393400D02*
X172364400Y-150393400D01*
X221698000Y-105899400D02*
X222123000Y-106324400D01*
X212648800Y-115138200D02*
X212928200Y-115417600D01*
X198602600Y-149047200D02*
X198628000Y-149021800D01*
X180060402Y-137505004D02*
X180060402Y-136220398D01*
X208913300Y-118593800D02*
X208921900Y-118585200D01*
X190064400Y-105992980D02*
X190064400Y-106562220D01*
X224306600Y-144327600D02*
X224306600Y-143637800D01*
X190863400Y-117195600D02*
X190914200Y-117144800D01*
X172694600Y-130683000D02*
X177342800Y-130683000D01*
X191029400Y-106777600D02*
X191058800Y-106807000D01*
X193675000Y-100439400D02*
X193675000Y-98780600D01*
X211607202Y-112253196D02*
X211835802Y-112481796D01*
X238582200Y-146431000D02*
X238709200Y-146558000D01*
X180060402Y-136220398D02*
X180289200Y-135991600D01*
X231825800Y-108462100D02*
X231825800Y-110210600D01*
X224306600Y-143637800D02*
X225399600Y-142544800D01*
X189514400Y-105777600D02*
X189849020Y-105777600D01*
X208921900Y-118585200D02*
X211513200Y-118585200D01*
X214934800Y-130396600D02*
X214934800Y-131191000D01*
X187280500Y-110820200D02*
X187489400Y-110611300D01*
X232827200Y-149021800D02*
X234391200Y-149021800D01*
X196277800Y-121093800D02*
X195656200Y-120472200D01*
X217246200Y-140055600D02*
X217246200Y-140360400D01*
X233037200Y-100736400D02*
X233037200Y-102997000D01*
%TO.N,+BATT*%
X230033400Y-142831000D02*
X235806000Y-137058400D01*
X235991400Y-137058400D02*
X236093000Y-136956800D01*
X209880200Y-132664200D02*
X209880200Y-131743200D01*
X238582200Y-137718800D02*
X238582200Y-142722600D01*
X230033400Y-142831000D02*
X227108200Y-142831000D01*
X237820200Y-136956800D02*
X238582200Y-137718800D01*
X210794600Y-146862800D02*
X210174799Y-146862800D01*
X225552000Y-140843000D02*
X224028000Y-142367000D01*
X227108200Y-142831000D02*
X225552000Y-141274800D01*
X209600800Y-131463800D02*
X211233000Y-131463800D01*
X235991400Y-137058400D02*
X236194600Y-137058400D01*
X225552000Y-140182600D02*
X225552000Y-140843000D01*
X236093000Y-136956800D02*
X237820200Y-136956800D01*
X211233000Y-131463800D02*
X213817200Y-128879600D01*
X210174799Y-146862800D02*
X208915000Y-148122599D01*
X225552000Y-141274800D02*
X225552000Y-140182600D01*
X209880200Y-131743200D02*
X209600800Y-131463800D01*
%TO.N,Net-(U2-D)*%
X203034900Y-144932400D02*
X203034900Y-144527022D01*
X184495900Y-147650200D02*
X184561900Y-147716200D01*
X213030780Y-137541000D02*
X216806600Y-137541000D01*
X201663300Y-143560800D02*
X203034900Y-144932400D01*
X218639400Y-136587400D02*
X217246200Y-137980600D01*
X224586800Y-137490200D02*
X223684000Y-136587400D01*
X198399400Y-143560800D02*
X199782600Y-144944000D01*
X196519800Y-151206200D02*
X196519800Y-150078900D01*
X207061780Y-143510000D02*
X213030780Y-137541000D01*
X199782600Y-148892505D02*
X197468905Y-151206200D01*
X199782600Y-144944000D02*
X199782600Y-148892505D01*
X196418200Y-143560800D02*
X198399400Y-143560800D01*
X224586800Y-138150600D02*
X224586800Y-137490200D01*
X216806600Y-137541000D02*
X217246200Y-137980600D01*
X184561900Y-147716200D02*
X184561900Y-146055500D01*
X223684000Y-136587400D02*
X218639400Y-136587400D01*
X184561900Y-146055500D02*
X184505600Y-145999200D01*
X180213000Y-147650200D02*
X184495900Y-147650200D01*
X198399400Y-143560800D02*
X201663300Y-143560800D01*
X197468905Y-151206200D02*
X196519800Y-151206200D01*
X204051922Y-143510000D02*
X207061780Y-143510000D01*
X196519800Y-150078900D02*
X196438100Y-149997200D01*
X203034900Y-144527022D02*
X204051922Y-143510000D01*
%TO.N,+3V3*%
X201500800Y-128409486D02*
X200776686Y-129133600D01*
X188489400Y-105252600D02*
X188489400Y-104626600D01*
X209219800Y-135839200D02*
X209499200Y-136118600D01*
X189001400Y-104114600D02*
X190601600Y-102514400D01*
X175666400Y-148234400D02*
X175666400Y-149250400D01*
X204012800Y-114325400D02*
X203500800Y-114837400D01*
X235432600Y-107264200D02*
X236677200Y-108508800D01*
X182803800Y-101320600D02*
X184531000Y-99593400D01*
X201500800Y-127506300D02*
X201500800Y-128409486D01*
X206908400Y-132054600D02*
X208305400Y-133451600D01*
X189668400Y-135661400D02*
X189128400Y-135661400D01*
X215355800Y-105899400D02*
X212896000Y-105899400D01*
X207917800Y-139395200D02*
X207917800Y-137700000D01*
X207848200Y-135839200D02*
X209219800Y-135839200D01*
X186836900Y-147716200D02*
X186836900Y-144709300D01*
X234860800Y-125430600D02*
X234860800Y-126700600D01*
X235112200Y-100736400D02*
X235112200Y-102997000D01*
X234498200Y-126700600D02*
X233121200Y-125323600D01*
X235098700Y-107264200D02*
X235098700Y-105130600D01*
X235098700Y-107264200D02*
X235432600Y-107264200D01*
X206197200Y-132054600D02*
X206908400Y-132054600D01*
X203500800Y-114837400D02*
X203500800Y-116181300D01*
X189128400Y-135661400D02*
X188087000Y-134620000D01*
X208913300Y-125093800D02*
X210133000Y-125093800D01*
X195110700Y-121869200D02*
X195386100Y-121593800D01*
X189153800Y-144576800D02*
X189509400Y-144221200D01*
X208913300Y-118093800D02*
X209820200Y-118093800D01*
X235120000Y-100728600D02*
X235112200Y-100736400D01*
X210133000Y-125093800D02*
X210591400Y-125552200D01*
X195386100Y-121593800D02*
X197588300Y-121593800D01*
X191705250Y-133389350D02*
X191617600Y-133477000D01*
X184531000Y-99593400D02*
X184937400Y-99593400D01*
X214147400Y-111665000D02*
X214147400Y-109270800D01*
X190601600Y-102514400D02*
X193675000Y-102514400D01*
X234860800Y-126700600D02*
X234498200Y-126700600D01*
X192074800Y-126263400D02*
X192481200Y-125857000D01*
X207917800Y-137700000D02*
X209499200Y-136118600D01*
X200776686Y-129133600D02*
X199974200Y-129133600D01*
X192074800Y-127457200D02*
X192074800Y-126263400D01*
X186969400Y-144576800D02*
X189153800Y-144576800D01*
X235120000Y-98653600D02*
X235120000Y-100728600D01*
X188489400Y-104626600D02*
X189001400Y-104114600D01*
X209820200Y-118093800D02*
X210591400Y-117322600D01*
X186836900Y-144709300D02*
X186969400Y-144576800D01*
X175666400Y-149250400D02*
X176377600Y-149961600D01*
X212572600Y-100304600D02*
X212090000Y-99822000D01*
X235112200Y-105117100D02*
X235098700Y-105130600D01*
X212896000Y-105899400D02*
X212750400Y-106045000D01*
X193700400Y-133389350D02*
X191705250Y-133389350D01*
X235112200Y-102997000D02*
X235112200Y-105117100D01*
X212090000Y-99822000D02*
X207238600Y-99822000D01*
%TO.N,+1V8*%
X191297600Y-149997200D02*
X190474600Y-149174200D01*
X184925054Y-128790347D02*
X184137653Y-128790347D01*
X184137653Y-128790347D02*
X183616600Y-129311400D01*
X182880000Y-110261400D02*
X182702200Y-110083600D01*
X182702200Y-110083600D02*
X182702200Y-107664000D01*
X183616600Y-131470400D02*
X183591200Y-131495800D01*
X194163100Y-149997200D02*
X191297600Y-149997200D01*
X188188600Y-146888200D02*
X188188600Y-146685000D01*
X190474600Y-149174200D02*
X188188600Y-146888200D01*
X183616600Y-129311400D02*
X183616600Y-131470400D01*
%TO.N,Net-(U6-SETC)*%
X185191400Y-106277600D02*
X185191400Y-107653000D01*
X186964400Y-106277600D02*
X185191400Y-106277600D01*
%TO.N,Net-(U6-SETP)*%
X186385200Y-108084874D02*
X185191400Y-109278674D01*
X186629780Y-106777600D02*
X186385200Y-107022180D01*
X186964400Y-106777600D02*
X186629780Y-106777600D01*
X185191400Y-109278674D02*
X185191400Y-109728000D01*
X186385200Y-107022180D02*
X186385200Y-108084874D01*
%TO.N,Net-(U6-C1)*%
X187989400Y-105252600D02*
X187989400Y-101934200D01*
X187989400Y-101934200D02*
X187960000Y-101904800D01*
%TO.N,Net-(U11-~{RESET})*%
X209270600Y-116763800D02*
X209270600Y-115214400D01*
X205760114Y-117243800D02*
X207241200Y-117243800D01*
X211283800Y-126879600D02*
X213817200Y-126879600D01*
X209270600Y-115214400D02*
X209346800Y-115138200D01*
X210832700Y-127215900D02*
X211226400Y-126822200D01*
X207241200Y-117243800D02*
X209346800Y-115138200D01*
X211226400Y-126822200D02*
X211283800Y-126879600D01*
X205500800Y-116984486D02*
X205760114Y-117243800D01*
X209600800Y-128447800D02*
X210832700Y-127215900D01*
X205500800Y-116181300D02*
X205500800Y-116984486D01*
X209600800Y-129463800D02*
X209600800Y-128447800D01*
X209346800Y-113015196D02*
X208584800Y-112253196D01*
X208584800Y-112253196D02*
X208584800Y-108153200D01*
X209346800Y-115138200D02*
X209346800Y-113015196D01*
%TO.N,Net-(U11-VDDCORE)*%
X205007800Y-112907400D02*
X205666269Y-113565869D01*
X195816000Y-114300000D02*
X193040000Y-114300000D01*
X205666269Y-113565869D02*
X205666269Y-114780540D01*
X197208600Y-112907400D02*
X205007800Y-112907400D01*
X195816000Y-114300000D02*
X197208600Y-112907400D01*
X193014600Y-117449600D02*
X193014600Y-114325400D01*
X205000800Y-115378114D02*
X205000800Y-116181300D01*
X205598374Y-114780540D02*
X205000800Y-115378114D01*
X205666269Y-114780540D02*
X205598374Y-114780540D01*
X193014600Y-114325400D02*
X193040000Y-114300000D01*
%TO.N,Net-(D1-PadC)*%
X213106000Y-144989800D02*
X213106000Y-142824200D01*
%TO.N,Net-(SW1-B)*%
X232533400Y-144478800D02*
X232533400Y-142831000D01*
X230327200Y-149021800D02*
X230327200Y-146685000D01*
X230327200Y-146685000D02*
X232533400Y-144478800D01*
D49*
%TO.N,D+*%
X213436200Y-119024400D02*
X213309200Y-118897400D01*
X220904936Y-143339400D02*
X221132400Y-143339400D01*
X221132400Y-143339400D02*
X221453464Y-143339400D01*
X221453464Y-143339400D02*
X221679200Y-143565136D01*
X213309200Y-118897400D02*
X212318600Y-118897400D01*
X212318600Y-118897400D02*
X212122200Y-119093800D01*
X220679200Y-143565136D02*
X220904936Y-143339400D01*
X220679200Y-144214400D02*
X220679200Y-143565136D01*
X212122200Y-119093800D02*
X208913300Y-119093800D01*
X221132400Y-141960600D02*
X221208600Y-141884400D01*
X221132400Y-143339400D02*
X221132400Y-141960600D01*
X238683800Y-117957600D02*
X239496600Y-117144800D01*
X239496600Y-117144800D02*
X239496600Y-110871000D01*
X221679200Y-143565136D02*
X221679200Y-144214400D01*
%TO.N,D-*%
X212430800Y-119593800D02*
X208913300Y-119593800D01*
X212547200Y-119710200D02*
X212430800Y-119593800D01*
X238480600Y-115138200D02*
X238480600Y-116509800D01*
X238480600Y-116509800D02*
X238531400Y-116560600D01*
X220776800Y-145643600D02*
X220179200Y-145046000D01*
X221179200Y-144214400D02*
X221179200Y-145241200D01*
X221179200Y-145241200D02*
X220776800Y-145643600D01*
X220179200Y-145046000D02*
X220179200Y-142582200D01*
X220179200Y-142582200D02*
X220040200Y-142443200D01*
D47*
%TO.N,TMS*%
X207238600Y-105242000D02*
X205572000Y-106908600D01*
X205572000Y-106908600D02*
X202729500Y-106908600D01*
X202072033Y-114067143D02*
X202072033Y-114949347D01*
X202072033Y-114949347D02*
X202500800Y-115378114D01*
X202500800Y-115378114D02*
X202500800Y-116181300D01*
X207238600Y-103862000D02*
X207238600Y-105242000D01*
%TO.N,TCK*%
X203000800Y-113915000D02*
X203000800Y-116181300D01*
X205968600Y-103862000D02*
X205968600Y-105242000D01*
X205140200Y-106070400D02*
X203454000Y-106070400D01*
X205968600Y-105242000D02*
X205140200Y-106070400D01*
X203250800Y-113665000D02*
X203000800Y-113915000D01*
%TO.N,EX1*%
X187429105Y-119093800D02*
X187256105Y-119266800D01*
X178271000Y-119266800D02*
X178181000Y-119176800D01*
X197588300Y-119093800D02*
X187429105Y-119093800D01*
X187256105Y-119266800D02*
X178271000Y-119266800D01*
%TO.N,EX2*%
X197588300Y-119593800D02*
X187565501Y-119593800D01*
X187118901Y-120040400D02*
X183337200Y-120040400D01*
X187565501Y-119593800D02*
X187118901Y-120040400D01*
%TO.N,EX3*%
X196462701Y-124093800D02*
X196313501Y-124243000D01*
X184646400Y-124243000D02*
X183642000Y-125247400D01*
X196313501Y-124243000D02*
X184646400Y-124243000D01*
X197588300Y-124093800D02*
X196462701Y-124093800D01*
%TO.N,Net-(U11-VSW)*%
X203586486Y-117398800D02*
X199415114Y-117398800D01*
X199415114Y-117398800D02*
X197866000Y-115849686D01*
X204000800Y-116181300D02*
X204000800Y-116984486D01*
X197866000Y-115849686D02*
X197866000Y-114300000D01*
X204000800Y-116984486D02*
X203586486Y-117398800D01*
%TO.N,Net-(U1-STAT)*%
X208915000Y-150022601D02*
X213095799Y-150022601D01*
X213182200Y-149936200D02*
X213106000Y-149860000D01*
X213106000Y-149860000D02*
X213106000Y-146989800D01*
X213095799Y-150022601D02*
X213182200Y-149936200D01*
%TO.N,Net-(U1-PROG)*%
X203930801Y-150022601D02*
X202742800Y-148834600D01*
X206324200Y-150022601D02*
X203930801Y-150022601D01*
%TO.N,Net-(U3-EN)*%
X180247000Y-149616200D02*
X180213000Y-149650200D01*
X184561900Y-149616200D02*
X180247000Y-149616200D01*
%TO.N,Net-(U4-EN)*%
X196438100Y-145580700D02*
X196418200Y-145560800D01*
X196438100Y-148097200D02*
X196438100Y-145580700D01*
%TO.N,Net-(U5-'RESET)*%
X205758050Y-135929350D02*
X205848200Y-135839200D01*
X202514200Y-135929350D02*
X205758050Y-135929350D01*
%TO.N,SDA*%
X205511400Y-137414000D02*
X205790800Y-137693400D01*
X205536800Y-129413000D02*
X205500800Y-129377000D01*
X205296750Y-137199350D02*
X205511400Y-137414000D01*
X205511400Y-137414000D02*
X205917800Y-137820400D01*
X202514200Y-137199350D02*
X205296750Y-137199350D01*
X205500800Y-129377000D02*
X205500800Y-127506300D01*
X205917800Y-137820400D02*
X205917800Y-139395200D01*
%TO.N,SCL*%
X206000800Y-128734000D02*
X206000800Y-127506300D01*
X206335650Y-134659350D02*
X206933800Y-134061200D01*
X204197200Y-133687550D02*
X204197200Y-132054600D01*
X202514200Y-134659350D02*
X203225400Y-134659350D01*
X203225400Y-134659350D02*
X204197200Y-133687550D01*
X202514200Y-134659350D02*
X206335650Y-134659350D01*
X206527400Y-129260600D02*
X206000800Y-128734000D01*
%TO.N,Net-(U6-VDDIO)*%
X182626000Y-102971600D02*
X184004200Y-101593400D01*
X182626000Y-105587800D02*
X182626000Y-102971600D01*
X182815800Y-105777600D02*
X182702200Y-105664000D01*
X184004200Y-101593400D02*
X184937400Y-101593400D01*
X182702200Y-105664000D02*
X182626000Y-105587800D01*
X186964400Y-105777600D02*
X182815800Y-105777600D01*
%TO.N,Net-(U7-IO19)*%
X234860800Y-112730600D02*
X238073000Y-112730600D01*
X238073000Y-112730600D02*
X238480600Y-113138200D01*
%TO.N,Net-(U7-IO20)*%
X236907000Y-111460600D02*
X237496600Y-110871000D01*
X234860800Y-111460600D02*
X236907000Y-111460600D01*
%TO.N,ACCEL_CS*%
X194411600Y-130352800D02*
X194386200Y-130327400D01*
X193516000Y-129457200D02*
X192074800Y-129457200D01*
X194386200Y-130327400D02*
X193516000Y-129457200D01*
X207000800Y-127506300D02*
X207467200Y-127972700D01*
X194335400Y-110693200D02*
X194335400Y-110490000D01*
X194335400Y-110490000D02*
X193040000Y-109194600D01*
X188989400Y-107802600D02*
X190381400Y-109194600D01*
X207467200Y-127972700D02*
X207467200Y-130352800D01*
X207467200Y-130352800D02*
X194411600Y-130352800D01*
X190381400Y-109194600D02*
X193040000Y-109194600D01*
%TO.N,MCU_TX*%
X210068395Y-122890600D02*
X209771595Y-122593800D01*
X214147400Y-113665000D02*
X215620600Y-115138200D01*
X215620600Y-115138200D02*
X215620600Y-122890600D01*
X209771595Y-122593800D02*
X208913300Y-122593800D01*
X215620600Y-122890600D02*
X210068395Y-122890600D01*
X217360800Y-122890600D02*
X215620600Y-122890600D01*
%TO.N,Net-(U5-VCC)*%
X193206350Y-137199350D02*
X191668400Y-135661400D01*
X193573400Y-137199350D02*
X193206350Y-137199350D01*
%TO.N,Net-(SW2-B)*%
X225355400Y-104324400D02*
X225577400Y-104546400D01*
X219430800Y-104324400D02*
X225355400Y-104324400D01*
X217855800Y-105899400D02*
X219430800Y-104324400D01*
%TO.N,GPS_WAKEUP*%
X204465050Y-140420200D02*
X204040100Y-140845150D01*
X204040100Y-140845150D02*
X204040100Y-142290800D01*
X208652000Y-140420200D02*
X211582000Y-137490200D01*
X210503200Y-121093800D02*
X208913300Y-121093800D01*
X204465050Y-140420200D02*
X208652000Y-140420200D01*
X211226400Y-120370600D02*
X210503200Y-121093800D01*
X202514200Y-138469350D02*
X204465050Y-140420200D01*
%TO.N,SCREEN_CS*%
X172694600Y-128143000D02*
X178765200Y-128143000D01*
X202500800Y-127506300D02*
X202500800Y-128309486D01*
X193608105Y-128524000D02*
X185683305Y-128524000D01*
X202500800Y-128309486D02*
X202514200Y-128322886D01*
X185683305Y-128524000D02*
X183244905Y-126085600D01*
X194986905Y-129902800D02*
X193608105Y-128524000D01*
X202514200Y-129902800D02*
X194986905Y-129902800D01*
X178765200Y-128143000D02*
X180822600Y-126085600D01*
X202514200Y-128322886D02*
X202514200Y-129902800D01*
X183244905Y-126085600D02*
X180822600Y-126085600D01*
%TO.N,SCLK*%
X208902700Y-124104400D02*
X208913300Y-124093800D01*
X186715400Y-109880400D02*
X186964400Y-109631400D01*
X194970400Y-124968000D02*
X195173600Y-125171200D01*
X185851800Y-118541800D02*
X185293000Y-117983000D01*
X185851800Y-124968000D02*
X194970400Y-124968000D01*
X207391000Y-124104400D02*
X208902700Y-124104400D01*
X186964400Y-109631400D02*
X186964400Y-107277600D01*
X185293000Y-117983000D02*
X172694600Y-117983000D01*
%TO.N,to_MOSI*%
X188410600Y-112108400D02*
X188061600Y-112457400D01*
X188810300Y-110083600D02*
X187989400Y-109262700D01*
X182383600Y-112457400D02*
X182321200Y-112395000D01*
X181864000Y-120878600D02*
X181508400Y-120523000D01*
X206500800Y-116181300D02*
X206500800Y-113181200D01*
X181508400Y-120523000D02*
X172694600Y-120523000D01*
X188061600Y-112457400D02*
X182383600Y-112457400D01*
X187989400Y-109262700D02*
X187989400Y-107802600D01*
X206500800Y-113181200D02*
X205428000Y-112108400D01*
X205428000Y-112108400D02*
X188410600Y-112108400D01*
%TO.N,to_MISO*%
X207000800Y-116181300D02*
X207000800Y-113044804D01*
X173939200Y-111658400D02*
X172694600Y-112903000D01*
X188544200Y-111658400D02*
X173939200Y-111658400D01*
X189534800Y-109182620D02*
X188489400Y-108137220D01*
X189534800Y-110667800D02*
X189534800Y-109182620D01*
X188489400Y-108137220D02*
X188489400Y-107802600D01*
X207000800Y-113044804D02*
X205614396Y-111658400D01*
X205614396Y-111658400D02*
X188544200Y-111658400D01*
X188544200Y-111658400D02*
X189534800Y-110667800D01*
%TO.N,MCU_RX*%
X214802400Y-124160600D02*
X214706200Y-124256800D01*
X217360800Y-124160600D02*
X214802400Y-124160600D01*
X214634000Y-122093800D02*
X208913300Y-122093800D01*
X214680800Y-122047000D02*
X214634000Y-122093800D01*
%TO.N,SCREEN_LED*%
X176885600Y-115443000D02*
X172694600Y-115443000D01*
X177063400Y-115620800D02*
X176885600Y-115443000D01*
X177145000Y-123093800D02*
X177038000Y-122986800D01*
X197588300Y-123093800D02*
X177145000Y-123093800D01*
%TO.N,SCREEN_D{slash}C*%
X196222105Y-123698000D02*
X186586600Y-123698000D01*
X197588300Y-123593800D02*
X196326305Y-123593800D01*
X173343400Y-123711800D02*
X172694600Y-123063000D01*
X186572800Y-123711800D02*
X173343400Y-123711800D01*
X186586600Y-123698000D02*
X186572800Y-123711800D01*
X196326305Y-123593800D02*
X196222105Y-123698000D01*
%TO.N,Net-(U8-RESET)*%
X176961800Y-125603000D02*
X172694600Y-125603000D01*
X177038000Y-125679200D02*
X176961800Y-125603000D01*
X178460400Y-137505004D02*
X178460400Y-137490200D01*
X178460400Y-137490200D02*
X177139600Y-136169400D01*
%TO.N,Net-(U7-IO0)*%
X223665800Y-108458000D02*
X217678000Y-108458000D01*
X217678000Y-108458000D02*
X217360800Y-108775200D01*
X217360800Y-108775200D02*
X217360800Y-111460600D01*
X225577400Y-106546400D02*
X223665800Y-108458000D01*
%TD*%
%TA.AperFunction,Conductor*%
%TO.N,GND*%
G36*
X201137152Y-131515485D02*
G01*
X201182907Y-131568289D01*
X201194110Y-131619083D01*
X201231150Y-138045448D01*
X201243484Y-140185386D01*
X201224186Y-140252538D01*
X201171647Y-140298597D01*
X201119986Y-140310100D01*
X195068786Y-140334500D01*
X195001668Y-140315086D01*
X194955700Y-140262467D01*
X194944288Y-140211216D01*
X194927417Y-137275550D01*
X197154800Y-137275550D01*
X197174227Y-137460383D01*
X197231658Y-137637139D01*
X197324584Y-137798091D01*
X197448943Y-137936206D01*
X197549181Y-138009033D01*
X197599301Y-138045448D01*
X197664476Y-138074464D01*
X197769084Y-138121039D01*
X197950874Y-138159680D01*
X198136726Y-138159680D01*
X198318516Y-138121039D01*
X198488300Y-138045447D01*
X198638657Y-137936206D01*
X198763016Y-137798091D01*
X198855942Y-137637139D01*
X198913373Y-137460383D01*
X198932800Y-137275550D01*
X198913373Y-137090717D01*
X198855942Y-136913961D01*
X198763016Y-136753009D01*
X198638657Y-136614894D01*
X198638656Y-136614893D01*
X198636908Y-136613319D01*
X198636234Y-136612645D01*
X198631757Y-136608613D01*
X198483140Y-136500636D01*
X198315326Y-136425922D01*
X198184146Y-136398039D01*
X198135647Y-136387731D01*
X197951953Y-136387731D01*
X197913762Y-136395848D01*
X197772273Y-136425922D01*
X197772272Y-136425922D01*
X197604458Y-136500637D01*
X197604457Y-136500638D01*
X197455845Y-136608610D01*
X197451414Y-136612600D01*
X197450731Y-136613282D01*
X197448951Y-136614885D01*
X197324583Y-136753010D01*
X197231657Y-136913962D01*
X197174227Y-137090715D01*
X197174227Y-137090717D01*
X197154800Y-137275550D01*
X194927417Y-137275550D01*
X194894917Y-131620513D01*
X194914216Y-131553361D01*
X194966756Y-131507304D01*
X195018915Y-131495800D01*
X201070113Y-131495800D01*
X201137152Y-131515485D01*
G37*
%TD.AperFunction*%
%TD*%
M02*
