%TF.GenerationSoftware,KiCad,Pcbnew,8.0.7*%
%TF.CreationDate,2024-12-23T22:44:12-05:00*%
%TF.ProjectId,OverSoon,4f766572-536f-46f6-9e2e-6b696361645f,rev?*%
%TF.SameCoordinates,Original*%
%TF.FileFunction,Drillmap*%
%TF.FilePolarity,Positive*%
%FSLAX45Y45*%
G04 Gerber Fmt 4.5, Leading zero omitted, Abs format (unit mm)*
G04 Created by KiCad (PCBNEW 8.0.7) date 2024-12-23 22:44:12*
%MOMM*%
%LPD*%
G01*
G04 APERTURE LIST*
%ADD10C,0.100000*%
%ADD11C,0.200000*%
%ADD12C,0.105000*%
G04 APERTURE END LIST*
D10*
X17005310Y-9770620D02*
X17005310Y-15120620D01*
X24076650Y-15123820D02*
X24076650Y-9773820D01*
X17105310Y-15220620D02*
G75*
G02*
X17005310Y-15120620I0J100000D01*
G01*
X23976650Y-9673820D02*
G75*
G02*
X24076650Y-9773820I0J-100000D01*
G01*
X17105310Y-15220620D02*
X23976650Y-15223820D01*
X17005310Y-9770620D02*
G75*
G02*
X17105310Y-9670620I100000J0D01*
G01*
X24076650Y-15123820D02*
G75*
G02*
X23976650Y-15223820I-100000J0D01*
G01*
X23976650Y-9673820D02*
X17105310Y-9670620D01*
D11*
D10*
X17424720Y-14973620D02*
X17464720Y-15013620D01*
X17464720Y-14973620D02*
X17424720Y-15013620D01*
X17493300Y-13302300D02*
X17533300Y-13342300D01*
X17533300Y-13302300D02*
X17493300Y-13342300D01*
X17564420Y-14450380D02*
X17604420Y-14490380D01*
X17604420Y-14450380D02*
X17564420Y-14490380D01*
X17617760Y-14976160D02*
X17657760Y-15016160D01*
X17657760Y-14976160D02*
X17617760Y-15016160D01*
X17683800Y-12278680D02*
X17723800Y-12318680D01*
X17723800Y-12278680D02*
X17683800Y-12318680D01*
X17683800Y-12547920D02*
X17723800Y-12587920D01*
X17723800Y-12547920D02*
X17683800Y-12587920D01*
X17686340Y-11542080D02*
X17726340Y-11582080D01*
X17726340Y-11542080D02*
X17686340Y-11582080D01*
X17693960Y-13596940D02*
X17733960Y-13636940D01*
X17733960Y-13596940D02*
X17693960Y-13636940D01*
X17798100Y-11897680D02*
X17838100Y-11937680D01*
X17838100Y-11897680D02*
X17798100Y-11937680D01*
X17960660Y-13294680D02*
X18000660Y-13334680D01*
X18000660Y-13294680D02*
X17960660Y-13334680D01*
X18008920Y-13579160D02*
X18048920Y-13619160D01*
X18048920Y-13579160D02*
X18008920Y-13619160D01*
X18166400Y-12067860D02*
X18206400Y-12107860D01*
X18206400Y-12067860D02*
X18166400Y-12107860D01*
X18212120Y-11219500D02*
X18252120Y-11259500D01*
X18252120Y-11219500D02*
X18212120Y-11259500D01*
X18229900Y-14841540D02*
X18269900Y-14881540D01*
X18269900Y-14841540D02*
X18229900Y-14881540D01*
X18260380Y-10112060D02*
X18300380Y-10152060D01*
X18300380Y-10112060D02*
X18260380Y-10152060D01*
X18268000Y-11006140D02*
X18308000Y-11046140D01*
X18308000Y-11006140D02*
X18268000Y-11046140D01*
X18313720Y-11984040D02*
X18353720Y-12024040D01*
X18353720Y-11984040D02*
X18313720Y-12024040D01*
X18344200Y-12504740D02*
X18384200Y-12544740D01*
X18384200Y-12504740D02*
X18344200Y-12544740D01*
X18430560Y-14579920D02*
X18470560Y-14619920D01*
X18470560Y-14579920D02*
X18430560Y-14619920D01*
X18472505Y-12859035D02*
X18512505Y-12899035D01*
X18512505Y-12859035D02*
X18472505Y-12899035D01*
X18565180Y-11834180D02*
X18605180Y-11874180D01*
X18605180Y-11834180D02*
X18565180Y-11874180D01*
X18565180Y-12476800D02*
X18605180Y-12516800D01*
X18605180Y-12476800D02*
X18565180Y-12516800D01*
X18651540Y-10968040D02*
X18691540Y-11008040D01*
X18691540Y-10968040D02*
X18651540Y-11008040D01*
X18674400Y-10391460D02*
X18714400Y-10431460D01*
X18714400Y-10391460D02*
X18674400Y-10431460D01*
X18704880Y-11062020D02*
X18744880Y-11102020D01*
X18744880Y-11062020D02*
X18704880Y-11102020D01*
X18781080Y-9817420D02*
X18821080Y-9857420D01*
X18821080Y-9817420D02*
X18781080Y-9857420D01*
X18786160Y-11225740D02*
X18826160Y-11265740D01*
X18826160Y-11225740D02*
X18786160Y-11265740D01*
X18788700Y-13442000D02*
X18828700Y-13482000D01*
X18828700Y-13442000D02*
X18788700Y-13482000D01*
X18798860Y-14648500D02*
X18838860Y-14688500D01*
X18838860Y-14648500D02*
X18798860Y-14688500D01*
X18861030Y-10988360D02*
X18901030Y-11028360D01*
X18901030Y-10988360D02*
X18861030Y-11028360D01*
X18880140Y-10391460D02*
X18920140Y-10431460D01*
X18920140Y-10391460D02*
X18880140Y-10431460D01*
X18920780Y-11410000D02*
X18960780Y-11450000D01*
X18960780Y-11410000D02*
X18920780Y-11450000D01*
X18930940Y-14402120D02*
X18970940Y-14442120D01*
X18970940Y-14402120D02*
X18930940Y-14442120D01*
X19085880Y-10660700D02*
X19125880Y-10700700D01*
X19125880Y-10660700D02*
X19085880Y-10700700D01*
X19141760Y-13327700D02*
X19181760Y-13367700D01*
X19181760Y-13327700D02*
X19141760Y-13367700D01*
X19169700Y-13843320D02*
X19209700Y-13883320D01*
X19209700Y-13843320D02*
X19169700Y-13883320D01*
X19228120Y-12565700D02*
X19268120Y-12605700D01*
X19268120Y-12565700D02*
X19228120Y-12605700D01*
X19337340Y-9847900D02*
X19377340Y-9887900D01*
X19377340Y-9847900D02*
X19337340Y-9887900D01*
X19413540Y-11049320D02*
X19453540Y-11089320D01*
X19453540Y-11049320D02*
X19413540Y-11089320D01*
X19418620Y-13012740D02*
X19458620Y-13052740D01*
X19458620Y-13012740D02*
X19418620Y-13052740D01*
X19491070Y-12166920D02*
X19531070Y-12206920D01*
X19531070Y-12166920D02*
X19491070Y-12206920D01*
X19497360Y-12497120D02*
X19537360Y-12537120D01*
X19537360Y-12497120D02*
X19497360Y-12537120D01*
X19540540Y-13939840D02*
X19580540Y-13979840D01*
X19580540Y-13939840D02*
X19540540Y-13979840D01*
X19543080Y-13205780D02*
X19583080Y-13245780D01*
X19583080Y-13205780D02*
X19543080Y-13245780D01*
X19545620Y-12027220D02*
X19585620Y-12067220D01*
X19585620Y-12027220D02*
X19545620Y-12067220D01*
X19631980Y-15100620D02*
X19671980Y-15140620D01*
X19671980Y-15100620D02*
X19631980Y-15140620D01*
X19842800Y-14882180D02*
X19882800Y-14922180D01*
X19882800Y-14882180D02*
X19842800Y-14922180D01*
X19977420Y-12893360D02*
X20017420Y-12933360D01*
X20017420Y-12893360D02*
X19977420Y-12933360D01*
X20002820Y-13952540D02*
X20042820Y-13992540D01*
X20042820Y-13952540D02*
X20002820Y-13992540D01*
X20015520Y-13203240D02*
X20055520Y-13243240D01*
X20055520Y-13203240D02*
X20015520Y-13243240D01*
X20030760Y-14940600D02*
X20070760Y-14980600D01*
X20070760Y-14940600D02*
X20030760Y-14980600D01*
X20158970Y-12895900D02*
X20198970Y-12935900D01*
X20198970Y-12895900D02*
X20158970Y-12935900D01*
X20187203Y-11386714D02*
X20227203Y-11426714D01*
X20227203Y-11386714D02*
X20187203Y-11426714D01*
X20252950Y-10670860D02*
X20292950Y-10710860D01*
X20292950Y-10670860D02*
X20252950Y-10710860D01*
X20305080Y-11346500D02*
X20345080Y-11386500D01*
X20345080Y-11346500D02*
X20305080Y-11386500D01*
X20325400Y-10587040D02*
X20365400Y-10627040D01*
X20365400Y-10587040D02*
X20325400Y-10627040D01*
X20381280Y-11412540D02*
X20421280Y-11452540D01*
X20421280Y-11412540D02*
X20381280Y-11452540D01*
X20533680Y-12921300D02*
X20573680Y-12961300D01*
X20573680Y-12921300D02*
X20533680Y-12961300D01*
X20559080Y-13749340D02*
X20599080Y-13789340D01*
X20599080Y-13749340D02*
X20559080Y-13789340D01*
X20632740Y-12906060D02*
X20672740Y-12946060D01*
X20672740Y-12906060D02*
X20632740Y-12946060D01*
X20673380Y-13386120D02*
X20713380Y-13426120D01*
X20713380Y-13386120D02*
X20673380Y-13426120D01*
X20719100Y-12390440D02*
X20759100Y-12430440D01*
X20759100Y-12390440D02*
X20719100Y-12430440D01*
X20810540Y-13325160D02*
X20850540Y-13365160D01*
X20850540Y-13325160D02*
X20810540Y-13365160D01*
X20904520Y-12649520D02*
X20944520Y-12689520D01*
X20944520Y-12649520D02*
X20904520Y-12689520D01*
X20907060Y-11656380D02*
X20947060Y-11696380D01*
X20947060Y-11656380D02*
X20907060Y-11696380D01*
X20929920Y-13591860D02*
X20969920Y-13631860D01*
X20969920Y-13591860D02*
X20929920Y-13631860D01*
X20968020Y-13246420D02*
X21008020Y-13286420D01*
X21008020Y-13246420D02*
X20968020Y-13286420D01*
X21039140Y-11712260D02*
X21079140Y-11752260D01*
X21079140Y-11712260D02*
X21039140Y-11752260D01*
X21039140Y-12535220D02*
X21079140Y-12575220D01*
X21079140Y-12535220D02*
X21039140Y-12575220D01*
X21059460Y-14666280D02*
X21099460Y-14706280D01*
X21099460Y-14666280D02*
X21059460Y-14706280D01*
X21063270Y-12701590D02*
X21103270Y-12741590D01*
X21103270Y-12701590D02*
X21063270Y-12741590D01*
X21102640Y-12017060D02*
X21142640Y-12057060D01*
X21142640Y-12017060D02*
X21102640Y-12057060D01*
X21112800Y-14887260D02*
X21152800Y-14927260D01*
X21152800Y-14887260D02*
X21112800Y-14927260D01*
X21138200Y-13729020D02*
X21178200Y-13769020D01*
X21178200Y-13729020D02*
X21138200Y-13769020D01*
X21143280Y-11811070D02*
X21183280Y-11851070D01*
X21183280Y-11811070D02*
X21143280Y-11851070D01*
X21163580Y-11228180D02*
X21203580Y-11268180D01*
X21203580Y-11228180D02*
X21163580Y-11268180D01*
X21194060Y-10712560D02*
X21234060Y-10752560D01*
X21234060Y-10712560D02*
X21194060Y-10752560D01*
X21234720Y-11951020D02*
X21274720Y-11991020D01*
X21274720Y-11951020D02*
X21234720Y-11991020D01*
X21237260Y-10010460D02*
X21277260Y-10050460D01*
X21277260Y-10010460D02*
X21237260Y-10050460D01*
X21255040Y-10584500D02*
X21295040Y-10624500D01*
X21295040Y-10584500D02*
X21255040Y-10624500D01*
X21272820Y-11521760D02*
X21312820Y-11561760D01*
X21312820Y-11521760D02*
X21272820Y-11561760D01*
X21323620Y-11882440D02*
X21363620Y-11922440D01*
X21363620Y-11882440D02*
X21323620Y-11922440D01*
X21394740Y-10907080D02*
X21434740Y-10947080D01*
X21434740Y-10907080D02*
X21394740Y-10947080D01*
X21448080Y-12184700D02*
X21488080Y-12224700D01*
X21488080Y-12184700D02*
X21448080Y-12224700D01*
X21450620Y-12405680D02*
X21490620Y-12445680D01*
X21490620Y-12405680D02*
X21450620Y-12445680D01*
X21468400Y-13571540D02*
X21508400Y-13611540D01*
X21508400Y-13571540D02*
X21468400Y-13611540D01*
X21473480Y-13099100D02*
X21513480Y-13139100D01*
X21513480Y-13099100D02*
X21473480Y-13139100D01*
X21478560Y-14313220D02*
X21518560Y-14353220D01*
X21518560Y-14313220D02*
X21478560Y-14353220D01*
X21519200Y-14043980D02*
X21559200Y-14083980D01*
X21559200Y-14043980D02*
X21519200Y-14083980D01*
X21841780Y-14153200D02*
X21881780Y-14193200D01*
X21881780Y-14153200D02*
X21841780Y-14193200D01*
X21984020Y-14224320D02*
X22024020Y-14264320D01*
X22024020Y-14224320D02*
X21984020Y-14264320D01*
X22100860Y-14168440D02*
X22140860Y-14208440D01*
X22140860Y-14168440D02*
X22100860Y-14208440D01*
X22192300Y-10612440D02*
X22232300Y-10652440D01*
X22232300Y-10612440D02*
X22192300Y-10652440D01*
X22253260Y-13711240D02*
X22293260Y-13751240D01*
X22293260Y-13711240D02*
X22253260Y-13751240D01*
X22382800Y-14216700D02*
X22422800Y-14256700D01*
X22422800Y-14216700D02*
X22382800Y-14256700D01*
X22519960Y-14234480D02*
X22559960Y-14274480D01*
X22559960Y-14234480D02*
X22519960Y-14274480D01*
X22674900Y-14976160D02*
X22714900Y-15016160D01*
X22714900Y-14976160D02*
X22674900Y-15016160D01*
X23099080Y-10795320D02*
X23139080Y-10835320D01*
X23139080Y-10795320D02*
X23099080Y-10835320D01*
X23276880Y-12710480D02*
X23316880Y-12750480D01*
X23316880Y-12710480D02*
X23276880Y-12750480D01*
X23292120Y-12512360D02*
X23332120Y-12552360D01*
X23332120Y-12512360D02*
X23292120Y-12552360D01*
X23614700Y-14686600D02*
X23654700Y-14726600D01*
X23654700Y-14686600D02*
X23614700Y-14726600D01*
X23647720Y-10830880D02*
X23687720Y-10870880D01*
X23687720Y-10830880D02*
X23647720Y-10870880D01*
X23833140Y-11636060D02*
X23873140Y-11676060D01*
X23873140Y-11636060D02*
X23833140Y-11676060D01*
X23848380Y-11775760D02*
X23888380Y-11815760D01*
X23888380Y-11775760D02*
X23848380Y-11815760D01*
X23850920Y-14635800D02*
X23890920Y-14675800D01*
X23890920Y-14635800D02*
X23850920Y-14675800D01*
X22646080Y-11955060D02*
G75*
G02*
X22596080Y-11955060I-25000J0D01*
G01*
X22596080Y-11955060D02*
G75*
G02*
X22646080Y-11955060I25000J0D01*
G01*
X22646080Y-12095060D02*
G75*
G02*
X22596080Y-12095060I-25000J0D01*
G01*
X22596080Y-12095060D02*
G75*
G02*
X22646080Y-12095060I25000J0D01*
G01*
X22716080Y-11885060D02*
G75*
G02*
X22666080Y-11885060I-25000J0D01*
G01*
X22666080Y-11885060D02*
G75*
G02*
X22716080Y-11885060I25000J0D01*
G01*
X22716080Y-12025060D02*
G75*
G02*
X22666080Y-12025060I-25000J0D01*
G01*
X22666080Y-12025060D02*
G75*
G02*
X22716080Y-12025060I25000J0D01*
G01*
X22716080Y-12165060D02*
G75*
G02*
X22666080Y-12165060I-25000J0D01*
G01*
X22666080Y-12165060D02*
G75*
G02*
X22716080Y-12165060I25000J0D01*
G01*
X22786080Y-11955060D02*
G75*
G02*
X22736080Y-11955060I-25000J0D01*
G01*
X22736080Y-11955060D02*
G75*
G02*
X22786080Y-11955060I25000J0D01*
G01*
X22786080Y-12095060D02*
G75*
G02*
X22736080Y-12095060I-25000J0D01*
G01*
X22736080Y-12095060D02*
G75*
G02*
X22786080Y-12095060I25000J0D01*
G01*
X22856080Y-11885060D02*
G75*
G02*
X22806080Y-11885060I-25000J0D01*
G01*
X22806080Y-11885060D02*
G75*
G02*
X22856080Y-11885060I25000J0D01*
G01*
X22856080Y-12025060D02*
G75*
G02*
X22806080Y-12025060I-25000J0D01*
G01*
X22806080Y-12025060D02*
G75*
G02*
X22856080Y-12025060I25000J0D01*
G01*
X22856080Y-12165060D02*
G75*
G02*
X22806080Y-12165060I-25000J0D01*
G01*
X22806080Y-12165060D02*
G75*
G02*
X22856080Y-12165060I25000J0D01*
G01*
X22926080Y-11955060D02*
G75*
G02*
X22876080Y-11955060I-25000J0D01*
G01*
X22876080Y-11955060D02*
G75*
G02*
X22926080Y-11955060I25000J0D01*
G01*
X22926080Y-12095060D02*
G75*
G02*
X22876080Y-12095060I-25000J0D01*
G01*
X22876080Y-12095060D02*
G75*
G02*
X22926080Y-12095060I25000J0D01*
G01*
X21663660Y-14459260D02*
X21663660Y-14519260D01*
X21633660Y-14489260D02*
X21693660Y-14489260D01*
X21633660Y-14434260D02*
X21633660Y-14544260D01*
X21693660Y-14544260D02*
G75*
G02*
X21633660Y-14544260I-30000J0D01*
G01*
X21693660Y-14544260D02*
X21693660Y-14434260D01*
X21693660Y-14434260D02*
G75*
G03*
X21633660Y-14434260I-30000J0D01*
G01*
X21663660Y-14877260D02*
X21663660Y-14937260D01*
X21633660Y-14907260D02*
X21693660Y-14907260D01*
X21633660Y-14877260D02*
X21633660Y-14937260D01*
X21693660Y-14937260D02*
G75*
G02*
X21633660Y-14937260I-30000J0D01*
G01*
X21693660Y-14937260D02*
X21693660Y-14877260D01*
X21693660Y-14877260D02*
G75*
G03*
X21633660Y-14877260I-30000J0D01*
G01*
X22527660Y-14459260D02*
X22527660Y-14519260D01*
X22497660Y-14489260D02*
X22557660Y-14489260D01*
X22497660Y-14434260D02*
X22497660Y-14544260D01*
X22557660Y-14544260D02*
G75*
G02*
X22497660Y-14544260I-30000J0D01*
G01*
X22557660Y-14544260D02*
X22557660Y-14434260D01*
X22557660Y-14434260D02*
G75*
G03*
X22497660Y-14434260I-30000J0D01*
G01*
X22527660Y-14877260D02*
X22527660Y-14937260D01*
X22497660Y-14907260D02*
X22557660Y-14907260D01*
X22497660Y-14877260D02*
X22497660Y-14937260D01*
X22557660Y-14937260D02*
G75*
G02*
X22497660Y-14937260I-30000J0D01*
G01*
X22557660Y-14937260D02*
X22557660Y-14877260D01*
X22557660Y-14877260D02*
G75*
G03*
X22497660Y-14877260I-30000J0D01*
G01*
X17304816Y-10055656D02*
X17304816Y-9984944D01*
X17234104Y-9984944D01*
X17234104Y-10055656D01*
X17304816Y-10055656D01*
X17304816Y-10309656D02*
X17304816Y-10238944D01*
X17234104Y-10238944D01*
X17234104Y-10309656D01*
X17304816Y-10309656D01*
X17304816Y-10563656D02*
X17304816Y-10492944D01*
X17234104Y-10492944D01*
X17234104Y-10563656D01*
X17304816Y-10563656D01*
X17304816Y-10817656D02*
X17304816Y-10746944D01*
X17234104Y-10746944D01*
X17234104Y-10817656D01*
X17304816Y-10817656D01*
X17304816Y-11071656D02*
X17304816Y-11000944D01*
X17234104Y-11000944D01*
X17234104Y-11071656D01*
X17304816Y-11071656D01*
X17304816Y-11325656D02*
X17304816Y-11254944D01*
X17234104Y-11254944D01*
X17234104Y-11325656D01*
X17304816Y-11325656D01*
X17304816Y-11579656D02*
X17304816Y-11508944D01*
X17234104Y-11508944D01*
X17234104Y-11579656D01*
X17304816Y-11579656D01*
X17304816Y-11833656D02*
X17304816Y-11762944D01*
X17234104Y-11762944D01*
X17234104Y-11833656D01*
X17304816Y-11833656D01*
X17304816Y-12087656D02*
X17304816Y-12016944D01*
X17234104Y-12016944D01*
X17234104Y-12087656D01*
X17304816Y-12087656D01*
X17304816Y-12341656D02*
X17304816Y-12270944D01*
X17234104Y-12270944D01*
X17234104Y-12341656D01*
X17304816Y-12341656D01*
X17304816Y-12595656D02*
X17304816Y-12524944D01*
X17234104Y-12524944D01*
X17234104Y-12595656D01*
X17304816Y-12595656D01*
X17304816Y-12849656D02*
X17304816Y-12778944D01*
X17234104Y-12778944D01*
X17234104Y-12849656D01*
X17304816Y-12849656D01*
X17304816Y-13103656D02*
X17304816Y-13032944D01*
X17234104Y-13032944D01*
X17234104Y-13103656D01*
X17304816Y-13103656D01*
X17304816Y-13357656D02*
X17304816Y-13286944D01*
X17234104Y-13286944D01*
X17234104Y-13357656D01*
X17304816Y-13357656D01*
X17309896Y-13858036D02*
X17309896Y-13787324D01*
X17239184Y-13787324D01*
X17239184Y-13858036D01*
X17309896Y-13858036D01*
X17309896Y-14112036D02*
X17309896Y-14041324D01*
X17239184Y-14041324D01*
X17239184Y-14112036D01*
X17309896Y-14112036D01*
X17309896Y-14366036D02*
X17309896Y-14295324D01*
X17239184Y-14295324D01*
X17239184Y-14366036D01*
X17309896Y-14366036D01*
D12*
X23032720Y-14954680D02*
X23085220Y-14902180D01*
X23032720Y-14849680D01*
X22980220Y-14902180D01*
X23032720Y-14954680D01*
X23282720Y-14954680D02*
X23335220Y-14902180D01*
X23282720Y-14849680D01*
X23230220Y-14902180D01*
X23282720Y-14954680D01*
D11*
X17261087Y-15540304D02*
X17261087Y-15340304D01*
X17261087Y-15340304D02*
X17308706Y-15340304D01*
X17308706Y-15340304D02*
X17337277Y-15349828D01*
X17337277Y-15349828D02*
X17356325Y-15368875D01*
X17356325Y-15368875D02*
X17365849Y-15387923D01*
X17365849Y-15387923D02*
X17375373Y-15426018D01*
X17375373Y-15426018D02*
X17375373Y-15454589D01*
X17375373Y-15454589D02*
X17365849Y-15492685D01*
X17365849Y-15492685D02*
X17356325Y-15511732D01*
X17356325Y-15511732D02*
X17337277Y-15530780D01*
X17337277Y-15530780D02*
X17308706Y-15540304D01*
X17308706Y-15540304D02*
X17261087Y-15540304D01*
X17461087Y-15540304D02*
X17461087Y-15406970D01*
X17461087Y-15445066D02*
X17470611Y-15426018D01*
X17470611Y-15426018D02*
X17480134Y-15416494D01*
X17480134Y-15416494D02*
X17499182Y-15406970D01*
X17499182Y-15406970D02*
X17518230Y-15406970D01*
X17584896Y-15540304D02*
X17584896Y-15406970D01*
X17584896Y-15340304D02*
X17575373Y-15349828D01*
X17575373Y-15349828D02*
X17584896Y-15359351D01*
X17584896Y-15359351D02*
X17594420Y-15349828D01*
X17594420Y-15349828D02*
X17584896Y-15340304D01*
X17584896Y-15340304D02*
X17584896Y-15359351D01*
X17708706Y-15540304D02*
X17689658Y-15530780D01*
X17689658Y-15530780D02*
X17680134Y-15511732D01*
X17680134Y-15511732D02*
X17680134Y-15340304D01*
X17813468Y-15540304D02*
X17794420Y-15530780D01*
X17794420Y-15530780D02*
X17784896Y-15511732D01*
X17784896Y-15511732D02*
X17784896Y-15340304D01*
X18042039Y-15540304D02*
X18042039Y-15340304D01*
X18042039Y-15340304D02*
X18108706Y-15483161D01*
X18108706Y-15483161D02*
X18175373Y-15340304D01*
X18175373Y-15340304D02*
X18175373Y-15540304D01*
X18356325Y-15540304D02*
X18356325Y-15435542D01*
X18356325Y-15435542D02*
X18346801Y-15416494D01*
X18346801Y-15416494D02*
X18327754Y-15406970D01*
X18327754Y-15406970D02*
X18289658Y-15406970D01*
X18289658Y-15406970D02*
X18270611Y-15416494D01*
X18356325Y-15530780D02*
X18337277Y-15540304D01*
X18337277Y-15540304D02*
X18289658Y-15540304D01*
X18289658Y-15540304D02*
X18270611Y-15530780D01*
X18270611Y-15530780D02*
X18261087Y-15511732D01*
X18261087Y-15511732D02*
X18261087Y-15492685D01*
X18261087Y-15492685D02*
X18270611Y-15473637D01*
X18270611Y-15473637D02*
X18289658Y-15464113D01*
X18289658Y-15464113D02*
X18337277Y-15464113D01*
X18337277Y-15464113D02*
X18356325Y-15454589D01*
X18451563Y-15406970D02*
X18451563Y-15606970D01*
X18451563Y-15416494D02*
X18470611Y-15406970D01*
X18470611Y-15406970D02*
X18508706Y-15406970D01*
X18508706Y-15406970D02*
X18527754Y-15416494D01*
X18527754Y-15416494D02*
X18537277Y-15426018D01*
X18537277Y-15426018D02*
X18546801Y-15445066D01*
X18546801Y-15445066D02*
X18546801Y-15502208D01*
X18546801Y-15502208D02*
X18537277Y-15521256D01*
X18537277Y-15521256D02*
X18527754Y-15530780D01*
X18527754Y-15530780D02*
X18508706Y-15540304D01*
X18508706Y-15540304D02*
X18470611Y-15540304D01*
X18470611Y-15540304D02*
X18451563Y-15530780D01*
X18632515Y-15521256D02*
X18642039Y-15530780D01*
X18642039Y-15530780D02*
X18632515Y-15540304D01*
X18632515Y-15540304D02*
X18622992Y-15530780D01*
X18622992Y-15530780D02*
X18632515Y-15521256D01*
X18632515Y-15521256D02*
X18632515Y-15540304D01*
X18632515Y-15416494D02*
X18642039Y-15426018D01*
X18642039Y-15426018D02*
X18632515Y-15435542D01*
X18632515Y-15435542D02*
X18622992Y-15426018D01*
X18622992Y-15426018D02*
X18632515Y-15416494D01*
X18632515Y-15416494D02*
X18632515Y-15435542D01*
D10*
X16960310Y-15848820D02*
X17000310Y-15888820D01*
X17000310Y-15848820D02*
X16960310Y-15888820D01*
D11*
X17299182Y-15760304D02*
X17318230Y-15760304D01*
X17318230Y-15760304D02*
X17337277Y-15769828D01*
X17337277Y-15769828D02*
X17346801Y-15779351D01*
X17346801Y-15779351D02*
X17356325Y-15798399D01*
X17356325Y-15798399D02*
X17365849Y-15836494D01*
X17365849Y-15836494D02*
X17365849Y-15884113D01*
X17365849Y-15884113D02*
X17356325Y-15922208D01*
X17356325Y-15922208D02*
X17346801Y-15941256D01*
X17346801Y-15941256D02*
X17337277Y-15950780D01*
X17337277Y-15950780D02*
X17318230Y-15960304D01*
X17318230Y-15960304D02*
X17299182Y-15960304D01*
X17299182Y-15960304D02*
X17280134Y-15950780D01*
X17280134Y-15950780D02*
X17270611Y-15941256D01*
X17270611Y-15941256D02*
X17261087Y-15922208D01*
X17261087Y-15922208D02*
X17251563Y-15884113D01*
X17251563Y-15884113D02*
X17251563Y-15836494D01*
X17251563Y-15836494D02*
X17261087Y-15798399D01*
X17261087Y-15798399D02*
X17270611Y-15779351D01*
X17270611Y-15779351D02*
X17280134Y-15769828D01*
X17280134Y-15769828D02*
X17299182Y-15760304D01*
X17451563Y-15941256D02*
X17461087Y-15950780D01*
X17461087Y-15950780D02*
X17451563Y-15960304D01*
X17451563Y-15960304D02*
X17442039Y-15950780D01*
X17442039Y-15950780D02*
X17451563Y-15941256D01*
X17451563Y-15941256D02*
X17451563Y-15960304D01*
X17632515Y-15826970D02*
X17632515Y-15960304D01*
X17584896Y-15750780D02*
X17537277Y-15893637D01*
X17537277Y-15893637D02*
X17661087Y-15893637D01*
X17775373Y-15760304D02*
X17794420Y-15760304D01*
X17794420Y-15760304D02*
X17813468Y-15769828D01*
X17813468Y-15769828D02*
X17822992Y-15779351D01*
X17822992Y-15779351D02*
X17832515Y-15798399D01*
X17832515Y-15798399D02*
X17842039Y-15836494D01*
X17842039Y-15836494D02*
X17842039Y-15884113D01*
X17842039Y-15884113D02*
X17832515Y-15922208D01*
X17832515Y-15922208D02*
X17822992Y-15941256D01*
X17822992Y-15941256D02*
X17813468Y-15950780D01*
X17813468Y-15950780D02*
X17794420Y-15960304D01*
X17794420Y-15960304D02*
X17775373Y-15960304D01*
X17775373Y-15960304D02*
X17756325Y-15950780D01*
X17756325Y-15950780D02*
X17746801Y-15941256D01*
X17746801Y-15941256D02*
X17737277Y-15922208D01*
X17737277Y-15922208D02*
X17727754Y-15884113D01*
X17727754Y-15884113D02*
X17727754Y-15836494D01*
X17727754Y-15836494D02*
X17737277Y-15798399D01*
X17737277Y-15798399D02*
X17746801Y-15779351D01*
X17746801Y-15779351D02*
X17756325Y-15769828D01*
X17756325Y-15769828D02*
X17775373Y-15760304D01*
X17965849Y-15760304D02*
X17984896Y-15760304D01*
X17984896Y-15760304D02*
X18003944Y-15769828D01*
X18003944Y-15769828D02*
X18013468Y-15779351D01*
X18013468Y-15779351D02*
X18022992Y-15798399D01*
X18022992Y-15798399D02*
X18032515Y-15836494D01*
X18032515Y-15836494D02*
X18032515Y-15884113D01*
X18032515Y-15884113D02*
X18022992Y-15922208D01*
X18022992Y-15922208D02*
X18013468Y-15941256D01*
X18013468Y-15941256D02*
X18003944Y-15950780D01*
X18003944Y-15950780D02*
X17984896Y-15960304D01*
X17984896Y-15960304D02*
X17965849Y-15960304D01*
X17965849Y-15960304D02*
X17946801Y-15950780D01*
X17946801Y-15950780D02*
X17937277Y-15941256D01*
X17937277Y-15941256D02*
X17927754Y-15922208D01*
X17927754Y-15922208D02*
X17918230Y-15884113D01*
X17918230Y-15884113D02*
X17918230Y-15836494D01*
X17918230Y-15836494D02*
X17927754Y-15798399D01*
X17927754Y-15798399D02*
X17937277Y-15779351D01*
X17937277Y-15779351D02*
X17946801Y-15769828D01*
X17946801Y-15769828D02*
X17965849Y-15760304D01*
X18118230Y-15960304D02*
X18118230Y-15826970D01*
X18118230Y-15846018D02*
X18127754Y-15836494D01*
X18127754Y-15836494D02*
X18146801Y-15826970D01*
X18146801Y-15826970D02*
X18175373Y-15826970D01*
X18175373Y-15826970D02*
X18194420Y-15836494D01*
X18194420Y-15836494D02*
X18203944Y-15855542D01*
X18203944Y-15855542D02*
X18203944Y-15960304D01*
X18203944Y-15855542D02*
X18213468Y-15836494D01*
X18213468Y-15836494D02*
X18232515Y-15826970D01*
X18232515Y-15826970D02*
X18261087Y-15826970D01*
X18261087Y-15826970D02*
X18280135Y-15836494D01*
X18280135Y-15836494D02*
X18289658Y-15855542D01*
X18289658Y-15855542D02*
X18289658Y-15960304D01*
X18384896Y-15960304D02*
X18384896Y-15826970D01*
X18384896Y-15846018D02*
X18394420Y-15836494D01*
X18394420Y-15836494D02*
X18413468Y-15826970D01*
X18413468Y-15826970D02*
X18442039Y-15826970D01*
X18442039Y-15826970D02*
X18461087Y-15836494D01*
X18461087Y-15836494D02*
X18470611Y-15855542D01*
X18470611Y-15855542D02*
X18470611Y-15960304D01*
X18470611Y-15855542D02*
X18480135Y-15836494D01*
X18480135Y-15836494D02*
X18499182Y-15826970D01*
X18499182Y-15826970D02*
X18527754Y-15826970D01*
X18527754Y-15826970D02*
X18546801Y-15836494D01*
X18546801Y-15836494D02*
X18556325Y-15855542D01*
X18556325Y-15855542D02*
X18556325Y-15960304D01*
X18946801Y-15750780D02*
X18775373Y-16007923D01*
X19203944Y-15760304D02*
X19222992Y-15760304D01*
X19222992Y-15760304D02*
X19242039Y-15769828D01*
X19242039Y-15769828D02*
X19251563Y-15779351D01*
X19251563Y-15779351D02*
X19261087Y-15798399D01*
X19261087Y-15798399D02*
X19270611Y-15836494D01*
X19270611Y-15836494D02*
X19270611Y-15884113D01*
X19270611Y-15884113D02*
X19261087Y-15922208D01*
X19261087Y-15922208D02*
X19251563Y-15941256D01*
X19251563Y-15941256D02*
X19242039Y-15950780D01*
X19242039Y-15950780D02*
X19222992Y-15960304D01*
X19222992Y-15960304D02*
X19203944Y-15960304D01*
X19203944Y-15960304D02*
X19184897Y-15950780D01*
X19184897Y-15950780D02*
X19175373Y-15941256D01*
X19175373Y-15941256D02*
X19165849Y-15922208D01*
X19165849Y-15922208D02*
X19156325Y-15884113D01*
X19156325Y-15884113D02*
X19156325Y-15836494D01*
X19156325Y-15836494D02*
X19165849Y-15798399D01*
X19165849Y-15798399D02*
X19175373Y-15779351D01*
X19175373Y-15779351D02*
X19184897Y-15769828D01*
X19184897Y-15769828D02*
X19203944Y-15760304D01*
X19356325Y-15941256D02*
X19365849Y-15950780D01*
X19365849Y-15950780D02*
X19356325Y-15960304D01*
X19356325Y-15960304D02*
X19346801Y-15950780D01*
X19346801Y-15950780D02*
X19356325Y-15941256D01*
X19356325Y-15941256D02*
X19356325Y-15960304D01*
X19489658Y-15760304D02*
X19508706Y-15760304D01*
X19508706Y-15760304D02*
X19527754Y-15769828D01*
X19527754Y-15769828D02*
X19537278Y-15779351D01*
X19537278Y-15779351D02*
X19546801Y-15798399D01*
X19546801Y-15798399D02*
X19556325Y-15836494D01*
X19556325Y-15836494D02*
X19556325Y-15884113D01*
X19556325Y-15884113D02*
X19546801Y-15922208D01*
X19546801Y-15922208D02*
X19537278Y-15941256D01*
X19537278Y-15941256D02*
X19527754Y-15950780D01*
X19527754Y-15950780D02*
X19508706Y-15960304D01*
X19508706Y-15960304D02*
X19489658Y-15960304D01*
X19489658Y-15960304D02*
X19470611Y-15950780D01*
X19470611Y-15950780D02*
X19461087Y-15941256D01*
X19461087Y-15941256D02*
X19451563Y-15922208D01*
X19451563Y-15922208D02*
X19442039Y-15884113D01*
X19442039Y-15884113D02*
X19442039Y-15836494D01*
X19442039Y-15836494D02*
X19451563Y-15798399D01*
X19451563Y-15798399D02*
X19461087Y-15779351D01*
X19461087Y-15779351D02*
X19470611Y-15769828D01*
X19470611Y-15769828D02*
X19489658Y-15760304D01*
X19746801Y-15960304D02*
X19632516Y-15960304D01*
X19689658Y-15960304D02*
X19689658Y-15760304D01*
X19689658Y-15760304D02*
X19670611Y-15788875D01*
X19670611Y-15788875D02*
X19651563Y-15807923D01*
X19651563Y-15807923D02*
X19632516Y-15817447D01*
X19927754Y-15760304D02*
X19832516Y-15760304D01*
X19832516Y-15760304D02*
X19822992Y-15855542D01*
X19822992Y-15855542D02*
X19832516Y-15846018D01*
X19832516Y-15846018D02*
X19851563Y-15836494D01*
X19851563Y-15836494D02*
X19899182Y-15836494D01*
X19899182Y-15836494D02*
X19918230Y-15846018D01*
X19918230Y-15846018D02*
X19927754Y-15855542D01*
X19927754Y-15855542D02*
X19937278Y-15874589D01*
X19937278Y-15874589D02*
X19937278Y-15922208D01*
X19937278Y-15922208D02*
X19927754Y-15941256D01*
X19927754Y-15941256D02*
X19918230Y-15950780D01*
X19918230Y-15950780D02*
X19899182Y-15960304D01*
X19899182Y-15960304D02*
X19851563Y-15960304D01*
X19851563Y-15960304D02*
X19832516Y-15950780D01*
X19832516Y-15950780D02*
X19822992Y-15941256D01*
X20003944Y-15760304D02*
X20137278Y-15760304D01*
X20137278Y-15760304D02*
X20051563Y-15960304D01*
X20203944Y-15760304D02*
X20203944Y-15798399D01*
X20280135Y-15760304D02*
X20280135Y-15798399D01*
X20575373Y-16036494D02*
X20565849Y-16026970D01*
X20565849Y-16026970D02*
X20546801Y-15998399D01*
X20546801Y-15998399D02*
X20537278Y-15979351D01*
X20537278Y-15979351D02*
X20527754Y-15950780D01*
X20527754Y-15950780D02*
X20518230Y-15903161D01*
X20518230Y-15903161D02*
X20518230Y-15865066D01*
X20518230Y-15865066D02*
X20527754Y-15817447D01*
X20527754Y-15817447D02*
X20537278Y-15788875D01*
X20537278Y-15788875D02*
X20546801Y-15769828D01*
X20546801Y-15769828D02*
X20565849Y-15741256D01*
X20565849Y-15741256D02*
X20575373Y-15731732D01*
X20756325Y-15960304D02*
X20642040Y-15960304D01*
X20699182Y-15960304D02*
X20699182Y-15760304D01*
X20699182Y-15760304D02*
X20680135Y-15788875D01*
X20680135Y-15788875D02*
X20661087Y-15807923D01*
X20661087Y-15807923D02*
X20642040Y-15817447D01*
X20880135Y-15760304D02*
X20899182Y-15760304D01*
X20899182Y-15760304D02*
X20918230Y-15769828D01*
X20918230Y-15769828D02*
X20927754Y-15779351D01*
X20927754Y-15779351D02*
X20937278Y-15798399D01*
X20937278Y-15798399D02*
X20946801Y-15836494D01*
X20946801Y-15836494D02*
X20946801Y-15884113D01*
X20946801Y-15884113D02*
X20937278Y-15922208D01*
X20937278Y-15922208D02*
X20927754Y-15941256D01*
X20927754Y-15941256D02*
X20918230Y-15950780D01*
X20918230Y-15950780D02*
X20899182Y-15960304D01*
X20899182Y-15960304D02*
X20880135Y-15960304D01*
X20880135Y-15960304D02*
X20861087Y-15950780D01*
X20861087Y-15950780D02*
X20851563Y-15941256D01*
X20851563Y-15941256D02*
X20842040Y-15922208D01*
X20842040Y-15922208D02*
X20832516Y-15884113D01*
X20832516Y-15884113D02*
X20832516Y-15836494D01*
X20832516Y-15836494D02*
X20842040Y-15798399D01*
X20842040Y-15798399D02*
X20851563Y-15779351D01*
X20851563Y-15779351D02*
X20861087Y-15769828D01*
X20861087Y-15769828D02*
X20880135Y-15760304D01*
X21127754Y-15760304D02*
X21032516Y-15760304D01*
X21032516Y-15760304D02*
X21022992Y-15855542D01*
X21022992Y-15855542D02*
X21032516Y-15846018D01*
X21032516Y-15846018D02*
X21051563Y-15836494D01*
X21051563Y-15836494D02*
X21099182Y-15836494D01*
X21099182Y-15836494D02*
X21118230Y-15846018D01*
X21118230Y-15846018D02*
X21127754Y-15855542D01*
X21127754Y-15855542D02*
X21137278Y-15874589D01*
X21137278Y-15874589D02*
X21137278Y-15922208D01*
X21137278Y-15922208D02*
X21127754Y-15941256D01*
X21127754Y-15941256D02*
X21118230Y-15950780D01*
X21118230Y-15950780D02*
X21099182Y-15960304D01*
X21099182Y-15960304D02*
X21051563Y-15960304D01*
X21051563Y-15960304D02*
X21032516Y-15950780D01*
X21032516Y-15950780D02*
X21022992Y-15941256D01*
X21375373Y-15960304D02*
X21375373Y-15760304D01*
X21461087Y-15960304D02*
X21461087Y-15855542D01*
X21461087Y-15855542D02*
X21451563Y-15836494D01*
X21451563Y-15836494D02*
X21432516Y-15826970D01*
X21432516Y-15826970D02*
X21403944Y-15826970D01*
X21403944Y-15826970D02*
X21384897Y-15836494D01*
X21384897Y-15836494D02*
X21375373Y-15846018D01*
X21584897Y-15960304D02*
X21565849Y-15950780D01*
X21565849Y-15950780D02*
X21556325Y-15941256D01*
X21556325Y-15941256D02*
X21546802Y-15922208D01*
X21546802Y-15922208D02*
X21546802Y-15865066D01*
X21546802Y-15865066D02*
X21556325Y-15846018D01*
X21556325Y-15846018D02*
X21565849Y-15836494D01*
X21565849Y-15836494D02*
X21584897Y-15826970D01*
X21584897Y-15826970D02*
X21613468Y-15826970D01*
X21613468Y-15826970D02*
X21632516Y-15836494D01*
X21632516Y-15836494D02*
X21642040Y-15846018D01*
X21642040Y-15846018D02*
X21651563Y-15865066D01*
X21651563Y-15865066D02*
X21651563Y-15922208D01*
X21651563Y-15922208D02*
X21642040Y-15941256D01*
X21642040Y-15941256D02*
X21632516Y-15950780D01*
X21632516Y-15950780D02*
X21613468Y-15960304D01*
X21613468Y-15960304D02*
X21584897Y-15960304D01*
X21765849Y-15960304D02*
X21746802Y-15950780D01*
X21746802Y-15950780D02*
X21737278Y-15931732D01*
X21737278Y-15931732D02*
X21737278Y-15760304D01*
X21918230Y-15950780D02*
X21899183Y-15960304D01*
X21899183Y-15960304D02*
X21861087Y-15960304D01*
X21861087Y-15960304D02*
X21842040Y-15950780D01*
X21842040Y-15950780D02*
X21832516Y-15931732D01*
X21832516Y-15931732D02*
X21832516Y-15855542D01*
X21832516Y-15855542D02*
X21842040Y-15836494D01*
X21842040Y-15836494D02*
X21861087Y-15826970D01*
X21861087Y-15826970D02*
X21899183Y-15826970D01*
X21899183Y-15826970D02*
X21918230Y-15836494D01*
X21918230Y-15836494D02*
X21927754Y-15855542D01*
X21927754Y-15855542D02*
X21927754Y-15874589D01*
X21927754Y-15874589D02*
X21832516Y-15893637D01*
X22003944Y-15950780D02*
X22022992Y-15960304D01*
X22022992Y-15960304D02*
X22061087Y-15960304D01*
X22061087Y-15960304D02*
X22080135Y-15950780D01*
X22080135Y-15950780D02*
X22089659Y-15931732D01*
X22089659Y-15931732D02*
X22089659Y-15922208D01*
X22089659Y-15922208D02*
X22080135Y-15903161D01*
X22080135Y-15903161D02*
X22061087Y-15893637D01*
X22061087Y-15893637D02*
X22032516Y-15893637D01*
X22032516Y-15893637D02*
X22013468Y-15884113D01*
X22013468Y-15884113D02*
X22003944Y-15865066D01*
X22003944Y-15865066D02*
X22003944Y-15855542D01*
X22003944Y-15855542D02*
X22013468Y-15836494D01*
X22013468Y-15836494D02*
X22032516Y-15826970D01*
X22032516Y-15826970D02*
X22061087Y-15826970D01*
X22061087Y-15826970D02*
X22080135Y-15836494D01*
X22156325Y-16036494D02*
X22165849Y-16026970D01*
X22165849Y-16026970D02*
X22184897Y-15998399D01*
X22184897Y-15998399D02*
X22194421Y-15979351D01*
X22194421Y-15979351D02*
X22203944Y-15950780D01*
X22203944Y-15950780D02*
X22213468Y-15903161D01*
X22213468Y-15903161D02*
X22213468Y-15865066D01*
X22213468Y-15865066D02*
X22203944Y-15817447D01*
X22203944Y-15817447D02*
X22194421Y-15788875D01*
X22194421Y-15788875D02*
X22184897Y-15769828D01*
X22184897Y-15769828D02*
X22165849Y-15741256D01*
X22165849Y-15741256D02*
X22156325Y-15731732D01*
D10*
X17000310Y-16132820D02*
G75*
G02*
X16950310Y-16132820I-25000J0D01*
G01*
X16950310Y-16132820D02*
G75*
G02*
X17000310Y-16132820I25000J0D01*
G01*
D11*
X17299182Y-16024304D02*
X17318230Y-16024304D01*
X17318230Y-16024304D02*
X17337277Y-16033828D01*
X17337277Y-16033828D02*
X17346801Y-16043351D01*
X17346801Y-16043351D02*
X17356325Y-16062399D01*
X17356325Y-16062399D02*
X17365849Y-16100494D01*
X17365849Y-16100494D02*
X17365849Y-16148113D01*
X17365849Y-16148113D02*
X17356325Y-16186208D01*
X17356325Y-16186208D02*
X17346801Y-16205256D01*
X17346801Y-16205256D02*
X17337277Y-16214780D01*
X17337277Y-16214780D02*
X17318230Y-16224304D01*
X17318230Y-16224304D02*
X17299182Y-16224304D01*
X17299182Y-16224304D02*
X17280134Y-16214780D01*
X17280134Y-16214780D02*
X17270611Y-16205256D01*
X17270611Y-16205256D02*
X17261087Y-16186208D01*
X17261087Y-16186208D02*
X17251563Y-16148113D01*
X17251563Y-16148113D02*
X17251563Y-16100494D01*
X17251563Y-16100494D02*
X17261087Y-16062399D01*
X17261087Y-16062399D02*
X17270611Y-16043351D01*
X17270611Y-16043351D02*
X17280134Y-16033828D01*
X17280134Y-16033828D02*
X17299182Y-16024304D01*
X17451563Y-16205256D02*
X17461087Y-16214780D01*
X17461087Y-16214780D02*
X17451563Y-16224304D01*
X17451563Y-16224304D02*
X17442039Y-16214780D01*
X17442039Y-16214780D02*
X17451563Y-16205256D01*
X17451563Y-16205256D02*
X17451563Y-16224304D01*
X17642039Y-16024304D02*
X17546801Y-16024304D01*
X17546801Y-16024304D02*
X17537277Y-16119542D01*
X17537277Y-16119542D02*
X17546801Y-16110018D01*
X17546801Y-16110018D02*
X17565849Y-16100494D01*
X17565849Y-16100494D02*
X17613468Y-16100494D01*
X17613468Y-16100494D02*
X17632515Y-16110018D01*
X17632515Y-16110018D02*
X17642039Y-16119542D01*
X17642039Y-16119542D02*
X17651563Y-16138589D01*
X17651563Y-16138589D02*
X17651563Y-16186208D01*
X17651563Y-16186208D02*
X17642039Y-16205256D01*
X17642039Y-16205256D02*
X17632515Y-16214780D01*
X17632515Y-16214780D02*
X17613468Y-16224304D01*
X17613468Y-16224304D02*
X17565849Y-16224304D01*
X17565849Y-16224304D02*
X17546801Y-16214780D01*
X17546801Y-16214780D02*
X17537277Y-16205256D01*
X17775373Y-16024304D02*
X17794420Y-16024304D01*
X17794420Y-16024304D02*
X17813468Y-16033828D01*
X17813468Y-16033828D02*
X17822992Y-16043351D01*
X17822992Y-16043351D02*
X17832515Y-16062399D01*
X17832515Y-16062399D02*
X17842039Y-16100494D01*
X17842039Y-16100494D02*
X17842039Y-16148113D01*
X17842039Y-16148113D02*
X17832515Y-16186208D01*
X17832515Y-16186208D02*
X17822992Y-16205256D01*
X17822992Y-16205256D02*
X17813468Y-16214780D01*
X17813468Y-16214780D02*
X17794420Y-16224304D01*
X17794420Y-16224304D02*
X17775373Y-16224304D01*
X17775373Y-16224304D02*
X17756325Y-16214780D01*
X17756325Y-16214780D02*
X17746801Y-16205256D01*
X17746801Y-16205256D02*
X17737277Y-16186208D01*
X17737277Y-16186208D02*
X17727754Y-16148113D01*
X17727754Y-16148113D02*
X17727754Y-16100494D01*
X17727754Y-16100494D02*
X17737277Y-16062399D01*
X17737277Y-16062399D02*
X17746801Y-16043351D01*
X17746801Y-16043351D02*
X17756325Y-16033828D01*
X17756325Y-16033828D02*
X17775373Y-16024304D01*
X17965849Y-16024304D02*
X17984896Y-16024304D01*
X17984896Y-16024304D02*
X18003944Y-16033828D01*
X18003944Y-16033828D02*
X18013468Y-16043351D01*
X18013468Y-16043351D02*
X18022992Y-16062399D01*
X18022992Y-16062399D02*
X18032515Y-16100494D01*
X18032515Y-16100494D02*
X18032515Y-16148113D01*
X18032515Y-16148113D02*
X18022992Y-16186208D01*
X18022992Y-16186208D02*
X18013468Y-16205256D01*
X18013468Y-16205256D02*
X18003944Y-16214780D01*
X18003944Y-16214780D02*
X17984896Y-16224304D01*
X17984896Y-16224304D02*
X17965849Y-16224304D01*
X17965849Y-16224304D02*
X17946801Y-16214780D01*
X17946801Y-16214780D02*
X17937277Y-16205256D01*
X17937277Y-16205256D02*
X17927754Y-16186208D01*
X17927754Y-16186208D02*
X17918230Y-16148113D01*
X17918230Y-16148113D02*
X17918230Y-16100494D01*
X17918230Y-16100494D02*
X17927754Y-16062399D01*
X17927754Y-16062399D02*
X17937277Y-16043351D01*
X17937277Y-16043351D02*
X17946801Y-16033828D01*
X17946801Y-16033828D02*
X17965849Y-16024304D01*
X18118230Y-16224304D02*
X18118230Y-16090970D01*
X18118230Y-16110018D02*
X18127754Y-16100494D01*
X18127754Y-16100494D02*
X18146801Y-16090970D01*
X18146801Y-16090970D02*
X18175373Y-16090970D01*
X18175373Y-16090970D02*
X18194420Y-16100494D01*
X18194420Y-16100494D02*
X18203944Y-16119542D01*
X18203944Y-16119542D02*
X18203944Y-16224304D01*
X18203944Y-16119542D02*
X18213468Y-16100494D01*
X18213468Y-16100494D02*
X18232515Y-16090970D01*
X18232515Y-16090970D02*
X18261087Y-16090970D01*
X18261087Y-16090970D02*
X18280135Y-16100494D01*
X18280135Y-16100494D02*
X18289658Y-16119542D01*
X18289658Y-16119542D02*
X18289658Y-16224304D01*
X18384896Y-16224304D02*
X18384896Y-16090970D01*
X18384896Y-16110018D02*
X18394420Y-16100494D01*
X18394420Y-16100494D02*
X18413468Y-16090970D01*
X18413468Y-16090970D02*
X18442039Y-16090970D01*
X18442039Y-16090970D02*
X18461087Y-16100494D01*
X18461087Y-16100494D02*
X18470611Y-16119542D01*
X18470611Y-16119542D02*
X18470611Y-16224304D01*
X18470611Y-16119542D02*
X18480135Y-16100494D01*
X18480135Y-16100494D02*
X18499182Y-16090970D01*
X18499182Y-16090970D02*
X18527754Y-16090970D01*
X18527754Y-16090970D02*
X18546801Y-16100494D01*
X18546801Y-16100494D02*
X18556325Y-16119542D01*
X18556325Y-16119542D02*
X18556325Y-16224304D01*
X18946801Y-16014780D02*
X18775373Y-16271923D01*
X19203944Y-16024304D02*
X19222992Y-16024304D01*
X19222992Y-16024304D02*
X19242039Y-16033828D01*
X19242039Y-16033828D02*
X19251563Y-16043351D01*
X19251563Y-16043351D02*
X19261087Y-16062399D01*
X19261087Y-16062399D02*
X19270611Y-16100494D01*
X19270611Y-16100494D02*
X19270611Y-16148113D01*
X19270611Y-16148113D02*
X19261087Y-16186208D01*
X19261087Y-16186208D02*
X19251563Y-16205256D01*
X19251563Y-16205256D02*
X19242039Y-16214780D01*
X19242039Y-16214780D02*
X19222992Y-16224304D01*
X19222992Y-16224304D02*
X19203944Y-16224304D01*
X19203944Y-16224304D02*
X19184897Y-16214780D01*
X19184897Y-16214780D02*
X19175373Y-16205256D01*
X19175373Y-16205256D02*
X19165849Y-16186208D01*
X19165849Y-16186208D02*
X19156325Y-16148113D01*
X19156325Y-16148113D02*
X19156325Y-16100494D01*
X19156325Y-16100494D02*
X19165849Y-16062399D01*
X19165849Y-16062399D02*
X19175373Y-16043351D01*
X19175373Y-16043351D02*
X19184897Y-16033828D01*
X19184897Y-16033828D02*
X19203944Y-16024304D01*
X19356325Y-16205256D02*
X19365849Y-16214780D01*
X19365849Y-16214780D02*
X19356325Y-16224304D01*
X19356325Y-16224304D02*
X19346801Y-16214780D01*
X19346801Y-16214780D02*
X19356325Y-16205256D01*
X19356325Y-16205256D02*
X19356325Y-16224304D01*
X19489658Y-16024304D02*
X19508706Y-16024304D01*
X19508706Y-16024304D02*
X19527754Y-16033828D01*
X19527754Y-16033828D02*
X19537278Y-16043351D01*
X19537278Y-16043351D02*
X19546801Y-16062399D01*
X19546801Y-16062399D02*
X19556325Y-16100494D01*
X19556325Y-16100494D02*
X19556325Y-16148113D01*
X19556325Y-16148113D02*
X19546801Y-16186208D01*
X19546801Y-16186208D02*
X19537278Y-16205256D01*
X19537278Y-16205256D02*
X19527754Y-16214780D01*
X19527754Y-16214780D02*
X19508706Y-16224304D01*
X19508706Y-16224304D02*
X19489658Y-16224304D01*
X19489658Y-16224304D02*
X19470611Y-16214780D01*
X19470611Y-16214780D02*
X19461087Y-16205256D01*
X19461087Y-16205256D02*
X19451563Y-16186208D01*
X19451563Y-16186208D02*
X19442039Y-16148113D01*
X19442039Y-16148113D02*
X19442039Y-16100494D01*
X19442039Y-16100494D02*
X19451563Y-16062399D01*
X19451563Y-16062399D02*
X19461087Y-16043351D01*
X19461087Y-16043351D02*
X19470611Y-16033828D01*
X19470611Y-16033828D02*
X19489658Y-16024304D01*
X19746801Y-16224304D02*
X19632516Y-16224304D01*
X19689658Y-16224304D02*
X19689658Y-16024304D01*
X19689658Y-16024304D02*
X19670611Y-16052875D01*
X19670611Y-16052875D02*
X19651563Y-16071923D01*
X19651563Y-16071923D02*
X19632516Y-16081447D01*
X19842039Y-16224304D02*
X19880135Y-16224304D01*
X19880135Y-16224304D02*
X19899182Y-16214780D01*
X19899182Y-16214780D02*
X19908706Y-16205256D01*
X19908706Y-16205256D02*
X19927754Y-16176685D01*
X19927754Y-16176685D02*
X19937278Y-16138589D01*
X19937278Y-16138589D02*
X19937278Y-16062399D01*
X19937278Y-16062399D02*
X19927754Y-16043351D01*
X19927754Y-16043351D02*
X19918230Y-16033828D01*
X19918230Y-16033828D02*
X19899182Y-16024304D01*
X19899182Y-16024304D02*
X19861087Y-16024304D01*
X19861087Y-16024304D02*
X19842039Y-16033828D01*
X19842039Y-16033828D02*
X19832516Y-16043351D01*
X19832516Y-16043351D02*
X19822992Y-16062399D01*
X19822992Y-16062399D02*
X19822992Y-16110018D01*
X19822992Y-16110018D02*
X19832516Y-16129066D01*
X19832516Y-16129066D02*
X19842039Y-16138589D01*
X19842039Y-16138589D02*
X19861087Y-16148113D01*
X19861087Y-16148113D02*
X19899182Y-16148113D01*
X19899182Y-16148113D02*
X19918230Y-16138589D01*
X19918230Y-16138589D02*
X19927754Y-16129066D01*
X19927754Y-16129066D02*
X19937278Y-16110018D01*
X20003944Y-16024304D02*
X20137278Y-16024304D01*
X20137278Y-16024304D02*
X20051563Y-16224304D01*
X20203944Y-16024304D02*
X20203944Y-16062399D01*
X20280135Y-16024304D02*
X20280135Y-16062399D01*
X20575373Y-16300494D02*
X20565849Y-16290970D01*
X20565849Y-16290970D02*
X20546801Y-16262399D01*
X20546801Y-16262399D02*
X20537278Y-16243351D01*
X20537278Y-16243351D02*
X20527754Y-16214780D01*
X20527754Y-16214780D02*
X20518230Y-16167161D01*
X20518230Y-16167161D02*
X20518230Y-16129066D01*
X20518230Y-16129066D02*
X20527754Y-16081447D01*
X20527754Y-16081447D02*
X20537278Y-16052875D01*
X20537278Y-16052875D02*
X20546801Y-16033828D01*
X20546801Y-16033828D02*
X20565849Y-16005256D01*
X20565849Y-16005256D02*
X20575373Y-15995732D01*
X20756325Y-16224304D02*
X20642040Y-16224304D01*
X20699182Y-16224304D02*
X20699182Y-16024304D01*
X20699182Y-16024304D02*
X20680135Y-16052875D01*
X20680135Y-16052875D02*
X20661087Y-16071923D01*
X20661087Y-16071923D02*
X20642040Y-16081447D01*
X20832516Y-16043351D02*
X20842040Y-16033828D01*
X20842040Y-16033828D02*
X20861087Y-16024304D01*
X20861087Y-16024304D02*
X20908706Y-16024304D01*
X20908706Y-16024304D02*
X20927754Y-16033828D01*
X20927754Y-16033828D02*
X20937278Y-16043351D01*
X20937278Y-16043351D02*
X20946801Y-16062399D01*
X20946801Y-16062399D02*
X20946801Y-16081447D01*
X20946801Y-16081447D02*
X20937278Y-16110018D01*
X20937278Y-16110018D02*
X20822992Y-16224304D01*
X20822992Y-16224304D02*
X20946801Y-16224304D01*
X21184897Y-16224304D02*
X21184897Y-16024304D01*
X21270611Y-16224304D02*
X21270611Y-16119542D01*
X21270611Y-16119542D02*
X21261087Y-16100494D01*
X21261087Y-16100494D02*
X21242040Y-16090970D01*
X21242040Y-16090970D02*
X21213468Y-16090970D01*
X21213468Y-16090970D02*
X21194421Y-16100494D01*
X21194421Y-16100494D02*
X21184897Y-16110018D01*
X21394421Y-16224304D02*
X21375373Y-16214780D01*
X21375373Y-16214780D02*
X21365849Y-16205256D01*
X21365849Y-16205256D02*
X21356325Y-16186208D01*
X21356325Y-16186208D02*
X21356325Y-16129066D01*
X21356325Y-16129066D02*
X21365849Y-16110018D01*
X21365849Y-16110018D02*
X21375373Y-16100494D01*
X21375373Y-16100494D02*
X21394421Y-16090970D01*
X21394421Y-16090970D02*
X21422992Y-16090970D01*
X21422992Y-16090970D02*
X21442040Y-16100494D01*
X21442040Y-16100494D02*
X21451563Y-16110018D01*
X21451563Y-16110018D02*
X21461087Y-16129066D01*
X21461087Y-16129066D02*
X21461087Y-16186208D01*
X21461087Y-16186208D02*
X21451563Y-16205256D01*
X21451563Y-16205256D02*
X21442040Y-16214780D01*
X21442040Y-16214780D02*
X21422992Y-16224304D01*
X21422992Y-16224304D02*
X21394421Y-16224304D01*
X21575373Y-16224304D02*
X21556325Y-16214780D01*
X21556325Y-16214780D02*
X21546802Y-16195732D01*
X21546802Y-16195732D02*
X21546802Y-16024304D01*
X21727754Y-16214780D02*
X21708706Y-16224304D01*
X21708706Y-16224304D02*
X21670611Y-16224304D01*
X21670611Y-16224304D02*
X21651563Y-16214780D01*
X21651563Y-16214780D02*
X21642040Y-16195732D01*
X21642040Y-16195732D02*
X21642040Y-16119542D01*
X21642040Y-16119542D02*
X21651563Y-16100494D01*
X21651563Y-16100494D02*
X21670611Y-16090970D01*
X21670611Y-16090970D02*
X21708706Y-16090970D01*
X21708706Y-16090970D02*
X21727754Y-16100494D01*
X21727754Y-16100494D02*
X21737278Y-16119542D01*
X21737278Y-16119542D02*
X21737278Y-16138589D01*
X21737278Y-16138589D02*
X21642040Y-16157637D01*
X21813468Y-16214780D02*
X21832516Y-16224304D01*
X21832516Y-16224304D02*
X21870611Y-16224304D01*
X21870611Y-16224304D02*
X21889659Y-16214780D01*
X21889659Y-16214780D02*
X21899183Y-16195732D01*
X21899183Y-16195732D02*
X21899183Y-16186208D01*
X21899183Y-16186208D02*
X21889659Y-16167161D01*
X21889659Y-16167161D02*
X21870611Y-16157637D01*
X21870611Y-16157637D02*
X21842040Y-16157637D01*
X21842040Y-16157637D02*
X21822992Y-16148113D01*
X21822992Y-16148113D02*
X21813468Y-16129066D01*
X21813468Y-16129066D02*
X21813468Y-16119542D01*
X21813468Y-16119542D02*
X21822992Y-16100494D01*
X21822992Y-16100494D02*
X21842040Y-16090970D01*
X21842040Y-16090970D02*
X21870611Y-16090970D01*
X21870611Y-16090970D02*
X21889659Y-16100494D01*
X21965849Y-16300494D02*
X21975373Y-16290970D01*
X21975373Y-16290970D02*
X21994421Y-16262399D01*
X21994421Y-16262399D02*
X22003944Y-16243351D01*
X22003944Y-16243351D02*
X22013468Y-16214780D01*
X22013468Y-16214780D02*
X22022992Y-16167161D01*
X22022992Y-16167161D02*
X22022992Y-16129066D01*
X22022992Y-16129066D02*
X22013468Y-16081447D01*
X22013468Y-16081447D02*
X22003944Y-16052875D01*
X22003944Y-16052875D02*
X21994421Y-16033828D01*
X21994421Y-16033828D02*
X21975373Y-16005256D01*
X21975373Y-16005256D02*
X21965849Y-15995732D01*
D10*
X16970310Y-16366820D02*
X16970310Y-16426820D01*
X16940310Y-16396820D02*
X17000310Y-16396820D01*
D11*
X17299182Y-16288304D02*
X17318230Y-16288304D01*
X17318230Y-16288304D02*
X17337277Y-16297828D01*
X17337277Y-16297828D02*
X17346801Y-16307351D01*
X17346801Y-16307351D02*
X17356325Y-16326399D01*
X17356325Y-16326399D02*
X17365849Y-16364494D01*
X17365849Y-16364494D02*
X17365849Y-16412113D01*
X17365849Y-16412113D02*
X17356325Y-16450208D01*
X17356325Y-16450208D02*
X17346801Y-16469256D01*
X17346801Y-16469256D02*
X17337277Y-16478780D01*
X17337277Y-16478780D02*
X17318230Y-16488304D01*
X17318230Y-16488304D02*
X17299182Y-16488304D01*
X17299182Y-16488304D02*
X17280134Y-16478780D01*
X17280134Y-16478780D02*
X17270611Y-16469256D01*
X17270611Y-16469256D02*
X17261087Y-16450208D01*
X17261087Y-16450208D02*
X17251563Y-16412113D01*
X17251563Y-16412113D02*
X17251563Y-16364494D01*
X17251563Y-16364494D02*
X17261087Y-16326399D01*
X17261087Y-16326399D02*
X17270611Y-16307351D01*
X17270611Y-16307351D02*
X17280134Y-16297828D01*
X17280134Y-16297828D02*
X17299182Y-16288304D01*
X17451563Y-16469256D02*
X17461087Y-16478780D01*
X17461087Y-16478780D02*
X17451563Y-16488304D01*
X17451563Y-16488304D02*
X17442039Y-16478780D01*
X17442039Y-16478780D02*
X17451563Y-16469256D01*
X17451563Y-16469256D02*
X17451563Y-16488304D01*
X17632515Y-16288304D02*
X17594420Y-16288304D01*
X17594420Y-16288304D02*
X17575373Y-16297828D01*
X17575373Y-16297828D02*
X17565849Y-16307351D01*
X17565849Y-16307351D02*
X17546801Y-16335923D01*
X17546801Y-16335923D02*
X17537277Y-16374018D01*
X17537277Y-16374018D02*
X17537277Y-16450208D01*
X17537277Y-16450208D02*
X17546801Y-16469256D01*
X17546801Y-16469256D02*
X17556325Y-16478780D01*
X17556325Y-16478780D02*
X17575373Y-16488304D01*
X17575373Y-16488304D02*
X17613468Y-16488304D01*
X17613468Y-16488304D02*
X17632515Y-16478780D01*
X17632515Y-16478780D02*
X17642039Y-16469256D01*
X17642039Y-16469256D02*
X17651563Y-16450208D01*
X17651563Y-16450208D02*
X17651563Y-16402589D01*
X17651563Y-16402589D02*
X17642039Y-16383542D01*
X17642039Y-16383542D02*
X17632515Y-16374018D01*
X17632515Y-16374018D02*
X17613468Y-16364494D01*
X17613468Y-16364494D02*
X17575373Y-16364494D01*
X17575373Y-16364494D02*
X17556325Y-16374018D01*
X17556325Y-16374018D02*
X17546801Y-16383542D01*
X17546801Y-16383542D02*
X17537277Y-16402589D01*
X17775373Y-16288304D02*
X17794420Y-16288304D01*
X17794420Y-16288304D02*
X17813468Y-16297828D01*
X17813468Y-16297828D02*
X17822992Y-16307351D01*
X17822992Y-16307351D02*
X17832515Y-16326399D01*
X17832515Y-16326399D02*
X17842039Y-16364494D01*
X17842039Y-16364494D02*
X17842039Y-16412113D01*
X17842039Y-16412113D02*
X17832515Y-16450208D01*
X17832515Y-16450208D02*
X17822992Y-16469256D01*
X17822992Y-16469256D02*
X17813468Y-16478780D01*
X17813468Y-16478780D02*
X17794420Y-16488304D01*
X17794420Y-16488304D02*
X17775373Y-16488304D01*
X17775373Y-16488304D02*
X17756325Y-16478780D01*
X17756325Y-16478780D02*
X17746801Y-16469256D01*
X17746801Y-16469256D02*
X17737277Y-16450208D01*
X17737277Y-16450208D02*
X17727754Y-16412113D01*
X17727754Y-16412113D02*
X17727754Y-16364494D01*
X17727754Y-16364494D02*
X17737277Y-16326399D01*
X17737277Y-16326399D02*
X17746801Y-16307351D01*
X17746801Y-16307351D02*
X17756325Y-16297828D01*
X17756325Y-16297828D02*
X17775373Y-16288304D01*
X17965849Y-16288304D02*
X17984896Y-16288304D01*
X17984896Y-16288304D02*
X18003944Y-16297828D01*
X18003944Y-16297828D02*
X18013468Y-16307351D01*
X18013468Y-16307351D02*
X18022992Y-16326399D01*
X18022992Y-16326399D02*
X18032515Y-16364494D01*
X18032515Y-16364494D02*
X18032515Y-16412113D01*
X18032515Y-16412113D02*
X18022992Y-16450208D01*
X18022992Y-16450208D02*
X18013468Y-16469256D01*
X18013468Y-16469256D02*
X18003944Y-16478780D01*
X18003944Y-16478780D02*
X17984896Y-16488304D01*
X17984896Y-16488304D02*
X17965849Y-16488304D01*
X17965849Y-16488304D02*
X17946801Y-16478780D01*
X17946801Y-16478780D02*
X17937277Y-16469256D01*
X17937277Y-16469256D02*
X17927754Y-16450208D01*
X17927754Y-16450208D02*
X17918230Y-16412113D01*
X17918230Y-16412113D02*
X17918230Y-16364494D01*
X17918230Y-16364494D02*
X17927754Y-16326399D01*
X17927754Y-16326399D02*
X17937277Y-16307351D01*
X17937277Y-16307351D02*
X17946801Y-16297828D01*
X17946801Y-16297828D02*
X17965849Y-16288304D01*
X18118230Y-16488304D02*
X18118230Y-16354970D01*
X18118230Y-16374018D02*
X18127754Y-16364494D01*
X18127754Y-16364494D02*
X18146801Y-16354970D01*
X18146801Y-16354970D02*
X18175373Y-16354970D01*
X18175373Y-16354970D02*
X18194420Y-16364494D01*
X18194420Y-16364494D02*
X18203944Y-16383542D01*
X18203944Y-16383542D02*
X18203944Y-16488304D01*
X18203944Y-16383542D02*
X18213468Y-16364494D01*
X18213468Y-16364494D02*
X18232515Y-16354970D01*
X18232515Y-16354970D02*
X18261087Y-16354970D01*
X18261087Y-16354970D02*
X18280135Y-16364494D01*
X18280135Y-16364494D02*
X18289658Y-16383542D01*
X18289658Y-16383542D02*
X18289658Y-16488304D01*
X18384896Y-16488304D02*
X18384896Y-16354970D01*
X18384896Y-16374018D02*
X18394420Y-16364494D01*
X18394420Y-16364494D02*
X18413468Y-16354970D01*
X18413468Y-16354970D02*
X18442039Y-16354970D01*
X18442039Y-16354970D02*
X18461087Y-16364494D01*
X18461087Y-16364494D02*
X18470611Y-16383542D01*
X18470611Y-16383542D02*
X18470611Y-16488304D01*
X18470611Y-16383542D02*
X18480135Y-16364494D01*
X18480135Y-16364494D02*
X18499182Y-16354970D01*
X18499182Y-16354970D02*
X18527754Y-16354970D01*
X18527754Y-16354970D02*
X18546801Y-16364494D01*
X18546801Y-16364494D02*
X18556325Y-16383542D01*
X18556325Y-16383542D02*
X18556325Y-16488304D01*
X18946801Y-16278780D02*
X18775373Y-16535923D01*
X19203944Y-16288304D02*
X19222992Y-16288304D01*
X19222992Y-16288304D02*
X19242039Y-16297828D01*
X19242039Y-16297828D02*
X19251563Y-16307351D01*
X19251563Y-16307351D02*
X19261087Y-16326399D01*
X19261087Y-16326399D02*
X19270611Y-16364494D01*
X19270611Y-16364494D02*
X19270611Y-16412113D01*
X19270611Y-16412113D02*
X19261087Y-16450208D01*
X19261087Y-16450208D02*
X19251563Y-16469256D01*
X19251563Y-16469256D02*
X19242039Y-16478780D01*
X19242039Y-16478780D02*
X19222992Y-16488304D01*
X19222992Y-16488304D02*
X19203944Y-16488304D01*
X19203944Y-16488304D02*
X19184897Y-16478780D01*
X19184897Y-16478780D02*
X19175373Y-16469256D01*
X19175373Y-16469256D02*
X19165849Y-16450208D01*
X19165849Y-16450208D02*
X19156325Y-16412113D01*
X19156325Y-16412113D02*
X19156325Y-16364494D01*
X19156325Y-16364494D02*
X19165849Y-16326399D01*
X19165849Y-16326399D02*
X19175373Y-16307351D01*
X19175373Y-16307351D02*
X19184897Y-16297828D01*
X19184897Y-16297828D02*
X19203944Y-16288304D01*
X19356325Y-16469256D02*
X19365849Y-16478780D01*
X19365849Y-16478780D02*
X19356325Y-16488304D01*
X19356325Y-16488304D02*
X19346801Y-16478780D01*
X19346801Y-16478780D02*
X19356325Y-16469256D01*
X19356325Y-16469256D02*
X19356325Y-16488304D01*
X19489658Y-16288304D02*
X19508706Y-16288304D01*
X19508706Y-16288304D02*
X19527754Y-16297828D01*
X19527754Y-16297828D02*
X19537278Y-16307351D01*
X19537278Y-16307351D02*
X19546801Y-16326399D01*
X19546801Y-16326399D02*
X19556325Y-16364494D01*
X19556325Y-16364494D02*
X19556325Y-16412113D01*
X19556325Y-16412113D02*
X19546801Y-16450208D01*
X19546801Y-16450208D02*
X19537278Y-16469256D01*
X19537278Y-16469256D02*
X19527754Y-16478780D01*
X19527754Y-16478780D02*
X19508706Y-16488304D01*
X19508706Y-16488304D02*
X19489658Y-16488304D01*
X19489658Y-16488304D02*
X19470611Y-16478780D01*
X19470611Y-16478780D02*
X19461087Y-16469256D01*
X19461087Y-16469256D02*
X19451563Y-16450208D01*
X19451563Y-16450208D02*
X19442039Y-16412113D01*
X19442039Y-16412113D02*
X19442039Y-16364494D01*
X19442039Y-16364494D02*
X19451563Y-16326399D01*
X19451563Y-16326399D02*
X19461087Y-16307351D01*
X19461087Y-16307351D02*
X19470611Y-16297828D01*
X19470611Y-16297828D02*
X19489658Y-16288304D01*
X19632516Y-16307351D02*
X19642039Y-16297828D01*
X19642039Y-16297828D02*
X19661087Y-16288304D01*
X19661087Y-16288304D02*
X19708706Y-16288304D01*
X19708706Y-16288304D02*
X19727754Y-16297828D01*
X19727754Y-16297828D02*
X19737278Y-16307351D01*
X19737278Y-16307351D02*
X19746801Y-16326399D01*
X19746801Y-16326399D02*
X19746801Y-16345447D01*
X19746801Y-16345447D02*
X19737278Y-16374018D01*
X19737278Y-16374018D02*
X19622992Y-16488304D01*
X19622992Y-16488304D02*
X19746801Y-16488304D01*
X19813468Y-16288304D02*
X19937278Y-16288304D01*
X19937278Y-16288304D02*
X19870611Y-16364494D01*
X19870611Y-16364494D02*
X19899182Y-16364494D01*
X19899182Y-16364494D02*
X19918230Y-16374018D01*
X19918230Y-16374018D02*
X19927754Y-16383542D01*
X19927754Y-16383542D02*
X19937278Y-16402589D01*
X19937278Y-16402589D02*
X19937278Y-16450208D01*
X19937278Y-16450208D02*
X19927754Y-16469256D01*
X19927754Y-16469256D02*
X19918230Y-16478780D01*
X19918230Y-16478780D02*
X19899182Y-16488304D01*
X19899182Y-16488304D02*
X19842039Y-16488304D01*
X19842039Y-16488304D02*
X19822992Y-16478780D01*
X19822992Y-16478780D02*
X19813468Y-16469256D01*
X20108706Y-16288304D02*
X20070611Y-16288304D01*
X20070611Y-16288304D02*
X20051563Y-16297828D01*
X20051563Y-16297828D02*
X20042039Y-16307351D01*
X20042039Y-16307351D02*
X20022992Y-16335923D01*
X20022992Y-16335923D02*
X20013468Y-16374018D01*
X20013468Y-16374018D02*
X20013468Y-16450208D01*
X20013468Y-16450208D02*
X20022992Y-16469256D01*
X20022992Y-16469256D02*
X20032516Y-16478780D01*
X20032516Y-16478780D02*
X20051563Y-16488304D01*
X20051563Y-16488304D02*
X20089659Y-16488304D01*
X20089659Y-16488304D02*
X20108706Y-16478780D01*
X20108706Y-16478780D02*
X20118230Y-16469256D01*
X20118230Y-16469256D02*
X20127754Y-16450208D01*
X20127754Y-16450208D02*
X20127754Y-16402589D01*
X20127754Y-16402589D02*
X20118230Y-16383542D01*
X20118230Y-16383542D02*
X20108706Y-16374018D01*
X20108706Y-16374018D02*
X20089659Y-16364494D01*
X20089659Y-16364494D02*
X20051563Y-16364494D01*
X20051563Y-16364494D02*
X20032516Y-16374018D01*
X20032516Y-16374018D02*
X20022992Y-16383542D01*
X20022992Y-16383542D02*
X20013468Y-16402589D01*
X20203944Y-16288304D02*
X20203944Y-16326399D01*
X20280135Y-16288304D02*
X20280135Y-16326399D01*
X20575373Y-16564494D02*
X20565849Y-16554970D01*
X20565849Y-16554970D02*
X20546801Y-16526399D01*
X20546801Y-16526399D02*
X20537278Y-16507351D01*
X20537278Y-16507351D02*
X20527754Y-16478780D01*
X20527754Y-16478780D02*
X20518230Y-16431161D01*
X20518230Y-16431161D02*
X20518230Y-16393066D01*
X20518230Y-16393066D02*
X20527754Y-16345447D01*
X20527754Y-16345447D02*
X20537278Y-16316875D01*
X20537278Y-16316875D02*
X20546801Y-16297828D01*
X20546801Y-16297828D02*
X20565849Y-16269256D01*
X20565849Y-16269256D02*
X20575373Y-16259732D01*
X20689659Y-16288304D02*
X20708706Y-16288304D01*
X20708706Y-16288304D02*
X20727754Y-16297828D01*
X20727754Y-16297828D02*
X20737278Y-16307351D01*
X20737278Y-16307351D02*
X20746801Y-16326399D01*
X20746801Y-16326399D02*
X20756325Y-16364494D01*
X20756325Y-16364494D02*
X20756325Y-16412113D01*
X20756325Y-16412113D02*
X20746801Y-16450208D01*
X20746801Y-16450208D02*
X20737278Y-16469256D01*
X20737278Y-16469256D02*
X20727754Y-16478780D01*
X20727754Y-16478780D02*
X20708706Y-16488304D01*
X20708706Y-16488304D02*
X20689659Y-16488304D01*
X20689659Y-16488304D02*
X20670611Y-16478780D01*
X20670611Y-16478780D02*
X20661087Y-16469256D01*
X20661087Y-16469256D02*
X20651563Y-16450208D01*
X20651563Y-16450208D02*
X20642040Y-16412113D01*
X20642040Y-16412113D02*
X20642040Y-16364494D01*
X20642040Y-16364494D02*
X20651563Y-16326399D01*
X20651563Y-16326399D02*
X20661087Y-16307351D01*
X20661087Y-16307351D02*
X20670611Y-16297828D01*
X20670611Y-16297828D02*
X20689659Y-16288304D01*
X20994421Y-16488304D02*
X20994421Y-16288304D01*
X21080135Y-16488304D02*
X21080135Y-16383542D01*
X21080135Y-16383542D02*
X21070611Y-16364494D01*
X21070611Y-16364494D02*
X21051563Y-16354970D01*
X21051563Y-16354970D02*
X21022992Y-16354970D01*
X21022992Y-16354970D02*
X21003944Y-16364494D01*
X21003944Y-16364494D02*
X20994421Y-16374018D01*
X21203944Y-16488304D02*
X21184897Y-16478780D01*
X21184897Y-16478780D02*
X21175373Y-16469256D01*
X21175373Y-16469256D02*
X21165849Y-16450208D01*
X21165849Y-16450208D02*
X21165849Y-16393066D01*
X21165849Y-16393066D02*
X21175373Y-16374018D01*
X21175373Y-16374018D02*
X21184897Y-16364494D01*
X21184897Y-16364494D02*
X21203944Y-16354970D01*
X21203944Y-16354970D02*
X21232516Y-16354970D01*
X21232516Y-16354970D02*
X21251563Y-16364494D01*
X21251563Y-16364494D02*
X21261087Y-16374018D01*
X21261087Y-16374018D02*
X21270611Y-16393066D01*
X21270611Y-16393066D02*
X21270611Y-16450208D01*
X21270611Y-16450208D02*
X21261087Y-16469256D01*
X21261087Y-16469256D02*
X21251563Y-16478780D01*
X21251563Y-16478780D02*
X21232516Y-16488304D01*
X21232516Y-16488304D02*
X21203944Y-16488304D01*
X21384897Y-16488304D02*
X21365849Y-16478780D01*
X21365849Y-16478780D02*
X21356325Y-16459732D01*
X21356325Y-16459732D02*
X21356325Y-16288304D01*
X21537278Y-16478780D02*
X21518230Y-16488304D01*
X21518230Y-16488304D02*
X21480135Y-16488304D01*
X21480135Y-16488304D02*
X21461087Y-16478780D01*
X21461087Y-16478780D02*
X21451563Y-16459732D01*
X21451563Y-16459732D02*
X21451563Y-16383542D01*
X21451563Y-16383542D02*
X21461087Y-16364494D01*
X21461087Y-16364494D02*
X21480135Y-16354970D01*
X21480135Y-16354970D02*
X21518230Y-16354970D01*
X21518230Y-16354970D02*
X21537278Y-16364494D01*
X21537278Y-16364494D02*
X21546802Y-16383542D01*
X21546802Y-16383542D02*
X21546802Y-16402589D01*
X21546802Y-16402589D02*
X21451563Y-16421637D01*
X21622992Y-16478780D02*
X21642040Y-16488304D01*
X21642040Y-16488304D02*
X21680135Y-16488304D01*
X21680135Y-16488304D02*
X21699183Y-16478780D01*
X21699183Y-16478780D02*
X21708706Y-16459732D01*
X21708706Y-16459732D02*
X21708706Y-16450208D01*
X21708706Y-16450208D02*
X21699183Y-16431161D01*
X21699183Y-16431161D02*
X21680135Y-16421637D01*
X21680135Y-16421637D02*
X21651563Y-16421637D01*
X21651563Y-16421637D02*
X21632516Y-16412113D01*
X21632516Y-16412113D02*
X21622992Y-16393066D01*
X21622992Y-16393066D02*
X21622992Y-16383542D01*
X21622992Y-16383542D02*
X21632516Y-16364494D01*
X21632516Y-16364494D02*
X21651563Y-16354970D01*
X21651563Y-16354970D02*
X21680135Y-16354970D01*
X21680135Y-16354970D02*
X21699183Y-16364494D01*
X21946802Y-16412113D02*
X22099183Y-16412113D01*
X22022992Y-16488304D02*
X22022992Y-16335923D01*
X22432516Y-16354970D02*
X22432516Y-16488304D01*
X22384897Y-16278780D02*
X22337278Y-16421637D01*
X22337278Y-16421637D02*
X22461087Y-16421637D01*
X22680135Y-16478780D02*
X22699183Y-16488304D01*
X22699183Y-16488304D02*
X22737278Y-16488304D01*
X22737278Y-16488304D02*
X22756325Y-16478780D01*
X22756325Y-16478780D02*
X22765849Y-16459732D01*
X22765849Y-16459732D02*
X22765849Y-16450208D01*
X22765849Y-16450208D02*
X22756325Y-16431161D01*
X22756325Y-16431161D02*
X22737278Y-16421637D01*
X22737278Y-16421637D02*
X22708706Y-16421637D01*
X22708706Y-16421637D02*
X22689659Y-16412113D01*
X22689659Y-16412113D02*
X22680135Y-16393066D01*
X22680135Y-16393066D02*
X22680135Y-16383542D01*
X22680135Y-16383542D02*
X22689659Y-16364494D01*
X22689659Y-16364494D02*
X22708706Y-16354970D01*
X22708706Y-16354970D02*
X22737278Y-16354970D01*
X22737278Y-16354970D02*
X22756325Y-16364494D01*
X22880135Y-16488304D02*
X22861087Y-16478780D01*
X22861087Y-16478780D02*
X22851564Y-16459732D01*
X22851564Y-16459732D02*
X22851564Y-16288304D01*
X22984897Y-16488304D02*
X22965849Y-16478780D01*
X22965849Y-16478780D02*
X22956325Y-16469256D01*
X22956325Y-16469256D02*
X22946802Y-16450208D01*
X22946802Y-16450208D02*
X22946802Y-16393066D01*
X22946802Y-16393066D02*
X22956325Y-16374018D01*
X22956325Y-16374018D02*
X22965849Y-16364494D01*
X22965849Y-16364494D02*
X22984897Y-16354970D01*
X22984897Y-16354970D02*
X23013468Y-16354970D01*
X23013468Y-16354970D02*
X23032516Y-16364494D01*
X23032516Y-16364494D02*
X23042040Y-16374018D01*
X23042040Y-16374018D02*
X23051564Y-16393066D01*
X23051564Y-16393066D02*
X23051564Y-16450208D01*
X23051564Y-16450208D02*
X23042040Y-16469256D01*
X23042040Y-16469256D02*
X23032516Y-16478780D01*
X23032516Y-16478780D02*
X23013468Y-16488304D01*
X23013468Y-16488304D02*
X22984897Y-16488304D01*
X23108706Y-16354970D02*
X23184897Y-16354970D01*
X23137278Y-16288304D02*
X23137278Y-16459732D01*
X23137278Y-16459732D02*
X23146802Y-16478780D01*
X23146802Y-16478780D02*
X23165849Y-16488304D01*
X23165849Y-16488304D02*
X23184897Y-16488304D01*
X23242040Y-16478780D02*
X23261087Y-16488304D01*
X23261087Y-16488304D02*
X23299183Y-16488304D01*
X23299183Y-16488304D02*
X23318230Y-16478780D01*
X23318230Y-16478780D02*
X23327754Y-16459732D01*
X23327754Y-16459732D02*
X23327754Y-16450208D01*
X23327754Y-16450208D02*
X23318230Y-16431161D01*
X23318230Y-16431161D02*
X23299183Y-16421637D01*
X23299183Y-16421637D02*
X23270611Y-16421637D01*
X23270611Y-16421637D02*
X23251564Y-16412113D01*
X23251564Y-16412113D02*
X23242040Y-16393066D01*
X23242040Y-16393066D02*
X23242040Y-16383542D01*
X23242040Y-16383542D02*
X23251564Y-16364494D01*
X23251564Y-16364494D02*
X23270611Y-16354970D01*
X23270611Y-16354970D02*
X23299183Y-16354970D01*
X23299183Y-16354970D02*
X23318230Y-16364494D01*
X23394421Y-16564494D02*
X23403945Y-16554970D01*
X23403945Y-16554970D02*
X23422992Y-16526399D01*
X23422992Y-16526399D02*
X23432516Y-16507351D01*
X23432516Y-16507351D02*
X23442040Y-16478780D01*
X23442040Y-16478780D02*
X23451564Y-16431161D01*
X23451564Y-16431161D02*
X23451564Y-16393066D01*
X23451564Y-16393066D02*
X23442040Y-16345447D01*
X23442040Y-16345447D02*
X23432516Y-16316875D01*
X23432516Y-16316875D02*
X23422992Y-16297828D01*
X23422992Y-16297828D02*
X23403945Y-16269256D01*
X23403945Y-16269256D02*
X23394421Y-16259732D01*
D10*
X16985666Y-16696176D02*
X16985666Y-16625464D01*
X16914954Y-16625464D01*
X16914954Y-16696176D01*
X16985666Y-16696176D01*
D11*
X17365849Y-16752304D02*
X17251563Y-16752304D01*
X17308706Y-16752304D02*
X17308706Y-16552304D01*
X17308706Y-16552304D02*
X17289658Y-16580875D01*
X17289658Y-16580875D02*
X17270611Y-16599923D01*
X17270611Y-16599923D02*
X17251563Y-16609447D01*
X17451563Y-16733256D02*
X17461087Y-16742780D01*
X17461087Y-16742780D02*
X17451563Y-16752304D01*
X17451563Y-16752304D02*
X17442039Y-16742780D01*
X17442039Y-16742780D02*
X17451563Y-16733256D01*
X17451563Y-16733256D02*
X17451563Y-16752304D01*
X17584896Y-16552304D02*
X17603944Y-16552304D01*
X17603944Y-16552304D02*
X17622992Y-16561828D01*
X17622992Y-16561828D02*
X17632515Y-16571351D01*
X17632515Y-16571351D02*
X17642039Y-16590399D01*
X17642039Y-16590399D02*
X17651563Y-16628494D01*
X17651563Y-16628494D02*
X17651563Y-16676113D01*
X17651563Y-16676113D02*
X17642039Y-16714208D01*
X17642039Y-16714208D02*
X17632515Y-16733256D01*
X17632515Y-16733256D02*
X17622992Y-16742780D01*
X17622992Y-16742780D02*
X17603944Y-16752304D01*
X17603944Y-16752304D02*
X17584896Y-16752304D01*
X17584896Y-16752304D02*
X17565849Y-16742780D01*
X17565849Y-16742780D02*
X17556325Y-16733256D01*
X17556325Y-16733256D02*
X17546801Y-16714208D01*
X17546801Y-16714208D02*
X17537277Y-16676113D01*
X17537277Y-16676113D02*
X17537277Y-16628494D01*
X17537277Y-16628494D02*
X17546801Y-16590399D01*
X17546801Y-16590399D02*
X17556325Y-16571351D01*
X17556325Y-16571351D02*
X17565849Y-16561828D01*
X17565849Y-16561828D02*
X17584896Y-16552304D01*
X17775373Y-16552304D02*
X17794420Y-16552304D01*
X17794420Y-16552304D02*
X17813468Y-16561828D01*
X17813468Y-16561828D02*
X17822992Y-16571351D01*
X17822992Y-16571351D02*
X17832515Y-16590399D01*
X17832515Y-16590399D02*
X17842039Y-16628494D01*
X17842039Y-16628494D02*
X17842039Y-16676113D01*
X17842039Y-16676113D02*
X17832515Y-16714208D01*
X17832515Y-16714208D02*
X17822992Y-16733256D01*
X17822992Y-16733256D02*
X17813468Y-16742780D01*
X17813468Y-16742780D02*
X17794420Y-16752304D01*
X17794420Y-16752304D02*
X17775373Y-16752304D01*
X17775373Y-16752304D02*
X17756325Y-16742780D01*
X17756325Y-16742780D02*
X17746801Y-16733256D01*
X17746801Y-16733256D02*
X17737277Y-16714208D01*
X17737277Y-16714208D02*
X17727754Y-16676113D01*
X17727754Y-16676113D02*
X17727754Y-16628494D01*
X17727754Y-16628494D02*
X17737277Y-16590399D01*
X17737277Y-16590399D02*
X17746801Y-16571351D01*
X17746801Y-16571351D02*
X17756325Y-16561828D01*
X17756325Y-16561828D02*
X17775373Y-16552304D01*
X17965849Y-16552304D02*
X17984896Y-16552304D01*
X17984896Y-16552304D02*
X18003944Y-16561828D01*
X18003944Y-16561828D02*
X18013468Y-16571351D01*
X18013468Y-16571351D02*
X18022992Y-16590399D01*
X18022992Y-16590399D02*
X18032515Y-16628494D01*
X18032515Y-16628494D02*
X18032515Y-16676113D01*
X18032515Y-16676113D02*
X18022992Y-16714208D01*
X18022992Y-16714208D02*
X18013468Y-16733256D01*
X18013468Y-16733256D02*
X18003944Y-16742780D01*
X18003944Y-16742780D02*
X17984896Y-16752304D01*
X17984896Y-16752304D02*
X17965849Y-16752304D01*
X17965849Y-16752304D02*
X17946801Y-16742780D01*
X17946801Y-16742780D02*
X17937277Y-16733256D01*
X17937277Y-16733256D02*
X17927754Y-16714208D01*
X17927754Y-16714208D02*
X17918230Y-16676113D01*
X17918230Y-16676113D02*
X17918230Y-16628494D01*
X17918230Y-16628494D02*
X17927754Y-16590399D01*
X17927754Y-16590399D02*
X17937277Y-16571351D01*
X17937277Y-16571351D02*
X17946801Y-16561828D01*
X17946801Y-16561828D02*
X17965849Y-16552304D01*
X18118230Y-16752304D02*
X18118230Y-16618970D01*
X18118230Y-16638018D02*
X18127754Y-16628494D01*
X18127754Y-16628494D02*
X18146801Y-16618970D01*
X18146801Y-16618970D02*
X18175373Y-16618970D01*
X18175373Y-16618970D02*
X18194420Y-16628494D01*
X18194420Y-16628494D02*
X18203944Y-16647542D01*
X18203944Y-16647542D02*
X18203944Y-16752304D01*
X18203944Y-16647542D02*
X18213468Y-16628494D01*
X18213468Y-16628494D02*
X18232515Y-16618970D01*
X18232515Y-16618970D02*
X18261087Y-16618970D01*
X18261087Y-16618970D02*
X18280135Y-16628494D01*
X18280135Y-16628494D02*
X18289658Y-16647542D01*
X18289658Y-16647542D02*
X18289658Y-16752304D01*
X18384896Y-16752304D02*
X18384896Y-16618970D01*
X18384896Y-16638018D02*
X18394420Y-16628494D01*
X18394420Y-16628494D02*
X18413468Y-16618970D01*
X18413468Y-16618970D02*
X18442039Y-16618970D01*
X18442039Y-16618970D02*
X18461087Y-16628494D01*
X18461087Y-16628494D02*
X18470611Y-16647542D01*
X18470611Y-16647542D02*
X18470611Y-16752304D01*
X18470611Y-16647542D02*
X18480135Y-16628494D01*
X18480135Y-16628494D02*
X18499182Y-16618970D01*
X18499182Y-16618970D02*
X18527754Y-16618970D01*
X18527754Y-16618970D02*
X18546801Y-16628494D01*
X18546801Y-16628494D02*
X18556325Y-16647542D01*
X18556325Y-16647542D02*
X18556325Y-16752304D01*
X18946801Y-16542780D02*
X18775373Y-16799923D01*
X19203944Y-16552304D02*
X19222992Y-16552304D01*
X19222992Y-16552304D02*
X19242039Y-16561828D01*
X19242039Y-16561828D02*
X19251563Y-16571351D01*
X19251563Y-16571351D02*
X19261087Y-16590399D01*
X19261087Y-16590399D02*
X19270611Y-16628494D01*
X19270611Y-16628494D02*
X19270611Y-16676113D01*
X19270611Y-16676113D02*
X19261087Y-16714208D01*
X19261087Y-16714208D02*
X19251563Y-16733256D01*
X19251563Y-16733256D02*
X19242039Y-16742780D01*
X19242039Y-16742780D02*
X19222992Y-16752304D01*
X19222992Y-16752304D02*
X19203944Y-16752304D01*
X19203944Y-16752304D02*
X19184897Y-16742780D01*
X19184897Y-16742780D02*
X19175373Y-16733256D01*
X19175373Y-16733256D02*
X19165849Y-16714208D01*
X19165849Y-16714208D02*
X19156325Y-16676113D01*
X19156325Y-16676113D02*
X19156325Y-16628494D01*
X19156325Y-16628494D02*
X19165849Y-16590399D01*
X19165849Y-16590399D02*
X19175373Y-16571351D01*
X19175373Y-16571351D02*
X19184897Y-16561828D01*
X19184897Y-16561828D02*
X19203944Y-16552304D01*
X19356325Y-16733256D02*
X19365849Y-16742780D01*
X19365849Y-16742780D02*
X19356325Y-16752304D01*
X19356325Y-16752304D02*
X19346801Y-16742780D01*
X19346801Y-16742780D02*
X19356325Y-16733256D01*
X19356325Y-16733256D02*
X19356325Y-16752304D01*
X19489658Y-16552304D02*
X19508706Y-16552304D01*
X19508706Y-16552304D02*
X19527754Y-16561828D01*
X19527754Y-16561828D02*
X19537278Y-16571351D01*
X19537278Y-16571351D02*
X19546801Y-16590399D01*
X19546801Y-16590399D02*
X19556325Y-16628494D01*
X19556325Y-16628494D02*
X19556325Y-16676113D01*
X19556325Y-16676113D02*
X19546801Y-16714208D01*
X19546801Y-16714208D02*
X19537278Y-16733256D01*
X19537278Y-16733256D02*
X19527754Y-16742780D01*
X19527754Y-16742780D02*
X19508706Y-16752304D01*
X19508706Y-16752304D02*
X19489658Y-16752304D01*
X19489658Y-16752304D02*
X19470611Y-16742780D01*
X19470611Y-16742780D02*
X19461087Y-16733256D01*
X19461087Y-16733256D02*
X19451563Y-16714208D01*
X19451563Y-16714208D02*
X19442039Y-16676113D01*
X19442039Y-16676113D02*
X19442039Y-16628494D01*
X19442039Y-16628494D02*
X19451563Y-16590399D01*
X19451563Y-16590399D02*
X19461087Y-16571351D01*
X19461087Y-16571351D02*
X19470611Y-16561828D01*
X19470611Y-16561828D02*
X19489658Y-16552304D01*
X19622992Y-16552304D02*
X19746801Y-16552304D01*
X19746801Y-16552304D02*
X19680135Y-16628494D01*
X19680135Y-16628494D02*
X19708706Y-16628494D01*
X19708706Y-16628494D02*
X19727754Y-16638018D01*
X19727754Y-16638018D02*
X19737278Y-16647542D01*
X19737278Y-16647542D02*
X19746801Y-16666589D01*
X19746801Y-16666589D02*
X19746801Y-16714208D01*
X19746801Y-16714208D02*
X19737278Y-16733256D01*
X19737278Y-16733256D02*
X19727754Y-16742780D01*
X19727754Y-16742780D02*
X19708706Y-16752304D01*
X19708706Y-16752304D02*
X19651563Y-16752304D01*
X19651563Y-16752304D02*
X19632516Y-16742780D01*
X19632516Y-16742780D02*
X19622992Y-16733256D01*
X19842039Y-16752304D02*
X19880135Y-16752304D01*
X19880135Y-16752304D02*
X19899182Y-16742780D01*
X19899182Y-16742780D02*
X19908706Y-16733256D01*
X19908706Y-16733256D02*
X19927754Y-16704685D01*
X19927754Y-16704685D02*
X19937278Y-16666589D01*
X19937278Y-16666589D02*
X19937278Y-16590399D01*
X19937278Y-16590399D02*
X19927754Y-16571351D01*
X19927754Y-16571351D02*
X19918230Y-16561828D01*
X19918230Y-16561828D02*
X19899182Y-16552304D01*
X19899182Y-16552304D02*
X19861087Y-16552304D01*
X19861087Y-16552304D02*
X19842039Y-16561828D01*
X19842039Y-16561828D02*
X19832516Y-16571351D01*
X19832516Y-16571351D02*
X19822992Y-16590399D01*
X19822992Y-16590399D02*
X19822992Y-16638018D01*
X19822992Y-16638018D02*
X19832516Y-16657066D01*
X19832516Y-16657066D02*
X19842039Y-16666589D01*
X19842039Y-16666589D02*
X19861087Y-16676113D01*
X19861087Y-16676113D02*
X19899182Y-16676113D01*
X19899182Y-16676113D02*
X19918230Y-16666589D01*
X19918230Y-16666589D02*
X19927754Y-16657066D01*
X19927754Y-16657066D02*
X19937278Y-16638018D01*
X20108706Y-16618970D02*
X20108706Y-16752304D01*
X20061087Y-16542780D02*
X20013468Y-16685637D01*
X20013468Y-16685637D02*
X20137278Y-16685637D01*
X20203944Y-16552304D02*
X20203944Y-16590399D01*
X20280135Y-16552304D02*
X20280135Y-16590399D01*
X20575373Y-16828494D02*
X20565849Y-16818970D01*
X20565849Y-16818970D02*
X20546801Y-16790399D01*
X20546801Y-16790399D02*
X20537278Y-16771351D01*
X20537278Y-16771351D02*
X20527754Y-16742780D01*
X20527754Y-16742780D02*
X20518230Y-16695161D01*
X20518230Y-16695161D02*
X20518230Y-16657066D01*
X20518230Y-16657066D02*
X20527754Y-16609447D01*
X20527754Y-16609447D02*
X20537278Y-16580875D01*
X20537278Y-16580875D02*
X20546801Y-16561828D01*
X20546801Y-16561828D02*
X20565849Y-16533256D01*
X20565849Y-16533256D02*
X20575373Y-16523732D01*
X20756325Y-16752304D02*
X20642040Y-16752304D01*
X20699182Y-16752304D02*
X20699182Y-16552304D01*
X20699182Y-16552304D02*
X20680135Y-16580875D01*
X20680135Y-16580875D02*
X20661087Y-16599923D01*
X20661087Y-16599923D02*
X20642040Y-16609447D01*
X20822992Y-16552304D02*
X20956325Y-16552304D01*
X20956325Y-16552304D02*
X20870611Y-16752304D01*
X21184897Y-16752304D02*
X21184897Y-16552304D01*
X21270611Y-16752304D02*
X21270611Y-16647542D01*
X21270611Y-16647542D02*
X21261087Y-16628494D01*
X21261087Y-16628494D02*
X21242040Y-16618970D01*
X21242040Y-16618970D02*
X21213468Y-16618970D01*
X21213468Y-16618970D02*
X21194421Y-16628494D01*
X21194421Y-16628494D02*
X21184897Y-16638018D01*
X21394421Y-16752304D02*
X21375373Y-16742780D01*
X21375373Y-16742780D02*
X21365849Y-16733256D01*
X21365849Y-16733256D02*
X21356325Y-16714208D01*
X21356325Y-16714208D02*
X21356325Y-16657066D01*
X21356325Y-16657066D02*
X21365849Y-16638018D01*
X21365849Y-16638018D02*
X21375373Y-16628494D01*
X21375373Y-16628494D02*
X21394421Y-16618970D01*
X21394421Y-16618970D02*
X21422992Y-16618970D01*
X21422992Y-16618970D02*
X21442040Y-16628494D01*
X21442040Y-16628494D02*
X21451563Y-16638018D01*
X21451563Y-16638018D02*
X21461087Y-16657066D01*
X21461087Y-16657066D02*
X21461087Y-16714208D01*
X21461087Y-16714208D02*
X21451563Y-16733256D01*
X21451563Y-16733256D02*
X21442040Y-16742780D01*
X21442040Y-16742780D02*
X21422992Y-16752304D01*
X21422992Y-16752304D02*
X21394421Y-16752304D01*
X21575373Y-16752304D02*
X21556325Y-16742780D01*
X21556325Y-16742780D02*
X21546802Y-16723732D01*
X21546802Y-16723732D02*
X21546802Y-16552304D01*
X21727754Y-16742780D02*
X21708706Y-16752304D01*
X21708706Y-16752304D02*
X21670611Y-16752304D01*
X21670611Y-16752304D02*
X21651563Y-16742780D01*
X21651563Y-16742780D02*
X21642040Y-16723732D01*
X21642040Y-16723732D02*
X21642040Y-16647542D01*
X21642040Y-16647542D02*
X21651563Y-16628494D01*
X21651563Y-16628494D02*
X21670611Y-16618970D01*
X21670611Y-16618970D02*
X21708706Y-16618970D01*
X21708706Y-16618970D02*
X21727754Y-16628494D01*
X21727754Y-16628494D02*
X21737278Y-16647542D01*
X21737278Y-16647542D02*
X21737278Y-16666589D01*
X21737278Y-16666589D02*
X21642040Y-16685637D01*
X21813468Y-16742780D02*
X21832516Y-16752304D01*
X21832516Y-16752304D02*
X21870611Y-16752304D01*
X21870611Y-16752304D02*
X21889659Y-16742780D01*
X21889659Y-16742780D02*
X21899183Y-16723732D01*
X21899183Y-16723732D02*
X21899183Y-16714208D01*
X21899183Y-16714208D02*
X21889659Y-16695161D01*
X21889659Y-16695161D02*
X21870611Y-16685637D01*
X21870611Y-16685637D02*
X21842040Y-16685637D01*
X21842040Y-16685637D02*
X21822992Y-16676113D01*
X21822992Y-16676113D02*
X21813468Y-16657066D01*
X21813468Y-16657066D02*
X21813468Y-16647542D01*
X21813468Y-16647542D02*
X21822992Y-16628494D01*
X21822992Y-16628494D02*
X21842040Y-16618970D01*
X21842040Y-16618970D02*
X21870611Y-16618970D01*
X21870611Y-16618970D02*
X21889659Y-16628494D01*
X21965849Y-16828494D02*
X21975373Y-16818970D01*
X21975373Y-16818970D02*
X21994421Y-16790399D01*
X21994421Y-16790399D02*
X22003944Y-16771351D01*
X22003944Y-16771351D02*
X22013468Y-16742780D01*
X22013468Y-16742780D02*
X22022992Y-16695161D01*
X22022992Y-16695161D02*
X22022992Y-16657066D01*
X22022992Y-16657066D02*
X22013468Y-16609447D01*
X22013468Y-16609447D02*
X22003944Y-16580875D01*
X22003944Y-16580875D02*
X21994421Y-16561828D01*
X21994421Y-16561828D02*
X21975373Y-16533256D01*
X21975373Y-16533256D02*
X21965849Y-16523732D01*
D12*
X16947810Y-16977320D02*
X17000310Y-16924820D01*
X16947810Y-16872320D01*
X16895310Y-16924820D01*
X16947810Y-16977320D01*
D11*
X17365849Y-17016304D02*
X17251563Y-17016304D01*
X17308706Y-17016304D02*
X17308706Y-16816304D01*
X17308706Y-16816304D02*
X17289658Y-16844875D01*
X17289658Y-16844875D02*
X17270611Y-16863923D01*
X17270611Y-16863923D02*
X17251563Y-16873447D01*
X17451563Y-16997256D02*
X17461087Y-17006780D01*
X17461087Y-17006780D02*
X17451563Y-17016304D01*
X17451563Y-17016304D02*
X17442039Y-17006780D01*
X17442039Y-17006780D02*
X17451563Y-16997256D01*
X17451563Y-16997256D02*
X17451563Y-17016304D01*
X17584896Y-16816304D02*
X17603944Y-16816304D01*
X17603944Y-16816304D02*
X17622992Y-16825828D01*
X17622992Y-16825828D02*
X17632515Y-16835351D01*
X17632515Y-16835351D02*
X17642039Y-16854399D01*
X17642039Y-16854399D02*
X17651563Y-16892494D01*
X17651563Y-16892494D02*
X17651563Y-16940113D01*
X17651563Y-16940113D02*
X17642039Y-16978209D01*
X17642039Y-16978209D02*
X17632515Y-16997256D01*
X17632515Y-16997256D02*
X17622992Y-17006780D01*
X17622992Y-17006780D02*
X17603944Y-17016304D01*
X17603944Y-17016304D02*
X17584896Y-17016304D01*
X17584896Y-17016304D02*
X17565849Y-17006780D01*
X17565849Y-17006780D02*
X17556325Y-16997256D01*
X17556325Y-16997256D02*
X17546801Y-16978209D01*
X17546801Y-16978209D02*
X17537277Y-16940113D01*
X17537277Y-16940113D02*
X17537277Y-16892494D01*
X17537277Y-16892494D02*
X17546801Y-16854399D01*
X17546801Y-16854399D02*
X17556325Y-16835351D01*
X17556325Y-16835351D02*
X17565849Y-16825828D01*
X17565849Y-16825828D02*
X17584896Y-16816304D01*
X17832515Y-16816304D02*
X17737277Y-16816304D01*
X17737277Y-16816304D02*
X17727754Y-16911542D01*
X17727754Y-16911542D02*
X17737277Y-16902018D01*
X17737277Y-16902018D02*
X17756325Y-16892494D01*
X17756325Y-16892494D02*
X17803944Y-16892494D01*
X17803944Y-16892494D02*
X17822992Y-16902018D01*
X17822992Y-16902018D02*
X17832515Y-16911542D01*
X17832515Y-16911542D02*
X17842039Y-16930590D01*
X17842039Y-16930590D02*
X17842039Y-16978209D01*
X17842039Y-16978209D02*
X17832515Y-16997256D01*
X17832515Y-16997256D02*
X17822992Y-17006780D01*
X17822992Y-17006780D02*
X17803944Y-17016304D01*
X17803944Y-17016304D02*
X17756325Y-17016304D01*
X17756325Y-17016304D02*
X17737277Y-17006780D01*
X17737277Y-17006780D02*
X17727754Y-16997256D01*
X17965849Y-16816304D02*
X17984896Y-16816304D01*
X17984896Y-16816304D02*
X18003944Y-16825828D01*
X18003944Y-16825828D02*
X18013468Y-16835351D01*
X18013468Y-16835351D02*
X18022992Y-16854399D01*
X18022992Y-16854399D02*
X18032515Y-16892494D01*
X18032515Y-16892494D02*
X18032515Y-16940113D01*
X18032515Y-16940113D02*
X18022992Y-16978209D01*
X18022992Y-16978209D02*
X18013468Y-16997256D01*
X18013468Y-16997256D02*
X18003944Y-17006780D01*
X18003944Y-17006780D02*
X17984896Y-17016304D01*
X17984896Y-17016304D02*
X17965849Y-17016304D01*
X17965849Y-17016304D02*
X17946801Y-17006780D01*
X17946801Y-17006780D02*
X17937277Y-16997256D01*
X17937277Y-16997256D02*
X17927754Y-16978209D01*
X17927754Y-16978209D02*
X17918230Y-16940113D01*
X17918230Y-16940113D02*
X17918230Y-16892494D01*
X17918230Y-16892494D02*
X17927754Y-16854399D01*
X17927754Y-16854399D02*
X17937277Y-16835351D01*
X17937277Y-16835351D02*
X17946801Y-16825828D01*
X17946801Y-16825828D02*
X17965849Y-16816304D01*
X18118230Y-17016304D02*
X18118230Y-16882970D01*
X18118230Y-16902018D02*
X18127754Y-16892494D01*
X18127754Y-16892494D02*
X18146801Y-16882970D01*
X18146801Y-16882970D02*
X18175373Y-16882970D01*
X18175373Y-16882970D02*
X18194420Y-16892494D01*
X18194420Y-16892494D02*
X18203944Y-16911542D01*
X18203944Y-16911542D02*
X18203944Y-17016304D01*
X18203944Y-16911542D02*
X18213468Y-16892494D01*
X18213468Y-16892494D02*
X18232515Y-16882970D01*
X18232515Y-16882970D02*
X18261087Y-16882970D01*
X18261087Y-16882970D02*
X18280135Y-16892494D01*
X18280135Y-16892494D02*
X18289658Y-16911542D01*
X18289658Y-16911542D02*
X18289658Y-17016304D01*
X18384896Y-17016304D02*
X18384896Y-16882970D01*
X18384896Y-16902018D02*
X18394420Y-16892494D01*
X18394420Y-16892494D02*
X18413468Y-16882970D01*
X18413468Y-16882970D02*
X18442039Y-16882970D01*
X18442039Y-16882970D02*
X18461087Y-16892494D01*
X18461087Y-16892494D02*
X18470611Y-16911542D01*
X18470611Y-16911542D02*
X18470611Y-17016304D01*
X18470611Y-16911542D02*
X18480135Y-16892494D01*
X18480135Y-16892494D02*
X18499182Y-16882970D01*
X18499182Y-16882970D02*
X18527754Y-16882970D01*
X18527754Y-16882970D02*
X18546801Y-16892494D01*
X18546801Y-16892494D02*
X18556325Y-16911542D01*
X18556325Y-16911542D02*
X18556325Y-17016304D01*
X18946801Y-16806780D02*
X18775373Y-17063923D01*
X19203944Y-16816304D02*
X19222992Y-16816304D01*
X19222992Y-16816304D02*
X19242039Y-16825828D01*
X19242039Y-16825828D02*
X19251563Y-16835351D01*
X19251563Y-16835351D02*
X19261087Y-16854399D01*
X19261087Y-16854399D02*
X19270611Y-16892494D01*
X19270611Y-16892494D02*
X19270611Y-16940113D01*
X19270611Y-16940113D02*
X19261087Y-16978209D01*
X19261087Y-16978209D02*
X19251563Y-16997256D01*
X19251563Y-16997256D02*
X19242039Y-17006780D01*
X19242039Y-17006780D02*
X19222992Y-17016304D01*
X19222992Y-17016304D02*
X19203944Y-17016304D01*
X19203944Y-17016304D02*
X19184897Y-17006780D01*
X19184897Y-17006780D02*
X19175373Y-16997256D01*
X19175373Y-16997256D02*
X19165849Y-16978209D01*
X19165849Y-16978209D02*
X19156325Y-16940113D01*
X19156325Y-16940113D02*
X19156325Y-16892494D01*
X19156325Y-16892494D02*
X19165849Y-16854399D01*
X19165849Y-16854399D02*
X19175373Y-16835351D01*
X19175373Y-16835351D02*
X19184897Y-16825828D01*
X19184897Y-16825828D02*
X19203944Y-16816304D01*
X19356325Y-16997256D02*
X19365849Y-17006780D01*
X19365849Y-17006780D02*
X19356325Y-17016304D01*
X19356325Y-17016304D02*
X19346801Y-17006780D01*
X19346801Y-17006780D02*
X19356325Y-16997256D01*
X19356325Y-16997256D02*
X19356325Y-17016304D01*
X19489658Y-16816304D02*
X19508706Y-16816304D01*
X19508706Y-16816304D02*
X19527754Y-16825828D01*
X19527754Y-16825828D02*
X19537278Y-16835351D01*
X19537278Y-16835351D02*
X19546801Y-16854399D01*
X19546801Y-16854399D02*
X19556325Y-16892494D01*
X19556325Y-16892494D02*
X19556325Y-16940113D01*
X19556325Y-16940113D02*
X19546801Y-16978209D01*
X19546801Y-16978209D02*
X19537278Y-16997256D01*
X19537278Y-16997256D02*
X19527754Y-17006780D01*
X19527754Y-17006780D02*
X19508706Y-17016304D01*
X19508706Y-17016304D02*
X19489658Y-17016304D01*
X19489658Y-17016304D02*
X19470611Y-17006780D01*
X19470611Y-17006780D02*
X19461087Y-16997256D01*
X19461087Y-16997256D02*
X19451563Y-16978209D01*
X19451563Y-16978209D02*
X19442039Y-16940113D01*
X19442039Y-16940113D02*
X19442039Y-16892494D01*
X19442039Y-16892494D02*
X19451563Y-16854399D01*
X19451563Y-16854399D02*
X19461087Y-16835351D01*
X19461087Y-16835351D02*
X19470611Y-16825828D01*
X19470611Y-16825828D02*
X19489658Y-16816304D01*
X19727754Y-16882970D02*
X19727754Y-17016304D01*
X19680135Y-16806780D02*
X19632516Y-16949637D01*
X19632516Y-16949637D02*
X19756325Y-16949637D01*
X19937278Y-17016304D02*
X19822992Y-17016304D01*
X19880135Y-17016304D02*
X19880135Y-16816304D01*
X19880135Y-16816304D02*
X19861087Y-16844875D01*
X19861087Y-16844875D02*
X19842039Y-16863923D01*
X19842039Y-16863923D02*
X19822992Y-16873447D01*
X20003944Y-16816304D02*
X20127754Y-16816304D01*
X20127754Y-16816304D02*
X20061087Y-16892494D01*
X20061087Y-16892494D02*
X20089659Y-16892494D01*
X20089659Y-16892494D02*
X20108706Y-16902018D01*
X20108706Y-16902018D02*
X20118230Y-16911542D01*
X20118230Y-16911542D02*
X20127754Y-16930590D01*
X20127754Y-16930590D02*
X20127754Y-16978209D01*
X20127754Y-16978209D02*
X20118230Y-16997256D01*
X20118230Y-16997256D02*
X20108706Y-17006780D01*
X20108706Y-17006780D02*
X20089659Y-17016304D01*
X20089659Y-17016304D02*
X20032516Y-17016304D01*
X20032516Y-17016304D02*
X20013468Y-17006780D01*
X20013468Y-17006780D02*
X20003944Y-16997256D01*
X20203944Y-16816304D02*
X20203944Y-16854399D01*
X20280135Y-16816304D02*
X20280135Y-16854399D01*
X20575373Y-17092494D02*
X20565849Y-17082970D01*
X20565849Y-17082970D02*
X20546801Y-17054399D01*
X20546801Y-17054399D02*
X20537278Y-17035351D01*
X20537278Y-17035351D02*
X20527754Y-17006780D01*
X20527754Y-17006780D02*
X20518230Y-16959161D01*
X20518230Y-16959161D02*
X20518230Y-16921066D01*
X20518230Y-16921066D02*
X20527754Y-16873447D01*
X20527754Y-16873447D02*
X20537278Y-16844875D01*
X20537278Y-16844875D02*
X20546801Y-16825828D01*
X20546801Y-16825828D02*
X20565849Y-16797256D01*
X20565849Y-16797256D02*
X20575373Y-16787732D01*
X20642040Y-16835351D02*
X20651563Y-16825828D01*
X20651563Y-16825828D02*
X20670611Y-16816304D01*
X20670611Y-16816304D02*
X20718230Y-16816304D01*
X20718230Y-16816304D02*
X20737278Y-16825828D01*
X20737278Y-16825828D02*
X20746801Y-16835351D01*
X20746801Y-16835351D02*
X20756325Y-16854399D01*
X20756325Y-16854399D02*
X20756325Y-16873447D01*
X20756325Y-16873447D02*
X20746801Y-16902018D01*
X20746801Y-16902018D02*
X20632516Y-17016304D01*
X20632516Y-17016304D02*
X20756325Y-17016304D01*
X20994421Y-17016304D02*
X20994421Y-16816304D01*
X21080135Y-17016304D02*
X21080135Y-16911542D01*
X21080135Y-16911542D02*
X21070611Y-16892494D01*
X21070611Y-16892494D02*
X21051563Y-16882970D01*
X21051563Y-16882970D02*
X21022992Y-16882970D01*
X21022992Y-16882970D02*
X21003944Y-16892494D01*
X21003944Y-16892494D02*
X20994421Y-16902018D01*
X21203944Y-17016304D02*
X21184897Y-17006780D01*
X21184897Y-17006780D02*
X21175373Y-16997256D01*
X21175373Y-16997256D02*
X21165849Y-16978209D01*
X21165849Y-16978209D02*
X21165849Y-16921066D01*
X21165849Y-16921066D02*
X21175373Y-16902018D01*
X21175373Y-16902018D02*
X21184897Y-16892494D01*
X21184897Y-16892494D02*
X21203944Y-16882970D01*
X21203944Y-16882970D02*
X21232516Y-16882970D01*
X21232516Y-16882970D02*
X21251563Y-16892494D01*
X21251563Y-16892494D02*
X21261087Y-16902018D01*
X21261087Y-16902018D02*
X21270611Y-16921066D01*
X21270611Y-16921066D02*
X21270611Y-16978209D01*
X21270611Y-16978209D02*
X21261087Y-16997256D01*
X21261087Y-16997256D02*
X21251563Y-17006780D01*
X21251563Y-17006780D02*
X21232516Y-17016304D01*
X21232516Y-17016304D02*
X21203944Y-17016304D01*
X21384897Y-17016304D02*
X21365849Y-17006780D01*
X21365849Y-17006780D02*
X21356325Y-16987732D01*
X21356325Y-16987732D02*
X21356325Y-16816304D01*
X21537278Y-17006780D02*
X21518230Y-17016304D01*
X21518230Y-17016304D02*
X21480135Y-17016304D01*
X21480135Y-17016304D02*
X21461087Y-17006780D01*
X21461087Y-17006780D02*
X21451563Y-16987732D01*
X21451563Y-16987732D02*
X21451563Y-16911542D01*
X21451563Y-16911542D02*
X21461087Y-16892494D01*
X21461087Y-16892494D02*
X21480135Y-16882970D01*
X21480135Y-16882970D02*
X21518230Y-16882970D01*
X21518230Y-16882970D02*
X21537278Y-16892494D01*
X21537278Y-16892494D02*
X21546802Y-16911542D01*
X21546802Y-16911542D02*
X21546802Y-16930590D01*
X21546802Y-16930590D02*
X21451563Y-16949637D01*
X21622992Y-17006780D02*
X21642040Y-17016304D01*
X21642040Y-17016304D02*
X21680135Y-17016304D01*
X21680135Y-17016304D02*
X21699183Y-17006780D01*
X21699183Y-17006780D02*
X21708706Y-16987732D01*
X21708706Y-16987732D02*
X21708706Y-16978209D01*
X21708706Y-16978209D02*
X21699183Y-16959161D01*
X21699183Y-16959161D02*
X21680135Y-16949637D01*
X21680135Y-16949637D02*
X21651563Y-16949637D01*
X21651563Y-16949637D02*
X21632516Y-16940113D01*
X21632516Y-16940113D02*
X21622992Y-16921066D01*
X21622992Y-16921066D02*
X21622992Y-16911542D01*
X21622992Y-16911542D02*
X21632516Y-16892494D01*
X21632516Y-16892494D02*
X21651563Y-16882970D01*
X21651563Y-16882970D02*
X21680135Y-16882970D01*
X21680135Y-16882970D02*
X21699183Y-16892494D01*
X21775373Y-17092494D02*
X21784897Y-17082970D01*
X21784897Y-17082970D02*
X21803944Y-17054399D01*
X21803944Y-17054399D02*
X21813468Y-17035351D01*
X21813468Y-17035351D02*
X21822992Y-17006780D01*
X21822992Y-17006780D02*
X21832516Y-16959161D01*
X21832516Y-16959161D02*
X21832516Y-16921066D01*
X21832516Y-16921066D02*
X21822992Y-16873447D01*
X21822992Y-16873447D02*
X21813468Y-16844875D01*
X21813468Y-16844875D02*
X21803944Y-16825828D01*
X21803944Y-16825828D02*
X21784897Y-16797256D01*
X21784897Y-16797256D02*
X21775373Y-16787732D01*
M02*
